<?xml version="1.0" encoding="UTF-8"?>
<svg xmlns="http://www.w3.org/2000/svg" width="1600" height="900" viewBox="0 0 1600 900" fill="none">

<defs>
	<linearGradient id="bg-sql-api-for-everyone-wide-3-final" x1="0%" y1="0%" x2="100%" y2="100%">
		<stop offset="0%" stop-color="#04070c"/>
		<stop offset="42%" stop-color="#07111d"/>
		<stop offset="100%" stop-color="#030509"/>
	</linearGradient>
	<radialGradient id="glow-sql-api-for-everyone-wide-3-final" cx="0.35" cy="0.5" r="0.56">
		<stop offset="0%" stop-color="#7dd3fc" stop-opacity="0.22"/>
		<stop offset="48%" stop-color="#60a5fa" stop-opacity="0.12"/>
		<stop offset="100%" stop-color="#05070c" stop-opacity="0"/>
	</radialGradient>
	<linearGradient id="panel-sql-api-for-everyone-wide-3-final" x1="0%" y1="0%" x2="100%" y2="100%">
		<stop offset="0%" stop-color="#0d1726" stop-opacity="0.94"/>
		<stop offset="100%" stop-color="#08101b" stop-opacity="0.58"/>
	</linearGradient>
	<linearGradient id="edge-sql-api-for-everyone-wide-3-final" x1="0%" y1="0%" x2="100%" y2="0%">
		<stop offset="0%" stop-color="#ffffff" stop-opacity="0"/>
		<stop offset="50%" stop-color="#ffffff" stop-opacity="0.18"/>
		<stop offset="100%" stop-color="#ffffff" stop-opacity="0"/>
	</linearGradient>
	<pattern id="grid-sql-api-for-everyone-wide-3-final" width="133.33" height="90" patternUnits="userSpaceOnUse">
		<path d="M 133.33 0 L 0 0 0 90" fill="none" stroke="#7dd3fc" stroke-opacity="0.08" stroke-width="1"/>
	</pattern>
</defs>
<title>sql-api-for-everyone wide final</title>
<desc>Architectural table planes and elegant query lines that suggest structured access through SQL.</desc>

	<rect x="0" y="0" width="1600" height="900" fill="url(#bg-sql-api-for-everyone-wide-3-final)"/>
	<rect x="0" y="0" width="1600" height="900" fill="url(#glow-sql-api-for-everyone-wide-3-final)"/>
	<rect x="0" y="0" width="1600" height="900" fill="url(#grid-sql-api-for-everyone-wide-3-final)" opacity="0.42"/>
	<rect x="31.5" y="31.5" width="1537" height="837" rx="28.35" fill="none" stroke="rgba(148,163,184,0.16)" stroke-width="1.5"/>
	<line x1="31.5" y1="53.55" x2="31.5" y2="31.5" stroke="rgba(255,255,255,0.24)" stroke-width="2"/>
	<line x1="31.5" y1="31.5" x2="53.55" y2="31.5" stroke="rgba(255,255,255,0.24)" stroke-width="2"/>
	<line x1="1546.45" y1="31.5" x2="1568.5" y2="31.5" stroke="rgba(255,255,255,0.24)" stroke-width="2"/>
	<line x1="1568.5" y1="31.5" x2="1568.5" y2="53.55" stroke="rgba(255,255,255,0.24)" stroke-width="2"/>
	<line x1="31.5" y1="846.45" x2="31.5" y2="868.5" stroke="rgba(255,255,255,0.24)" stroke-width="2"/>
	<line x1="31.5" y1="868.5" x2="53.55" y2="868.5" stroke="rgba(255,255,255,0.24)" stroke-width="2"/>
	<line x1="1546.45" y1="868.5" x2="1568.5" y2="868.5" stroke="rgba(255,255,255,0.24)" stroke-width="2"/>
	<line x1="1568.5" y1="846.45" x2="1568.5" y2="868.5" stroke="rgba(255,255,255,0.24)" stroke-width="2"/>
	<rect x="45.68" y="45.68" width="1508.65" height="808.65" rx="23.63" fill="none" stroke="url(#edge-sql-api-for-everyone-wide-3-final)" stroke-width="1"/>

<g><circle cx="1472.02" cy="132.41" r="1.09" fill="#60a5fa" opacity="0.18"/><circle cx="1454.08" cy="617.59" r="2.77" fill="#f8fafc" opacity="0.21"/><circle cx="1135.11" cy="655.66" r="2.23" fill="#f8fafc" opacity="0.12"/><circle cx="798.69" cy="226.38" r="2.25" fill="#60a5fa" opacity="0.15"/><circle cx="1284.55" cy="197.67" r="3.22" fill="#f8fafc" opacity="0.19"/><circle cx="335.84" cy="43.23" r="1.52" fill="#f8fafc" opacity="0.12"/><circle cx="394.8" cy="535.09" r="2.91" fill="#60a5fa" opacity="0.16"/><circle cx="567.59" cy="540.54" r="2.07" fill="#f8fafc" opacity="0.23"/><circle cx="1232.86" cy="799.84" r="1.68" fill="#f8fafc" opacity="0.18"/><circle cx="756.27" cy="655.86" r="1.1" fill="#60a5fa" opacity="0.14"/><circle cx="1056.49" cy="847.44" r="3.05" fill="#f8fafc" opacity="0.19"/><circle cx="1345.08" cy="806" r="3.28" fill="#f8fafc" opacity="0.24"/><circle cx="1053.52" cy="166.23" r="3.14" fill="#60a5fa" opacity="0.16"/><circle cx="378.5" cy="435.76" r="2.91" fill="#f8fafc" opacity="0.2"/><circle cx="1589.36" cy="476.45" r="2.97" fill="#f8fafc" opacity="0.17"/><circle cx="177.44" cy="474.67" r="3.02" fill="#60a5fa" opacity="0.15"/><circle cx="562.84" cy="756.09" r="3.23" fill="#f8fafc" opacity="0.14"/><circle cx="1435.08" cy="704.05" r="2.76" fill="#f8fafc" opacity="0.1"/><circle cx="117.61" cy="776.3" r="1.88" fill="#60a5fa" opacity="0.12"/><circle cx="1361.45" cy="252.31" r="1.27" fill="#f8fafc" opacity="0.12"/><circle cx="1019.33" cy="843.77" r="2.89" fill="#f8fafc" opacity="0.1"/><circle cx="593.43" cy="408.75" r="1.13" fill="#60a5fa" opacity="0.2"/></g>
<g>
<polygon points="256 198 1248 198 1190 288 198 288" fill="rgba(10,17,28,0.68)" stroke="rgba(255,255,255,0.1)" stroke-width="1.2"/><line x1="298" y1="243" x2="1138" y2="243" stroke="#7dd3fc" stroke-opacity="0.3" stroke-width="2" stroke-linecap="round"/><polygon points="290 306 1214 306 1156 396 232 396" fill="rgba(10,17,28,0.68)" stroke="rgba(255,255,255,0.1)" stroke-width="1.2"/><line x1="332" y1="351" x2="1104" y2="351" stroke="#60a5fa" stroke-opacity="0.78" stroke-width="3.5" stroke-linecap="round"/><polygon points="324 414 1180 414 1122 504 266 504" fill="rgba(10,17,28,0.68)" stroke="rgba(255,255,255,0.1)" stroke-width="1.2"/><line x1="366" y1="459" x2="1070" y2="459" stroke="#7dd3fc" stroke-opacity="0.3" stroke-width="2" stroke-linecap="round"/><polygon points="358 522 1146 522 1088 612 300 612" fill="rgba(10,17,28,0.68)" stroke="rgba(255,255,255,0.1)" stroke-width="1.2"/><line x1="400" y1="567" x2="1036" y2="567" stroke="#7dd3fc" stroke-opacity="0.3" stroke-width="2" stroke-linecap="round"/><path d="M 434.56 174 L 533.76 144 L 871.04 144" fill="none" stroke="#60a5fa" stroke-width="2.5" stroke-linecap="round" stroke-linejoin="round" opacity="0.85"/>
</g>
</svg>