<?xml version="1.0" encoding="UTF-8"?>
<svg xmlns="http://www.w3.org/2000/svg" width="1200" height="1200" viewBox="0 0 1200 1200" fill="none">

<defs>
	<linearGradient id="bg-sql-api-for-everyone-square-3-final" x1="0%" y1="0%" x2="100%" y2="100%">
		<stop offset="0%" stop-color="#04070c"/>
		<stop offset="42%" stop-color="#07111d"/>
		<stop offset="100%" stop-color="#030509"/>
	</linearGradient>
	<radialGradient id="glow-sql-api-for-everyone-square-3-final" cx="0.35" cy="0.5" r="0.56">
		<stop offset="0%" stop-color="#7dd3fc" stop-opacity="0.22"/>
		<stop offset="48%" stop-color="#60a5fa" stop-opacity="0.12"/>
		<stop offset="100%" stop-color="#05070c" stop-opacity="0"/>
	</radialGradient>
	<linearGradient id="panel-sql-api-for-everyone-square-3-final" x1="0%" y1="0%" x2="100%" y2="100%">
		<stop offset="0%" stop-color="#0d1726" stop-opacity="0.94"/>
		<stop offset="100%" stop-color="#08101b" stop-opacity="0.58"/>
	</linearGradient>
	<linearGradient id="edge-sql-api-for-everyone-square-3-final" x1="0%" y1="0%" x2="100%" y2="0%">
		<stop offset="0%" stop-color="#ffffff" stop-opacity="0"/>
		<stop offset="50%" stop-color="#ffffff" stop-opacity="0.18"/>
		<stop offset="100%" stop-color="#ffffff" stop-opacity="0"/>
	</linearGradient>
	<pattern id="grid-sql-api-for-everyone-square-3-final" width="100" height="120" patternUnits="userSpaceOnUse">
		<path d="M 100 0 L 0 0 0 120" fill="none" stroke="#7dd3fc" stroke-opacity="0.08" stroke-width="1"/>
	</pattern>
</defs>
<title>sql-api-for-everyone square final</title>
<desc>Architectural table planes and elegant query lines that suggest structured access through SQL.</desc>

	<rect x="0" y="0" width="1200" height="1200" fill="url(#bg-sql-api-for-everyone-square-3-final)"/>
	<rect x="0" y="0" width="1200" height="1200" fill="url(#glow-sql-api-for-everyone-square-3-final)"/>
	<rect x="0" y="0" width="1200" height="1200" fill="url(#grid-sql-api-for-everyone-square-3-final)" opacity="0.42"/>
	<rect x="42" y="42" width="1116" height="1116" rx="37.8" fill="none" stroke="rgba(148,163,184,0.16)" stroke-width="1.5"/>
	<line x1="42" y1="71.4" x2="42" y2="42" stroke="rgba(255,255,255,0.24)" stroke-width="2"/>
	<line x1="42" y1="42" x2="71.4" y2="42" stroke="rgba(255,255,255,0.24)" stroke-width="2"/>
	<line x1="1128.6" y1="42" x2="1158" y2="42" stroke="rgba(255,255,255,0.24)" stroke-width="2"/>
	<line x1="1158" y1="42" x2="1158" y2="71.4" stroke="rgba(255,255,255,0.24)" stroke-width="2"/>
	<line x1="42" y1="1128.6" x2="42" y2="1158" stroke="rgba(255,255,255,0.24)" stroke-width="2"/>
	<line x1="42" y1="1158" x2="71.4" y2="1158" stroke="rgba(255,255,255,0.24)" stroke-width="2"/>
	<line x1="1128.6" y1="1158" x2="1158" y2="1158" stroke="rgba(255,255,255,0.24)" stroke-width="2"/>
	<line x1="1158" y1="1128.6" x2="1158" y2="1158" stroke="rgba(255,255,255,0.24)" stroke-width="2"/>
	<rect x="60.9" y="60.9" width="1078.2" height="1078.2" rx="31.5" fill="none" stroke="url(#edge-sql-api-for-everyone-square-3-final)" stroke-width="1"/>

<g><circle cx="1116.84" cy="675.86" r="1.09" fill="#60a5fa" opacity="0.22"/><circle cx="658.5" cy="628.12" r="2.31" fill="#f8fafc" opacity="0.2"/><circle cx="34.07" cy="979.71" r="2.43" fill="#f8fafc" opacity="0.15"/><circle cx="934" cy="968.12" r="1.57" fill="#60a5fa" opacity="0.19"/><circle cx="149.29" cy="656.49" r="2.09" fill="#f8fafc" opacity="0.11"/><circle cx="44.49" cy="852.81" r="1.24" fill="#f8fafc" opacity="0.14"/><circle cx="12.41" cy="1198.85" r="2.1" fill="#60a5fa" opacity="0.1"/><circle cx="214.19" cy="964" r="2.03" fill="#f8fafc" opacity="0.23"/><circle cx="1087.29" cy="688.17" r="1.56" fill="#f8fafc" opacity="0.1"/><circle cx="244.73" cy="167.16" r="3.38" fill="#60a5fa" opacity="0.16"/><circle cx="942.14" cy="1122.65" r="3.18" fill="#f8fafc" opacity="0.22"/><circle cx="525.87" cy="1149.58" r="1.8" fill="#f8fafc" opacity="0.2"/><circle cx="892.59" cy="904.47" r="2.85" fill="#60a5fa" opacity="0.21"/><circle cx="362.6" cy="3.2" r="1.35" fill="#f8fafc" opacity="0.21"/><circle cx="554.32" cy="275.18" r="1.39" fill="#f8fafc" opacity="0.13"/><circle cx="393.59" cy="27.06" r="3.38" fill="#60a5fa" opacity="0.21"/><circle cx="528.29" cy="60.68" r="3.04" fill="#f8fafc" opacity="0.18"/><circle cx="239.96" cy="918.45" r="1.84" fill="#f8fafc" opacity="0.18"/><circle cx="376.35" cy="1179.18" r="3.16" fill="#60a5fa" opacity="0.15"/><circle cx="744.31" cy="1040.94" r="1.99" fill="#f8fafc" opacity="0.17"/><circle cx="1128.53" cy="31.44" r="2.06" fill="#f8fafc" opacity="0.17"/><circle cx="670.72" cy="707.16" r="2.66" fill="#60a5fa" opacity="0.17"/></g>
<g>
<polygon points="192 264 936 264 878 384 134 384" fill="rgba(10,17,28,0.68)" stroke="rgba(255,255,255,0.1)" stroke-width="1.2"/><line x1="234" y1="324" x2="826" y2="324" stroke="#7dd3fc" stroke-opacity="0.3" stroke-width="2" stroke-linecap="round"/><polygon points="226 402 902 402 844 522 168 522" fill="rgba(10,17,28,0.68)" stroke="rgba(255,255,255,0.1)" stroke-width="1.2"/><line x1="268" y1="462" x2="792" y2="462" stroke="#60a5fa" stroke-opacity="0.78" stroke-width="3.5" stroke-linecap="round"/><polygon points="260 540 868 540 810 660 202 660" fill="rgba(10,17,28,0.68)" stroke="rgba(255,255,255,0.1)" stroke-width="1.2"/><line x1="302" y1="600" x2="758" y2="600" stroke="#7dd3fc" stroke-opacity="0.3" stroke-width="2" stroke-linecap="round"/><polygon points="294 678 834 678 776 798 236 798" fill="rgba(10,17,28,0.68)" stroke="rgba(255,255,255,0.1)" stroke-width="1.2"/><line x1="336" y1="738" x2="724" y2="738" stroke="#7dd3fc" stroke-opacity="0.3" stroke-width="2" stroke-linecap="round"/><path d="M 325.92 240 L 400.32 210 L 653.28 210" fill="none" stroke="#60a5fa" stroke-width="2.5" stroke-linecap="round" stroke-linejoin="round" opacity="0.85"/>
</g>
</svg>