<?xml version="1.0" encoding="UTF-8"?>
<svg xmlns="http://www.w3.org/2000/svg" width="1600" height="900" viewBox="0 0 1600 900" fill="none">

<defs>
	<linearGradient id="bg-building-realtime-leaderboard-wide-3" x1="0%" y1="0%" x2="100%" y2="100%">
		<stop offset="0%" stop-color="#04070c"/>
		<stop offset="42%" stop-color="#07111d"/>
		<stop offset="100%" stop-color="#030509"/>
	</linearGradient>
	<radialGradient id="glow-building-realtime-leaderboard-wide-3" cx="0.35" cy="0.5" r="0.48">
		<stop offset="0%" stop-color="#38bdf8" stop-opacity="0.18"/>
		<stop offset="48%" stop-color="#60a5fa" stop-opacity="0.08"/>
		<stop offset="100%" stop-color="#05070c" stop-opacity="0"/>
	</radialGradient>
	<linearGradient id="panel-building-realtime-leaderboard-wide-3" x1="0%" y1="0%" x2="100%" y2="100%">
		<stop offset="0%" stop-color="#0d1726" stop-opacity="0.94"/>
		<stop offset="100%" stop-color="#08101b" stop-opacity="0.58"/>
	</linearGradient>
	<linearGradient id="edge-building-realtime-leaderboard-wide-3" x1="0%" y1="0%" x2="100%" y2="0%">
		<stop offset="0%" stop-color="#ffffff" stop-opacity="0"/>
		<stop offset="50%" stop-color="#ffffff" stop-opacity="0.12"/>
		<stop offset="100%" stop-color="#ffffff" stop-opacity="0"/>
	</linearGradient>
	<pattern id="grid-building-realtime-leaderboard-wide-3" width="133.33" height="90" patternUnits="userSpaceOnUse">
		<path d="M 133.33 0 L 0 0 0 90" fill="none" stroke="#38bdf8" stroke-opacity="0.08" stroke-width="1"/>
	</pattern>
</defs>
<title>building-realtime-leaderboard wide variant 4</title>
<desc>Tall ranked pillars with disciplined motion streaks, suggesting a fast real-time gaming leaderboard.</desc>

	<rect x="0" y="0" width="1600" height="900" fill="url(#bg-building-realtime-leaderboard-wide-3)"/>
	<rect x="0" y="0" width="1600" height="900" fill="url(#glow-building-realtime-leaderboard-wide-3)"/>
	<rect x="0" y="0" width="1600" height="900" fill="url(#grid-building-realtime-leaderboard-wide-3)" opacity="0.42"/>
	<rect x="31.5" y="31.5" width="1537" height="837" rx="28.35" fill="none" stroke="rgba(148,163,184,0.16)" stroke-width="1.5"/>
	<line x1="31.5" y1="53.55" x2="31.5" y2="31.5" stroke="rgba(255,255,255,0.24)" stroke-width="2"/>
	<line x1="31.5" y1="31.5" x2="53.55" y2="31.5" stroke="rgba(255,255,255,0.24)" stroke-width="2"/>
	<line x1="1546.45" y1="31.5" x2="1568.5" y2="31.5" stroke="rgba(255,255,255,0.24)" stroke-width="2"/>
	<line x1="1568.5" y1="31.5" x2="1568.5" y2="53.55" stroke="rgba(255,255,255,0.24)" stroke-width="2"/>
	<line x1="31.5" y1="846.45" x2="31.5" y2="868.5" stroke="rgba(255,255,255,0.24)" stroke-width="2"/>
	<line x1="31.5" y1="868.5" x2="53.55" y2="868.5" stroke="rgba(255,255,255,0.24)" stroke-width="2"/>
	<line x1="1546.45" y1="868.5" x2="1568.5" y2="868.5" stroke="rgba(255,255,255,0.24)" stroke-width="2"/>
	<line x1="1568.5" y1="846.45" x2="1568.5" y2="868.5" stroke="rgba(255,255,255,0.24)" stroke-width="2"/>
	<rect x="45.68" y="45.68" width="1508.65" height="808.65" rx="23.63" fill="none" stroke="url(#edge-building-realtime-leaderboard-wide-3)" stroke-width="1"/>

<g><circle cx="281.89" cy="460.74" r="1.2" fill="#60a5fa" opacity="0.17"/><circle cx="6.35" cy="104.5" r="2.7" fill="#f8fafc" opacity="0.19"/><circle cx="676.86" cy="512.57" r="1.44" fill="#f8fafc" opacity="0.15"/><circle cx="425.39" cy="773.26" r="1.34" fill="#60a5fa" opacity="0.23"/><circle cx="508.89" cy="515.13" r="2.43" fill="#f8fafc" opacity="0.12"/><circle cx="80.68" cy="401.16" r="1.16" fill="#f8fafc" opacity="0.2"/><circle cx="1020.48" cy="147.88" r="2.35" fill="#60a5fa" opacity="0.18"/><circle cx="197.57" cy="567.07" r="1.77" fill="#f8fafc" opacity="0.19"/><circle cx="514.28" cy="413.99" r="1.83" fill="#f8fafc" opacity="0.16"/><circle cx="1281.2" cy="242.35" r="2.52" fill="#60a5fa" opacity="0.21"/><circle cx="639.22" cy="325.48" r="1.92" fill="#f8fafc" opacity="0.22"/><circle cx="539.12" cy="407.92" r="1.4" fill="#f8fafc" opacity="0.17"/><circle cx="1002.5" cy="5.2" r="2.36" fill="#60a5fa" opacity="0.16"/><circle cx="1479.31" cy="651.83" r="2.74" fill="#f8fafc" opacity="0.16"/><circle cx="1115.32" cy="682.25" r="1.96" fill="#f8fafc" opacity="0.22"/><circle cx="39.39" cy="252.2" r="2.04" fill="#60a5fa" opacity="0.22"/></g>
<g>
<rect x="352" y="540" width="128" height="144" rx="22" fill="rgba(8,16,28,0.76)" stroke="rgba(255,255,255,0.1)" stroke-width="1.25"/><rect x="362" y="552" width="108" height="120" rx="16" fill="#38bdf8" opacity="0.12"/><rect x="576" y="288" width="128" height="396" rx="22" fill="rgba(8,16,28,0.76)" stroke="rgba(255,255,255,0.1)" stroke-width="1.25"/><rect x="586" y="300" width="108" height="372" rx="16" fill="#38bdf8" opacity="0.12"/><rect x="800" y="126" width="128" height="558" rx="22" fill="rgba(8,16,28,0.76)" stroke="rgba(255,255,255,0.1)" stroke-width="1.25"/><rect x="810" y="138" width="108" height="534" rx="16" fill="#60a5fa" opacity="0.24"/><line x1="864" y1="108" x2="1008" y2="18" stroke="#60a5fa" stroke-width="2" stroke-opacity="0.55" stroke-linecap="round"/><rect x="1024" y="198" width="128" height="486" rx="22" fill="rgba(8,16,28,0.76)" stroke="rgba(255,255,255,0.1)" stroke-width="1.25"/><rect x="1034" y="210" width="108" height="462" rx="16" fill="#38bdf8" opacity="0.12"/><line x1="1088" y1="180" x2="1232" y2="90" stroke="#60a5fa" stroke-width="2" stroke-opacity="0.55" stroke-linecap="round"/><rect x="1248" y="0" width="128" height="684" rx="22" fill="rgba(8,16,28,0.76)" stroke="rgba(255,255,255,0.1)" stroke-width="1.25"/><rect x="1258" y="12" width="108" height="660" rx="16" fill="#38bdf8" opacity="0.12"/><line x1="1312" y1="-18" x2="1456" y2="-108" stroke="#60a5fa" stroke-width="2" stroke-opacity="0.55" stroke-linecap="round"/>
</g>
</svg>