<?xml version="1.0" encoding="UTF-8"?>
<svg xmlns="http://www.w3.org/2000/svg" width="1600" height="900" viewBox="0 0 1600 900" fill="none">

<defs>
	<linearGradient id="bg-building-realtime-leaderboard-wide-2" x1="0%" y1="0%" x2="100%" y2="100%">
		<stop offset="0%" stop-color="#04070c"/>
		<stop offset="42%" stop-color="#07111d"/>
		<stop offset="100%" stop-color="#030509"/>
	</linearGradient>
	<radialGradient id="glow-building-realtime-leaderboard-wide-2" cx="0.52" cy="0.7" r="0.48">
		<stop offset="0%" stop-color="#38bdf8" stop-opacity="0.18"/>
		<stop offset="48%" stop-color="#60a5fa" stop-opacity="0.08"/>
		<stop offset="100%" stop-color="#05070c" stop-opacity="0"/>
	</radialGradient>
	<linearGradient id="panel-building-realtime-leaderboard-wide-2" x1="0%" y1="0%" x2="100%" y2="100%">
		<stop offset="0%" stop-color="#0d1726" stop-opacity="0.94"/>
		<stop offset="100%" stop-color="#08101b" stop-opacity="0.58"/>
	</linearGradient>
	<linearGradient id="edge-building-realtime-leaderboard-wide-2" x1="0%" y1="0%" x2="100%" y2="0%">
		<stop offset="0%" stop-color="#ffffff" stop-opacity="0"/>
		<stop offset="50%" stop-color="#ffffff" stop-opacity="0.12"/>
		<stop offset="100%" stop-color="#ffffff" stop-opacity="0"/>
	</linearGradient>
	<pattern id="grid-building-realtime-leaderboard-wide-2" width="133.33" height="90" patternUnits="userSpaceOnUse">
		<path d="M 133.33 0 L 0 0 0 90" fill="none" stroke="#38bdf8" stroke-opacity="0.08" stroke-width="1"/>
	</pattern>
</defs>
<title>building-realtime-leaderboard wide variant 3</title>
<desc>Tall ranked pillars with disciplined motion streaks, suggesting a fast real-time gaming leaderboard.</desc>

	<rect x="0" y="0" width="1600" height="900" fill="url(#bg-building-realtime-leaderboard-wide-2)"/>
	<rect x="0" y="0" width="1600" height="900" fill="url(#glow-building-realtime-leaderboard-wide-2)"/>
	<rect x="0" y="0" width="1600" height="900" fill="url(#grid-building-realtime-leaderboard-wide-2)" opacity="0.42"/>
	<rect x="31.5" y="31.5" width="1537" height="837" rx="28.35" fill="none" stroke="rgba(148,163,184,0.16)" stroke-width="1.5"/>
	<line x1="31.5" y1="53.55" x2="31.5" y2="31.5" stroke="rgba(255,255,255,0.24)" stroke-width="2"/>
	<line x1="31.5" y1="31.5" x2="53.55" y2="31.5" stroke="rgba(255,255,255,0.24)" stroke-width="2"/>
	<line x1="1546.45" y1="31.5" x2="1568.5" y2="31.5" stroke="rgba(255,255,255,0.24)" stroke-width="2"/>
	<line x1="1568.5" y1="31.5" x2="1568.5" y2="53.55" stroke="rgba(255,255,255,0.24)" stroke-width="2"/>
	<line x1="31.5" y1="846.45" x2="31.5" y2="868.5" stroke="rgba(255,255,255,0.24)" stroke-width="2"/>
	<line x1="31.5" y1="868.5" x2="53.55" y2="868.5" stroke="rgba(255,255,255,0.24)" stroke-width="2"/>
	<line x1="1546.45" y1="868.5" x2="1568.5" y2="868.5" stroke="rgba(255,255,255,0.24)" stroke-width="2"/>
	<line x1="1568.5" y1="846.45" x2="1568.5" y2="868.5" stroke="rgba(255,255,255,0.24)" stroke-width="2"/>
	<rect x="45.68" y="45.68" width="1508.65" height="808.65" rx="23.63" fill="none" stroke="url(#edge-building-realtime-leaderboard-wide-2)" stroke-width="1"/>

<g><circle cx="231.72" cy="173.13" r="1.12" fill="#60a5fa" opacity="0.23"/><circle cx="587.61" cy="825.66" r="1.64" fill="#f8fafc" opacity="0.16"/><circle cx="1128.16" cy="313.88" r="2.26" fill="#f8fafc" opacity="0.21"/><circle cx="1452.22" cy="817.56" r="2.28" fill="#60a5fa" opacity="0.09"/><circle cx="925.72" cy="427.41" r="1.05" fill="#f8fafc" opacity="0.22"/><circle cx="371.28" cy="618.19" r="2.15" fill="#f8fafc" opacity="0.18"/><circle cx="275.42" cy="128.46" r="2.44" fill="#60a5fa" opacity="0.12"/><circle cx="1448.55" cy="38.8" r="2.39" fill="#f8fafc" opacity="0.18"/><circle cx="403.54" cy="624.71" r="1.29" fill="#f8fafc" opacity="0.23"/><circle cx="1220.66" cy="87.15" r="2.26" fill="#60a5fa" opacity="0.17"/><circle cx="325.3" cy="571.32" r="2.33" fill="#f8fafc" opacity="0.13"/><circle cx="925.19" cy="575.71" r="1.19" fill="#f8fafc" opacity="0.16"/><circle cx="1.78" cy="837.98" r="1.67" fill="#60a5fa" opacity="0.18"/><circle cx="251.39" cy="415.62" r="2.08" fill="#f8fafc" opacity="0.19"/><circle cx="678.02" cy="225.56" r="1.58" fill="#f8fafc" opacity="0.21"/><circle cx="1037.67" cy="668.96" r="1.92" fill="#60a5fa" opacity="0.19"/></g>
<g>
<rect x="320" y="432" width="128" height="252" rx="22" fill="rgba(8,16,28,0.76)" stroke="rgba(255,255,255,0.1)" stroke-width="1.25"/><rect x="330" y="444" width="108" height="228" rx="16" fill="#38bdf8" opacity="0.12"/><rect x="544" y="216" width="128" height="468" rx="22" fill="rgba(8,16,28,0.76)" stroke="rgba(255,255,255,0.1)" stroke-width="1.25"/><rect x="554" y="228" width="108" height="444" rx="16" fill="#38bdf8" opacity="0.12"/><rect x="768" y="270" width="128" height="414" rx="22" fill="rgba(8,16,28,0.76)" stroke="rgba(255,255,255,0.1)" stroke-width="1.25"/><rect x="778" y="282" width="108" height="390" rx="16" fill="#60a5fa" opacity="0.24"/><line x1="832" y1="252" x2="976" y2="162" stroke="#60a5fa" stroke-width="2" stroke-opacity="0.55" stroke-linecap="round"/><rect x="992" y="54" width="128" height="630" rx="22" fill="rgba(8,16,28,0.76)" stroke="rgba(255,255,255,0.1)" stroke-width="1.25"/><rect x="1002" y="66" width="108" height="606" rx="16" fill="#38bdf8" opacity="0.12"/><line x1="1056" y1="36" x2="1200" y2="-54" stroke="#60a5fa" stroke-width="2" stroke-opacity="0.55" stroke-linecap="round"/><rect x="1216" y="360" width="128" height="324" rx="22" fill="rgba(8,16,28,0.76)" stroke="rgba(255,255,255,0.1)" stroke-width="1.25"/><rect x="1226" y="372" width="108" height="300" rx="16" fill="#38bdf8" opacity="0.12"/><line x1="1280" y1="342" x2="1424" y2="252" stroke="#60a5fa" stroke-width="2" stroke-opacity="0.55" stroke-linecap="round"/>
</g>
</svg>