<?xml version="1.0" encoding="UTF-8"?>
<svg xmlns="http://www.w3.org/2000/svg" width="1600" height="900" viewBox="0 0 1600 900" fill="none">

<defs>
	<linearGradient id="bg-building-realtime-leaderboard-wide-0" x1="0%" y1="0%" x2="100%" y2="100%">
		<stop offset="0%" stop-color="#04070c"/>
		<stop offset="42%" stop-color="#07111d"/>
		<stop offset="100%" stop-color="#030509"/>
	</linearGradient>
	<radialGradient id="glow-building-realtime-leaderboard-wide-0" cx="0.2" cy="0.18" r="0.48">
		<stop offset="0%" stop-color="#38bdf8" stop-opacity="0.18"/>
		<stop offset="48%" stop-color="#60a5fa" stop-opacity="0.08"/>
		<stop offset="100%" stop-color="#05070c" stop-opacity="0"/>
	</radialGradient>
	<linearGradient id="panel-building-realtime-leaderboard-wide-0" x1="0%" y1="0%" x2="100%" y2="100%">
		<stop offset="0%" stop-color="#0d1726" stop-opacity="0.94"/>
		<stop offset="100%" stop-color="#08101b" stop-opacity="0.58"/>
	</linearGradient>
	<linearGradient id="edge-building-realtime-leaderboard-wide-0" x1="0%" y1="0%" x2="100%" y2="0%">
		<stop offset="0%" stop-color="#ffffff" stop-opacity="0"/>
		<stop offset="50%" stop-color="#ffffff" stop-opacity="0.12"/>
		<stop offset="100%" stop-color="#ffffff" stop-opacity="0"/>
	</linearGradient>
	<pattern id="grid-building-realtime-leaderboard-wide-0" width="133.33" height="90" patternUnits="userSpaceOnUse">
		<path d="M 133.33 0 L 0 0 0 90" fill="none" stroke="#38bdf8" stroke-opacity="0.08" stroke-width="1"/>
	</pattern>
</defs>
<title>building-realtime-leaderboard wide variant 1</title>
<desc>Tall ranked pillars with disciplined motion streaks, suggesting a fast real-time gaming leaderboard.</desc>

	<rect x="0" y="0" width="1600" height="900" fill="url(#bg-building-realtime-leaderboard-wide-0)"/>
	<rect x="0" y="0" width="1600" height="900" fill="url(#glow-building-realtime-leaderboard-wide-0)"/>
	<rect x="0" y="0" width="1600" height="900" fill="url(#grid-building-realtime-leaderboard-wide-0)" opacity="0.42"/>
	<rect x="31.5" y="31.5" width="1537" height="837" rx="28.35" fill="none" stroke="rgba(148,163,184,0.16)" stroke-width="1.5"/>
	<line x1="31.5" y1="53.55" x2="31.5" y2="31.5" stroke="rgba(255,255,255,0.24)" stroke-width="2"/>
	<line x1="31.5" y1="31.5" x2="53.55" y2="31.5" stroke="rgba(255,255,255,0.24)" stroke-width="2"/>
	<line x1="1546.45" y1="31.5" x2="1568.5" y2="31.5" stroke="rgba(255,255,255,0.24)" stroke-width="2"/>
	<line x1="1568.5" y1="31.5" x2="1568.5" y2="53.55" stroke="rgba(255,255,255,0.24)" stroke-width="2"/>
	<line x1="31.5" y1="846.45" x2="31.5" y2="868.5" stroke="rgba(255,255,255,0.24)" stroke-width="2"/>
	<line x1="31.5" y1="868.5" x2="53.55" y2="868.5" stroke="rgba(255,255,255,0.24)" stroke-width="2"/>
	<line x1="1546.45" y1="868.5" x2="1568.5" y2="868.5" stroke="rgba(255,255,255,0.24)" stroke-width="2"/>
	<line x1="1568.5" y1="846.45" x2="1568.5" y2="868.5" stroke="rgba(255,255,255,0.24)" stroke-width="2"/>
	<rect x="45.68" y="45.68" width="1508.65" height="808.65" rx="23.63" fill="none" stroke="url(#edge-building-realtime-leaderboard-wide-0)" stroke-width="1"/>

<g><circle cx="573.71" cy="224.41" r="1.5" fill="#60a5fa" opacity="0.11"/><circle cx="727.17" cy="72.59" r="1.41" fill="#f8fafc" opacity="0.09"/><circle cx="652.22" cy="817.85" r="2.26" fill="#f8fafc" opacity="0.15"/><circle cx="1.82" cy="217.9" r="2.8" fill="#60a5fa" opacity="0.18"/><circle cx="923.19" cy="717.92" r="1.65" fill="#f8fafc" opacity="0.23"/><circle cx="1544.5" cy="498.4" r="2.29" fill="#f8fafc" opacity="0.22"/><circle cx="381.89" cy="837.11" r="2.48" fill="#60a5fa" opacity="0.14"/><circle cx="806.71" cy="886.05" r="1.32" fill="#f8fafc" opacity="0.17"/><circle cx="1482.18" cy="51.96" r="2.68" fill="#f8fafc" opacity="0.23"/><circle cx="297.66" cy="292.18" r="2.04" fill="#60a5fa" opacity="0.09"/><circle cx="706.67" cy="300.55" r="1.75" fill="#f8fafc" opacity="0.11"/><circle cx="1053.59" cy="27" r="1.34" fill="#f8fafc" opacity="0.12"/><circle cx="842.02" cy="645.16" r="1.58" fill="#60a5fa" opacity="0.16"/><circle cx="23.56" cy="10.24" r="1.74" fill="#f8fafc" opacity="0.09"/><circle cx="1180.58" cy="692.15" r="2.2" fill="#f8fafc" opacity="0.11"/><circle cx="1290.19" cy="505.97" r="2.27" fill="#60a5fa" opacity="0.09"/></g>
<g>
<rect x="288" y="522" width="128" height="162" rx="22" fill="rgba(8,16,28,0.76)" stroke="rgba(255,255,255,0.1)" stroke-width="1.25"/><rect x="298" y="534" width="108" height="138" rx="16" fill="#38bdf8" opacity="0.12"/><rect x="512" y="396" width="128" height="288" rx="22" fill="rgba(8,16,28,0.76)" stroke="rgba(255,255,255,0.1)" stroke-width="1.25"/><rect x="522" y="408" width="108" height="264" rx="16" fill="#38bdf8" opacity="0.12"/><rect x="736" y="162" width="128" height="522" rx="22" fill="rgba(8,16,28,0.76)" stroke="rgba(255,255,255,0.1)" stroke-width="1.25"/><rect x="746" y="174" width="108" height="498" rx="16" fill="#60a5fa" opacity="0.24"/><line x1="800" y1="144" x2="944" y2="54" stroke="#60a5fa" stroke-width="2" stroke-opacity="0.55" stroke-linecap="round"/><rect x="960" y="288" width="128" height="396" rx="22" fill="rgba(8,16,28,0.76)" stroke="rgba(255,255,255,0.1)" stroke-width="1.25"/><rect x="970" y="300" width="108" height="372" rx="16" fill="#38bdf8" opacity="0.12"/><line x1="1024" y1="270" x2="1168" y2="180" stroke="#60a5fa" stroke-width="2" stroke-opacity="0.55" stroke-linecap="round"/><rect x="1184" y="36" width="128" height="648" rx="22" fill="rgba(8,16,28,0.76)" stroke="rgba(255,255,255,0.1)" stroke-width="1.25"/><rect x="1194" y="48" width="108" height="624" rx="16" fill="#38bdf8" opacity="0.12"/><line x1="1248" y1="18" x2="1392" y2="-72" stroke="#60a5fa" stroke-width="2" stroke-opacity="0.55" stroke-linecap="round"/>
</g>
</svg>