<?xml version="1.0" encoding="UTF-8"?>
<svg xmlns="http://www.w3.org/2000/svg" width="1200" height="1200" viewBox="0 0 1200 1200" fill="none">

<defs>
	<linearGradient id="bg-building-realtime-leaderboard-square-1" x1="0%" y1="0%" x2="100%" y2="100%">
		<stop offset="0%" stop-color="#04070c"/>
		<stop offset="42%" stop-color="#07111d"/>
		<stop offset="100%" stop-color="#030509"/>
	</linearGradient>
	<radialGradient id="glow-building-realtime-leaderboard-square-1" cx="0.78" cy="0.24" r="0.48">
		<stop offset="0%" stop-color="#38bdf8" stop-opacity="0.18"/>
		<stop offset="48%" stop-color="#60a5fa" stop-opacity="0.08"/>
		<stop offset="100%" stop-color="#05070c" stop-opacity="0"/>
	</radialGradient>
	<linearGradient id="panel-building-realtime-leaderboard-square-1" x1="0%" y1="0%" x2="100%" y2="100%">
		<stop offset="0%" stop-color="#0d1726" stop-opacity="0.94"/>
		<stop offset="100%" stop-color="#08101b" stop-opacity="0.58"/>
	</linearGradient>
	<linearGradient id="edge-building-realtime-leaderboard-square-1" x1="0%" y1="0%" x2="100%" y2="0%">
		<stop offset="0%" stop-color="#ffffff" stop-opacity="0"/>
		<stop offset="50%" stop-color="#ffffff" stop-opacity="0.12"/>
		<stop offset="100%" stop-color="#ffffff" stop-opacity="0"/>
	</linearGradient>
	<pattern id="grid-building-realtime-leaderboard-square-1" width="100" height="120" patternUnits="userSpaceOnUse">
		<path d="M 100 0 L 0 0 0 120" fill="none" stroke="#38bdf8" stroke-opacity="0.08" stroke-width="1"/>
	</pattern>
</defs>
<title>building-realtime-leaderboard square variant 2</title>
<desc>Tall ranked pillars with disciplined motion streaks, suggesting a fast real-time gaming leaderboard.</desc>

	<rect x="0" y="0" width="1200" height="1200" fill="url(#bg-building-realtime-leaderboard-square-1)"/>
	<rect x="0" y="0" width="1200" height="1200" fill="url(#glow-building-realtime-leaderboard-square-1)"/>
	<rect x="0" y="0" width="1200" height="1200" fill="url(#grid-building-realtime-leaderboard-square-1)" opacity="0.42"/>
	<rect x="42" y="42" width="1116" height="1116" rx="37.8" fill="none" stroke="rgba(148,163,184,0.16)" stroke-width="1.5"/>
	<line x1="42" y1="71.4" x2="42" y2="42" stroke="rgba(255,255,255,0.24)" stroke-width="2"/>
	<line x1="42" y1="42" x2="71.4" y2="42" stroke="rgba(255,255,255,0.24)" stroke-width="2"/>
	<line x1="1128.6" y1="42" x2="1158" y2="42" stroke="rgba(255,255,255,0.24)" stroke-width="2"/>
	<line x1="1158" y1="42" x2="1158" y2="71.4" stroke="rgba(255,255,255,0.24)" stroke-width="2"/>
	<line x1="42" y1="1128.6" x2="42" y2="1158" stroke="rgba(255,255,255,0.24)" stroke-width="2"/>
	<line x1="42" y1="1158" x2="71.4" y2="1158" stroke="rgba(255,255,255,0.24)" stroke-width="2"/>
	<line x1="1128.6" y1="1158" x2="1158" y2="1158" stroke="rgba(255,255,255,0.24)" stroke-width="2"/>
	<line x1="1158" y1="1128.6" x2="1158" y2="1158" stroke="rgba(255,255,255,0.24)" stroke-width="2"/>
	<rect x="60.9" y="60.9" width="1078.2" height="1078.2" rx="31.5" fill="none" stroke="url(#edge-building-realtime-leaderboard-square-1)" stroke-width="1"/>

<g><circle cx="1075.72" cy="54.15" r="1.52" fill="#60a5fa" opacity="0.21"/><circle cx="994.3" cy="313.14" r="1.32" fill="#f8fafc" opacity="0.1"/><circle cx="133.9" cy="859.03" r="1.67" fill="#f8fafc" opacity="0.23"/><circle cx="1135.26" cy="367.79" r="1.13" fill="#60a5fa" opacity="0.15"/><circle cx="903.79" cy="68.47" r="2" fill="#f8fafc" opacity="0.11"/><circle cx="808.36" cy="1175.22" r="1.94" fill="#f8fafc" opacity="0.09"/><circle cx="260.28" cy="407.95" r="1.89" fill="#60a5fa" opacity="0.19"/><circle cx="724.18" cy="1162.63" r="1.21" fill="#f8fafc" opacity="0.09"/><circle cx="739.67" cy="192.23" r="2.36" fill="#f8fafc" opacity="0.2"/><circle cx="126.27" cy="801.27" r="1.41" fill="#60a5fa" opacity="0.12"/><circle cx="674.75" cy="101.29" r="2.02" fill="#f8fafc" opacity="0.2"/><circle cx="399.46" cy="745.16" r="2.19" fill="#f8fafc" opacity="0.15"/><circle cx="35.71" cy="26.42" r="1.78" fill="#60a5fa" opacity="0.12"/><circle cx="1042.56" cy="181.77" r="2.71" fill="#f8fafc" opacity="0.19"/><circle cx="270.41" cy="284.43" r="2.58" fill="#f8fafc" opacity="0.17"/><circle cx="290.65" cy="323.12" r="1.27" fill="#60a5fa" opacity="0.18"/></g>
<g>
<rect x="168" y="672" width="96" height="240" rx="22" fill="rgba(8,16,28,0.76)" stroke="rgba(255,255,255,0.1)" stroke-width="1.25"/><rect x="178" y="684" width="76" height="216" rx="16" fill="#38bdf8" opacity="0.12"/><rect x="336" y="336" width="96" height="576" rx="22" fill="rgba(8,16,28,0.76)" stroke="rgba(255,255,255,0.1)" stroke-width="1.25"/><rect x="346" y="348" width="76" height="552" rx="16" fill="#38bdf8" opacity="0.12"/><rect x="504" y="120" width="96" height="792" rx="22" fill="rgba(8,16,28,0.76)" stroke="rgba(255,255,255,0.1)" stroke-width="1.25"/><rect x="514" y="132" width="76" height="768" rx="16" fill="#60a5fa" opacity="0.24"/><line x1="552" y1="102" x2="660" y2="-24" stroke="#60a5fa" stroke-width="2" stroke-opacity="0.55" stroke-linecap="round"/><rect x="672" y="456" width="96" height="456" rx="22" fill="rgba(8,16,28,0.76)" stroke="rgba(255,255,255,0.1)" stroke-width="1.25"/><rect x="682" y="468" width="76" height="432" rx="16" fill="#38bdf8" opacity="0.12"/><line x1="720" y1="438" x2="828" y2="312" stroke="#60a5fa" stroke-width="2" stroke-opacity="0.55" stroke-linecap="round"/><rect x="840" y="240" width="96" height="672" rx="22" fill="rgba(8,16,28,0.76)" stroke="rgba(255,255,255,0.1)" stroke-width="1.25"/><rect x="850" y="252" width="76" height="648" rx="16" fill="#38bdf8" opacity="0.12"/><line x1="888" y1="222" x2="996" y2="96" stroke="#60a5fa" stroke-width="2" stroke-opacity="0.55" stroke-linecap="round"/>
</g>
</svg>