<?xml version="1.0" encoding="UTF-8"?>
<svg xmlns="http://www.w3.org/2000/svg" width="1200" height="1200" viewBox="0 0 1200 1200" fill="none">

<defs>
	<linearGradient id="bg-building-realtime-leaderboard-square-0" x1="0%" y1="0%" x2="100%" y2="100%">
		<stop offset="0%" stop-color="#04070c"/>
		<stop offset="42%" stop-color="#07111d"/>
		<stop offset="100%" stop-color="#030509"/>
	</linearGradient>
	<radialGradient id="glow-building-realtime-leaderboard-square-0" cx="0.2" cy="0.18" r="0.48">
		<stop offset="0%" stop-color="#38bdf8" stop-opacity="0.18"/>
		<stop offset="48%" stop-color="#60a5fa" stop-opacity="0.08"/>
		<stop offset="100%" stop-color="#05070c" stop-opacity="0"/>
	</radialGradient>
	<linearGradient id="panel-building-realtime-leaderboard-square-0" x1="0%" y1="0%" x2="100%" y2="100%">
		<stop offset="0%" stop-color="#0d1726" stop-opacity="0.94"/>
		<stop offset="100%" stop-color="#08101b" stop-opacity="0.58"/>
	</linearGradient>
	<linearGradient id="edge-building-realtime-leaderboard-square-0" x1="0%" y1="0%" x2="100%" y2="0%">
		<stop offset="0%" stop-color="#ffffff" stop-opacity="0"/>
		<stop offset="50%" stop-color="#ffffff" stop-opacity="0.12"/>
		<stop offset="100%" stop-color="#ffffff" stop-opacity="0"/>
	</linearGradient>
	<pattern id="grid-building-realtime-leaderboard-square-0" width="100" height="120" patternUnits="userSpaceOnUse">
		<path d="M 100 0 L 0 0 0 120" fill="none" stroke="#38bdf8" stroke-opacity="0.08" stroke-width="1"/>
	</pattern>
</defs>
<title>building-realtime-leaderboard square variant 1</title>
<desc>Tall ranked pillars with disciplined motion streaks, suggesting a fast real-time gaming leaderboard.</desc>

	<rect x="0" y="0" width="1200" height="1200" fill="url(#bg-building-realtime-leaderboard-square-0)"/>
	<rect x="0" y="0" width="1200" height="1200" fill="url(#glow-building-realtime-leaderboard-square-0)"/>
	<rect x="0" y="0" width="1200" height="1200" fill="url(#grid-building-realtime-leaderboard-square-0)" opacity="0.42"/>
	<rect x="42" y="42" width="1116" height="1116" rx="37.8" fill="none" stroke="rgba(148,163,184,0.16)" stroke-width="1.5"/>
	<line x1="42" y1="71.4" x2="42" y2="42" stroke="rgba(255,255,255,0.24)" stroke-width="2"/>
	<line x1="42" y1="42" x2="71.4" y2="42" stroke="rgba(255,255,255,0.24)" stroke-width="2"/>
	<line x1="1128.6" y1="42" x2="1158" y2="42" stroke="rgba(255,255,255,0.24)" stroke-width="2"/>
	<line x1="1158" y1="42" x2="1158" y2="71.4" stroke="rgba(255,255,255,0.24)" stroke-width="2"/>
	<line x1="42" y1="1128.6" x2="42" y2="1158" stroke="rgba(255,255,255,0.24)" stroke-width="2"/>
	<line x1="42" y1="1158" x2="71.4" y2="1158" stroke="rgba(255,255,255,0.24)" stroke-width="2"/>
	<line x1="1128.6" y1="1158" x2="1158" y2="1158" stroke="rgba(255,255,255,0.24)" stroke-width="2"/>
	<line x1="1158" y1="1128.6" x2="1158" y2="1158" stroke="rgba(255,255,255,0.24)" stroke-width="2"/>
	<rect x="60.9" y="60.9" width="1078.2" height="1078.2" rx="31.5" fill="none" stroke="url(#edge-building-realtime-leaderboard-square-0)" stroke-width="1"/>

<g><circle cx="738.59" cy="457.77" r="1.61" fill="#60a5fa" opacity="0.21"/><circle cx="918.52" cy="401.13" r="1.9" fill="#f8fafc" opacity="0.2"/><circle cx="87.89" cy="81.96" r="2.7" fill="#f8fafc" opacity="0.16"/><circle cx="460.92" cy="902.36" r="1.18" fill="#60a5fa" opacity="0.18"/><circle cx="453.45" cy="802.68" r="2.72" fill="#f8fafc" opacity="0.21"/><circle cx="751.85" cy="1155.99" r="2.04" fill="#f8fafc" opacity="0.2"/><circle cx="676.31" cy="517.77" r="1.63" fill="#60a5fa" opacity="0.19"/><circle cx="134.49" cy="692.16" r="2.29" fill="#f8fafc" opacity="0.23"/><circle cx="119.59" cy="232.18" r="1.35" fill="#f8fafc" opacity="0.18"/><circle cx="253.86" cy="375.79" r="1.7" fill="#60a5fa" opacity="0.21"/><circle cx="156.22" cy="617.64" r="2.77" fill="#f8fafc" opacity="0.12"/><circle cx="154.88" cy="927.63" r="2.31" fill="#f8fafc" opacity="0.19"/><circle cx="694.51" cy="408.94" r="2.54" fill="#60a5fa" opacity="0.14"/><circle cx="371.23" cy="195.86" r="1.16" fill="#f8fafc" opacity="0.1"/><circle cx="1136.92" cy="689.03" r="2.33" fill="#f8fafc" opacity="0.09"/><circle cx="1039.19" cy="64.7" r="2.12" fill="#60a5fa" opacity="0.2"/></g>
<g>
<rect x="216" y="696" width="96" height="216" rx="22" fill="rgba(8,16,28,0.76)" stroke="rgba(255,255,255,0.1)" stroke-width="1.25"/><rect x="226" y="708" width="76" height="192" rx="16" fill="#38bdf8" opacity="0.12"/><rect x="384" y="528" width="96" height="384" rx="22" fill="rgba(8,16,28,0.76)" stroke="rgba(255,255,255,0.1)" stroke-width="1.25"/><rect x="394" y="540" width="76" height="360" rx="16" fill="#38bdf8" opacity="0.12"/><rect x="552" y="216" width="96" height="696" rx="22" fill="rgba(8,16,28,0.76)" stroke="rgba(255,255,255,0.1)" stroke-width="1.25"/><rect x="562" y="228" width="76" height="672" rx="16" fill="#60a5fa" opacity="0.24"/><line x1="600" y1="198" x2="708" y2="72" stroke="#60a5fa" stroke-width="2" stroke-opacity="0.55" stroke-linecap="round"/><rect x="720" y="384" width="96" height="528" rx="22" fill="rgba(8,16,28,0.76)" stroke="rgba(255,255,255,0.1)" stroke-width="1.25"/><rect x="730" y="396" width="76" height="504" rx="16" fill="#38bdf8" opacity="0.12"/><line x1="768" y1="366" x2="876" y2="240" stroke="#60a5fa" stroke-width="2" stroke-opacity="0.55" stroke-linecap="round"/><rect x="888" y="48" width="96" height="864" rx="22" fill="rgba(8,16,28,0.76)" stroke="rgba(255,255,255,0.1)" stroke-width="1.25"/><rect x="898" y="60" width="76" height="840" rx="16" fill="#38bdf8" opacity="0.12"/><line x1="936" y1="30" x2="1044" y2="-96" stroke="#60a5fa" stroke-width="2" stroke-opacity="0.55" stroke-linecap="round"/>
</g>
</svg>