<?xml version="1.0" encoding="UTF-8"?>
<svg xmlns="http://www.w3.org/2000/svg" width="1600" height="900" viewBox="0 0 1600 900" fill="none">

<defs>
	<linearGradient id="bg-building-realtime-leaderboard-wide-1" x1="0%" y1="0%" x2="100%" y2="100%">
		<stop offset="0%" stop-color="#04070c"/>
		<stop offset="42%" stop-color="#07111d"/>
		<stop offset="100%" stop-color="#030509"/>
	</linearGradient>
	<radialGradient id="glow-building-realtime-leaderboard-wide-1" cx="0.78" cy="0.24" r="0.48">
		<stop offset="0%" stop-color="#38bdf8" stop-opacity="0.18"/>
		<stop offset="48%" stop-color="#60a5fa" stop-opacity="0.08"/>
		<stop offset="100%" stop-color="#05070c" stop-opacity="0"/>
	</radialGradient>
	<linearGradient id="panel-building-realtime-leaderboard-wide-1" x1="0%" y1="0%" x2="100%" y2="100%">
		<stop offset="0%" stop-color="#0d1726" stop-opacity="0.94"/>
		<stop offset="100%" stop-color="#08101b" stop-opacity="0.58"/>
	</linearGradient>
	<linearGradient id="edge-building-realtime-leaderboard-wide-1" x1="0%" y1="0%" x2="100%" y2="0%">
		<stop offset="0%" stop-color="#ffffff" stop-opacity="0"/>
		<stop offset="50%" stop-color="#ffffff" stop-opacity="0.12"/>
		<stop offset="100%" stop-color="#ffffff" stop-opacity="0"/>
	</linearGradient>
	<pattern id="grid-building-realtime-leaderboard-wide-1" width="133.33" height="90" patternUnits="userSpaceOnUse">
		<path d="M 133.33 0 L 0 0 0 90" fill="none" stroke="#38bdf8" stroke-opacity="0.08" stroke-width="1"/>
	</pattern>
</defs>
<title>building-realtime-leaderboard wide variant 2</title>
<desc>Tall ranked pillars with disciplined motion streaks, suggesting a fast real-time gaming leaderboard.</desc>

	<rect x="0" y="0" width="1600" height="900" fill="url(#bg-building-realtime-leaderboard-wide-1)"/>
	<rect x="0" y="0" width="1600" height="900" fill="url(#glow-building-realtime-leaderboard-wide-1)"/>
	<rect x="0" y="0" width="1600" height="900" fill="url(#grid-building-realtime-leaderboard-wide-1)" opacity="0.42"/>
	<rect x="31.5" y="31.5" width="1537" height="837" rx="28.35" fill="none" stroke="rgba(148,163,184,0.16)" stroke-width="1.5"/>
	<line x1="31.5" y1="53.55" x2="31.5" y2="31.5" stroke="rgba(255,255,255,0.24)" stroke-width="2"/>
	<line x1="31.5" y1="31.5" x2="53.55" y2="31.5" stroke="rgba(255,255,255,0.24)" stroke-width="2"/>
	<line x1="1546.45" y1="31.5" x2="1568.5" y2="31.5" stroke="rgba(255,255,255,0.24)" stroke-width="2"/>
	<line x1="1568.5" y1="31.5" x2="1568.5" y2="53.55" stroke="rgba(255,255,255,0.24)" stroke-width="2"/>
	<line x1="31.5" y1="846.45" x2="31.5" y2="868.5" stroke="rgba(255,255,255,0.24)" stroke-width="2"/>
	<line x1="31.5" y1="868.5" x2="53.55" y2="868.5" stroke="rgba(255,255,255,0.24)" stroke-width="2"/>
	<line x1="1546.45" y1="868.5" x2="1568.5" y2="868.5" stroke="rgba(255,255,255,0.24)" stroke-width="2"/>
	<line x1="1568.5" y1="846.45" x2="1568.5" y2="868.5" stroke="rgba(255,255,255,0.24)" stroke-width="2"/>
	<rect x="45.68" y="45.68" width="1508.65" height="808.65" rx="23.63" fill="none" stroke="url(#edge-building-realtime-leaderboard-wide-1)" stroke-width="1"/>

<g><circle cx="1559.94" cy="623.78" r="1.23" fill="#60a5fa" opacity="0.22"/><circle cx="293.5" cy="21.55" r="2.01" fill="#f8fafc" opacity="0.14"/><circle cx="1041.59" cy="172.58" r="2.27" fill="#f8fafc" opacity="0.18"/><circle cx="749.3" cy="298.47" r="2.68" fill="#60a5fa" opacity="0.24"/><circle cx="1437.85" cy="588.09" r="2.03" fill="#f8fafc" opacity="0.12"/><circle cx="65.35" cy="474.47" r="1.85" fill="#f8fafc" opacity="0.14"/><circle cx="33.26" cy="816.55" r="2.19" fill="#60a5fa" opacity="0.18"/><circle cx="695.46" cy="424.48" r="2.3" fill="#f8fafc" opacity="0.14"/><circle cx="609.85" cy="321.99" r="1.01" fill="#f8fafc" opacity="0.16"/><circle cx="1008.31" cy="359" r="2.51" fill="#60a5fa" opacity="0.23"/><circle cx="1048.27" cy="175.57" r="1.53" fill="#f8fafc" opacity="0.08"/><circle cx="388.45" cy="666.96" r="1.34" fill="#f8fafc" opacity="0.1"/><circle cx="468.23" cy="104.74" r="2.18" fill="#60a5fa" opacity="0.18"/><circle cx="310.74" cy="47.6" r="1.32" fill="#f8fafc" opacity="0.21"/><circle cx="852.08" cy="271.73" r="1.51" fill="#f8fafc" opacity="0.13"/><circle cx="1563.44" cy="243.54" r="1.85" fill="#60a5fa" opacity="0.19"/></g>
<g>
<rect x="224" y="504" width="128" height="180" rx="22" fill="rgba(8,16,28,0.76)" stroke="rgba(255,255,255,0.1)" stroke-width="1.25"/><rect x="234" y="516" width="108" height="156" rx="16" fill="#38bdf8" opacity="0.12"/><rect x="448" y="252" width="128" height="432" rx="22" fill="rgba(8,16,28,0.76)" stroke="rgba(255,255,255,0.1)" stroke-width="1.25"/><rect x="458" y="264" width="108" height="408" rx="16" fill="#38bdf8" opacity="0.12"/><rect x="672" y="90" width="128" height="594" rx="22" fill="rgba(8,16,28,0.76)" stroke="rgba(255,255,255,0.1)" stroke-width="1.25"/><rect x="682" y="102" width="108" height="570" rx="16" fill="#60a5fa" opacity="0.24"/><line x1="736" y1="72" x2="880" y2="-18" stroke="#60a5fa" stroke-width="2" stroke-opacity="0.55" stroke-linecap="round"/><rect x="896" y="342" width="128" height="342" rx="22" fill="rgba(8,16,28,0.76)" stroke="rgba(255,255,255,0.1)" stroke-width="1.25"/><rect x="906" y="354" width="108" height="318" rx="16" fill="#38bdf8" opacity="0.12"/><line x1="960" y1="324" x2="1104" y2="234" stroke="#60a5fa" stroke-width="2" stroke-opacity="0.55" stroke-linecap="round"/><rect x="1120" y="180" width="128" height="504" rx="22" fill="rgba(8,16,28,0.76)" stroke="rgba(255,255,255,0.1)" stroke-width="1.25"/><rect x="1130" y="192" width="108" height="480" rx="16" fill="#38bdf8" opacity="0.12"/><line x1="1184" y1="162" x2="1328" y2="72" stroke="#60a5fa" stroke-width="2" stroke-opacity="0.55" stroke-linecap="round"/>
</g>
</svg>