<?xml version="1.0" encoding="UTF-8"?>
<svg xmlns="http://www.w3.org/2000/svg" width="1200" height="1200" viewBox="0 0 1200 1200" fill="none">

<defs>
	<linearGradient id="bg-announcing-csharp-sdk-square-0" x1="0%" y1="0%" x2="100%" y2="100%">
		<stop offset="0%" stop-color="#04070c"/>
		<stop offset="42%" stop-color="#07111d"/>
		<stop offset="100%" stop-color="#030509"/>
	</linearGradient>
	<radialGradient id="glow-announcing-csharp-sdk-square-0" cx="0.2" cy="0.18" r="0.48">
		<stop offset="0%" stop-color="#93c5fd" stop-opacity="0.18"/>
		<stop offset="48%" stop-color="#22d3ee" stop-opacity="0.08"/>
		<stop offset="100%" stop-color="#05070c" stop-opacity="0"/>
	</radialGradient>
	<linearGradient id="panel-announcing-csharp-sdk-square-0" x1="0%" y1="0%" x2="100%" y2="100%">
		<stop offset="0%" stop-color="#0d1726" stop-opacity="0.94"/>
		<stop offset="100%" stop-color="#08101b" stop-opacity="0.58"/>
	</linearGradient>
	<linearGradient id="edge-announcing-csharp-sdk-square-0" x1="0%" y1="0%" x2="100%" y2="0%">
		<stop offset="0%" stop-color="#ffffff" stop-opacity="0"/>
		<stop offset="50%" stop-color="#ffffff" stop-opacity="0.12"/>
		<stop offset="100%" stop-color="#ffffff" stop-opacity="0"/>
	</linearGradient>
	<pattern id="grid-announcing-csharp-sdk-square-0" width="100" height="120" patternUnits="userSpaceOnUse">
		<path d="M 100 0 L 0 0 0 120" fill="none" stroke="#93c5fd" stroke-opacity="0.08" stroke-width="1"/>
	</pattern>
</defs>
<title>announcing-csharp-sdk square variant 1</title>
<desc>Precise bracketed engineering forms and modular nodes, evoking a polished new SDK release.</desc>

	<rect x="0" y="0" width="1200" height="1200" fill="url(#bg-announcing-csharp-sdk-square-0)"/>
	<rect x="0" y="0" width="1200" height="1200" fill="url(#glow-announcing-csharp-sdk-square-0)"/>
	<rect x="0" y="0" width="1200" height="1200" fill="url(#grid-announcing-csharp-sdk-square-0)" opacity="0.42"/>
	<rect x="42" y="42" width="1116" height="1116" rx="37.8" fill="none" stroke="rgba(148,163,184,0.16)" stroke-width="1.5"/>
	<line x1="42" y1="71.4" x2="42" y2="42" stroke="rgba(255,255,255,0.24)" stroke-width="2"/>
	<line x1="42" y1="42" x2="71.4" y2="42" stroke="rgba(255,255,255,0.24)" stroke-width="2"/>
	<line x1="1128.6" y1="42" x2="1158" y2="42" stroke="rgba(255,255,255,0.24)" stroke-width="2"/>
	<line x1="1158" y1="42" x2="1158" y2="71.4" stroke="rgba(255,255,255,0.24)" stroke-width="2"/>
	<line x1="42" y1="1128.6" x2="42" y2="1158" stroke="rgba(255,255,255,0.24)" stroke-width="2"/>
	<line x1="42" y1="1158" x2="71.4" y2="1158" stroke="rgba(255,255,255,0.24)" stroke-width="2"/>
	<line x1="1128.6" y1="1158" x2="1158" y2="1158" stroke="rgba(255,255,255,0.24)" stroke-width="2"/>
	<line x1="1158" y1="1128.6" x2="1158" y2="1158" stroke="rgba(255,255,255,0.24)" stroke-width="2"/>
	<rect x="60.9" y="60.9" width="1078.2" height="1078.2" rx="31.5" fill="none" stroke="url(#edge-announcing-csharp-sdk-square-0)" stroke-width="1"/>

<g><circle cx="116.71" cy="1151.31" r="1.59" fill="#22d3ee" opacity="0.2"/><circle cx="818.74" cy="1074.54" r="2.7" fill="#f8fafc" opacity="0.14"/><circle cx="848.66" cy="377.64" r="2.2" fill="#f8fafc" opacity="0.17"/><circle cx="1002.04" cy="1056.68" r="2.61" fill="#22d3ee" opacity="0.09"/><circle cx="610.72" cy="1084.17" r="1.56" fill="#f8fafc" opacity="0.08"/><circle cx="243.89" cy="916.25" r="2.68" fill="#f8fafc" opacity="0.16"/><circle cx="354.68" cy="512.36" r="1.33" fill="#22d3ee" opacity="0.2"/><circle cx="611.66" cy="156.09" r="1.78" fill="#f8fafc" opacity="0.08"/><circle cx="494.9" cy="695.64" r="1.3" fill="#f8fafc" opacity="0.1"/><circle cx="533.63" cy="647.66" r="1.23" fill="#22d3ee" opacity="0.16"/><circle cx="578.56" cy="411.94" r="1.62" fill="#f8fafc" opacity="0.2"/><circle cx="55.11" cy="1081.8" r="1.75" fill="#f8fafc" opacity="0.1"/><circle cx="714.59" cy="994.48" r="1.9" fill="#22d3ee" opacity="0.2"/><circle cx="895.45" cy="643.52" r="1.91" fill="#f8fafc" opacity="0.19"/><circle cx="692.98" cy="401.23" r="1.48" fill="#f8fafc" opacity="0.19"/><circle cx="567.73" cy="850.12" r="1.73" fill="#22d3ee" opacity="0.15"/></g>
<g>
<rect x="322.8" y="362.4" width="171.6" height="475.2" rx="28" fill="rgba(8,16,28,0.6)" stroke="#93c5fd" stroke-opacity="0.22" stroke-width="1.4"/><rect x="705.6" y="362.4" width="171.6" height="475.2" rx="28" fill="rgba(8,16,28,0.6)" stroke="#93c5fd" stroke-opacity="0.22" stroke-width="1.4"/><rect x="541.92" y="541.92" width="116.16" height="116.16" rx="22" fill="#22d3ee" opacity="0.18" stroke="#22d3ee" stroke-opacity="0.5" stroke-width="2"/><line x1="510.24" y1="600" x2="689.76" y2="600" stroke="#22d3ee" stroke-width="3" stroke-linecap="round"/><line x1="600" y1="510.24" x2="600" y2="689.76" stroke="#93c5fd" stroke-width="2" stroke-dasharray="8 10" stroke-linecap="round" opacity="0.7"/>
</g>
</svg>