<?xml version="1.0" encoding="UTF-8"?>
<svg xmlns="http://www.w3.org/2000/svg" width="1200" height="1200" viewBox="0 0 1200 1200" fill="none">

<defs>
	<linearGradient id="bg-announcing-csharp-sdk-square-3" x1="0%" y1="0%" x2="100%" y2="100%">
		<stop offset="0%" stop-color="#04070c"/>
		<stop offset="42%" stop-color="#07111d"/>
		<stop offset="100%" stop-color="#030509"/>
	</linearGradient>
	<radialGradient id="glow-announcing-csharp-sdk-square-3" cx="0.35" cy="0.5" r="0.48">
		<stop offset="0%" stop-color="#93c5fd" stop-opacity="0.18"/>
		<stop offset="48%" stop-color="#22d3ee" stop-opacity="0.08"/>
		<stop offset="100%" stop-color="#05070c" stop-opacity="0"/>
	</radialGradient>
	<linearGradient id="panel-announcing-csharp-sdk-square-3" x1="0%" y1="0%" x2="100%" y2="100%">
		<stop offset="0%" stop-color="#0d1726" stop-opacity="0.94"/>
		<stop offset="100%" stop-color="#08101b" stop-opacity="0.58"/>
	</linearGradient>
	<linearGradient id="edge-announcing-csharp-sdk-square-3" x1="0%" y1="0%" x2="100%" y2="0%">
		<stop offset="0%" stop-color="#ffffff" stop-opacity="0"/>
		<stop offset="50%" stop-color="#ffffff" stop-opacity="0.12"/>
		<stop offset="100%" stop-color="#ffffff" stop-opacity="0"/>
	</linearGradient>
	<pattern id="grid-announcing-csharp-sdk-square-3" width="100" height="120" patternUnits="userSpaceOnUse">
		<path d="M 100 0 L 0 0 0 120" fill="none" stroke="#93c5fd" stroke-opacity="0.08" stroke-width="1"/>
	</pattern>
</defs>
<title>announcing-csharp-sdk square variant 4</title>
<desc>Precise bracketed engineering forms and modular nodes, evoking a polished new SDK release.</desc>

	<rect x="0" y="0" width="1200" height="1200" fill="url(#bg-announcing-csharp-sdk-square-3)"/>
	<rect x="0" y="0" width="1200" height="1200" fill="url(#glow-announcing-csharp-sdk-square-3)"/>
	<rect x="0" y="0" width="1200" height="1200" fill="url(#grid-announcing-csharp-sdk-square-3)" opacity="0.42"/>
	<rect x="42" y="42" width="1116" height="1116" rx="37.8" fill="none" stroke="rgba(148,163,184,0.16)" stroke-width="1.5"/>
	<line x1="42" y1="71.4" x2="42" y2="42" stroke="rgba(255,255,255,0.24)" stroke-width="2"/>
	<line x1="42" y1="42" x2="71.4" y2="42" stroke="rgba(255,255,255,0.24)" stroke-width="2"/>
	<line x1="1128.6" y1="42" x2="1158" y2="42" stroke="rgba(255,255,255,0.24)" stroke-width="2"/>
	<line x1="1158" y1="42" x2="1158" y2="71.4" stroke="rgba(255,255,255,0.24)" stroke-width="2"/>
	<line x1="42" y1="1128.6" x2="42" y2="1158" stroke="rgba(255,255,255,0.24)" stroke-width="2"/>
	<line x1="42" y1="1158" x2="71.4" y2="1158" stroke="rgba(255,255,255,0.24)" stroke-width="2"/>
	<line x1="1128.6" y1="1158" x2="1158" y2="1158" stroke="rgba(255,255,255,0.24)" stroke-width="2"/>
	<line x1="1158" y1="1128.6" x2="1158" y2="1158" stroke="rgba(255,255,255,0.24)" stroke-width="2"/>
	<rect x="60.9" y="60.9" width="1078.2" height="1078.2" rx="31.5" fill="none" stroke="url(#edge-announcing-csharp-sdk-square-3)" stroke-width="1"/>

<g><circle cx="809.8" cy="1140.34" r="1.59" fill="#22d3ee" opacity="0.08"/><circle cx="756.95" cy="625.46" r="2.57" fill="#f8fafc" opacity="0.17"/><circle cx="1091.25" cy="980.83" r="1.68" fill="#f8fafc" opacity="0.21"/><circle cx="48.47" cy="144.54" r="2.68" fill="#22d3ee" opacity="0.19"/><circle cx="2.11" cy="968.2" r="2.34" fill="#f8fafc" opacity="0.12"/><circle cx="579.04" cy="892" r="2.41" fill="#f8fafc" opacity="0.2"/><circle cx="6.77" cy="62.59" r="1.85" fill="#22d3ee" opacity="0.1"/><circle cx="772.87" cy="772.87" r="1.84" fill="#f8fafc" opacity="0.19"/><circle cx="372.09" cy="359.51" r="2.44" fill="#f8fafc" opacity="0.15"/><circle cx="1173.87" cy="550.02" r="1.31" fill="#22d3ee" opacity="0.17"/><circle cx="844.15" cy="519.06" r="1" fill="#f8fafc" opacity="0.18"/><circle cx="174.7" cy="793.78" r="1.04" fill="#f8fafc" opacity="0.22"/><circle cx="781.12" cy="1168.6" r="2.45" fill="#22d3ee" opacity="0.16"/><circle cx="408.75" cy="160.24" r="1.73" fill="#f8fafc" opacity="0.13"/><circle cx="262.66" cy="530.15" r="1.51" fill="#f8fafc" opacity="0.13"/><circle cx="725.03" cy="1091.78" r="2.68" fill="#22d3ee" opacity="0.23"/></g>
<g>
<rect x="346.8" y="314.4" width="171.6" height="475.2" rx="28" fill="rgba(8,16,28,0.6)" stroke="#93c5fd" stroke-opacity="0.22" stroke-width="1.4"/><rect x="729.6" y="314.4" width="171.6" height="475.2" rx="28" fill="rgba(8,16,28,0.6)" stroke="#93c5fd" stroke-opacity="0.22" stroke-width="1.4"/><rect x="565.92" y="493.92" width="116.16" height="116.16" rx="22" fill="#22d3ee" opacity="0.18" stroke="#22d3ee" stroke-opacity="0.5" stroke-width="2"/><line x1="534.24" y1="552" x2="713.76" y2="552" stroke="#22d3ee" stroke-width="3" stroke-linecap="round"/><line x1="624" y1="462.24" x2="624" y2="641.76" stroke="#93c5fd" stroke-width="2" stroke-dasharray="8 10" stroke-linecap="round" opacity="0.7"/>
</g>
</svg>