<?xml version="1.0" encoding="UTF-8"?>
<svg xmlns="http://www.w3.org/2000/svg" width="1200" height="1200" viewBox="0 0 1200 1200" fill="none">

<defs>
	<linearGradient id="bg-announcing-csharp-sdk-square-2" x1="0%" y1="0%" x2="100%" y2="100%">
		<stop offset="0%" stop-color="#04070c"/>
		<stop offset="42%" stop-color="#07111d"/>
		<stop offset="100%" stop-color="#030509"/>
	</linearGradient>
	<radialGradient id="glow-announcing-csharp-sdk-square-2" cx="0.52" cy="0.7" r="0.48">
		<stop offset="0%" stop-color="#93c5fd" stop-opacity="0.18"/>
		<stop offset="48%" stop-color="#22d3ee" stop-opacity="0.08"/>
		<stop offset="100%" stop-color="#05070c" stop-opacity="0"/>
	</radialGradient>
	<linearGradient id="panel-announcing-csharp-sdk-square-2" x1="0%" y1="0%" x2="100%" y2="100%">
		<stop offset="0%" stop-color="#0d1726" stop-opacity="0.94"/>
		<stop offset="100%" stop-color="#08101b" stop-opacity="0.58"/>
	</linearGradient>
	<linearGradient id="edge-announcing-csharp-sdk-square-2" x1="0%" y1="0%" x2="100%" y2="0%">
		<stop offset="0%" stop-color="#ffffff" stop-opacity="0"/>
		<stop offset="50%" stop-color="#ffffff" stop-opacity="0.12"/>
		<stop offset="100%" stop-color="#ffffff" stop-opacity="0"/>
	</linearGradient>
	<pattern id="grid-announcing-csharp-sdk-square-2" width="100" height="120" patternUnits="userSpaceOnUse">
		<path d="M 100 0 L 0 0 0 120" fill="none" stroke="#93c5fd" stroke-opacity="0.08" stroke-width="1"/>
	</pattern>
</defs>
<title>announcing-csharp-sdk square variant 3</title>
<desc>Precise bracketed engineering forms and modular nodes, evoking a polished new SDK release.</desc>

	<rect x="0" y="0" width="1200" height="1200" fill="url(#bg-announcing-csharp-sdk-square-2)"/>
	<rect x="0" y="0" width="1200" height="1200" fill="url(#glow-announcing-csharp-sdk-square-2)"/>
	<rect x="0" y="0" width="1200" height="1200" fill="url(#grid-announcing-csharp-sdk-square-2)" opacity="0.42"/>
	<rect x="42" y="42" width="1116" height="1116" rx="37.8" fill="none" stroke="rgba(148,163,184,0.16)" stroke-width="1.5"/>
	<line x1="42" y1="71.4" x2="42" y2="42" stroke="rgba(255,255,255,0.24)" stroke-width="2"/>
	<line x1="42" y1="42" x2="71.4" y2="42" stroke="rgba(255,255,255,0.24)" stroke-width="2"/>
	<line x1="1128.6" y1="42" x2="1158" y2="42" stroke="rgba(255,255,255,0.24)" stroke-width="2"/>
	<line x1="1158" y1="42" x2="1158" y2="71.4" stroke="rgba(255,255,255,0.24)" stroke-width="2"/>
	<line x1="42" y1="1128.6" x2="42" y2="1158" stroke="rgba(255,255,255,0.24)" stroke-width="2"/>
	<line x1="42" y1="1158" x2="71.4" y2="1158" stroke="rgba(255,255,255,0.24)" stroke-width="2"/>
	<line x1="1128.6" y1="1158" x2="1158" y2="1158" stroke="rgba(255,255,255,0.24)" stroke-width="2"/>
	<line x1="1158" y1="1128.6" x2="1158" y2="1158" stroke="rgba(255,255,255,0.24)" stroke-width="2"/>
	<rect x="60.9" y="60.9" width="1078.2" height="1078.2" rx="31.5" fill="none" stroke="url(#edge-announcing-csharp-sdk-square-2)" stroke-width="1"/>

<g><circle cx="544.81" cy="312.78" r="2.04" fill="#22d3ee" opacity="0.14"/><circle cx="1030.92" cy="683.01" r="2.35" fill="#f8fafc" opacity="0.11"/><circle cx="722.95" cy="434.29" r="2.64" fill="#f8fafc" opacity="0.11"/><circle cx="948.33" cy="63.75" r="2.59" fill="#22d3ee" opacity="0.17"/><circle cx="1174.01" cy="320.4" r="1.35" fill="#f8fafc" opacity="0.08"/><circle cx="429.04" cy="214.33" r="1.36" fill="#f8fafc" opacity="0.11"/><circle cx="403.96" cy="344.92" r="2.71" fill="#22d3ee" opacity="0.08"/><circle cx="851.94" cy="590.44" r="2.47" fill="#f8fafc" opacity="0.18"/><circle cx="780.9" cy="370.65" r="1.91" fill="#f8fafc" opacity="0.08"/><circle cx="530.18" cy="326.47" r="1.41" fill="#22d3ee" opacity="0.23"/><circle cx="222.45" cy="905.12" r="1.69" fill="#f8fafc" opacity="0.19"/><circle cx="1048.48" cy="1125.56" r="2.59" fill="#f8fafc" opacity="0.16"/><circle cx="914.8" cy="80.62" r="2.65" fill="#22d3ee" opacity="0.1"/><circle cx="340.57" cy="133.05" r="1.01" fill="#f8fafc" opacity="0.09"/><circle cx="836.82" cy="956.68" r="2.55" fill="#f8fafc" opacity="0.17"/><circle cx="607.15" cy="1019.86" r="1.05" fill="#22d3ee" opacity="0.17"/></g>
<g>
<rect x="274.8" y="410.4" width="171.6" height="475.2" rx="28" fill="rgba(8,16,28,0.6)" stroke="#93c5fd" stroke-opacity="0.22" stroke-width="1.4"/><rect x="657.6" y="410.4" width="171.6" height="475.2" rx="28" fill="rgba(8,16,28,0.6)" stroke="#93c5fd" stroke-opacity="0.22" stroke-width="1.4"/><rect x="493.92" y="589.92" width="116.16" height="116.16" rx="22" fill="#22d3ee" opacity="0.18" stroke="#22d3ee" stroke-opacity="0.5" stroke-width="2"/><line x1="462.24" y1="648" x2="641.76" y2="648" stroke="#22d3ee" stroke-width="3" stroke-linecap="round"/><line x1="552" y1="558.24" x2="552" y2="737.76" stroke="#93c5fd" stroke-width="2" stroke-dasharray="8 10" stroke-linecap="round" opacity="0.7"/>
</g>
</svg>