<?xml version="1.0" encoding="UTF-8"?>
<svg xmlns="http://www.w3.org/2000/svg" width="1600" height="900" viewBox="0 0 1600 900" fill="none">

<defs>
	<linearGradient id="bg-announcing-csharp-sdk-wide-2" x1="0%" y1="0%" x2="100%" y2="100%">
		<stop offset="0%" stop-color="#04070c"/>
		<stop offset="42%" stop-color="#07111d"/>
		<stop offset="100%" stop-color="#030509"/>
	</linearGradient>
	<radialGradient id="glow-announcing-csharp-sdk-wide-2" cx="0.52" cy="0.7" r="0.48">
		<stop offset="0%" stop-color="#93c5fd" stop-opacity="0.18"/>
		<stop offset="48%" stop-color="#22d3ee" stop-opacity="0.08"/>
		<stop offset="100%" stop-color="#05070c" stop-opacity="0"/>
	</radialGradient>
	<linearGradient id="panel-announcing-csharp-sdk-wide-2" x1="0%" y1="0%" x2="100%" y2="100%">
		<stop offset="0%" stop-color="#0d1726" stop-opacity="0.94"/>
		<stop offset="100%" stop-color="#08101b" stop-opacity="0.58"/>
	</linearGradient>
	<linearGradient id="edge-announcing-csharp-sdk-wide-2" x1="0%" y1="0%" x2="100%" y2="0%">
		<stop offset="0%" stop-color="#ffffff" stop-opacity="0"/>
		<stop offset="50%" stop-color="#ffffff" stop-opacity="0.12"/>
		<stop offset="100%" stop-color="#ffffff" stop-opacity="0"/>
	</linearGradient>
	<pattern id="grid-announcing-csharp-sdk-wide-2" width="133.33" height="90" patternUnits="userSpaceOnUse">
		<path d="M 133.33 0 L 0 0 0 90" fill="none" stroke="#93c5fd" stroke-opacity="0.08" stroke-width="1"/>
	</pattern>
</defs>
<title>announcing-csharp-sdk wide variant 3</title>
<desc>Precise bracketed engineering forms and modular nodes, evoking a polished new SDK release.</desc>

	<rect x="0" y="0" width="1600" height="900" fill="url(#bg-announcing-csharp-sdk-wide-2)"/>
	<rect x="0" y="0" width="1600" height="900" fill="url(#glow-announcing-csharp-sdk-wide-2)"/>
	<rect x="0" y="0" width="1600" height="900" fill="url(#grid-announcing-csharp-sdk-wide-2)" opacity="0.42"/>
	<rect x="31.5" y="31.5" width="1537" height="837" rx="28.35" fill="none" stroke="rgba(148,163,184,0.16)" stroke-width="1.5"/>
	<line x1="31.5" y1="53.55" x2="31.5" y2="31.5" stroke="rgba(255,255,255,0.24)" stroke-width="2"/>
	<line x1="31.5" y1="31.5" x2="53.55" y2="31.5" stroke="rgba(255,255,255,0.24)" stroke-width="2"/>
	<line x1="1546.45" y1="31.5" x2="1568.5" y2="31.5" stroke="rgba(255,255,255,0.24)" stroke-width="2"/>
	<line x1="1568.5" y1="31.5" x2="1568.5" y2="53.55" stroke="rgba(255,255,255,0.24)" stroke-width="2"/>
	<line x1="31.5" y1="846.45" x2="31.5" y2="868.5" stroke="rgba(255,255,255,0.24)" stroke-width="2"/>
	<line x1="31.5" y1="868.5" x2="53.55" y2="868.5" stroke="rgba(255,255,255,0.24)" stroke-width="2"/>
	<line x1="1546.45" y1="868.5" x2="1568.5" y2="868.5" stroke="rgba(255,255,255,0.24)" stroke-width="2"/>
	<line x1="1568.5" y1="846.45" x2="1568.5" y2="868.5" stroke="rgba(255,255,255,0.24)" stroke-width="2"/>
	<rect x="45.68" y="45.68" width="1508.65" height="808.65" rx="23.63" fill="none" stroke="url(#edge-announcing-csharp-sdk-wide-2)" stroke-width="1"/>

<g><circle cx="288.79" cy="557.41" r="1.07" fill="#22d3ee" opacity="0.11"/><circle cx="1250.8" cy="331.77" r="2.75" fill="#f8fafc" opacity="0.24"/><circle cx="615.56" cy="443.83" r="1.28" fill="#f8fafc" opacity="0.21"/><circle cx="403.38" cy="535.86" r="1.26" fill="#22d3ee" opacity="0.2"/><circle cx="1036.57" cy="705.27" r="1.39" fill="#f8fafc" opacity="0.08"/><circle cx="1186.31" cy="635.03" r="1.85" fill="#f8fafc" opacity="0.17"/><circle cx="327.76" cy="55.14" r="2.48" fill="#22d3ee" opacity="0.2"/><circle cx="311.89" cy="193.43" r="2.21" fill="#f8fafc" opacity="0.1"/><circle cx="684.27" cy="481.4" r="2.64" fill="#f8fafc" opacity="0.22"/><circle cx="1239.7" cy="760.4" r="1.79" fill="#22d3ee" opacity="0.17"/><circle cx="1458.77" cy="640.79" r="2.71" fill="#f8fafc" opacity="0.14"/><circle cx="828.09" cy="341.02" r="2.07" fill="#f8fafc" opacity="0.14"/><circle cx="876.27" cy="51.95" r="2.54" fill="#22d3ee" opacity="0.2"/><circle cx="343.54" cy="891.06" r="1.19" fill="#f8fafc" opacity="0.22"/><circle cx="607.02" cy="52.34" r="2.41" fill="#f8fafc" opacity="0.18"/><circle cx="915.76" cy="562.59" r="1.65" fill="#22d3ee" opacity="0.14"/></g>
<g>
<rect x="528.1" y="307.8" width="128.7" height="356.4" rx="28" fill="rgba(8,16,28,0.6)" stroke="#93c5fd" stroke-opacity="0.22" stroke-width="1.4"/><rect x="815.2" y="307.8" width="128.7" height="356.4" rx="28" fill="rgba(8,16,28,0.6)" stroke="#93c5fd" stroke-opacity="0.22" stroke-width="1.4"/><rect x="692.44" y="442.44" width="87.12" height="87.12" rx="22" fill="#22d3ee" opacity="0.18" stroke="#22d3ee" stroke-opacity="0.5" stroke-width="2"/><line x1="668.68" y1="486" x2="803.32" y2="486" stroke="#22d3ee" stroke-width="3" stroke-linecap="round"/><line x1="736" y1="418.68" x2="736" y2="553.32" stroke="#93c5fd" stroke-width="2" stroke-dasharray="8 10" stroke-linecap="round" opacity="0.7"/>
</g>
</svg>