<?xml version="1.0" encoding="UTF-8"?>
<svg xmlns="http://www.w3.org/2000/svg" width="1600" height="900" viewBox="0 0 1600 900" fill="none">

<defs>
	<linearGradient id="bg-announcing-csharp-sdk-wide-3" x1="0%" y1="0%" x2="100%" y2="100%">
		<stop offset="0%" stop-color="#04070c"/>
		<stop offset="42%" stop-color="#07111d"/>
		<stop offset="100%" stop-color="#030509"/>
	</linearGradient>
	<radialGradient id="glow-announcing-csharp-sdk-wide-3" cx="0.35" cy="0.5" r="0.48">
		<stop offset="0%" stop-color="#93c5fd" stop-opacity="0.18"/>
		<stop offset="48%" stop-color="#22d3ee" stop-opacity="0.08"/>
		<stop offset="100%" stop-color="#05070c" stop-opacity="0"/>
	</radialGradient>
	<linearGradient id="panel-announcing-csharp-sdk-wide-3" x1="0%" y1="0%" x2="100%" y2="100%">
		<stop offset="0%" stop-color="#0d1726" stop-opacity="0.94"/>
		<stop offset="100%" stop-color="#08101b" stop-opacity="0.58"/>
	</linearGradient>
	<linearGradient id="edge-announcing-csharp-sdk-wide-3" x1="0%" y1="0%" x2="100%" y2="0%">
		<stop offset="0%" stop-color="#ffffff" stop-opacity="0"/>
		<stop offset="50%" stop-color="#ffffff" stop-opacity="0.12"/>
		<stop offset="100%" stop-color="#ffffff" stop-opacity="0"/>
	</linearGradient>
	<pattern id="grid-announcing-csharp-sdk-wide-3" width="133.33" height="90" patternUnits="userSpaceOnUse">
		<path d="M 133.33 0 L 0 0 0 90" fill="none" stroke="#93c5fd" stroke-opacity="0.08" stroke-width="1"/>
	</pattern>
</defs>
<title>announcing-csharp-sdk wide variant 4</title>
<desc>Precise bracketed engineering forms and modular nodes, evoking a polished new SDK release.</desc>

	<rect x="0" y="0" width="1600" height="900" fill="url(#bg-announcing-csharp-sdk-wide-3)"/>
	<rect x="0" y="0" width="1600" height="900" fill="url(#glow-announcing-csharp-sdk-wide-3)"/>
	<rect x="0" y="0" width="1600" height="900" fill="url(#grid-announcing-csharp-sdk-wide-3)" opacity="0.42"/>
	<rect x="31.5" y="31.5" width="1537" height="837" rx="28.35" fill="none" stroke="rgba(148,163,184,0.16)" stroke-width="1.5"/>
	<line x1="31.5" y1="53.55" x2="31.5" y2="31.5" stroke="rgba(255,255,255,0.24)" stroke-width="2"/>
	<line x1="31.5" y1="31.5" x2="53.55" y2="31.5" stroke="rgba(255,255,255,0.24)" stroke-width="2"/>
	<line x1="1546.45" y1="31.5" x2="1568.5" y2="31.5" stroke="rgba(255,255,255,0.24)" stroke-width="2"/>
	<line x1="1568.5" y1="31.5" x2="1568.5" y2="53.55" stroke="rgba(255,255,255,0.24)" stroke-width="2"/>
	<line x1="31.5" y1="846.45" x2="31.5" y2="868.5" stroke="rgba(255,255,255,0.24)" stroke-width="2"/>
	<line x1="31.5" y1="868.5" x2="53.55" y2="868.5" stroke="rgba(255,255,255,0.24)" stroke-width="2"/>
	<line x1="1546.45" y1="868.5" x2="1568.5" y2="868.5" stroke="rgba(255,255,255,0.24)" stroke-width="2"/>
	<line x1="1568.5" y1="846.45" x2="1568.5" y2="868.5" stroke="rgba(255,255,255,0.24)" stroke-width="2"/>
	<rect x="45.68" y="45.68" width="1508.65" height="808.65" rx="23.63" fill="none" stroke="url(#edge-announcing-csharp-sdk-wide-3)" stroke-width="1"/>

<g><circle cx="698.22" cy="505.99" r="1.06" fill="#22d3ee" opacity="0.17"/><circle cx="1556.35" cy="263.21" r="2.37" fill="#f8fafc" opacity="0.24"/><circle cx="915.63" cy="501.35" r="2.02" fill="#f8fafc" opacity="0.19"/><circle cx="619.62" cy="7.36" r="1.81" fill="#22d3ee" opacity="0.16"/><circle cx="308.39" cy="587.13" r="2.53" fill="#f8fafc" opacity="0.14"/><circle cx="660.53" cy="407.87" r="1.4" fill="#f8fafc" opacity="0.17"/><circle cx="1331.63" cy="647.83" r="1.68" fill="#22d3ee" opacity="0.22"/><circle cx="1004.37" cy="264.01" r="2.12" fill="#f8fafc" opacity="0.18"/><circle cx="241.37" cy="590" r="1.41" fill="#f8fafc" opacity="0.16"/><circle cx="1424.74" cy="79.47" r="1.14" fill="#22d3ee" opacity="0.09"/><circle cx="1221.93" cy="54.85" r="1.59" fill="#f8fafc" opacity="0.15"/><circle cx="184.77" cy="795.15" r="2.79" fill="#f8fafc" opacity="0.15"/><circle cx="825.74" cy="325.1" r="1.3" fill="#22d3ee" opacity="0.14"/><circle cx="1443.17" cy="100.79" r="2.37" fill="#f8fafc" opacity="0.2"/><circle cx="922.56" cy="563.65" r="2.64" fill="#f8fafc" opacity="0.1"/><circle cx="401.48" cy="379.25" r="1.21" fill="#22d3ee" opacity="0.2"/></g>
<g>
<rect x="624.1" y="235.8" width="128.7" height="356.4" rx="28" fill="rgba(8,16,28,0.6)" stroke="#93c5fd" stroke-opacity="0.22" stroke-width="1.4"/><rect x="911.2" y="235.8" width="128.7" height="356.4" rx="28" fill="rgba(8,16,28,0.6)" stroke="#93c5fd" stroke-opacity="0.22" stroke-width="1.4"/><rect x="788.44" y="370.44" width="87.12" height="87.12" rx="22" fill="#22d3ee" opacity="0.18" stroke="#22d3ee" stroke-opacity="0.5" stroke-width="2"/><line x1="764.68" y1="414" x2="899.32" y2="414" stroke="#22d3ee" stroke-width="3" stroke-linecap="round"/><line x1="832" y1="346.68" x2="832" y2="481.32" stroke="#93c5fd" stroke-width="2" stroke-dasharray="8 10" stroke-linecap="round" opacity="0.7"/>
</g>
</svg>