<?xml version="1.0" encoding="UTF-8"?>
<svg xmlns="http://www.w3.org/2000/svg" width="1600" height="900" viewBox="0 0 1600 900" fill="none">

<defs>
	<linearGradient id="bg-announcing-csharp-sdk-wide-0" x1="0%" y1="0%" x2="100%" y2="100%">
		<stop offset="0%" stop-color="#04070c"/>
		<stop offset="42%" stop-color="#07111d"/>
		<stop offset="100%" stop-color="#030509"/>
	</linearGradient>
	<radialGradient id="glow-announcing-csharp-sdk-wide-0" cx="0.2" cy="0.18" r="0.48">
		<stop offset="0%" stop-color="#93c5fd" stop-opacity="0.18"/>
		<stop offset="48%" stop-color="#22d3ee" stop-opacity="0.08"/>
		<stop offset="100%" stop-color="#05070c" stop-opacity="0"/>
	</radialGradient>
	<linearGradient id="panel-announcing-csharp-sdk-wide-0" x1="0%" y1="0%" x2="100%" y2="100%">
		<stop offset="0%" stop-color="#0d1726" stop-opacity="0.94"/>
		<stop offset="100%" stop-color="#08101b" stop-opacity="0.58"/>
	</linearGradient>
	<linearGradient id="edge-announcing-csharp-sdk-wide-0" x1="0%" y1="0%" x2="100%" y2="0%">
		<stop offset="0%" stop-color="#ffffff" stop-opacity="0"/>
		<stop offset="50%" stop-color="#ffffff" stop-opacity="0.12"/>
		<stop offset="100%" stop-color="#ffffff" stop-opacity="0"/>
	</linearGradient>
	<pattern id="grid-announcing-csharp-sdk-wide-0" width="133.33" height="90" patternUnits="userSpaceOnUse">
		<path d="M 133.33 0 L 0 0 0 90" fill="none" stroke="#93c5fd" stroke-opacity="0.08" stroke-width="1"/>
	</pattern>
</defs>
<title>announcing-csharp-sdk wide variant 1</title>
<desc>Precise bracketed engineering forms and modular nodes, evoking a polished new SDK release.</desc>

	<rect x="0" y="0" width="1600" height="900" fill="url(#bg-announcing-csharp-sdk-wide-0)"/>
	<rect x="0" y="0" width="1600" height="900" fill="url(#glow-announcing-csharp-sdk-wide-0)"/>
	<rect x="0" y="0" width="1600" height="900" fill="url(#grid-announcing-csharp-sdk-wide-0)" opacity="0.42"/>
	<rect x="31.5" y="31.5" width="1537" height="837" rx="28.35" fill="none" stroke="rgba(148,163,184,0.16)" stroke-width="1.5"/>
	<line x1="31.5" y1="53.55" x2="31.5" y2="31.5" stroke="rgba(255,255,255,0.24)" stroke-width="2"/>
	<line x1="31.5" y1="31.5" x2="53.55" y2="31.5" stroke="rgba(255,255,255,0.24)" stroke-width="2"/>
	<line x1="1546.45" y1="31.5" x2="1568.5" y2="31.5" stroke="rgba(255,255,255,0.24)" stroke-width="2"/>
	<line x1="1568.5" y1="31.5" x2="1568.5" y2="53.55" stroke="rgba(255,255,255,0.24)" stroke-width="2"/>
	<line x1="31.5" y1="846.45" x2="31.5" y2="868.5" stroke="rgba(255,255,255,0.24)" stroke-width="2"/>
	<line x1="31.5" y1="868.5" x2="53.55" y2="868.5" stroke="rgba(255,255,255,0.24)" stroke-width="2"/>
	<line x1="1546.45" y1="868.5" x2="1568.5" y2="868.5" stroke="rgba(255,255,255,0.24)" stroke-width="2"/>
	<line x1="1568.5" y1="846.45" x2="1568.5" y2="868.5" stroke="rgba(255,255,255,0.24)" stroke-width="2"/>
	<rect x="45.68" y="45.68" width="1508.65" height="808.65" rx="23.63" fill="none" stroke="url(#edge-announcing-csharp-sdk-wide-0)" stroke-width="1"/>

<g><circle cx="912.04" cy="482.63" r="1.8" fill="#22d3ee" opacity="0.13"/><circle cx="1545.71" cy="652.63" r="2.25" fill="#f8fafc" opacity="0.1"/><circle cx="234.35" cy="114.54" r="1.78" fill="#f8fafc" opacity="0.21"/><circle cx="449.5" cy="294.12" r="1.86" fill="#22d3ee" opacity="0.19"/><circle cx="518.68" cy="816.56" r="2.37" fill="#f8fafc" opacity="0.09"/><circle cx="53.72" cy="841.6" r="2.58" fill="#f8fafc" opacity="0.18"/><circle cx="1552.29" cy="757.41" r="1.03" fill="#22d3ee" opacity="0.18"/><circle cx="201.17" cy="389.19" r="2.05" fill="#f8fafc" opacity="0.23"/><circle cx="647.24" cy="319.82" r="1.25" fill="#f8fafc" opacity="0.09"/><circle cx="86.33" cy="190.89" r="2.52" fill="#22d3ee" opacity="0.19"/><circle cx="378.05" cy="864.34" r="1.72" fill="#f8fafc" opacity="0.12"/><circle cx="1400.08" cy="95.91" r="1.15" fill="#f8fafc" opacity="0.15"/><circle cx="423.98" cy="792.41" r="2" fill="#22d3ee" opacity="0.13"/><circle cx="365.3" cy="341.8" r="1.15" fill="#f8fafc" opacity="0.19"/><circle cx="1067.65" cy="564.16" r="1.08" fill="#f8fafc" opacity="0.23"/><circle cx="159.65" cy="560.06" r="2.11" fill="#22d3ee" opacity="0.14"/></g>
<g>
<rect x="592.1" y="271.8" width="128.7" height="356.4" rx="28" fill="rgba(8,16,28,0.6)" stroke="#93c5fd" stroke-opacity="0.22" stroke-width="1.4"/><rect x="879.2" y="271.8" width="128.7" height="356.4" rx="28" fill="rgba(8,16,28,0.6)" stroke="#93c5fd" stroke-opacity="0.22" stroke-width="1.4"/><rect x="756.44" y="406.44" width="87.12" height="87.12" rx="22" fill="#22d3ee" opacity="0.18" stroke="#22d3ee" stroke-opacity="0.5" stroke-width="2"/><line x1="732.68" y1="450" x2="867.32" y2="450" stroke="#22d3ee" stroke-width="3" stroke-linecap="round"/><line x1="800" y1="382.68" x2="800" y2="517.32" stroke="#93c5fd" stroke-width="2" stroke-dasharray="8 10" stroke-linecap="round" opacity="0.7"/>
</g>
</svg>