<?xml version="1.0" encoding="UTF-8"?>
<svg xmlns="http://www.w3.org/2000/svg" width="1200" height="1200" viewBox="0 0 1200 1200" fill="none">

<defs>
	<linearGradient id="bg-introducing-terrascale-square-2" x1="0%" y1="0%" x2="100%" y2="100%">
		<stop offset="0%" stop-color="#04070c"/>
		<stop offset="42%" stop-color="#07111d"/>
		<stop offset="100%" stop-color="#030509"/>
	</linearGradient>
	<radialGradient id="glow-introducing-terrascale-square-2" cx="0.52" cy="0.7" r="0.48">
		<stop offset="0%" stop-color="#60a5fa" stop-opacity="0.18"/>
		<stop offset="48%" stop-color="#22d3ee" stop-opacity="0.08"/>
		<stop offset="100%" stop-color="#05070c" stop-opacity="0"/>
	</radialGradient>
	<linearGradient id="panel-introducing-terrascale-square-2" x1="0%" y1="0%" x2="100%" y2="100%">
		<stop offset="0%" stop-color="#0d1726" stop-opacity="0.94"/>
		<stop offset="100%" stop-color="#08101b" stop-opacity="0.58"/>
	</linearGradient>
	<linearGradient id="edge-introducing-terrascale-square-2" x1="0%" y1="0%" x2="100%" y2="0%">
		<stop offset="0%" stop-color="#ffffff" stop-opacity="0"/>
		<stop offset="50%" stop-color="#ffffff" stop-opacity="0.12"/>
		<stop offset="100%" stop-color="#ffffff" stop-opacity="0"/>
	</linearGradient>
	<pattern id="grid-introducing-terrascale-square-2" width="100" height="120" patternUnits="userSpaceOnUse">
		<path d="M 100 0 L 0 0 0 120" fill="none" stroke="#60a5fa" stroke-opacity="0.08" stroke-width="1"/>
	</pattern>
</defs>
<title>introducing-terrascale square variant 3</title>
<desc>Illuminated horizon lines and a rising beacon suggesting a new global data platform emerging from darkness.</desc>

	<rect x="0" y="0" width="1200" height="1200" fill="url(#bg-introducing-terrascale-square-2)"/>
	<rect x="0" y="0" width="1200" height="1200" fill="url(#glow-introducing-terrascale-square-2)"/>
	<rect x="0" y="0" width="1200" height="1200" fill="url(#grid-introducing-terrascale-square-2)" opacity="0.42"/>
	<rect x="42" y="42" width="1116" height="1116" rx="37.8" fill="none" stroke="rgba(148,163,184,0.16)" stroke-width="1.5"/>
	<line x1="42" y1="71.4" x2="42" y2="42" stroke="rgba(255,255,255,0.24)" stroke-width="2"/>
	<line x1="42" y1="42" x2="71.4" y2="42" stroke="rgba(255,255,255,0.24)" stroke-width="2"/>
	<line x1="1128.6" y1="42" x2="1158" y2="42" stroke="rgba(255,255,255,0.24)" stroke-width="2"/>
	<line x1="1158" y1="42" x2="1158" y2="71.4" stroke="rgba(255,255,255,0.24)" stroke-width="2"/>
	<line x1="42" y1="1128.6" x2="42" y2="1158" stroke="rgba(255,255,255,0.24)" stroke-width="2"/>
	<line x1="42" y1="1158" x2="71.4" y2="1158" stroke="rgba(255,255,255,0.24)" stroke-width="2"/>
	<line x1="1128.6" y1="1158" x2="1158" y2="1158" stroke="rgba(255,255,255,0.24)" stroke-width="2"/>
	<line x1="1158" y1="1128.6" x2="1158" y2="1158" stroke="rgba(255,255,255,0.24)" stroke-width="2"/>
	<rect x="60.9" y="60.9" width="1078.2" height="1078.2" rx="31.5" fill="none" stroke="url(#edge-introducing-terrascale-square-2)" stroke-width="1"/>

<g><circle cx="1174.25" cy="1094.65" r="1.93" fill="#22d3ee" opacity="0.17"/><circle cx="1192.73" cy="1190.8" r="2.36" fill="#f8fafc" opacity="0.23"/><circle cx="635.68" cy="75.43" r="1.37" fill="#f8fafc" opacity="0.16"/><circle cx="255.11" cy="816.08" r="2.15" fill="#22d3ee" opacity="0.2"/><circle cx="678.18" cy="237.77" r="1.75" fill="#f8fafc" opacity="0.11"/><circle cx="1174.55" cy="999.65" r="1.41" fill="#f8fafc" opacity="0.14"/><circle cx="1011.19" cy="774.93" r="2.16" fill="#22d3ee" opacity="0.18"/><circle cx="842.94" cy="1155.88" r="2.58" fill="#f8fafc" opacity="0.24"/><circle cx="337.27" cy="68.89" r="1.32" fill="#f8fafc" opacity="0.21"/><circle cx="67.75" cy="808.13" r="1.18" fill="#22d3ee" opacity="0.23"/><circle cx="959.35" cy="699.78" r="1.8" fill="#f8fafc" opacity="0.14"/><circle cx="847.55" cy="954.09" r="2.43" fill="#f8fafc" opacity="0.17"/><circle cx="684.67" cy="504.25" r="2.25" fill="#22d3ee" opacity="0.1"/><circle cx="259.96" cy="270.36" r="1.51" fill="#f8fafc" opacity="0.12"/><circle cx="239.06" cy="1179.39" r="2.33" fill="#f8fafc" opacity="0.09"/><circle cx="1153.3" cy="160.92" r="2.36" fill="#22d3ee" opacity="0.1"/></g>
<g>
<path d="M 0 864 C 75 899.88 114 919.2 150 919.2 C 186 919.2 225 828.12 300 864 C 375 828.12 414 808.8 450 808.8 C 486 808.8 525 899.88 600 864 C 675 899.88 714 919.2 750 919.2 C 786 919.2 825 828.12 900 864 C 975 828.12 1014 808.8 1050 808.8 C 1086 808.8 1125 899.88 1200 864 L 1200 1200 L 0 1200 Z" fill="rgba(10,17,28,0.76)" fill-opacity="0.1" stroke="#60a5fa" stroke-opacity="0.22" stroke-width="1.4"/><path d="M 0 912 C 75 951.08 114 973.2 150 973.2 C 186 973.2 225 868.92 300 912 C 375 868.92 414 846.8 450 846.8 C 486 846.8 525 951.08 600 912 C 675 951.08 714 973.2 750 973.2 C 786 973.2 825 868.92 900 912 C 975 868.92 1014 846.8 1050 846.8 C 1086 846.8 1125 951.08 1200 912 L 1200 1200 L 0 1200 Z" fill="#09101a" fill-opacity="0.16" stroke="#60a5fa" stroke-opacity="0.19" stroke-width="1.28"/><path d="M 0 960 C 75 1002.28 114 1027.2 150 1027.2 C 186 1027.2 225 909.72 300 960 C 375 909.72 414 884.8 450 884.8 C 486 884.8 525 1002.28 600 960 C 675 1002.28 714 1027.2 750 1027.2 C 786 1027.2 825 909.72 900 960 C 975 909.72 1014 884.8 1050 884.8 C 1086 884.8 1125 1002.28 1200 960 L 1200 1200 L 0 1200 Z" fill="#09101a" fill-opacity="0.22" stroke="#60a5fa" stroke-opacity="0.16" stroke-width="1.16"/><path d="M 0 1008 C 75 1053.48 114 1081.2 150 1081.2 C 186 1081.2 225 950.52 300 1008 C 375 950.52 414 922.8 450 922.8 C 486 922.8 525 1053.48 600 1008 C 675 1053.48 714 1081.2 750 1081.2 C 786 1081.2 825 950.52 900 1008 C 975 950.52 1014 922.8 1050 922.8 C 1086 922.8 1125 1053.48 1200 1008 L 1200 1200 L 0 1200 Z" fill="#09101a" fill-opacity="0.28" stroke="#60a5fa" stroke-opacity="0.13" stroke-width="1.04"/><path d="M 0 1056 C 75 1104.68 114 1135.2 150 1135.2 C 186 1135.2 225 991.32 300 1056 C 375 991.32 414 960.8 450 960.8 C 486 960.8 525 1104.68 600 1056 C 675 1104.68 714 1135.2 750 1135.2 C 786 1135.2 825 991.32 900 1056 C 975 991.32 1014 960.8 1050 960.8 C 1086 960.8 1125 1104.68 1200 1056 L 1200 1200 L 0 1200 Z" fill="#09101a" fill-opacity="0.34" stroke="#60a5fa" stroke-opacity="0.1" stroke-width="0.92"/><line x1="600" y1="672" x2="600" y2="960" stroke="#22d3ee" stroke-width="3" stroke-linecap="round" opacity="0.95"/><circle cx="600" cy="672" r="8" fill="#22d3ee" opacity="0.95"/><circle cx="600" cy="672" r="26" fill="none" stroke="#60a5fa" stroke-opacity="0.38" stroke-width="1.4"/>
</g>
</svg>