<?xml version="1.0" encoding="UTF-8"?>
<svg xmlns="http://www.w3.org/2000/svg" width="1600" height="900" viewBox="0 0 1600 900" fill="none">

<defs>
	<linearGradient id="bg-introducing-terrascale-wide-3" x1="0%" y1="0%" x2="100%" y2="100%">
		<stop offset="0%" stop-color="#04070c"/>
		<stop offset="42%" stop-color="#07111d"/>
		<stop offset="100%" stop-color="#030509"/>
	</linearGradient>
	<radialGradient id="glow-introducing-terrascale-wide-3" cx="0.35" cy="0.5" r="0.48">
		<stop offset="0%" stop-color="#60a5fa" stop-opacity="0.18"/>
		<stop offset="48%" stop-color="#22d3ee" stop-opacity="0.08"/>
		<stop offset="100%" stop-color="#05070c" stop-opacity="0"/>
	</radialGradient>
	<linearGradient id="panel-introducing-terrascale-wide-3" x1="0%" y1="0%" x2="100%" y2="100%">
		<stop offset="0%" stop-color="#0d1726" stop-opacity="0.94"/>
		<stop offset="100%" stop-color="#08101b" stop-opacity="0.58"/>
	</linearGradient>
	<linearGradient id="edge-introducing-terrascale-wide-3" x1="0%" y1="0%" x2="100%" y2="0%">
		<stop offset="0%" stop-color="#ffffff" stop-opacity="0"/>
		<stop offset="50%" stop-color="#ffffff" stop-opacity="0.12"/>
		<stop offset="100%" stop-color="#ffffff" stop-opacity="0"/>
	</linearGradient>
	<pattern id="grid-introducing-terrascale-wide-3" width="133.33" height="90" patternUnits="userSpaceOnUse">
		<path d="M 133.33 0 L 0 0 0 90" fill="none" stroke="#60a5fa" stroke-opacity="0.08" stroke-width="1"/>
	</pattern>
</defs>
<title>introducing-terrascale wide variant 4</title>
<desc>Illuminated horizon lines and a rising beacon suggesting a new global data platform emerging from darkness.</desc>

	<rect x="0" y="0" width="1600" height="900" fill="url(#bg-introducing-terrascale-wide-3)"/>
	<rect x="0" y="0" width="1600" height="900" fill="url(#glow-introducing-terrascale-wide-3)"/>
	<rect x="0" y="0" width="1600" height="900" fill="url(#grid-introducing-terrascale-wide-3)" opacity="0.42"/>
	<rect x="31.5" y="31.5" width="1537" height="837" rx="28.35" fill="none" stroke="rgba(148,163,184,0.16)" stroke-width="1.5"/>
	<line x1="31.5" y1="53.55" x2="31.5" y2="31.5" stroke="rgba(255,255,255,0.24)" stroke-width="2"/>
	<line x1="31.5" y1="31.5" x2="53.55" y2="31.5" stroke="rgba(255,255,255,0.24)" stroke-width="2"/>
	<line x1="1546.45" y1="31.5" x2="1568.5" y2="31.5" stroke="rgba(255,255,255,0.24)" stroke-width="2"/>
	<line x1="1568.5" y1="31.5" x2="1568.5" y2="53.55" stroke="rgba(255,255,255,0.24)" stroke-width="2"/>
	<line x1="31.5" y1="846.45" x2="31.5" y2="868.5" stroke="rgba(255,255,255,0.24)" stroke-width="2"/>
	<line x1="31.5" y1="868.5" x2="53.55" y2="868.5" stroke="rgba(255,255,255,0.24)" stroke-width="2"/>
	<line x1="1546.45" y1="868.5" x2="1568.5" y2="868.5" stroke="rgba(255,255,255,0.24)" stroke-width="2"/>
	<line x1="1568.5" y1="846.45" x2="1568.5" y2="868.5" stroke="rgba(255,255,255,0.24)" stroke-width="2"/>
	<rect x="45.68" y="45.68" width="1508.65" height="808.65" rx="23.63" fill="none" stroke="url(#edge-introducing-terrascale-wide-3)" stroke-width="1"/>

<g><circle cx="139.93" cy="322.68" r="1.19" fill="#22d3ee" opacity="0.13"/><circle cx="1371.26" cy="420.17" r="2.22" fill="#f8fafc" opacity="0.12"/><circle cx="762.56" cy="754.55" r="2.55" fill="#f8fafc" opacity="0.09"/><circle cx="1124.16" cy="236.94" r="1.65" fill="#22d3ee" opacity="0.22"/><circle cx="1147.13" cy="127.21" r="2.13" fill="#f8fafc" opacity="0.15"/><circle cx="938.5" cy="312.13" r="2.52" fill="#f8fafc" opacity="0.13"/><circle cx="1553.76" cy="878.48" r="2.72" fill="#22d3ee" opacity="0.08"/><circle cx="861.24" cy="407.98" r="2.29" fill="#f8fafc" opacity="0.23"/><circle cx="953.11" cy="43.42" r="2.79" fill="#f8fafc" opacity="0.17"/><circle cx="373.25" cy="320.88" r="2.19" fill="#22d3ee" opacity="0.09"/><circle cx="1379.73" cy="51.51" r="1.96" fill="#f8fafc" opacity="0.21"/><circle cx="466.58" cy="236.3" r="2.5" fill="#f8fafc" opacity="0.22"/><circle cx="978.83" cy="110.35" r="1.45" fill="#22d3ee" opacity="0.16"/><circle cx="672.11" cy="784.84" r="2.21" fill="#f8fafc" opacity="0.1"/><circle cx="594.01" cy="332.66" r="2.16" fill="#f8fafc" opacity="0.09"/><circle cx="25.57" cy="594.57" r="1.64" fill="#22d3ee" opacity="0.2"/></g>
<g>
<path d="M 0 594 C 100 620.91 152 635.4 200 635.4 C 248 635.4 300 567.09 400 594 C 500 567.09 552 552.6 600 552.6 C 648 552.6 700 620.91 800 594 C 900 620.91 952 635.4 1000 635.4 C 1048 635.4 1100 567.09 1200 594 C 1300 567.09 1352 552.6 1400 552.6 C 1448 552.6 1500 620.91 1600 594 L 1600 900 L 0 900 Z" fill="rgba(10,17,28,0.76)" fill-opacity="0.1" stroke="#60a5fa" stroke-opacity="0.22" stroke-width="1.4"/><path d="M 0 630 C 100 660.11 152 677.4 200 677.4 C 248 677.4 300 595.89 400 630 C 500 595.89 552 578.6 600 578.6 C 648 578.6 700 660.11 800 630 C 900 660.11 952 677.4 1000 677.4 C 1048 677.4 1100 595.89 1200 630 C 1300 595.89 1352 578.6 1400 578.6 C 1448 578.6 1500 660.11 1600 630 L 1600 900 L 0 900 Z" fill="#09101a" fill-opacity="0.16" stroke="#60a5fa" stroke-opacity="0.19" stroke-width="1.28"/><path d="M 0 666 C 100 699.31 152 719.4 200 719.4 C 248 719.4 300 624.69 400 666 C 500 624.69 552 604.6 600 604.6 C 648 604.6 700 699.31 800 666 C 900 699.31 952 719.4 1000 719.4 C 1048 719.4 1100 624.69 1200 666 C 1300 624.69 1352 604.6 1400 604.6 C 1448 604.6 1500 699.31 1600 666 L 1600 900 L 0 900 Z" fill="#09101a" fill-opacity="0.22" stroke="#60a5fa" stroke-opacity="0.16" stroke-width="1.16"/><path d="M 0 702 C 100 738.51 152 761.4 200 761.4 C 248 761.4 300 653.49 400 702 C 500 653.49 552 630.6 600 630.6 C 648 630.6 700 738.51 800 702 C 900 738.51 952 761.4 1000 761.4 C 1048 761.4 1100 653.49 1200 702 C 1300 653.49 1352 630.6 1400 630.6 C 1448 630.6 1500 738.51 1600 702 L 1600 900 L 0 900 Z" fill="#09101a" fill-opacity="0.28" stroke="#60a5fa" stroke-opacity="0.13" stroke-width="1.04"/><path d="M 0 738 C 100 777.71 152 803.4 200 803.4 C 248 803.4 300 682.29 400 738 C 500 682.29 552 656.6 600 656.6 C 648 656.6 700 777.71 800 738 C 900 777.71 952 803.4 1000 803.4 C 1048 803.4 1100 682.29 1200 738 C 1300 682.29 1352 656.6 1400 656.6 C 1448 656.6 1500 777.71 1600 738 L 1600 900 L 0 900 Z" fill="#09101a" fill-opacity="0.34" stroke="#60a5fa" stroke-opacity="0.1" stroke-width="0.92"/><line x1="576" y1="450" x2="576" y2="666" stroke="#22d3ee" stroke-width="3" stroke-linecap="round" opacity="0.95"/><circle cx="576" cy="450" r="8" fill="#22d3ee" opacity="0.95"/><circle cx="576" cy="450" r="26" fill="none" stroke="#60a5fa" stroke-opacity="0.38" stroke-width="1.4"/>
</g>
</svg>