<?xml version="1.0" encoding="UTF-8"?>
<svg xmlns="http://www.w3.org/2000/svg" width="1200" height="1200" viewBox="0 0 1200 1200" fill="none">

<defs>
	<linearGradient id="bg-understanding-partition-keys-square-0-final" x1="0%" y1="0%" x2="100%" y2="100%">
		<stop offset="0%" stop-color="#04070c"/>
		<stop offset="42%" stop-color="#07111d"/>
		<stop offset="100%" stop-color="#030509"/>
	</linearGradient>
	<radialGradient id="glow-understanding-partition-keys-square-0-final" cx="0.2" cy="0.18" r="0.56">
		<stop offset="0%" stop-color="#7dd3fc" stop-opacity="0.22"/>
		<stop offset="48%" stop-color="#60a5fa" stop-opacity="0.12"/>
		<stop offset="100%" stop-color="#05070c" stop-opacity="0"/>
	</radialGradient>
	<linearGradient id="panel-understanding-partition-keys-square-0-final" x1="0%" y1="0%" x2="100%" y2="100%">
		<stop offset="0%" stop-color="#0d1726" stop-opacity="0.94"/>
		<stop offset="100%" stop-color="#08101b" stop-opacity="0.58"/>
	</linearGradient>
	<linearGradient id="edge-understanding-partition-keys-square-0-final" x1="0%" y1="0%" x2="100%" y2="0%">
		<stop offset="0%" stop-color="#ffffff" stop-opacity="0"/>
		<stop offset="50%" stop-color="#ffffff" stop-opacity="0.18"/>
		<stop offset="100%" stop-color="#ffffff" stop-opacity="0"/>
	</linearGradient>
	<pattern id="grid-understanding-partition-keys-square-0-final" width="100" height="120" patternUnits="userSpaceOnUse">
		<path d="M 100 0 L 0 0 0 120" fill="none" stroke="#7dd3fc" stroke-opacity="0.08" stroke-width="1"/>
	</pattern>
</defs>
<title>understanding-partition-keys square final</title>
<desc>Ordered shelves and compartments with one highlighted retrieval path, visualizing partition and sort key logic.</desc>

	<rect x="0" y="0" width="1200" height="1200" fill="url(#bg-understanding-partition-keys-square-0-final)"/>
	<rect x="0" y="0" width="1200" height="1200" fill="url(#glow-understanding-partition-keys-square-0-final)"/>
	<rect x="0" y="0" width="1200" height="1200" fill="url(#grid-understanding-partition-keys-square-0-final)" opacity="0.42"/>
	<rect x="42" y="42" width="1116" height="1116" rx="37.8" fill="none" stroke="rgba(148,163,184,0.16)" stroke-width="1.5"/>
	<line x1="42" y1="71.4" x2="42" y2="42" stroke="rgba(255,255,255,0.24)" stroke-width="2"/>
	<line x1="42" y1="42" x2="71.4" y2="42" stroke="rgba(255,255,255,0.24)" stroke-width="2"/>
	<line x1="1128.6" y1="42" x2="1158" y2="42" stroke="rgba(255,255,255,0.24)" stroke-width="2"/>
	<line x1="1158" y1="42" x2="1158" y2="71.4" stroke="rgba(255,255,255,0.24)" stroke-width="2"/>
	<line x1="42" y1="1128.6" x2="42" y2="1158" stroke="rgba(255,255,255,0.24)" stroke-width="2"/>
	<line x1="42" y1="1158" x2="71.4" y2="1158" stroke="rgba(255,255,255,0.24)" stroke-width="2"/>
	<line x1="1128.6" y1="1158" x2="1158" y2="1158" stroke="rgba(255,255,255,0.24)" stroke-width="2"/>
	<line x1="1158" y1="1128.6" x2="1158" y2="1158" stroke="rgba(255,255,255,0.24)" stroke-width="2"/>
	<rect x="60.9" y="60.9" width="1078.2" height="1078.2" rx="31.5" fill="none" stroke="url(#edge-understanding-partition-keys-square-0-final)" stroke-width="1"/>

<g><circle cx="657.92" cy="1075.76" r="1.77" fill="#60a5fa" opacity="0.13"/><circle cx="160.99" cy="130.38" r="3.32" fill="#f8fafc" opacity="0.08"/><circle cx="1123.66" cy="611.26" r="3.33" fill="#f8fafc" opacity="0.08"/><circle cx="614.99" cy="890.97" r="3.34" fill="#60a5fa" opacity="0.11"/><circle cx="468.29" cy="149.8" r="3.34" fill="#f8fafc" opacity="0.08"/><circle cx="729.26" cy="275.7" r="1.56" fill="#f8fafc" opacity="0.14"/><circle cx="254.33" cy="87.57" r="2.13" fill="#60a5fa" opacity="0.11"/><circle cx="367.4" cy="1138.85" r="2.12" fill="#f8fafc" opacity="0.19"/><circle cx="448.06" cy="749.19" r="1.79" fill="#f8fafc" opacity="0.16"/><circle cx="921.52" cy="581.2" r="1.22" fill="#60a5fa" opacity="0.22"/><circle cx="307.05" cy="1005.76" r="1.84" fill="#f8fafc" opacity="0.24"/><circle cx="1166.82" cy="167.66" r="2.36" fill="#f8fafc" opacity="0.15"/><circle cx="343.53" cy="234.03" r="2.81" fill="#60a5fa" opacity="0.23"/><circle cx="1117.58" cy="1173.3" r="3.02" fill="#f8fafc" opacity="0.19"/><circle cx="52.42" cy="946.63" r="3.37" fill="#f8fafc" opacity="0.14"/><circle cx="604.99" cy="122.26" r="2.45" fill="#60a5fa" opacity="0.17"/><circle cx="1074.99" cy="13.14" r="1.68" fill="#f8fafc" opacity="0.21"/><circle cx="653.56" cy="479.8" r="1.54" fill="#f8fafc" opacity="0.17"/><circle cx="892.98" cy="799.11" r="1.76" fill="#60a5fa" opacity="0.12"/><circle cx="405.33" cy="774.9" r="2.37" fill="#f8fafc" opacity="0.2"/><circle cx="519.79" cy="498.13" r="1.79" fill="#f8fafc" opacity="0.19"/><circle cx="399.3" cy="105.88" r="3.19" fill="#60a5fa" opacity="0.23"/></g>
<g>
<rect x="192" y="216" width="816" height="672" rx="28" fill="rgba(9,16,26,0.55)" stroke="rgba(255,255,255,0.1)" stroke-width="1.5"/><line x1="355.2" y1="216" x2="355.2" y2="888" stroke="rgba(148,163,184,0.22)" stroke-width="1"/><line x1="518.4" y1="216" x2="518.4" y2="888" stroke="rgba(148,163,184,0.22)" stroke-width="1"/><line x1="681.6" y1="216" x2="681.6" y2="888" stroke="rgba(148,163,184,0.22)" stroke-width="1"/><line x1="844.8" y1="216" x2="844.8" y2="888" stroke="rgba(148,163,184,0.22)" stroke-width="1"/><line x1="192" y1="384" x2="1008" y2="384" stroke="rgba(148,163,184,0.22)" stroke-width="1"/><line x1="192" y1="552" x2="1008" y2="552" stroke="rgba(148,163,184,0.22)" stroke-width="1"/><line x1="192" y1="720" x2="1008" y2="720" stroke="rgba(148,163,184,0.22)" stroke-width="1"/><polyline points="273.6 350.4 273.6 699.84 624.48 699.84 624.48 498.24 877.44 498.24" fill="none" stroke="#60a5fa" stroke-width="5" stroke-linecap="round" stroke-linejoin="round"/><circle cx="273.6" cy="350.4" r="6" fill="#7dd3fc" opacity="0.95"/><circle cx="273.6" cy="699.84" r="6" fill="#7dd3fc" opacity="0.95"/><circle cx="624.48" cy="699.84" r="6" fill="#7dd3fc" opacity="0.95"/><circle cx="624.48" cy="498.24" r="6" fill="#7dd3fc" opacity="0.95"/><circle cx="877.44" cy="498.24" r="8" fill="#60a5fa" opacity="0.95"/>
</g>
</svg>