<?xml version="1.0" encoding="UTF-8"?>
<svg xmlns="http://www.w3.org/2000/svg" width="1600" height="900" viewBox="0 0 1600 900" fill="none">

<defs>
	<linearGradient id="bg-understanding-partition-keys-wide-0-final" x1="0%" y1="0%" x2="100%" y2="100%">
		<stop offset="0%" stop-color="#04070c"/>
		<stop offset="42%" stop-color="#07111d"/>
		<stop offset="100%" stop-color="#030509"/>
	</linearGradient>
	<radialGradient id="glow-understanding-partition-keys-wide-0-final" cx="0.2" cy="0.18" r="0.56">
		<stop offset="0%" stop-color="#7dd3fc" stop-opacity="0.22"/>
		<stop offset="48%" stop-color="#60a5fa" stop-opacity="0.12"/>
		<stop offset="100%" stop-color="#05070c" stop-opacity="0"/>
	</radialGradient>
	<linearGradient id="panel-understanding-partition-keys-wide-0-final" x1="0%" y1="0%" x2="100%" y2="100%">
		<stop offset="0%" stop-color="#0d1726" stop-opacity="0.94"/>
		<stop offset="100%" stop-color="#08101b" stop-opacity="0.58"/>
	</linearGradient>
	<linearGradient id="edge-understanding-partition-keys-wide-0-final" x1="0%" y1="0%" x2="100%" y2="0%">
		<stop offset="0%" stop-color="#ffffff" stop-opacity="0"/>
		<stop offset="50%" stop-color="#ffffff" stop-opacity="0.18"/>
		<stop offset="100%" stop-color="#ffffff" stop-opacity="0"/>
	</linearGradient>
	<pattern id="grid-understanding-partition-keys-wide-0-final" width="133.33" height="90" patternUnits="userSpaceOnUse">
		<path d="M 133.33 0 L 0 0 0 90" fill="none" stroke="#7dd3fc" stroke-opacity="0.08" stroke-width="1"/>
	</pattern>
</defs>
<title>understanding-partition-keys wide final</title>
<desc>Ordered shelves and compartments with one highlighted retrieval path, visualizing partition and sort key logic.</desc>

	<rect x="0" y="0" width="1600" height="900" fill="url(#bg-understanding-partition-keys-wide-0-final)"/>
	<rect x="0" y="0" width="1600" height="900" fill="url(#glow-understanding-partition-keys-wide-0-final)"/>
	<rect x="0" y="0" width="1600" height="900" fill="url(#grid-understanding-partition-keys-wide-0-final)" opacity="0.42"/>
	<rect x="31.5" y="31.5" width="1537" height="837" rx="28.35" fill="none" stroke="rgba(148,163,184,0.16)" stroke-width="1.5"/>
	<line x1="31.5" y1="53.55" x2="31.5" y2="31.5" stroke="rgba(255,255,255,0.24)" stroke-width="2"/>
	<line x1="31.5" y1="31.5" x2="53.55" y2="31.5" stroke="rgba(255,255,255,0.24)" stroke-width="2"/>
	<line x1="1546.45" y1="31.5" x2="1568.5" y2="31.5" stroke="rgba(255,255,255,0.24)" stroke-width="2"/>
	<line x1="1568.5" y1="31.5" x2="1568.5" y2="53.55" stroke="rgba(255,255,255,0.24)" stroke-width="2"/>
	<line x1="31.5" y1="846.45" x2="31.5" y2="868.5" stroke="rgba(255,255,255,0.24)" stroke-width="2"/>
	<line x1="31.5" y1="868.5" x2="53.55" y2="868.5" stroke="rgba(255,255,255,0.24)" stroke-width="2"/>
	<line x1="1546.45" y1="868.5" x2="1568.5" y2="868.5" stroke="rgba(255,255,255,0.24)" stroke-width="2"/>
	<line x1="1568.5" y1="846.45" x2="1568.5" y2="868.5" stroke="rgba(255,255,255,0.24)" stroke-width="2"/>
	<rect x="45.68" y="45.68" width="1508.65" height="808.65" rx="23.63" fill="none" stroke="url(#edge-understanding-partition-keys-wide-0-final)" stroke-width="1"/>

<g><circle cx="661.54" cy="473.73" r="2.15" fill="#60a5fa" opacity="0.22"/><circle cx="1442.95" cy="460.69" r="1.37" fill="#f8fafc" opacity="0.18"/><circle cx="607.28" cy="232.66" r="1.72" fill="#f8fafc" opacity="0.13"/><circle cx="1392.89" cy="763.77" r="2.43" fill="#60a5fa" opacity="0.24"/><circle cx="666.74" cy="474.95" r="1.11" fill="#f8fafc" opacity="0.15"/><circle cx="1399.23" cy="579.26" r="2.23" fill="#f8fafc" opacity="0.15"/><circle cx="1508.75" cy="84.25" r="2.07" fill="#60a5fa" opacity="0.09"/><circle cx="994.14" cy="129.35" r="3.34" fill="#f8fafc" opacity="0.2"/><circle cx="513.94" cy="645.1" r="1.85" fill="#f8fafc" opacity="0.08"/><circle cx="698.89" cy="642.7" r="1.87" fill="#60a5fa" opacity="0.16"/><circle cx="589.14" cy="419.08" r="1.55" fill="#f8fafc" opacity="0.19"/><circle cx="895.79" cy="892.58" r="1.83" fill="#f8fafc" opacity="0.15"/><circle cx="1379.82" cy="253.63" r="2" fill="#60a5fa" opacity="0.21"/><circle cx="1186.92" cy="647.49" r="1.01" fill="#f8fafc" opacity="0.18"/><circle cx="946.95" cy="420.18" r="1.79" fill="#f8fafc" opacity="0.2"/><circle cx="763.85" cy="363.67" r="1.82" fill="#60a5fa" opacity="0.24"/><circle cx="960.96" cy="420.55" r="1.03" fill="#f8fafc" opacity="0.09"/><circle cx="1160.81" cy="402.38" r="2.84" fill="#f8fafc" opacity="0.2"/><circle cx="138.7" cy="379.81" r="2.44" fill="#60a5fa" opacity="0.14"/><circle cx="878.84" cy="196.98" r="1.64" fill="#f8fafc" opacity="0.14"/><circle cx="142.06" cy="42.87" r="1.2" fill="#f8fafc" opacity="0.12"/><circle cx="360.87" cy="35.96" r="2.13" fill="#60a5fa" opacity="0.16"/></g>
<g>
<rect x="256" y="162" width="1088" height="504" rx="28" fill="rgba(9,16,26,0.55)" stroke="rgba(255,255,255,0.1)" stroke-width="1.5"/><line x1="473.6" y1="162" x2="473.6" y2="666" stroke="rgba(148,163,184,0.22)" stroke-width="1"/><line x1="691.2" y1="162" x2="691.2" y2="666" stroke="rgba(148,163,184,0.22)" stroke-width="1"/><line x1="908.8" y1="162" x2="908.8" y2="666" stroke="rgba(148,163,184,0.22)" stroke-width="1"/><line x1="1126.4" y1="162" x2="1126.4" y2="666" stroke="rgba(148,163,184,0.22)" stroke-width="1"/><line x1="256" y1="288" x2="1344" y2="288" stroke="rgba(148,163,184,0.22)" stroke-width="1"/><line x1="256" y1="414" x2="1344" y2="414" stroke="rgba(148,163,184,0.22)" stroke-width="1"/><line x1="256" y1="540" x2="1344" y2="540" stroke="rgba(148,163,184,0.22)" stroke-width="1"/><polyline points="364.8 262.8 364.8 524.88 832.64 524.88 832.64 373.68 1169.92 373.68" fill="none" stroke="#60a5fa" stroke-width="5" stroke-linecap="round" stroke-linejoin="round"/><circle cx="364.8" cy="262.8" r="6" fill="#7dd3fc" opacity="0.95"/><circle cx="364.8" cy="524.88" r="6" fill="#7dd3fc" opacity="0.95"/><circle cx="832.64" cy="524.88" r="6" fill="#7dd3fc" opacity="0.95"/><circle cx="832.64" cy="373.68" r="6" fill="#7dd3fc" opacity="0.95"/><circle cx="1169.92" cy="373.68" r="8" fill="#60a5fa" opacity="0.95"/>
</g>
</svg>