<?xml version="1.0" encoding="UTF-8"?>
<svg xmlns="http://www.w3.org/2000/svg" width="1200" height="1200" viewBox="0 0 1200 1200" fill="none">

<defs>
	<linearGradient id="bg-transactions-deep-dive-square-1" x1="0%" y1="0%" x2="100%" y2="100%">
		<stop offset="0%" stop-color="#04070c"/>
		<stop offset="42%" stop-color="#07111d"/>
		<stop offset="100%" stop-color="#030509"/>
	</linearGradient>
	<radialGradient id="glow-transactions-deep-dive-square-1" cx="0.78" cy="0.24" r="0.48">
		<stop offset="0%" stop-color="#60a5fa" stop-opacity="0.18"/>
		<stop offset="48%" stop-color="#34d399" stop-opacity="0.08"/>
		<stop offset="100%" stop-color="#05070c" stop-opacity="0"/>
	</radialGradient>
	<linearGradient id="panel-transactions-deep-dive-square-1" x1="0%" y1="0%" x2="100%" y2="100%">
		<stop offset="0%" stop-color="#0d1726" stop-opacity="0.94"/>
		<stop offset="100%" stop-color="#08101b" stop-opacity="0.58"/>
	</linearGradient>
	<linearGradient id="edge-transactions-deep-dive-square-1" x1="0%" y1="0%" x2="100%" y2="0%">
		<stop offset="0%" stop-color="#ffffff" stop-opacity="0"/>
		<stop offset="50%" stop-color="#ffffff" stop-opacity="0.12"/>
		<stop offset="100%" stop-color="#ffffff" stop-opacity="0"/>
	</linearGradient>
	<pattern id="grid-transactions-deep-dive-square-1" width="100" height="120" patternUnits="userSpaceOnUse">
		<path d="M 100 0 L 0 0 0 120" fill="none" stroke="#60a5fa" stroke-opacity="0.08" stroke-width="1"/>
	</pattern>
</defs>
<title>transactions-deep-dive square variant 2</title>
<desc>Two bright atomic forms locked in a balanced frame, expressing precise all-or-nothing transactions.</desc>

	<rect x="0" y="0" width="1200" height="1200" fill="url(#bg-transactions-deep-dive-square-1)"/>
	<rect x="0" y="0" width="1200" height="1200" fill="url(#glow-transactions-deep-dive-square-1)"/>
	<rect x="0" y="0" width="1200" height="1200" fill="url(#grid-transactions-deep-dive-square-1)" opacity="0.42"/>
	<rect x="42" y="42" width="1116" height="1116" rx="37.8" fill="none" stroke="rgba(148,163,184,0.16)" stroke-width="1.5"/>
	<line x1="42" y1="71.4" x2="42" y2="42" stroke="rgba(255,255,255,0.24)" stroke-width="2"/>
	<line x1="42" y1="42" x2="71.4" y2="42" stroke="rgba(255,255,255,0.24)" stroke-width="2"/>
	<line x1="1128.6" y1="42" x2="1158" y2="42" stroke="rgba(255,255,255,0.24)" stroke-width="2"/>
	<line x1="1158" y1="42" x2="1158" y2="71.4" stroke="rgba(255,255,255,0.24)" stroke-width="2"/>
	<line x1="42" y1="1128.6" x2="42" y2="1158" stroke="rgba(255,255,255,0.24)" stroke-width="2"/>
	<line x1="42" y1="1158" x2="71.4" y2="1158" stroke="rgba(255,255,255,0.24)" stroke-width="2"/>
	<line x1="1128.6" y1="1158" x2="1158" y2="1158" stroke="rgba(255,255,255,0.24)" stroke-width="2"/>
	<line x1="1158" y1="1128.6" x2="1158" y2="1158" stroke="rgba(255,255,255,0.24)" stroke-width="2"/>
	<rect x="60.9" y="60.9" width="1078.2" height="1078.2" rx="31.5" fill="none" stroke="url(#edge-transactions-deep-dive-square-1)" stroke-width="1"/>

<g><circle cx="239.95" cy="563.46" r="2.78" fill="#34d399" opacity="0.23"/><circle cx="655.4" cy="359.15" r="1.35" fill="#f8fafc" opacity="0.12"/><circle cx="809.05" cy="936.44" r="2.69" fill="#f8fafc" opacity="0.09"/><circle cx="319.74" cy="541.2" r="1.48" fill="#34d399" opacity="0.11"/><circle cx="603.16" cy="414.39" r="1.09" fill="#f8fafc" opacity="0.24"/><circle cx="123.6" cy="554.57" r="1.08" fill="#f8fafc" opacity="0.08"/><circle cx="65.82" cy="46.63" r="1.97" fill="#34d399" opacity="0.23"/><circle cx="535.67" cy="400.44" r="2.12" fill="#f8fafc" opacity="0.21"/><circle cx="541.18" cy="901.99" r="2.05" fill="#f8fafc" opacity="0.14"/><circle cx="710.45" cy="776.23" r="2.79" fill="#34d399" opacity="0.16"/><circle cx="87.77" cy="80.4" r="1.85" fill="#f8fafc" opacity="0.2"/><circle cx="1010.48" cy="309.35" r="2" fill="#f8fafc" opacity="0.19"/><circle cx="461.97" cy="849.69" r="1.66" fill="#34d399" opacity="0.09"/><circle cx="856.75" cy="497.28" r="1.28" fill="#f8fafc" opacity="0.14"/><circle cx="822.5" cy="1144.88" r="2.53" fill="#f8fafc" opacity="0.21"/><circle cx="481.9" cy="1075.74" r="1.35" fill="#34d399" opacity="0.09"/></g>
<g>
<rect x="360" y="384" width="576" height="432" rx="40" fill="rgba(8,16,28,0.42)" stroke="rgba(255,255,255,0.12)" stroke-width="1.5"/><circle cx="552" cy="600" r="120" fill="rgba(9,16,26,0.64)" stroke="#60a5fa" stroke-opacity="0.4" stroke-width="2"/><circle cx="744" cy="600" r="120" fill="rgba(9,16,26,0.64)" stroke="#34d399" stroke-opacity="0.52" stroke-width="2"/><line x1="672" y1="600" x2="624" y2="600" stroke="#34d399" stroke-width="4" stroke-linecap="round" opacity="0.92"/><circle cx="552" cy="600" r="45.6" fill="#60a5fa" opacity="0.22"/><circle cx="744" cy="600" r="45.6" fill="#34d399" opacity="0.22"/>
</g>
</svg>