<?xml version="1.0" encoding="UTF-8"?>
<svg xmlns="http://www.w3.org/2000/svg" width="1600" height="900" viewBox="0 0 1600 900" fill="none">

<defs>
	<linearGradient id="bg-transactions-deep-dive-wide-3" x1="0%" y1="0%" x2="100%" y2="100%">
		<stop offset="0%" stop-color="#04070c"/>
		<stop offset="42%" stop-color="#07111d"/>
		<stop offset="100%" stop-color="#030509"/>
	</linearGradient>
	<radialGradient id="glow-transactions-deep-dive-wide-3" cx="0.35" cy="0.5" r="0.48">
		<stop offset="0%" stop-color="#60a5fa" stop-opacity="0.18"/>
		<stop offset="48%" stop-color="#34d399" stop-opacity="0.08"/>
		<stop offset="100%" stop-color="#05070c" stop-opacity="0"/>
	</radialGradient>
	<linearGradient id="panel-transactions-deep-dive-wide-3" x1="0%" y1="0%" x2="100%" y2="100%">
		<stop offset="0%" stop-color="#0d1726" stop-opacity="0.94"/>
		<stop offset="100%" stop-color="#08101b" stop-opacity="0.58"/>
	</linearGradient>
	<linearGradient id="edge-transactions-deep-dive-wide-3" x1="0%" y1="0%" x2="100%" y2="0%">
		<stop offset="0%" stop-color="#ffffff" stop-opacity="0"/>
		<stop offset="50%" stop-color="#ffffff" stop-opacity="0.12"/>
		<stop offset="100%" stop-color="#ffffff" stop-opacity="0"/>
	</linearGradient>
	<pattern id="grid-transactions-deep-dive-wide-3" width="133.33" height="90" patternUnits="userSpaceOnUse">
		<path d="M 133.33 0 L 0 0 0 90" fill="none" stroke="#60a5fa" stroke-opacity="0.08" stroke-width="1"/>
	</pattern>
</defs>
<title>transactions-deep-dive wide variant 4</title>
<desc>Two bright atomic forms locked in a balanced frame, expressing precise all-or-nothing transactions.</desc>

	<rect x="0" y="0" width="1600" height="900" fill="url(#bg-transactions-deep-dive-wide-3)"/>
	<rect x="0" y="0" width="1600" height="900" fill="url(#glow-transactions-deep-dive-wide-3)"/>
	<rect x="0" y="0" width="1600" height="900" fill="url(#grid-transactions-deep-dive-wide-3)" opacity="0.42"/>
	<rect x="31.5" y="31.5" width="1537" height="837" rx="28.35" fill="none" stroke="rgba(148,163,184,0.16)" stroke-width="1.5"/>
	<line x1="31.5" y1="53.55" x2="31.5" y2="31.5" stroke="rgba(255,255,255,0.24)" stroke-width="2"/>
	<line x1="31.5" y1="31.5" x2="53.55" y2="31.5" stroke="rgba(255,255,255,0.24)" stroke-width="2"/>
	<line x1="1546.45" y1="31.5" x2="1568.5" y2="31.5" stroke="rgba(255,255,255,0.24)" stroke-width="2"/>
	<line x1="1568.5" y1="31.5" x2="1568.5" y2="53.55" stroke="rgba(255,255,255,0.24)" stroke-width="2"/>
	<line x1="31.5" y1="846.45" x2="31.5" y2="868.5" stroke="rgba(255,255,255,0.24)" stroke-width="2"/>
	<line x1="31.5" y1="868.5" x2="53.55" y2="868.5" stroke="rgba(255,255,255,0.24)" stroke-width="2"/>
	<line x1="1546.45" y1="868.5" x2="1568.5" y2="868.5" stroke="rgba(255,255,255,0.24)" stroke-width="2"/>
	<line x1="1568.5" y1="846.45" x2="1568.5" y2="868.5" stroke="rgba(255,255,255,0.24)" stroke-width="2"/>
	<rect x="45.68" y="45.68" width="1508.65" height="808.65" rx="23.63" fill="none" stroke="url(#edge-transactions-deep-dive-wide-3)" stroke-width="1"/>

<g><circle cx="153.63" cy="695.78" r="2.26" fill="#34d399" opacity="0.19"/><circle cx="707.98" cy="323.76" r="2.43" fill="#f8fafc" opacity="0.08"/><circle cx="573.06" cy="39.07" r="1.73" fill="#f8fafc" opacity="0.12"/><circle cx="726.64" cy="118.91" r="1.14" fill="#34d399" opacity="0.11"/><circle cx="1342.55" cy="497.17" r="1.05" fill="#f8fafc" opacity="0.22"/><circle cx="971.99" cy="67.65" r="2.74" fill="#f8fafc" opacity="0.19"/><circle cx="829.42" cy="280.18" r="2.16" fill="#34d399" opacity="0.24"/><circle cx="562.5" cy="365.64" r="1.66" fill="#f8fafc" opacity="0.09"/><circle cx="740.89" cy="2.61" r="1.95" fill="#f8fafc" opacity="0.16"/><circle cx="912.84" cy="437.6" r="1.73" fill="#34d399" opacity="0.18"/><circle cx="645.84" cy="7.17" r="1.87" fill="#f8fafc" opacity="0.11"/><circle cx="710.35" cy="74.9" r="2.11" fill="#f8fafc" opacity="0.16"/><circle cx="1236.67" cy="481.17" r="1.94" fill="#34d399" opacity="0.2"/><circle cx="378.76" cy="661.12" r="2.8" fill="#f8fafc" opacity="0.22"/><circle cx="1297.72" cy="246.4" r="1.68" fill="#f8fafc" opacity="0.11"/><circle cx="1306.54" cy="802.06" r="2.71" fill="#34d399" opacity="0.18"/></g>
<g>
<rect x="416" y="288" width="768" height="324" rx="40" fill="rgba(8,16,28,0.42)" stroke="rgba(255,255,255,0.12)" stroke-width="1.5"/><circle cx="672" cy="450" r="90" fill="rgba(9,16,26,0.64)" stroke="#60a5fa" stroke-opacity="0.4" stroke-width="2"/><circle cx="928" cy="450" r="90" fill="rgba(9,16,26,0.64)" stroke="#34d399" stroke-opacity="0.52" stroke-width="2"/><line x1="762" y1="450" x2="838" y2="450" stroke="#34d399" stroke-width="4" stroke-linecap="round" opacity="0.92"/><circle cx="672" cy="450" r="34.2" fill="#60a5fa" opacity="0.22"/><circle cx="928" cy="450" r="34.2" fill="#34d399" opacity="0.22"/>
</g>
</svg>