<?xml version="1.0" encoding="UTF-8"?>
<svg xmlns="http://www.w3.org/2000/svg" width="1600" height="900" viewBox="0 0 1600 900" fill="none">

<defs>
	<linearGradient id="bg-transactions-deep-dive-wide-1" x1="0%" y1="0%" x2="100%" y2="100%">
		<stop offset="0%" stop-color="#04070c"/>
		<stop offset="42%" stop-color="#07111d"/>
		<stop offset="100%" stop-color="#030509"/>
	</linearGradient>
	<radialGradient id="glow-transactions-deep-dive-wide-1" cx="0.78" cy="0.24" r="0.48">
		<stop offset="0%" stop-color="#60a5fa" stop-opacity="0.18"/>
		<stop offset="48%" stop-color="#34d399" stop-opacity="0.08"/>
		<stop offset="100%" stop-color="#05070c" stop-opacity="0"/>
	</radialGradient>
	<linearGradient id="panel-transactions-deep-dive-wide-1" x1="0%" y1="0%" x2="100%" y2="100%">
		<stop offset="0%" stop-color="#0d1726" stop-opacity="0.94"/>
		<stop offset="100%" stop-color="#08101b" stop-opacity="0.58"/>
	</linearGradient>
	<linearGradient id="edge-transactions-deep-dive-wide-1" x1="0%" y1="0%" x2="100%" y2="0%">
		<stop offset="0%" stop-color="#ffffff" stop-opacity="0"/>
		<stop offset="50%" stop-color="#ffffff" stop-opacity="0.12"/>
		<stop offset="100%" stop-color="#ffffff" stop-opacity="0"/>
	</linearGradient>
	<pattern id="grid-transactions-deep-dive-wide-1" width="133.33" height="90" patternUnits="userSpaceOnUse">
		<path d="M 133.33 0 L 0 0 0 90" fill="none" stroke="#60a5fa" stroke-opacity="0.08" stroke-width="1"/>
	</pattern>
</defs>
<title>transactions-deep-dive wide variant 2</title>
<desc>Two bright atomic forms locked in a balanced frame, expressing precise all-or-nothing transactions.</desc>

	<rect x="0" y="0" width="1600" height="900" fill="url(#bg-transactions-deep-dive-wide-1)"/>
	<rect x="0" y="0" width="1600" height="900" fill="url(#glow-transactions-deep-dive-wide-1)"/>
	<rect x="0" y="0" width="1600" height="900" fill="url(#grid-transactions-deep-dive-wide-1)" opacity="0.42"/>
	<rect x="31.5" y="31.5" width="1537" height="837" rx="28.35" fill="none" stroke="rgba(148,163,184,0.16)" stroke-width="1.5"/>
	<line x1="31.5" y1="53.55" x2="31.5" y2="31.5" stroke="rgba(255,255,255,0.24)" stroke-width="2"/>
	<line x1="31.5" y1="31.5" x2="53.55" y2="31.5" stroke="rgba(255,255,255,0.24)" stroke-width="2"/>
	<line x1="1546.45" y1="31.5" x2="1568.5" y2="31.5" stroke="rgba(255,255,255,0.24)" stroke-width="2"/>
	<line x1="1568.5" y1="31.5" x2="1568.5" y2="53.55" stroke="rgba(255,255,255,0.24)" stroke-width="2"/>
	<line x1="31.5" y1="846.45" x2="31.5" y2="868.5" stroke="rgba(255,255,255,0.24)" stroke-width="2"/>
	<line x1="31.5" y1="868.5" x2="53.55" y2="868.5" stroke="rgba(255,255,255,0.24)" stroke-width="2"/>
	<line x1="1546.45" y1="868.5" x2="1568.5" y2="868.5" stroke="rgba(255,255,255,0.24)" stroke-width="2"/>
	<line x1="1568.5" y1="846.45" x2="1568.5" y2="868.5" stroke="rgba(255,255,255,0.24)" stroke-width="2"/>
	<rect x="45.68" y="45.68" width="1508.65" height="808.65" rx="23.63" fill="none" stroke="url(#edge-transactions-deep-dive-wide-1)" stroke-width="1"/>

<g><circle cx="850.56" cy="82.47" r="1.71" fill="#34d399" opacity="0.16"/><circle cx="893.07" cy="521.59" r="2.53" fill="#f8fafc" opacity="0.1"/><circle cx="881.27" cy="666.55" r="2" fill="#f8fafc" opacity="0.09"/><circle cx="673.55" cy="590.46" r="1.8" fill="#34d399" opacity="0.13"/><circle cx="1068.33" cy="241.73" r="1.61" fill="#f8fafc" opacity="0.14"/><circle cx="1494.19" cy="64.65" r="2.8" fill="#f8fafc" opacity="0.22"/><circle cx="79.93" cy="3.79" r="1.06" fill="#34d399" opacity="0.12"/><circle cx="869.66" cy="461.75" r="1.03" fill="#f8fafc" opacity="0.16"/><circle cx="450.25" cy="102.19" r="2.68" fill="#f8fafc" opacity="0.11"/><circle cx="1063.82" cy="337.51" r="1.2" fill="#34d399" opacity="0.11"/><circle cx="1471.47" cy="21.87" r="1.42" fill="#f8fafc" opacity="0.11"/><circle cx="1534.58" cy="270.01" r="1.46" fill="#f8fafc" opacity="0.15"/><circle cx="1418.03" cy="153.73" r="1.65" fill="#34d399" opacity="0.15"/><circle cx="706.77" cy="251.98" r="1.39" fill="#f8fafc" opacity="0.15"/><circle cx="871.49" cy="149.71" r="2.48" fill="#f8fafc" opacity="0.12"/><circle cx="1257.67" cy="308.15" r="1.11" fill="#34d399" opacity="0.2"/></g>
<g>
<rect x="480" y="288" width="768" height="324" rx="40" fill="rgba(8,16,28,0.42)" stroke="rgba(255,255,255,0.12)" stroke-width="1.5"/><circle cx="736" cy="450" r="90" fill="rgba(9,16,26,0.64)" stroke="#60a5fa" stroke-opacity="0.4" stroke-width="2"/><circle cx="992" cy="450" r="90" fill="rgba(9,16,26,0.64)" stroke="#34d399" stroke-opacity="0.52" stroke-width="2"/><line x1="826" y1="450" x2="902" y2="450" stroke="#34d399" stroke-width="4" stroke-linecap="round" opacity="0.92"/><circle cx="736" cy="450" r="34.2" fill="#60a5fa" opacity="0.22"/><circle cx="992" cy="450" r="34.2" fill="#34d399" opacity="0.22"/>
</g>
</svg>