<?xml version="1.0" encoding="UTF-8"?>
<svg xmlns="http://www.w3.org/2000/svg" width="1200" height="1200" viewBox="0 0 1200 1200" fill="none">

<defs>
	<linearGradient id="bg-security-best-practices-square-2" x1="0%" y1="0%" x2="100%" y2="100%">
		<stop offset="0%" stop-color="#04070c"/>
		<stop offset="42%" stop-color="#07111d"/>
		<stop offset="100%" stop-color="#030509"/>
	</linearGradient>
	<radialGradient id="glow-security-best-practices-square-2" cx="0.52" cy="0.7" r="0.48">
		<stop offset="0%" stop-color="#93c5fd" stop-opacity="0.18"/>
		<stop offset="48%" stop-color="#34d399" stop-opacity="0.08"/>
		<stop offset="100%" stop-color="#05070c" stop-opacity="0"/>
	</radialGradient>
	<linearGradient id="panel-security-best-practices-square-2" x1="0%" y1="0%" x2="100%" y2="100%">
		<stop offset="0%" stop-color="#0d1726" stop-opacity="0.94"/>
		<stop offset="100%" stop-color="#08101b" stop-opacity="0.58"/>
	</linearGradient>
	<linearGradient id="edge-security-best-practices-square-2" x1="0%" y1="0%" x2="100%" y2="0%">
		<stop offset="0%" stop-color="#ffffff" stop-opacity="0"/>
		<stop offset="50%" stop-color="#ffffff" stop-opacity="0.12"/>
		<stop offset="100%" stop-color="#ffffff" stop-opacity="0"/>
	</linearGradient>
	<pattern id="grid-security-best-practices-square-2" width="100" height="120" patternUnits="userSpaceOnUse">
		<path d="M 100 0 L 0 0 0 120" fill="none" stroke="#93c5fd" stroke-opacity="0.08" stroke-width="1"/>
	</pattern>
</defs>
<title>security-best-practices square variant 3</title>
<desc>Layered shield geometry and guarded perimeter nodes, conveying enterprise-grade database security.</desc>

	<rect x="0" y="0" width="1200" height="1200" fill="url(#bg-security-best-practices-square-2)"/>
	<rect x="0" y="0" width="1200" height="1200" fill="url(#glow-security-best-practices-square-2)"/>
	<rect x="0" y="0" width="1200" height="1200" fill="url(#grid-security-best-practices-square-2)" opacity="0.42"/>
	<rect x="42" y="42" width="1116" height="1116" rx="37.8" fill="none" stroke="rgba(148,163,184,0.16)" stroke-width="1.5"/>
	<line x1="42" y1="71.4" x2="42" y2="42" stroke="rgba(255,255,255,0.24)" stroke-width="2"/>
	<line x1="42" y1="42" x2="71.4" y2="42" stroke="rgba(255,255,255,0.24)" stroke-width="2"/>
	<line x1="1128.6" y1="42" x2="1158" y2="42" stroke="rgba(255,255,255,0.24)" stroke-width="2"/>
	<line x1="1158" y1="42" x2="1158" y2="71.4" stroke="rgba(255,255,255,0.24)" stroke-width="2"/>
	<line x1="42" y1="1128.6" x2="42" y2="1158" stroke="rgba(255,255,255,0.24)" stroke-width="2"/>
	<line x1="42" y1="1158" x2="71.4" y2="1158" stroke="rgba(255,255,255,0.24)" stroke-width="2"/>
	<line x1="1128.6" y1="1158" x2="1158" y2="1158" stroke="rgba(255,255,255,0.24)" stroke-width="2"/>
	<line x1="1158" y1="1128.6" x2="1158" y2="1158" stroke="rgba(255,255,255,0.24)" stroke-width="2"/>
	<rect x="60.9" y="60.9" width="1078.2" height="1078.2" rx="31.5" fill="none" stroke="url(#edge-security-best-practices-square-2)" stroke-width="1"/>

<g><circle cx="516.27" cy="1008.84" r="2.73" fill="#34d399" opacity="0.18"/><circle cx="1055.88" cy="588.74" r="1.98" fill="#f8fafc" opacity="0.23"/><circle cx="27.45" cy="812.33" r="1.78" fill="#f8fafc" opacity="0.08"/><circle cx="530.53" cy="935.8" r="1.62" fill="#34d399" opacity="0.17"/><circle cx="362" cy="281.64" r="1.57" fill="#f8fafc" opacity="0.12"/><circle cx="491.8" cy="82.01" r="2.54" fill="#f8fafc" opacity="0.22"/><circle cx="914.11" cy="758.48" r="2.63" fill="#34d399" opacity="0.2"/><circle cx="1134.35" cy="48.53" r="1.26" fill="#f8fafc" opacity="0.23"/><circle cx="1060.96" cy="823.42" r="1.77" fill="#f8fafc" opacity="0.09"/><circle cx="613.95" cy="1093.11" r="2.19" fill="#34d399" opacity="0.21"/><circle cx="982.89" cy="589.82" r="2.6" fill="#f8fafc" opacity="0.24"/><circle cx="1021.48" cy="1084.97" r="2.46" fill="#f8fafc" opacity="0.21"/><circle cx="12.47" cy="400.76" r="2.72" fill="#34d399" opacity="0.2"/><circle cx="181.14" cy="568.67" r="2.48" fill="#f8fafc" opacity="0.24"/><circle cx="889.46" cy="471.07" r="1.14" fill="#f8fafc" opacity="0.11"/><circle cx="157.06" cy="1003.02" r="1.36" fill="#34d399" opacity="0.15"/></g>
<g>
<polygon points="648 312 816 456 768 756 648 912 528 756 480 456" fill="rgba(8,16,28,0.6)" stroke="#93c5fd" stroke-opacity="0.34" stroke-width="2"/><polygon points="648 385.92 768.96 489.6 734.4 705.6 648 817.92 561.6 705.6 527.04 489.6" fill="none" stroke="#34d399" stroke-opacity="0.42" stroke-width="2"/><path d="M 588 600 L 636 660 L 720 552" fill="none" stroke="#34d399" stroke-width="4" stroke-linecap="round" stroke-linejoin="round"/><circle cx="648" cy="192" r="8" fill="#93c5fd" opacity="0.82"/><circle cx="888" cy="576" r="8" fill="#93c5fd" opacity="0.82"/><circle cx="648" cy="984" r="8" fill="#93c5fd" opacity="0.82"/><circle cx="408" cy="576" r="8" fill="#93c5fd" opacity="0.82"/>
</g>
</svg>