<?xml version="1.0" encoding="UTF-8"?>
<svg xmlns="http://www.w3.org/2000/svg" width="1200" height="1200" viewBox="0 0 1200 1200" fill="none">

<defs>
	<linearGradient id="bg-security-best-practices-square-0" x1="0%" y1="0%" x2="100%" y2="100%">
		<stop offset="0%" stop-color="#04070c"/>
		<stop offset="42%" stop-color="#07111d"/>
		<stop offset="100%" stop-color="#030509"/>
	</linearGradient>
	<radialGradient id="glow-security-best-practices-square-0" cx="0.2" cy="0.18" r="0.48">
		<stop offset="0%" stop-color="#93c5fd" stop-opacity="0.18"/>
		<stop offset="48%" stop-color="#34d399" stop-opacity="0.08"/>
		<stop offset="100%" stop-color="#05070c" stop-opacity="0"/>
	</radialGradient>
	<linearGradient id="panel-security-best-practices-square-0" x1="0%" y1="0%" x2="100%" y2="100%">
		<stop offset="0%" stop-color="#0d1726" stop-opacity="0.94"/>
		<stop offset="100%" stop-color="#08101b" stop-opacity="0.58"/>
	</linearGradient>
	<linearGradient id="edge-security-best-practices-square-0" x1="0%" y1="0%" x2="100%" y2="0%">
		<stop offset="0%" stop-color="#ffffff" stop-opacity="0"/>
		<stop offset="50%" stop-color="#ffffff" stop-opacity="0.12"/>
		<stop offset="100%" stop-color="#ffffff" stop-opacity="0"/>
	</linearGradient>
	<pattern id="grid-security-best-practices-square-0" width="100" height="120" patternUnits="userSpaceOnUse">
		<path d="M 100 0 L 0 0 0 120" fill="none" stroke="#93c5fd" stroke-opacity="0.08" stroke-width="1"/>
	</pattern>
</defs>
<title>security-best-practices square variant 1</title>
<desc>Layered shield geometry and guarded perimeter nodes, conveying enterprise-grade database security.</desc>

	<rect x="0" y="0" width="1200" height="1200" fill="url(#bg-security-best-practices-square-0)"/>
	<rect x="0" y="0" width="1200" height="1200" fill="url(#glow-security-best-practices-square-0)"/>
	<rect x="0" y="0" width="1200" height="1200" fill="url(#grid-security-best-practices-square-0)" opacity="0.42"/>
	<rect x="42" y="42" width="1116" height="1116" rx="37.8" fill="none" stroke="rgba(148,163,184,0.16)" stroke-width="1.5"/>
	<line x1="42" y1="71.4" x2="42" y2="42" stroke="rgba(255,255,255,0.24)" stroke-width="2"/>
	<line x1="42" y1="42" x2="71.4" y2="42" stroke="rgba(255,255,255,0.24)" stroke-width="2"/>
	<line x1="1128.6" y1="42" x2="1158" y2="42" stroke="rgba(255,255,255,0.24)" stroke-width="2"/>
	<line x1="1158" y1="42" x2="1158" y2="71.4" stroke="rgba(255,255,255,0.24)" stroke-width="2"/>
	<line x1="42" y1="1128.6" x2="42" y2="1158" stroke="rgba(255,255,255,0.24)" stroke-width="2"/>
	<line x1="42" y1="1158" x2="71.4" y2="1158" stroke="rgba(255,255,255,0.24)" stroke-width="2"/>
	<line x1="1128.6" y1="1158" x2="1158" y2="1158" stroke="rgba(255,255,255,0.24)" stroke-width="2"/>
	<line x1="1158" y1="1128.6" x2="1158" y2="1158" stroke="rgba(255,255,255,0.24)" stroke-width="2"/>
	<rect x="60.9" y="60.9" width="1078.2" height="1078.2" rx="31.5" fill="none" stroke="url(#edge-security-best-practices-square-0)" stroke-width="1"/>

<g><circle cx="525.93" cy="160.2" r="2.47" fill="#34d399" opacity="0.09"/><circle cx="38.77" cy="785.16" r="1.15" fill="#f8fafc" opacity="0.11"/><circle cx="882.2" cy="1191.68" r="1.35" fill="#f8fafc" opacity="0.22"/><circle cx="816.74" cy="208.52" r="1.47" fill="#34d399" opacity="0.21"/><circle cx="671.74" cy="381.21" r="1.18" fill="#f8fafc" opacity="0.17"/><circle cx="397.54" cy="531.69" r="2.61" fill="#f8fafc" opacity="0.16"/><circle cx="75.41" cy="1158.55" r="2.16" fill="#34d399" opacity="0.1"/><circle cx="470.95" cy="829.39" r="1.04" fill="#f8fafc" opacity="0.11"/><circle cx="1147.39" cy="315.02" r="2.79" fill="#f8fafc" opacity="0.1"/><circle cx="453.02" cy="1110.44" r="2.19" fill="#34d399" opacity="0.09"/><circle cx="262.73" cy="806.4" r="2.13" fill="#f8fafc" opacity="0.09"/><circle cx="1051.17" cy="743.51" r="2.34" fill="#f8fafc" opacity="0.24"/><circle cx="441.59" cy="537.65" r="1.97" fill="#34d399" opacity="0.11"/><circle cx="836.23" cy="691.76" r="1.44" fill="#f8fafc" opacity="0.15"/><circle cx="662.83" cy="1008.01" r="2.51" fill="#f8fafc" opacity="0.12"/><circle cx="100.78" cy="257.32" r="2.75" fill="#34d399" opacity="0.24"/></g>
<g>
<polygon points="600 312 768 456 720 756 600 912 480 756 432 456" fill="rgba(8,16,28,0.6)" stroke="#93c5fd" stroke-opacity="0.34" stroke-width="2"/><polygon points="600 385.92 720.96 489.6 686.4 705.6 600 817.92 513.6 705.6 479.04 489.6" fill="none" stroke="#34d399" stroke-opacity="0.42" stroke-width="2"/><path d="M 540 600 L 588 660 L 672 552" fill="none" stroke="#34d399" stroke-width="4" stroke-linecap="round" stroke-linejoin="round"/><circle cx="600" cy="192" r="8" fill="#93c5fd" opacity="0.82"/><circle cx="840" cy="576" r="8" fill="#93c5fd" opacity="0.82"/><circle cx="600" cy="984" r="8" fill="#93c5fd" opacity="0.82"/><circle cx="360" cy="576" r="8" fill="#93c5fd" opacity="0.82"/>
</g>
</svg>