<?xml version="1.0" encoding="UTF-8"?>
<svg xmlns="http://www.w3.org/2000/svg" width="1600" height="900" viewBox="0 0 1600 900" fill="none">

<defs>
	<linearGradient id="bg-security-best-practices-wide-0" x1="0%" y1="0%" x2="100%" y2="100%">
		<stop offset="0%" stop-color="#04070c"/>
		<stop offset="42%" stop-color="#07111d"/>
		<stop offset="100%" stop-color="#030509"/>
	</linearGradient>
	<radialGradient id="glow-security-best-practices-wide-0" cx="0.2" cy="0.18" r="0.48">
		<stop offset="0%" stop-color="#93c5fd" stop-opacity="0.18"/>
		<stop offset="48%" stop-color="#34d399" stop-opacity="0.08"/>
		<stop offset="100%" stop-color="#05070c" stop-opacity="0"/>
	</radialGradient>
	<linearGradient id="panel-security-best-practices-wide-0" x1="0%" y1="0%" x2="100%" y2="100%">
		<stop offset="0%" stop-color="#0d1726" stop-opacity="0.94"/>
		<stop offset="100%" stop-color="#08101b" stop-opacity="0.58"/>
	</linearGradient>
	<linearGradient id="edge-security-best-practices-wide-0" x1="0%" y1="0%" x2="100%" y2="0%">
		<stop offset="0%" stop-color="#ffffff" stop-opacity="0"/>
		<stop offset="50%" stop-color="#ffffff" stop-opacity="0.12"/>
		<stop offset="100%" stop-color="#ffffff" stop-opacity="0"/>
	</linearGradient>
	<pattern id="grid-security-best-practices-wide-0" width="133.33" height="90" patternUnits="userSpaceOnUse">
		<path d="M 133.33 0 L 0 0 0 90" fill="none" stroke="#93c5fd" stroke-opacity="0.08" stroke-width="1"/>
	</pattern>
</defs>
<title>security-best-practices wide variant 1</title>
<desc>Layered shield geometry and guarded perimeter nodes, conveying enterprise-grade database security.</desc>

	<rect x="0" y="0" width="1600" height="900" fill="url(#bg-security-best-practices-wide-0)"/>
	<rect x="0" y="0" width="1600" height="900" fill="url(#glow-security-best-practices-wide-0)"/>
	<rect x="0" y="0" width="1600" height="900" fill="url(#grid-security-best-practices-wide-0)" opacity="0.42"/>
	<rect x="31.5" y="31.5" width="1537" height="837" rx="28.35" fill="none" stroke="rgba(148,163,184,0.16)" stroke-width="1.5"/>
	<line x1="31.5" y1="53.55" x2="31.5" y2="31.5" stroke="rgba(255,255,255,0.24)" stroke-width="2"/>
	<line x1="31.5" y1="31.5" x2="53.55" y2="31.5" stroke="rgba(255,255,255,0.24)" stroke-width="2"/>
	<line x1="1546.45" y1="31.5" x2="1568.5" y2="31.5" stroke="rgba(255,255,255,0.24)" stroke-width="2"/>
	<line x1="1568.5" y1="31.5" x2="1568.5" y2="53.55" stroke="rgba(255,255,255,0.24)" stroke-width="2"/>
	<line x1="31.5" y1="846.45" x2="31.5" y2="868.5" stroke="rgba(255,255,255,0.24)" stroke-width="2"/>
	<line x1="31.5" y1="868.5" x2="53.55" y2="868.5" stroke="rgba(255,255,255,0.24)" stroke-width="2"/>
	<line x1="1546.45" y1="868.5" x2="1568.5" y2="868.5" stroke="rgba(255,255,255,0.24)" stroke-width="2"/>
	<line x1="1568.5" y1="846.45" x2="1568.5" y2="868.5" stroke="rgba(255,255,255,0.24)" stroke-width="2"/>
	<rect x="45.68" y="45.68" width="1508.65" height="808.65" rx="23.63" fill="none" stroke="url(#edge-security-best-practices-wide-0)" stroke-width="1"/>

<g><circle cx="286.48" cy="530.04" r="1.36" fill="#34d399" opacity="0.11"/><circle cx="1447.58" cy="622.62" r="1.28" fill="#f8fafc" opacity="0.2"/><circle cx="527.42" cy="733.31" r="1.72" fill="#f8fafc" opacity="0.08"/><circle cx="1069.88" cy="464.16" r="1.12" fill="#34d399" opacity="0.12"/><circle cx="1301.99" cy="718.12" r="2.16" fill="#f8fafc" opacity="0.1"/><circle cx="273.32" cy="895.19" r="1.2" fill="#f8fafc" opacity="0.21"/><circle cx="1069.56" cy="567.07" r="1.5" fill="#34d399" opacity="0.09"/><circle cx="226.09" cy="30.18" r="2.52" fill="#f8fafc" opacity="0.2"/><circle cx="919.41" cy="658.08" r="1.67" fill="#f8fafc" opacity="0.2"/><circle cx="489.71" cy="869.74" r="1.82" fill="#34d399" opacity="0.17"/><circle cx="93.58" cy="191.65" r="1.35" fill="#f8fafc" opacity="0.15"/><circle cx="1569.51" cy="422.5" r="1.16" fill="#f8fafc" opacity="0.09"/><circle cx="1523.2" cy="230.05" r="2.74" fill="#34d399" opacity="0.13"/><circle cx="1206.29" cy="776.55" r="1.88" fill="#f8fafc" opacity="0.18"/><circle cx="1530.69" cy="85.25" r="1.5" fill="#f8fafc" opacity="0.11"/><circle cx="6.59" cy="722.47" r="2.33" fill="#34d399" opacity="0.21"/></g>
<g>
<polygon points="800 234 1024 342 960 567 800 684 640 567 576 342" fill="rgba(8,16,28,0.6)" stroke="#93c5fd" stroke-opacity="0.34" stroke-width="2"/><polygon points="800 289.44 961.28 367.2 915.2 529.2 800 613.44 684.8 529.2 638.72 367.2" fill="none" stroke="#34d399" stroke-opacity="0.42" stroke-width="2"/><path d="M 720 450 L 784 495 L 896 414" fill="none" stroke="#34d399" stroke-width="4" stroke-linecap="round" stroke-linejoin="round"/><circle cx="800" cy="144" r="8" fill="#93c5fd" opacity="0.82"/><circle cx="1120" cy="432" r="8" fill="#93c5fd" opacity="0.82"/><circle cx="800" cy="738" r="8" fill="#93c5fd" opacity="0.82"/><circle cx="480" cy="432" r="8" fill="#93c5fd" opacity="0.82"/>
</g>
</svg>