<?xml version="1.0" encoding="UTF-8"?>
<svg xmlns="http://www.w3.org/2000/svg" width="1200" height="1200" viewBox="0 0 1200 1200" fill="none">

<defs>
	<linearGradient id="bg-cost-optimization-tips-square-1-final" x1="0%" y1="0%" x2="100%" y2="100%">
		<stop offset="0%" stop-color="#04070c"/>
		<stop offset="42%" stop-color="#07111d"/>
		<stop offset="100%" stop-color="#030509"/>
	</linearGradient>
	<radialGradient id="glow-cost-optimization-tips-square-1-final" cx="0.78" cy="0.24" r="0.56">
		<stop offset="0%" stop-color="#34d399" stop-opacity="0.22"/>
		<stop offset="48%" stop-color="#60a5fa" stop-opacity="0.12"/>
		<stop offset="100%" stop-color="#05070c" stop-opacity="0"/>
	</radialGradient>
	<linearGradient id="panel-cost-optimization-tips-square-1-final" x1="0%" y1="0%" x2="100%" y2="100%">
		<stop offset="0%" stop-color="#0d1726" stop-opacity="0.94"/>
		<stop offset="100%" stop-color="#08101b" stop-opacity="0.58"/>
	</linearGradient>
	<linearGradient id="edge-cost-optimization-tips-square-1-final" x1="0%" y1="0%" x2="100%" y2="0%">
		<stop offset="0%" stop-color="#ffffff" stop-opacity="0"/>
		<stop offset="50%" stop-color="#ffffff" stop-opacity="0.18"/>
		<stop offset="100%" stop-color="#ffffff" stop-opacity="0"/>
	</linearGradient>
	<pattern id="grid-cost-optimization-tips-square-1-final" width="100" height="120" patternUnits="userSpaceOnUse">
		<path d="M 100 0 L 0 0 0 120" fill="none" stroke="#34d399" stroke-opacity="0.08" stroke-width="1"/>
	</pattern>
</defs>
<title>cost-optimization-tips square final</title>
<desc>Compressed layers and trimmed bands balancing neatly around a core, representing database cost optimization.</desc>

	<rect x="0" y="0" width="1200" height="1200" fill="url(#bg-cost-optimization-tips-square-1-final)"/>
	<rect x="0" y="0" width="1200" height="1200" fill="url(#glow-cost-optimization-tips-square-1-final)"/>
	<rect x="0" y="0" width="1200" height="1200" fill="url(#grid-cost-optimization-tips-square-1-final)" opacity="0.42"/>
	<rect x="42" y="42" width="1116" height="1116" rx="37.8" fill="none" stroke="rgba(148,163,184,0.16)" stroke-width="1.5"/>
	<line x1="42" y1="71.4" x2="42" y2="42" stroke="rgba(255,255,255,0.24)" stroke-width="2"/>
	<line x1="42" y1="42" x2="71.4" y2="42" stroke="rgba(255,255,255,0.24)" stroke-width="2"/>
	<line x1="1128.6" y1="42" x2="1158" y2="42" stroke="rgba(255,255,255,0.24)" stroke-width="2"/>
	<line x1="1158" y1="42" x2="1158" y2="71.4" stroke="rgba(255,255,255,0.24)" stroke-width="2"/>
	<line x1="42" y1="1128.6" x2="42" y2="1158" stroke="rgba(255,255,255,0.24)" stroke-width="2"/>
	<line x1="42" y1="1158" x2="71.4" y2="1158" stroke="rgba(255,255,255,0.24)" stroke-width="2"/>
	<line x1="1128.6" y1="1158" x2="1158" y2="1158" stroke="rgba(255,255,255,0.24)" stroke-width="2"/>
	<line x1="1158" y1="1128.6" x2="1158" y2="1158" stroke="rgba(255,255,255,0.24)" stroke-width="2"/>
	<rect x="60.9" y="60.9" width="1078.2" height="1078.2" rx="31.5" fill="none" stroke="url(#edge-cost-optimization-tips-square-1-final)" stroke-width="1"/>

<g><circle cx="963.5" cy="389.37" r="1.57" fill="#60a5fa" opacity="0.23"/><circle cx="721.32" cy="295.97" r="2.19" fill="#f8fafc" opacity="0.21"/><circle cx="1051.89" cy="734.93" r="2.29" fill="#f8fafc" opacity="0.15"/><circle cx="378.21" cy="277.36" r="2.91" fill="#60a5fa" opacity="0.18"/><circle cx="877.81" cy="829.08" r="3.16" fill="#f8fafc" opacity="0.15"/><circle cx="977.44" cy="677.73" r="3.36" fill="#f8fafc" opacity="0.23"/><circle cx="459.14" cy="906.82" r="2.78" fill="#60a5fa" opacity="0.17"/><circle cx="888.86" cy="234.82" r="2.04" fill="#f8fafc" opacity="0.23"/><circle cx="1008.48" cy="37.18" r="1.15" fill="#f8fafc" opacity="0.13"/><circle cx="469.15" cy="121.09" r="1.78" fill="#60a5fa" opacity="0.14"/><circle cx="238.82" cy="803.98" r="1.03" fill="#f8fafc" opacity="0.13"/><circle cx="678.82" cy="133.63" r="1.54" fill="#f8fafc" opacity="0.18"/><circle cx="709.51" cy="206.28" r="2.89" fill="#60a5fa" opacity="0.17"/><circle cx="316.4" cy="1067.45" r="1.01" fill="#f8fafc" opacity="0.16"/><circle cx="767.13" cy="223.15" r="1.66" fill="#f8fafc" opacity="0.13"/><circle cx="703.03" cy="1189.39" r="2.38" fill="#60a5fa" opacity="0.14"/><circle cx="635.08" cy="58.59" r="1.76" fill="#f8fafc" opacity="0.17"/><circle cx="1155.93" cy="272.25" r="2.87" fill="#f8fafc" opacity="0.1"/><circle cx="268.79" cy="1015.29" r="3.12" fill="#60a5fa" opacity="0.09"/><circle cx="1124.13" cy="1038.09" r="1.08" fill="#f8fafc" opacity="0.1"/><circle cx="653.76" cy="686.05" r="1.33" fill="#f8fafc" opacity="0.11"/><circle cx="811.6" cy="1194.24" r="2.56" fill="#60a5fa" opacity="0.18"/></g>
<g>
<rect x="204" y="336" width="744" height="102" rx="24" fill="rgba(9,16,26,0.72)" stroke="rgba(255,255,255,0.1)" stroke-width="1.2"/><rect x="220" y="348" width="712" height="78" rx="18" fill="#34d399" opacity="0.1"/><rect x="258" y="464" width="636" height="102" rx="24" fill="rgba(9,16,26,0.72)" stroke="rgba(255,255,255,0.1)" stroke-width="1.2"/><rect x="274" y="476" width="604" height="78" rx="18" fill="#34d399" opacity="0.1"/><rect x="312" y="592" width="528" height="102" rx="24" fill="rgba(9,16,26,0.72)" stroke="rgba(255,255,255,0.1)" stroke-width="1.2"/><rect x="328" y="604" width="496" height="78" rx="18" fill="#60a5fa" opacity="0.2"/><rect x="366" y="720" width="420" height="102" rx="24" fill="rgba(9,16,26,0.72)" stroke="rgba(255,255,255,0.1)" stroke-width="1.2"/><rect x="382" y="732" width="388" height="78" rx="18" fill="#34d399" opacity="0.1"/><rect x="420" y="848" width="312" height="102" rx="24" fill="rgba(9,16,26,0.72)" stroke="rgba(255,255,255,0.1)" stroke-width="1.2"/><rect x="436" y="860" width="280" height="78" rx="18" fill="#34d399" opacity="0.1"/><line x1="576" y1="264" x2="576" y2="936" stroke="#60a5fa" stroke-width="4" stroke-linecap="round" opacity="0.9"/>
</g>
</svg>