<?xml version="1.0" encoding="UTF-8"?>
<svg xmlns="http://www.w3.org/2000/svg" width="1600" height="900" viewBox="0 0 1600 900" fill="none">

<defs>
	<linearGradient id="bg-getting-started-5-minutes-wide-3" x1="0%" y1="0%" x2="100%" y2="100%">
		<stop offset="0%" stop-color="#04070c"/>
		<stop offset="42%" stop-color="#07111d"/>
		<stop offset="100%" stop-color="#030509"/>
	</linearGradient>
	<radialGradient id="glow-getting-started-5-minutes-wide-3" cx="0.35" cy="0.5" r="0.48">
		<stop offset="0%" stop-color="#60a5fa" stop-opacity="0.18"/>
		<stop offset="48%" stop-color="#34d399" stop-opacity="0.08"/>
		<stop offset="100%" stop-color="#05070c" stop-opacity="0"/>
	</radialGradient>
	<linearGradient id="panel-getting-started-5-minutes-wide-3" x1="0%" y1="0%" x2="100%" y2="100%">
		<stop offset="0%" stop-color="#0d1726" stop-opacity="0.94"/>
		<stop offset="100%" stop-color="#08101b" stop-opacity="0.58"/>
	</linearGradient>
	<linearGradient id="edge-getting-started-5-minutes-wide-3" x1="0%" y1="0%" x2="100%" y2="0%">
		<stop offset="0%" stop-color="#ffffff" stop-opacity="0"/>
		<stop offset="50%" stop-color="#ffffff" stop-opacity="0.12"/>
		<stop offset="100%" stop-color="#ffffff" stop-opacity="0"/>
	</linearGradient>
	<pattern id="grid-getting-started-5-minutes-wide-3" width="133.33" height="90" patternUnits="userSpaceOnUse">
		<path d="M 133.33 0 L 0 0 0 90" fill="none" stroke="#60a5fa" stroke-opacity="0.08" stroke-width="1"/>
	</pattern>
</defs>
<title>getting-started-5-minutes wide variant 4</title>
<desc>A sequence of clean illuminated steps leading toward a ready-state portal, representing a fast getting-started path.</desc>

	<rect x="0" y="0" width="1600" height="900" fill="url(#bg-getting-started-5-minutes-wide-3)"/>
	<rect x="0" y="0" width="1600" height="900" fill="url(#glow-getting-started-5-minutes-wide-3)"/>
	<rect x="0" y="0" width="1600" height="900" fill="url(#grid-getting-started-5-minutes-wide-3)" opacity="0.42"/>
	<rect x="31.5" y="31.5" width="1537" height="837" rx="28.35" fill="none" stroke="rgba(148,163,184,0.16)" stroke-width="1.5"/>
	<line x1="31.5" y1="53.55" x2="31.5" y2="31.5" stroke="rgba(255,255,255,0.24)" stroke-width="2"/>
	<line x1="31.5" y1="31.5" x2="53.55" y2="31.5" stroke="rgba(255,255,255,0.24)" stroke-width="2"/>
	<line x1="1546.45" y1="31.5" x2="1568.5" y2="31.5" stroke="rgba(255,255,255,0.24)" stroke-width="2"/>
	<line x1="1568.5" y1="31.5" x2="1568.5" y2="53.55" stroke="rgba(255,255,255,0.24)" stroke-width="2"/>
	<line x1="31.5" y1="846.45" x2="31.5" y2="868.5" stroke="rgba(255,255,255,0.24)" stroke-width="2"/>
	<line x1="31.5" y1="868.5" x2="53.55" y2="868.5" stroke="rgba(255,255,255,0.24)" stroke-width="2"/>
	<line x1="1546.45" y1="868.5" x2="1568.5" y2="868.5" stroke="rgba(255,255,255,0.24)" stroke-width="2"/>
	<line x1="1568.5" y1="846.45" x2="1568.5" y2="868.5" stroke="rgba(255,255,255,0.24)" stroke-width="2"/>
	<rect x="45.68" y="45.68" width="1508.65" height="808.65" rx="23.63" fill="none" stroke="url(#edge-getting-started-5-minutes-wide-3)" stroke-width="1"/>

<g><circle cx="1044.1" cy="316.56" r="1.53" fill="#34d399" opacity="0.19"/><circle cx="738.76" cy="164.72" r="2.34" fill="#f8fafc" opacity="0.15"/><circle cx="724.06" cy="160.77" r="1.96" fill="#f8fafc" opacity="0.15"/><circle cx="246.53" cy="675.46" r="1.36" fill="#34d399" opacity="0.2"/><circle cx="1526.06" cy="124.29" r="2.31" fill="#f8fafc" opacity="0.2"/><circle cx="884.7" cy="254.13" r="1.11" fill="#f8fafc" opacity="0.13"/><circle cx="1018.48" cy="747.32" r="2.66" fill="#34d399" opacity="0.24"/><circle cx="18.35" cy="483.31" r="2" fill="#f8fafc" opacity="0.09"/><circle cx="1330.78" cy="384.65" r="1.44" fill="#f8fafc" opacity="0.08"/><circle cx="450.01" cy="43.87" r="1.78" fill="#34d399" opacity="0.17"/><circle cx="150.28" cy="76.92" r="1.68" fill="#f8fafc" opacity="0.12"/><circle cx="1010.24" cy="461.04" r="2.16" fill="#f8fafc" opacity="0.15"/><circle cx="19.64" cy="509.02" r="1.2" fill="#34d399" opacity="0.17"/><circle cx="260.9" cy="399.53" r="1.32" fill="#f8fafc" opacity="0.15"/><circle cx="1023.65" cy="380.29" r="2.64" fill="#f8fafc" opacity="0.13"/><circle cx="883.54" cy="707.68" r="2.77" fill="#34d399" opacity="0.09"/></g>
<g>
<polygon points="288 702 1264 702 1218 744 334 744" fill="rgba(10,17,28,0.72)" stroke="rgba(255,255,255,0.1)" stroke-width="1.25"/><polygon points="344 620 1208 620 1162 662 390 662" fill="rgba(10,17,28,0.72)" stroke="rgba(255,255,255,0.1)" stroke-width="1.25"/><polygon points="400 538 1152 538 1106 580 446 580" fill="rgba(10,17,28,0.72)" stroke="rgba(255,255,255,0.1)" stroke-width="1.25"/><polygon points="456 456 1096 456 1050 498 502 498" fill="rgba(10,17,28,0.72)" stroke="rgba(255,255,255,0.1)" stroke-width="1.25"/><polygon points="512 374 1040 374 994 416 558 416" fill="rgba(10,17,28,0.72)" stroke="rgba(255,255,255,0.1)" stroke-width="1.25"/><rect x="656" y="198" width="288" height="180" rx="24" fill="none" stroke="#34d399" stroke-width="3" opacity="0.9"/><path d="M 800 378 L 800 690" fill="none" stroke="#60a5fa" stroke-width="2" stroke-dasharray="8 12" stroke-opacity="0.6"/>
</g>
</svg>