<?xml version="1.0" encoding="UTF-8"?>
<svg xmlns="http://www.w3.org/2000/svg" width="1600" height="900" viewBox="0 0 1600 900" fill="none">

<defs>
	<linearGradient id="bg-getting-started-5-minutes-wide-2" x1="0%" y1="0%" x2="100%" y2="100%">
		<stop offset="0%" stop-color="#04070c"/>
		<stop offset="42%" stop-color="#07111d"/>
		<stop offset="100%" stop-color="#030509"/>
	</linearGradient>
	<radialGradient id="glow-getting-started-5-minutes-wide-2" cx="0.52" cy="0.7" r="0.48">
		<stop offset="0%" stop-color="#60a5fa" stop-opacity="0.18"/>
		<stop offset="48%" stop-color="#34d399" stop-opacity="0.08"/>
		<stop offset="100%" stop-color="#05070c" stop-opacity="0"/>
	</radialGradient>
	<linearGradient id="panel-getting-started-5-minutes-wide-2" x1="0%" y1="0%" x2="100%" y2="100%">
		<stop offset="0%" stop-color="#0d1726" stop-opacity="0.94"/>
		<stop offset="100%" stop-color="#08101b" stop-opacity="0.58"/>
	</linearGradient>
	<linearGradient id="edge-getting-started-5-minutes-wide-2" x1="0%" y1="0%" x2="100%" y2="0%">
		<stop offset="0%" stop-color="#ffffff" stop-opacity="0"/>
		<stop offset="50%" stop-color="#ffffff" stop-opacity="0.12"/>
		<stop offset="100%" stop-color="#ffffff" stop-opacity="0"/>
	</linearGradient>
	<pattern id="grid-getting-started-5-minutes-wide-2" width="133.33" height="90" patternUnits="userSpaceOnUse">
		<path d="M 133.33 0 L 0 0 0 90" fill="none" stroke="#60a5fa" stroke-opacity="0.08" stroke-width="1"/>
	</pattern>
</defs>
<title>getting-started-5-minutes wide variant 3</title>
<desc>A sequence of clean illuminated steps leading toward a ready-state portal, representing a fast getting-started path.</desc>

	<rect x="0" y="0" width="1600" height="900" fill="url(#bg-getting-started-5-minutes-wide-2)"/>
	<rect x="0" y="0" width="1600" height="900" fill="url(#glow-getting-started-5-minutes-wide-2)"/>
	<rect x="0" y="0" width="1600" height="900" fill="url(#grid-getting-started-5-minutes-wide-2)" opacity="0.42"/>
	<rect x="31.5" y="31.5" width="1537" height="837" rx="28.35" fill="none" stroke="rgba(148,163,184,0.16)" stroke-width="1.5"/>
	<line x1="31.5" y1="53.55" x2="31.5" y2="31.5" stroke="rgba(255,255,255,0.24)" stroke-width="2"/>
	<line x1="31.5" y1="31.5" x2="53.55" y2="31.5" stroke="rgba(255,255,255,0.24)" stroke-width="2"/>
	<line x1="1546.45" y1="31.5" x2="1568.5" y2="31.5" stroke="rgba(255,255,255,0.24)" stroke-width="2"/>
	<line x1="1568.5" y1="31.5" x2="1568.5" y2="53.55" stroke="rgba(255,255,255,0.24)" stroke-width="2"/>
	<line x1="31.5" y1="846.45" x2="31.5" y2="868.5" stroke="rgba(255,255,255,0.24)" stroke-width="2"/>
	<line x1="31.5" y1="868.5" x2="53.55" y2="868.5" stroke="rgba(255,255,255,0.24)" stroke-width="2"/>
	<line x1="1546.45" y1="868.5" x2="1568.5" y2="868.5" stroke="rgba(255,255,255,0.24)" stroke-width="2"/>
	<line x1="1568.5" y1="846.45" x2="1568.5" y2="868.5" stroke="rgba(255,255,255,0.24)" stroke-width="2"/>
	<rect x="45.68" y="45.68" width="1508.65" height="808.65" rx="23.63" fill="none" stroke="url(#edge-getting-started-5-minutes-wide-2)" stroke-width="1"/>

<g><circle cx="1239.43" cy="712.62" r="2.01" fill="#34d399" opacity="0.14"/><circle cx="525.2" cy="453.97" r="1.79" fill="#f8fafc" opacity="0.2"/><circle cx="1088.33" cy="491.88" r="2.02" fill="#f8fafc" opacity="0.18"/><circle cx="552.02" cy="401.07" r="2.16" fill="#34d399" opacity="0.18"/><circle cx="147.51" cy="673.42" r="1.53" fill="#f8fafc" opacity="0.11"/><circle cx="636.95" cy="790.12" r="1.92" fill="#f8fafc" opacity="0.16"/><circle cx="88.15" cy="606.37" r="1.84" fill="#34d399" opacity="0.1"/><circle cx="1561.7" cy="795.24" r="1.09" fill="#f8fafc" opacity="0.22"/><circle cx="1537.09" cy="51.71" r="1.38" fill="#f8fafc" opacity="0.19"/><circle cx="914.02" cy="109.69" r="2.51" fill="#34d399" opacity="0.15"/><circle cx="1465.25" cy="518.89" r="1.22" fill="#f8fafc" opacity="0.09"/><circle cx="821.21" cy="791.12" r="1.77" fill="#f8fafc" opacity="0.23"/><circle cx="671.06" cy="115.33" r="1.46" fill="#34d399" opacity="0.15"/><circle cx="414.36" cy="309.79" r="2.74" fill="#f8fafc" opacity="0.09"/><circle cx="1145.71" cy="331.8" r="1.97" fill="#f8fafc" opacity="0.08"/><circle cx="776.65" cy="801.69" r="2.07" fill="#34d399" opacity="0.08"/></g>
<g>
<polygon points="192 666 1376 666 1330 708 238 708" fill="rgba(10,17,28,0.72)" stroke="rgba(255,255,255,0.1)" stroke-width="1.25"/><polygon points="248 584 1320 584 1274 626 294 626" fill="rgba(10,17,28,0.72)" stroke="rgba(255,255,255,0.1)" stroke-width="1.25"/><polygon points="304 502 1264 502 1218 544 350 544" fill="rgba(10,17,28,0.72)" stroke="rgba(255,255,255,0.1)" stroke-width="1.25"/><polygon points="360 420 1208 420 1162 462 406 462" fill="rgba(10,17,28,0.72)" stroke="rgba(255,255,255,0.1)" stroke-width="1.25"/><polygon points="416 338 1152 338 1106 380 462 380" fill="rgba(10,17,28,0.72)" stroke="rgba(255,255,255,0.1)" stroke-width="1.25"/><rect x="656" y="198" width="288" height="180" rx="24" fill="none" stroke="#34d399" stroke-width="3" opacity="0.9"/><path d="M 800 378 L 800 654" fill="none" stroke="#60a5fa" stroke-width="2" stroke-dasharray="8 12" stroke-opacity="0.6"/>
</g>
</svg>