<?xml version="1.0" encoding="UTF-8"?>
<svg xmlns="http://www.w3.org/2000/svg" width="1200" height="1200" viewBox="0 0 1200 1200" fill="none">

<defs>
	<linearGradient id="bg-getting-started-5-minutes-square-2" x1="0%" y1="0%" x2="100%" y2="100%">
		<stop offset="0%" stop-color="#04070c"/>
		<stop offset="42%" stop-color="#07111d"/>
		<stop offset="100%" stop-color="#030509"/>
	</linearGradient>
	<radialGradient id="glow-getting-started-5-minutes-square-2" cx="0.52" cy="0.7" r="0.48">
		<stop offset="0%" stop-color="#60a5fa" stop-opacity="0.18"/>
		<stop offset="48%" stop-color="#34d399" stop-opacity="0.08"/>
		<stop offset="100%" stop-color="#05070c" stop-opacity="0"/>
	</radialGradient>
	<linearGradient id="panel-getting-started-5-minutes-square-2" x1="0%" y1="0%" x2="100%" y2="100%">
		<stop offset="0%" stop-color="#0d1726" stop-opacity="0.94"/>
		<stop offset="100%" stop-color="#08101b" stop-opacity="0.58"/>
	</linearGradient>
	<linearGradient id="edge-getting-started-5-minutes-square-2" x1="0%" y1="0%" x2="100%" y2="0%">
		<stop offset="0%" stop-color="#ffffff" stop-opacity="0"/>
		<stop offset="50%" stop-color="#ffffff" stop-opacity="0.12"/>
		<stop offset="100%" stop-color="#ffffff" stop-opacity="0"/>
	</linearGradient>
	<pattern id="grid-getting-started-5-minutes-square-2" width="100" height="120" patternUnits="userSpaceOnUse">
		<path d="M 100 0 L 0 0 0 120" fill="none" stroke="#60a5fa" stroke-opacity="0.08" stroke-width="1"/>
	</pattern>
</defs>
<title>getting-started-5-minutes square variant 3</title>
<desc>A sequence of clean illuminated steps leading toward a ready-state portal, representing a fast getting-started path.</desc>

	<rect x="0" y="0" width="1200" height="1200" fill="url(#bg-getting-started-5-minutes-square-2)"/>
	<rect x="0" y="0" width="1200" height="1200" fill="url(#glow-getting-started-5-minutes-square-2)"/>
	<rect x="0" y="0" width="1200" height="1200" fill="url(#grid-getting-started-5-minutes-square-2)" opacity="0.42"/>
	<rect x="42" y="42" width="1116" height="1116" rx="37.8" fill="none" stroke="rgba(148,163,184,0.16)" stroke-width="1.5"/>
	<line x1="42" y1="71.4" x2="42" y2="42" stroke="rgba(255,255,255,0.24)" stroke-width="2"/>
	<line x1="42" y1="42" x2="71.4" y2="42" stroke="rgba(255,255,255,0.24)" stroke-width="2"/>
	<line x1="1128.6" y1="42" x2="1158" y2="42" stroke="rgba(255,255,255,0.24)" stroke-width="2"/>
	<line x1="1158" y1="42" x2="1158" y2="71.4" stroke="rgba(255,255,255,0.24)" stroke-width="2"/>
	<line x1="42" y1="1128.6" x2="42" y2="1158" stroke="rgba(255,255,255,0.24)" stroke-width="2"/>
	<line x1="42" y1="1158" x2="71.4" y2="1158" stroke="rgba(255,255,255,0.24)" stroke-width="2"/>
	<line x1="1128.6" y1="1158" x2="1158" y2="1158" stroke="rgba(255,255,255,0.24)" stroke-width="2"/>
	<line x1="1158" y1="1128.6" x2="1158" y2="1158" stroke="rgba(255,255,255,0.24)" stroke-width="2"/>
	<rect x="60.9" y="60.9" width="1078.2" height="1078.2" rx="31.5" fill="none" stroke="url(#edge-getting-started-5-minutes-square-2)" stroke-width="1"/>

<g><circle cx="266.27" cy="226.3" r="2.64" fill="#34d399" opacity="0.1"/><circle cx="624.53" cy="1161.52" r="1.53" fill="#f8fafc" opacity="0.24"/><circle cx="235.47" cy="837.23" r="1.67" fill="#f8fafc" opacity="0.14"/><circle cx="343.82" cy="486.86" r="2.74" fill="#34d399" opacity="0.18"/><circle cx="970.47" cy="742.73" r="2.24" fill="#f8fafc" opacity="0.15"/><circle cx="675.77" cy="417.91" r="2.39" fill="#f8fafc" opacity="0.08"/><circle cx="797.07" cy="8.74" r="1.32" fill="#34d399" opacity="0.19"/><circle cx="866.32" cy="657.75" r="2.42" fill="#f8fafc" opacity="0.1"/><circle cx="853.04" cy="1080.56" r="1.47" fill="#f8fafc" opacity="0.19"/><circle cx="797.68" cy="661.61" r="2.65" fill="#34d399" opacity="0.09"/><circle cx="986.58" cy="509.3" r="2.67" fill="#f8fafc" opacity="0.14"/><circle cx="51.43" cy="693.88" r="2.77" fill="#f8fafc" opacity="0.16"/><circle cx="139.26" cy="262.02" r="1.03" fill="#34d399" opacity="0.12"/><circle cx="125.97" cy="733.18" r="1.27" fill="#f8fafc" opacity="0.09"/><circle cx="1110.58" cy="313.04" r="2.24" fill="#f8fafc" opacity="0.1"/><circle cx="1064.92" cy="907.52" r="2.74" fill="#34d399" opacity="0.09"/></g>
<g>
<polygon points="144 888 1032 888 986 930 190 930" fill="rgba(10,17,28,0.72)" stroke="rgba(255,255,255,0.1)" stroke-width="1.25"/><polygon points="200 806 976 806 930 848 246 848" fill="rgba(10,17,28,0.72)" stroke="rgba(255,255,255,0.1)" stroke-width="1.25"/><polygon points="256 724 920 724 874 766 302 766" fill="rgba(10,17,28,0.72)" stroke="rgba(255,255,255,0.1)" stroke-width="1.25"/><polygon points="312 642 864 642 818 684 358 684" fill="rgba(10,17,28,0.72)" stroke="rgba(255,255,255,0.1)" stroke-width="1.25"/><polygon points="368 560 808 560 762 602 414 602" fill="rgba(10,17,28,0.72)" stroke="rgba(255,255,255,0.1)" stroke-width="1.25"/><rect x="492" y="264" width="216" height="240" rx="24" fill="none" stroke="#34d399" stroke-width="3" opacity="0.9"/><path d="M 600 504 L 600 876" fill="none" stroke="#60a5fa" stroke-width="2" stroke-dasharray="8 12" stroke-opacity="0.6"/>
</g>
</svg>