<?xml version="1.0" encoding="UTF-8"?>
<svg xmlns="http://www.w3.org/2000/svg" width="1600" height="900" viewBox="0 0 1600 900" fill="none">

<defs>
	<linearGradient id="bg-getting-started-5-minutes-wide-0" x1="0%" y1="0%" x2="100%" y2="100%">
		<stop offset="0%" stop-color="#04070c"/>
		<stop offset="42%" stop-color="#07111d"/>
		<stop offset="100%" stop-color="#030509"/>
	</linearGradient>
	<radialGradient id="glow-getting-started-5-minutes-wide-0" cx="0.2" cy="0.18" r="0.48">
		<stop offset="0%" stop-color="#60a5fa" stop-opacity="0.18"/>
		<stop offset="48%" stop-color="#34d399" stop-opacity="0.08"/>
		<stop offset="100%" stop-color="#05070c" stop-opacity="0"/>
	</radialGradient>
	<linearGradient id="panel-getting-started-5-minutes-wide-0" x1="0%" y1="0%" x2="100%" y2="100%">
		<stop offset="0%" stop-color="#0d1726" stop-opacity="0.94"/>
		<stop offset="100%" stop-color="#08101b" stop-opacity="0.58"/>
	</linearGradient>
	<linearGradient id="edge-getting-started-5-minutes-wide-0" x1="0%" y1="0%" x2="100%" y2="0%">
		<stop offset="0%" stop-color="#ffffff" stop-opacity="0"/>
		<stop offset="50%" stop-color="#ffffff" stop-opacity="0.12"/>
		<stop offset="100%" stop-color="#ffffff" stop-opacity="0"/>
	</linearGradient>
	<pattern id="grid-getting-started-5-minutes-wide-0" width="133.33" height="90" patternUnits="userSpaceOnUse">
		<path d="M 133.33 0 L 0 0 0 90" fill="none" stroke="#60a5fa" stroke-opacity="0.08" stroke-width="1"/>
	</pattern>
</defs>
<title>getting-started-5-minutes wide variant 1</title>
<desc>A sequence of clean illuminated steps leading toward a ready-state portal, representing a fast getting-started path.</desc>

	<rect x="0" y="0" width="1600" height="900" fill="url(#bg-getting-started-5-minutes-wide-0)"/>
	<rect x="0" y="0" width="1600" height="900" fill="url(#glow-getting-started-5-minutes-wide-0)"/>
	<rect x="0" y="0" width="1600" height="900" fill="url(#grid-getting-started-5-minutes-wide-0)" opacity="0.42"/>
	<rect x="31.5" y="31.5" width="1537" height="837" rx="28.35" fill="none" stroke="rgba(148,163,184,0.16)" stroke-width="1.5"/>
	<line x1="31.5" y1="53.55" x2="31.5" y2="31.5" stroke="rgba(255,255,255,0.24)" stroke-width="2"/>
	<line x1="31.5" y1="31.5" x2="53.55" y2="31.5" stroke="rgba(255,255,255,0.24)" stroke-width="2"/>
	<line x1="1546.45" y1="31.5" x2="1568.5" y2="31.5" stroke="rgba(255,255,255,0.24)" stroke-width="2"/>
	<line x1="1568.5" y1="31.5" x2="1568.5" y2="53.55" stroke="rgba(255,255,255,0.24)" stroke-width="2"/>
	<line x1="31.5" y1="846.45" x2="31.5" y2="868.5" stroke="rgba(255,255,255,0.24)" stroke-width="2"/>
	<line x1="31.5" y1="868.5" x2="53.55" y2="868.5" stroke="rgba(255,255,255,0.24)" stroke-width="2"/>
	<line x1="1546.45" y1="868.5" x2="1568.5" y2="868.5" stroke="rgba(255,255,255,0.24)" stroke-width="2"/>
	<line x1="1568.5" y1="846.45" x2="1568.5" y2="868.5" stroke="rgba(255,255,255,0.24)" stroke-width="2"/>
	<rect x="45.68" y="45.68" width="1508.65" height="808.65" rx="23.63" fill="none" stroke="url(#edge-getting-started-5-minutes-wide-0)" stroke-width="1"/>

<g><circle cx="459.17" cy="89.5" r="1.63" fill="#34d399" opacity="0.22"/><circle cx="725.47" cy="62.03" r="2.34" fill="#f8fafc" opacity="0.22"/><circle cx="1377.95" cy="818.05" r="2.67" fill="#f8fafc" opacity="0.19"/><circle cx="993.71" cy="717.9" r="1.71" fill="#34d399" opacity="0.18"/><circle cx="253.27" cy="712.73" r="2.56" fill="#f8fafc" opacity="0.15"/><circle cx="622.82" cy="202.62" r="1.49" fill="#f8fafc" opacity="0.24"/><circle cx="1176.65" cy="525.76" r="1.39" fill="#34d399" opacity="0.11"/><circle cx="615.58" cy="349.78" r="1.69" fill="#f8fafc" opacity="0.12"/><circle cx="1519.79" cy="326.87" r="2.41" fill="#f8fafc" opacity="0.17"/><circle cx="1128.28" cy="118.43" r="1.09" fill="#34d399" opacity="0.23"/><circle cx="643.65" cy="496.65" r="2.2" fill="#f8fafc" opacity="0.19"/><circle cx="1534.13" cy="735.11" r="2.01" fill="#f8fafc" opacity="0.21"/><circle cx="126.71" cy="17.83" r="1.47" fill="#34d399" opacity="0.13"/><circle cx="765.95" cy="305.23" r="1.9" fill="#f8fafc" opacity="0.15"/><circle cx="296.82" cy="507.41" r="2.48" fill="#f8fafc" opacity="0.17"/><circle cx="329.58" cy="525.86" r="2.7" fill="#34d399" opacity="0.2"/></g>
<g>
<polygon points="256 675 1312 675 1266 717 302 717" fill="rgba(10,17,28,0.72)" stroke="rgba(255,255,255,0.1)" stroke-width="1.25"/><polygon points="312 593 1256 593 1210 635 358 635" fill="rgba(10,17,28,0.72)" stroke="rgba(255,255,255,0.1)" stroke-width="1.25"/><polygon points="368 511 1200 511 1154 553 414 553" fill="rgba(10,17,28,0.72)" stroke="rgba(255,255,255,0.1)" stroke-width="1.25"/><polygon points="424 429 1144 429 1098 471 470 471" fill="rgba(10,17,28,0.72)" stroke="rgba(255,255,255,0.1)" stroke-width="1.25"/><polygon points="480 347 1088 347 1042 389 526 389" fill="rgba(10,17,28,0.72)" stroke="rgba(255,255,255,0.1)" stroke-width="1.25"/><rect x="656" y="198" width="288" height="180" rx="24" fill="none" stroke="#34d399" stroke-width="3" opacity="0.9"/><path d="M 800 378 L 800 663" fill="none" stroke="#60a5fa" stroke-width="2" stroke-dasharray="8 12" stroke-opacity="0.6"/>
</g>
</svg>