<svg xmlns="http://www.w3.org/2000/svg" width="196" height="36" viewBox="0 0 196 36" fill="none">
  <rect x="1" y="4" width="28" height="28" rx="8" fill="#0A0A0E" stroke="#60A5FA"/>
  <path d="M8 12H22V16H16V24H12V16H8V12Z" fill="#60A5FA"/>
  <path d="M10 21H20V24H10V21Z" fill="#22D3EE"/>
  <path d="M40 13.4H58.2V17.2H51.3V31H46.9V17.2H40V13.4Z" fill="#F8FAFC"/>
  <path d="M61.1 31V13.4H73.5V17.1H65.5V20.5H72.8V24H65.5V27.3H73.8V31H61.1Z" fill="#F8FAFC"/>
  <path d="M76.7 31V13.4H81.1V27.2H89V31H76.7Z" fill="#F8FAFC"/>
  <path d="M91.7 31V13.4H104.1V17.1H96.1V20.5H103.4V24H96.1V27.3H104.4V31H91.7Z" fill="#F8FAFC"/>
  <path d="M114.7 13.1C119.2 13.1 122 15.5 122.7 19.1H118.1C117.5 17.8 116.3 16.9 114.6 16.9C111.9 16.9 110.1 18.9 110.1 22.2C110.1 25.5 111.9 27.5 114.6 27.5C116.3 27.5 117.5 26.6 118.1 25.3H122.7C122 28.9 119.2 31.3 114.7 31.3C109.2 31.3 105.6 27.4 105.6 22.2C105.6 16.9 109.2 13.1 114.7 13.1Z" fill="#F8FAFC"/>
  <path d="M134 31.2C129 31.2 125.2 27.5 125.2 22.2C125.2 16.9 129 13.1 134 13.1C138.9 13.1 142.8 16.9 142.8 22.2C142.8 27.5 138.9 31.2 134 31.2ZM134 27.2C136.7 27.2 138.3 25.2 138.3 22.2C138.3 19.1 136.7 17.1 134 17.1C131.2 17.1 129.6 19.1 129.6 22.2C129.6 25.2 131.2 27.2 134 27.2Z" fill="#F8FAFC"/>
  <path d="M145.8 31V13.4H150.2V31H145.8Z" fill="#F8FAFC"/>
  <path d="M160.7 31.2C156.6 31.2 153.8 29.2 153.6 25.6H158.3C158.4 26.9 159.3 27.6 160.6 27.6C161.8 27.6 162.6 27 162.6 26.1C162.6 22.9 153.7 24.6 153.8 18.5C153.8 15.2 156.5 13.1 160.2 13.1C164.3 13.1 166.8 15.1 167 18.6H162.2C162.1 17.5 161.3 16.9 160.1 16.9C159.1 16.8 158.4 17.3 158.4 18.3C158.4 21.3 167.2 19.9 167.2 25.7C167.2 28.7 164.9 31.2 160.7 31.2Z" fill="#F8FAFC"/>
  <path d="M170.3 13.4H188.5V17.2H181.6V31H177.2V17.2H170.3V13.4Z" fill="#F8FAFC"/>
</svg>
