<?xml version="1.0" encoding="UTF-8"?>
<svg id="Camada_2" data-name="Camada 2" xmlns="http://www.w3.org/2000/svg" viewBox="0 0 1429.43 345.24">
  <defs>
    <style>
      .cls-1 {
        fill: #121215;
      }
    </style>
  </defs>
  <g id="Camada_1-2" data-name="Camada 1">
    <g>
      <g>
        <path class="cls-1" d="M450.46,127.06v121.48h-29.32v-121.48h-39.59v-25.13h108.5v25.13h-39.59Z"/>
        <path class="cls-1" d="M597.92,224.04v24.51h-62.63l-24.3-14.03v-77.71l24.3-14.03h38.33l24.3,14.03v50.06h-58.23v17.18h58.23ZM539.69,167.28v18.01h29.53v-18.01h-29.53Z"/>
        <path class="cls-1" d="M694.05,168.33h-36.02v80.22h-28.7v-104.73h23.67l5.03,8.59,14.87-8.59h21.15v24.51Z"/>
        <path class="cls-1" d="M779.72,168.33h-36.02v80.22h-28.7v-104.73h23.67l5.03,8.59,14.87-8.59h21.15v24.51Z"/>
        <path class="cls-1" d="M820.77,249.59l-24.3-14.03v-36.23l24.3-14.03h33.93v-16.97h-47.75v-24.51h52.15l24.3,14.03v91.74h-13.82l-14.87-8.59-14.87,8.59h-19.06ZM825.17,207.28v18.22h29.53v-18.22h-29.53Z"/>
        <path class="cls-1" d="M916.91,174.19v-59.27l24.3-14.03h52.99l24.3,14.03v27.86h-29.32v-16.76h-42.94v34.98h47.96l24.3,14.03v60.53l-24.3,14.03h-55.09l-24.3-14.03v-27.86h29.32v16.76h45.03v-36.24h-47.96l-24.3-14.03Z"/>
        <path class="cls-1" d="M1080.7,168.33v55.71h51.94v24.51h-56.34l-24.3-14.03v-76.66l24.3-14.03h56.34v24.51h-51.94Z"/>
        <path class="cls-1" d="M1179.98,249.59l-24.3-14.03v-36.23l24.3-14.03h33.93v-16.97h-47.75v-24.51h52.15l24.3,14.03v91.74h-13.82l-14.87-8.59-14.87,8.59h-19.06ZM1184.38,207.28v18.22h29.53v-18.22h-29.53Z"/>
        <path class="cls-1" d="M1298.32,248.55l-24.3-14.03V95.65h28.7v128.39h20.94v24.51h-25.34Z"/>
        <path class="cls-1" d="M1429.43,224.04v24.51h-62.63l-24.3-14.03v-77.71l24.3-14.03h38.33l24.3,14.03v50.06h-58.23v17.18h58.23ZM1371.2,167.28v18.01h29.53v-18.01h-29.53Z"/>
      </g>
      <g>
        <polygon class="cls-1" points="55.27 116.13 157.01 59.02 106.14 28.79 157.01 0 305.76 87.34 257.3 116.13 205.95 88.78 106.62 147.32 55.27 116.13"/>
        <polygon class="cls-1" points="257.25 115.54 253.98 232.16 306.05 204.05 305.62 262.48 153.27 345.24 153.47 288.87 203.31 258.87 204.11 143.57 257.25 115.54"/>
        <polygon class="cls-1" points="153.22 289.26 55.01 231.23 55.16 290.41 .35 261.52 0 89.02 55.58 115.85 55.44 173.96 153.65 229.19 153.22 289.26"/>
      </g>
    </g>
  </g>
</svg>