<?xml version="1.0" encoding="UTF-8"?>
<svg xmlns="http://www.w3.org/2000/svg" width="1600" height="900" viewBox="0 0 1600 900" fill="none">

<defs>
	<linearGradient id="bg-migrating-from-dynamodb-wide-3" x1="0%" y1="0%" x2="100%" y2="100%">
		<stop offset="0%" stop-color="#04070c"/>
		<stop offset="42%" stop-color="#07111d"/>
		<stop offset="100%" stop-color="#030509"/>
	</linearGradient>
	<radialGradient id="glow-migrating-from-dynamodb-wide-3" cx="0.35" cy="0.5" r="0.48">
		<stop offset="0%" stop-color="#60a5fa" stop-opacity="0.18"/>
		<stop offset="48%" stop-color="#2dd4bf" stop-opacity="0.08"/>
		<stop offset="100%" stop-color="#05070c" stop-opacity="0"/>
	</radialGradient>
	<linearGradient id="panel-migrating-from-dynamodb-wide-3" x1="0%" y1="0%" x2="100%" y2="100%">
		<stop offset="0%" stop-color="#0d1726" stop-opacity="0.94"/>
		<stop offset="100%" stop-color="#08101b" stop-opacity="0.58"/>
	</linearGradient>
	<linearGradient id="edge-migrating-from-dynamodb-wide-3" x1="0%" y1="0%" x2="100%" y2="0%">
		<stop offset="0%" stop-color="#ffffff" stop-opacity="0"/>
		<stop offset="50%" stop-color="#ffffff" stop-opacity="0.12"/>
		<stop offset="100%" stop-color="#ffffff" stop-opacity="0"/>
	</linearGradient>
	<pattern id="grid-migrating-from-dynamodb-wide-3" width="133.33" height="90" patternUnits="userSpaceOnUse">
		<path d="M 133.33 0 L 0 0 0 90" fill="none" stroke="#60a5fa" stroke-opacity="0.08" stroke-width="1"/>
	</pattern>
</defs>
<title>migrating-from-dynamodb wide variant 4</title>
<desc>Two structured data systems connected by a calm transfer bridge, representing migration from one platform to another.</desc>

	<rect x="0" y="0" width="1600" height="900" fill="url(#bg-migrating-from-dynamodb-wide-3)"/>
	<rect x="0" y="0" width="1600" height="900" fill="url(#glow-migrating-from-dynamodb-wide-3)"/>
	<rect x="0" y="0" width="1600" height="900" fill="url(#grid-migrating-from-dynamodb-wide-3)" opacity="0.42"/>
	<rect x="31.5" y="31.5" width="1537" height="837" rx="28.35" fill="none" stroke="rgba(148,163,184,0.16)" stroke-width="1.5"/>
	<line x1="31.5" y1="53.55" x2="31.5" y2="31.5" stroke="rgba(255,255,255,0.24)" stroke-width="2"/>
	<line x1="31.5" y1="31.5" x2="53.55" y2="31.5" stroke="rgba(255,255,255,0.24)" stroke-width="2"/>
	<line x1="1546.45" y1="31.5" x2="1568.5" y2="31.5" stroke="rgba(255,255,255,0.24)" stroke-width="2"/>
	<line x1="1568.5" y1="31.5" x2="1568.5" y2="53.55" stroke="rgba(255,255,255,0.24)" stroke-width="2"/>
	<line x1="31.5" y1="846.45" x2="31.5" y2="868.5" stroke="rgba(255,255,255,0.24)" stroke-width="2"/>
	<line x1="31.5" y1="868.5" x2="53.55" y2="868.5" stroke="rgba(255,255,255,0.24)" stroke-width="2"/>
	<line x1="1546.45" y1="868.5" x2="1568.5" y2="868.5" stroke="rgba(255,255,255,0.24)" stroke-width="2"/>
	<line x1="1568.5" y1="846.45" x2="1568.5" y2="868.5" stroke="rgba(255,255,255,0.24)" stroke-width="2"/>
	<rect x="45.68" y="45.68" width="1508.65" height="808.65" rx="23.63" fill="none" stroke="url(#edge-migrating-from-dynamodb-wide-3)" stroke-width="1"/>

<g><circle cx="198.11" cy="535.16" r="1.43" fill="#2dd4bf" opacity="0.18"/><circle cx="237.01" cy="339.96" r="2.27" fill="#f8fafc" opacity="0.21"/><circle cx="1056.75" cy="459.25" r="2.05" fill="#f8fafc" opacity="0.21"/><circle cx="1091.8" cy="862.45" r="1.9" fill="#2dd4bf" opacity="0.22"/><circle cx="1591.77" cy="774.84" r="2.45" fill="#f8fafc" opacity="0.19"/><circle cx="561.97" cy="507.96" r="2.73" fill="#f8fafc" opacity="0.21"/><circle cx="1077.46" cy="828.65" r="2.42" fill="#2dd4bf" opacity="0.21"/><circle cx="1111.95" cy="251.78" r="2.03" fill="#f8fafc" opacity="0.23"/><circle cx="1507.56" cy="39.49" r="1.47" fill="#f8fafc" opacity="0.23"/><circle cx="1410.92" cy="334.8" r="2.39" fill="#2dd4bf" opacity="0.2"/><circle cx="352.75" cy="348.14" r="1.92" fill="#f8fafc" opacity="0.1"/><circle cx="1396.81" cy="591.37" r="2.46" fill="#f8fafc" opacity="0.23"/><circle cx="100.52" cy="876.83" r="2.49" fill="#2dd4bf" opacity="0.2"/><circle cx="444.87" cy="0.35" r="1.77" fill="#f8fafc" opacity="0.19"/><circle cx="770.99" cy="512.59" r="2.72" fill="#f8fafc" opacity="0.15"/><circle cx="568.05" cy="109.33" r="1.48" fill="#2dd4bf" opacity="0.17"/></g>
<g>
<rect x="192" y="225" width="352" height="378" rx="26" fill="rgba(10,17,28,0.72)" stroke="rgba(255,255,255,0.1)" stroke-width="1.5"/><rect x="1056" y="225" width="352" height="378" rx="26" fill="rgba(10,17,28,0.72)" stroke="rgba(255,255,255,0.1)" stroke-width="1.5"/><line x1="240" y1="299" x2="496" y2="299" stroke="#60a5fa" stroke-opacity="0.24" stroke-width="2"/><line x1="1104" y1="299" x2="1360" y2="299" stroke="#60a5fa" stroke-opacity="0.24" stroke-width="2"/><line x1="240" y1="385" x2="496" y2="385" stroke="#60a5fa" stroke-opacity="0.24" stroke-width="2"/><line x1="1104" y1="385" x2="1360" y2="385" stroke="#60a5fa" stroke-opacity="0.24" stroke-width="2"/><line x1="240" y1="471" x2="496" y2="471" stroke="#60a5fa" stroke-opacity="0.24" stroke-width="2"/><line x1="1104" y1="471" x2="1360" y2="471" stroke="#60a5fa" stroke-opacity="0.24" stroke-width="2"/><path d="M 544 406.44 C 736 300.6 864 512.28 1056 406.44" fill="none" stroke="#2dd4bf" stroke-width="5" stroke-linecap="round" opacity="0.95"/><path d="M 544 406.44 C 736 300.6 864 512.28 1056 406.44" fill="none" stroke="#60a5fa" stroke-width="12" stroke-opacity="0.08" stroke-linecap="round"/>
</g>
</svg>