<?xml version="1.0" encoding="UTF-8"?>
<svg xmlns="http://www.w3.org/2000/svg" width="1600" height="900" viewBox="0 0 1600 900" fill="none">

<defs>
	<linearGradient id="bg-migrating-from-dynamodb-wide-1" x1="0%" y1="0%" x2="100%" y2="100%">
		<stop offset="0%" stop-color="#04070c"/>
		<stop offset="42%" stop-color="#07111d"/>
		<stop offset="100%" stop-color="#030509"/>
	</linearGradient>
	<radialGradient id="glow-migrating-from-dynamodb-wide-1" cx="0.78" cy="0.24" r="0.48">
		<stop offset="0%" stop-color="#60a5fa" stop-opacity="0.18"/>
		<stop offset="48%" stop-color="#2dd4bf" stop-opacity="0.08"/>
		<stop offset="100%" stop-color="#05070c" stop-opacity="0"/>
	</radialGradient>
	<linearGradient id="panel-migrating-from-dynamodb-wide-1" x1="0%" y1="0%" x2="100%" y2="100%">
		<stop offset="0%" stop-color="#0d1726" stop-opacity="0.94"/>
		<stop offset="100%" stop-color="#08101b" stop-opacity="0.58"/>
	</linearGradient>
	<linearGradient id="edge-migrating-from-dynamodb-wide-1" x1="0%" y1="0%" x2="100%" y2="0%">
		<stop offset="0%" stop-color="#ffffff" stop-opacity="0"/>
		<stop offset="50%" stop-color="#ffffff" stop-opacity="0.12"/>
		<stop offset="100%" stop-color="#ffffff" stop-opacity="0"/>
	</linearGradient>
	<pattern id="grid-migrating-from-dynamodb-wide-1" width="133.33" height="90" patternUnits="userSpaceOnUse">
		<path d="M 133.33 0 L 0 0 0 90" fill="none" stroke="#60a5fa" stroke-opacity="0.08" stroke-width="1"/>
	</pattern>
</defs>
<title>migrating-from-dynamodb wide variant 2</title>
<desc>Two structured data systems connected by a calm transfer bridge, representing migration from one platform to another.</desc>

	<rect x="0" y="0" width="1600" height="900" fill="url(#bg-migrating-from-dynamodb-wide-1)"/>
	<rect x="0" y="0" width="1600" height="900" fill="url(#glow-migrating-from-dynamodb-wide-1)"/>
	<rect x="0" y="0" width="1600" height="900" fill="url(#grid-migrating-from-dynamodb-wide-1)" opacity="0.42"/>
	<rect x="31.5" y="31.5" width="1537" height="837" rx="28.35" fill="none" stroke="rgba(148,163,184,0.16)" stroke-width="1.5"/>
	<line x1="31.5" y1="53.55" x2="31.5" y2="31.5" stroke="rgba(255,255,255,0.24)" stroke-width="2"/>
	<line x1="31.5" y1="31.5" x2="53.55" y2="31.5" stroke="rgba(255,255,255,0.24)" stroke-width="2"/>
	<line x1="1546.45" y1="31.5" x2="1568.5" y2="31.5" stroke="rgba(255,255,255,0.24)" stroke-width="2"/>
	<line x1="1568.5" y1="31.5" x2="1568.5" y2="53.55" stroke="rgba(255,255,255,0.24)" stroke-width="2"/>
	<line x1="31.5" y1="846.45" x2="31.5" y2="868.5" stroke="rgba(255,255,255,0.24)" stroke-width="2"/>
	<line x1="31.5" y1="868.5" x2="53.55" y2="868.5" stroke="rgba(255,255,255,0.24)" stroke-width="2"/>
	<line x1="1546.45" y1="868.5" x2="1568.5" y2="868.5" stroke="rgba(255,255,255,0.24)" stroke-width="2"/>
	<line x1="1568.5" y1="846.45" x2="1568.5" y2="868.5" stroke="rgba(255,255,255,0.24)" stroke-width="2"/>
	<rect x="45.68" y="45.68" width="1508.65" height="808.65" rx="23.63" fill="none" stroke="url(#edge-migrating-from-dynamodb-wide-1)" stroke-width="1"/>

<g><circle cx="1357.78" cy="387.15" r="2.51" fill="#2dd4bf" opacity="0.2"/><circle cx="204.02" cy="105.92" r="1.19" fill="#f8fafc" opacity="0.1"/><circle cx="96.37" cy="200.68" r="1.17" fill="#f8fafc" opacity="0.18"/><circle cx="681.83" cy="386.33" r="1.56" fill="#2dd4bf" opacity="0.23"/><circle cx="648.29" cy="194.7" r="1.85" fill="#f8fafc" opacity="0.19"/><circle cx="1176.44" cy="642.6" r="1.92" fill="#f8fafc" opacity="0.17"/><circle cx="460.98" cy="872.58" r="1.04" fill="#2dd4bf" opacity="0.14"/><circle cx="1498.4" cy="728.66" r="2.33" fill="#f8fafc" opacity="0.19"/><circle cx="1389.97" cy="90.69" r="1.17" fill="#f8fafc" opacity="0.12"/><circle cx="455.04" cy="196.55" r="1.11" fill="#2dd4bf" opacity="0.1"/><circle cx="1496.15" cy="206.39" r="1.34" fill="#f8fafc" opacity="0.18"/><circle cx="1209.31" cy="295.57" r="1.67" fill="#f8fafc" opacity="0.17"/><circle cx="1026.05" cy="454.97" r="1.24" fill="#2dd4bf" opacity="0.12"/><circle cx="639.95" cy="847.19" r="1.59" fill="#f8fafc" opacity="0.16"/><circle cx="681.09" cy="20.47" r="1.02" fill="#f8fafc" opacity="0.09"/><circle cx="85.58" cy="752.08" r="1.31" fill="#2dd4bf" opacity="0.21"/></g>
<g>
<rect x="128" y="225" width="352" height="378" rx="26" fill="rgba(10,17,28,0.72)" stroke="rgba(255,255,255,0.1)" stroke-width="1.5"/><rect x="1120" y="225" width="352" height="378" rx="26" fill="rgba(10,17,28,0.72)" stroke="rgba(255,255,255,0.1)" stroke-width="1.5"/><line x1="176" y1="299" x2="432" y2="299" stroke="#60a5fa" stroke-opacity="0.24" stroke-width="2"/><line x1="1168" y1="299" x2="1424" y2="299" stroke="#60a5fa" stroke-opacity="0.24" stroke-width="2"/><line x1="176" y1="385" x2="432" y2="385" stroke="#60a5fa" stroke-opacity="0.24" stroke-width="2"/><line x1="1168" y1="385" x2="1424" y2="385" stroke="#60a5fa" stroke-opacity="0.24" stroke-width="2"/><line x1="176" y1="471" x2="432" y2="471" stroke="#60a5fa" stroke-opacity="0.24" stroke-width="2"/><line x1="1168" y1="471" x2="1424" y2="471" stroke="#60a5fa" stroke-opacity="0.24" stroke-width="2"/><path d="M 480 406.44 C 736 300.6 864 512.28 1120 406.44" fill="none" stroke="#2dd4bf" stroke-width="5" stroke-linecap="round" opacity="0.95"/><path d="M 480 406.44 C 736 300.6 864 512.28 1120 406.44" fill="none" stroke="#60a5fa" stroke-width="12" stroke-opacity="0.08" stroke-linecap="round"/>
</g>
</svg>