<?xml version="1.0" encoding="UTF-8"?>
<svg xmlns="http://www.w3.org/2000/svg" width="1200" height="1200" viewBox="0 0 1200 1200" fill="none">

<defs>
	<linearGradient id="bg-migrating-from-dynamodb-square-0" x1="0%" y1="0%" x2="100%" y2="100%">
		<stop offset="0%" stop-color="#04070c"/>
		<stop offset="42%" stop-color="#07111d"/>
		<stop offset="100%" stop-color="#030509"/>
	</linearGradient>
	<radialGradient id="glow-migrating-from-dynamodb-square-0" cx="0.2" cy="0.18" r="0.48">
		<stop offset="0%" stop-color="#60a5fa" stop-opacity="0.18"/>
		<stop offset="48%" stop-color="#2dd4bf" stop-opacity="0.08"/>
		<stop offset="100%" stop-color="#05070c" stop-opacity="0"/>
	</radialGradient>
	<linearGradient id="panel-migrating-from-dynamodb-square-0" x1="0%" y1="0%" x2="100%" y2="100%">
		<stop offset="0%" stop-color="#0d1726" stop-opacity="0.94"/>
		<stop offset="100%" stop-color="#08101b" stop-opacity="0.58"/>
	</linearGradient>
	<linearGradient id="edge-migrating-from-dynamodb-square-0" x1="0%" y1="0%" x2="100%" y2="0%">
		<stop offset="0%" stop-color="#ffffff" stop-opacity="0"/>
		<stop offset="50%" stop-color="#ffffff" stop-opacity="0.12"/>
		<stop offset="100%" stop-color="#ffffff" stop-opacity="0"/>
	</linearGradient>
	<pattern id="grid-migrating-from-dynamodb-square-0" width="100" height="120" patternUnits="userSpaceOnUse">
		<path d="M 100 0 L 0 0 0 120" fill="none" stroke="#60a5fa" stroke-opacity="0.08" stroke-width="1"/>
	</pattern>
</defs>
<title>migrating-from-dynamodb square variant 1</title>
<desc>Two structured data systems connected by a calm transfer bridge, representing migration from one platform to another.</desc>

	<rect x="0" y="0" width="1200" height="1200" fill="url(#bg-migrating-from-dynamodb-square-0)"/>
	<rect x="0" y="0" width="1200" height="1200" fill="url(#glow-migrating-from-dynamodb-square-0)"/>
	<rect x="0" y="0" width="1200" height="1200" fill="url(#grid-migrating-from-dynamodb-square-0)" opacity="0.42"/>
	<rect x="42" y="42" width="1116" height="1116" rx="37.8" fill="none" stroke="rgba(148,163,184,0.16)" stroke-width="1.5"/>
	<line x1="42" y1="71.4" x2="42" y2="42" stroke="rgba(255,255,255,0.24)" stroke-width="2"/>
	<line x1="42" y1="42" x2="71.4" y2="42" stroke="rgba(255,255,255,0.24)" stroke-width="2"/>
	<line x1="1128.6" y1="42" x2="1158" y2="42" stroke="rgba(255,255,255,0.24)" stroke-width="2"/>
	<line x1="1158" y1="42" x2="1158" y2="71.4" stroke="rgba(255,255,255,0.24)" stroke-width="2"/>
	<line x1="42" y1="1128.6" x2="42" y2="1158" stroke="rgba(255,255,255,0.24)" stroke-width="2"/>
	<line x1="42" y1="1158" x2="71.4" y2="1158" stroke="rgba(255,255,255,0.24)" stroke-width="2"/>
	<line x1="1128.6" y1="1158" x2="1158" y2="1158" stroke="rgba(255,255,255,0.24)" stroke-width="2"/>
	<line x1="1158" y1="1128.6" x2="1158" y2="1158" stroke="rgba(255,255,255,0.24)" stroke-width="2"/>
	<rect x="60.9" y="60.9" width="1078.2" height="1078.2" rx="31.5" fill="none" stroke="url(#edge-migrating-from-dynamodb-square-0)" stroke-width="1"/>

<g><circle cx="960.12" cy="675.99" r="1.38" fill="#2dd4bf" opacity="0.08"/><circle cx="104.99" cy="1050.79" r="1.7" fill="#f8fafc" opacity="0.13"/><circle cx="807.77" cy="1123.76" r="2.24" fill="#f8fafc" opacity="0.19"/><circle cx="599.91" cy="566.29" r="1.14" fill="#2dd4bf" opacity="0.13"/><circle cx="96.07" cy="719.05" r="2.35" fill="#f8fafc" opacity="0.15"/><circle cx="734.14" cy="426.4" r="1.54" fill="#f8fafc" opacity="0.14"/><circle cx="515.21" cy="1057.5" r="2.13" fill="#2dd4bf" opacity="0.23"/><circle cx="99.82" cy="1063.91" r="2.62" fill="#f8fafc" opacity="0.21"/><circle cx="176.73" cy="401.91" r="1.33" fill="#f8fafc" opacity="0.23"/><circle cx="989.68" cy="867.74" r="1.47" fill="#2dd4bf" opacity="0.14"/><circle cx="1043.49" cy="321.24" r="1.87" fill="#f8fafc" opacity="0.08"/><circle cx="489.2" cy="1027.02" r="1.96" fill="#f8fafc" opacity="0.11"/><circle cx="193.88" cy="289.39" r="2.18" fill="#2dd4bf" opacity="0.24"/><circle cx="506.2" cy="714" r="1.26" fill="#f8fafc" opacity="0.17"/><circle cx="1156.71" cy="449.04" r="2.04" fill="#f8fafc" opacity="0.21"/><circle cx="79" cy="367.9" r="1.34" fill="#2dd4bf" opacity="0.1"/></g>
<g>
<rect x="120" y="300" width="264" height="504" rx="26" fill="rgba(10,17,28,0.72)" stroke="rgba(255,255,255,0.1)" stroke-width="1.5"/><rect x="816" y="300" width="264" height="504" rx="26" fill="rgba(10,17,28,0.72)" stroke="rgba(255,255,255,0.1)" stroke-width="1.5"/><line x1="168" y1="374" x2="336" y2="374" stroke="#60a5fa" stroke-opacity="0.24" stroke-width="2"/><line x1="864" y1="374" x2="1032" y2="374" stroke="#60a5fa" stroke-opacity="0.24" stroke-width="2"/><line x1="168" y1="460" x2="336" y2="460" stroke="#60a5fa" stroke-opacity="0.24" stroke-width="2"/><line x1="864" y1="460" x2="1032" y2="460" stroke="#60a5fa" stroke-opacity="0.24" stroke-width="2"/><line x1="168" y1="546" x2="336" y2="546" stroke="#60a5fa" stroke-opacity="0.24" stroke-width="2"/><line x1="864" y1="546" x2="1032" y2="546" stroke="#60a5fa" stroke-opacity="0.24" stroke-width="2"/><path d="M 384 541.92 C 552 400.8 648 683.04 816 541.92" fill="none" stroke="#2dd4bf" stroke-width="5" stroke-linecap="round" opacity="0.95"/><path d="M 384 541.92 C 552 400.8 648 683.04 816 541.92" fill="none" stroke="#60a5fa" stroke-width="12" stroke-opacity="0.08" stroke-linecap="round"/>
</g>
</svg>