<?xml version="1.0" encoding="UTF-8"?>
<svg xmlns="http://www.w3.org/2000/svg" width="1200" height="1200" viewBox="0 0 1200 1200" fill="none">

<defs>
	<linearGradient id="bg-migrating-from-dynamodb-square-1" x1="0%" y1="0%" x2="100%" y2="100%">
		<stop offset="0%" stop-color="#04070c"/>
		<stop offset="42%" stop-color="#07111d"/>
		<stop offset="100%" stop-color="#030509"/>
	</linearGradient>
	<radialGradient id="glow-migrating-from-dynamodb-square-1" cx="0.78" cy="0.24" r="0.48">
		<stop offset="0%" stop-color="#60a5fa" stop-opacity="0.18"/>
		<stop offset="48%" stop-color="#2dd4bf" stop-opacity="0.08"/>
		<stop offset="100%" stop-color="#05070c" stop-opacity="0"/>
	</radialGradient>
	<linearGradient id="panel-migrating-from-dynamodb-square-1" x1="0%" y1="0%" x2="100%" y2="100%">
		<stop offset="0%" stop-color="#0d1726" stop-opacity="0.94"/>
		<stop offset="100%" stop-color="#08101b" stop-opacity="0.58"/>
	</linearGradient>
	<linearGradient id="edge-migrating-from-dynamodb-square-1" x1="0%" y1="0%" x2="100%" y2="0%">
		<stop offset="0%" stop-color="#ffffff" stop-opacity="0"/>
		<stop offset="50%" stop-color="#ffffff" stop-opacity="0.12"/>
		<stop offset="100%" stop-color="#ffffff" stop-opacity="0"/>
	</linearGradient>
	<pattern id="grid-migrating-from-dynamodb-square-1" width="100" height="120" patternUnits="userSpaceOnUse">
		<path d="M 100 0 L 0 0 0 120" fill="none" stroke="#60a5fa" stroke-opacity="0.08" stroke-width="1"/>
	</pattern>
</defs>
<title>migrating-from-dynamodb square variant 2</title>
<desc>Two structured data systems connected by a calm transfer bridge, representing migration from one platform to another.</desc>

	<rect x="0" y="0" width="1200" height="1200" fill="url(#bg-migrating-from-dynamodb-square-1)"/>
	<rect x="0" y="0" width="1200" height="1200" fill="url(#glow-migrating-from-dynamodb-square-1)"/>
	<rect x="0" y="0" width="1200" height="1200" fill="url(#grid-migrating-from-dynamodb-square-1)" opacity="0.42"/>
	<rect x="42" y="42" width="1116" height="1116" rx="37.8" fill="none" stroke="rgba(148,163,184,0.16)" stroke-width="1.5"/>
	<line x1="42" y1="71.4" x2="42" y2="42" stroke="rgba(255,255,255,0.24)" stroke-width="2"/>
	<line x1="42" y1="42" x2="71.4" y2="42" stroke="rgba(255,255,255,0.24)" stroke-width="2"/>
	<line x1="1128.6" y1="42" x2="1158" y2="42" stroke="rgba(255,255,255,0.24)" stroke-width="2"/>
	<line x1="1158" y1="42" x2="1158" y2="71.4" stroke="rgba(255,255,255,0.24)" stroke-width="2"/>
	<line x1="42" y1="1128.6" x2="42" y2="1158" stroke="rgba(255,255,255,0.24)" stroke-width="2"/>
	<line x1="42" y1="1158" x2="71.4" y2="1158" stroke="rgba(255,255,255,0.24)" stroke-width="2"/>
	<line x1="1128.6" y1="1158" x2="1158" y2="1158" stroke="rgba(255,255,255,0.24)" stroke-width="2"/>
	<line x1="1158" y1="1128.6" x2="1158" y2="1158" stroke="rgba(255,255,255,0.24)" stroke-width="2"/>
	<rect x="60.9" y="60.9" width="1078.2" height="1078.2" rx="31.5" fill="none" stroke="url(#edge-migrating-from-dynamodb-square-1)" stroke-width="1"/>

<g><circle cx="346.35" cy="940.61" r="1.09" fill="#2dd4bf" opacity="0.21"/><circle cx="724.28" cy="7.83" r="2.19" fill="#f8fafc" opacity="0.13"/><circle cx="249.64" cy="1036.32" r="1.24" fill="#f8fafc" opacity="0.15"/><circle cx="57.54" cy="436.18" r="2.1" fill="#2dd4bf" opacity="0.09"/><circle cx="318.78" cy="19.25" r="1.02" fill="#f8fafc" opacity="0.14"/><circle cx="460.03" cy="737.54" r="2.22" fill="#f8fafc" opacity="0.12"/><circle cx="90.62" cy="407.33" r="1.56" fill="#2dd4bf" opacity="0.19"/><circle cx="733.46" cy="426.22" r="1.91" fill="#f8fafc" opacity="0.23"/><circle cx="1011.7" cy="369.56" r="1.57" fill="#f8fafc" opacity="0.11"/><circle cx="198.99" cy="772.93" r="2.36" fill="#2dd4bf" opacity="0.18"/><circle cx="1198.18" cy="847.14" r="1.9" fill="#f8fafc" opacity="0.16"/><circle cx="27.57" cy="847.69" r="1.08" fill="#f8fafc" opacity="0.23"/><circle cx="1072.84" cy="43.64" r="1.28" fill="#2dd4bf" opacity="0.21"/><circle cx="783.46" cy="490.9" r="2.55" fill="#f8fafc" opacity="0.2"/><circle cx="158.74" cy="1122.53" r="1.44" fill="#f8fafc" opacity="0.17"/><circle cx="43.82" cy="847.17" r="1.27" fill="#2dd4bf" opacity="0.19"/></g>
<g>
<rect x="96" y="300" width="264" height="504" rx="26" fill="rgba(10,17,28,0.72)" stroke="rgba(255,255,255,0.1)" stroke-width="1.5"/><rect x="840" y="300" width="264" height="504" rx="26" fill="rgba(10,17,28,0.72)" stroke="rgba(255,255,255,0.1)" stroke-width="1.5"/><line x1="144" y1="374" x2="312" y2="374" stroke="#60a5fa" stroke-opacity="0.24" stroke-width="2"/><line x1="888" y1="374" x2="1056" y2="374" stroke="#60a5fa" stroke-opacity="0.24" stroke-width="2"/><line x1="144" y1="460" x2="312" y2="460" stroke="#60a5fa" stroke-opacity="0.24" stroke-width="2"/><line x1="888" y1="460" x2="1056" y2="460" stroke="#60a5fa" stroke-opacity="0.24" stroke-width="2"/><line x1="144" y1="546" x2="312" y2="546" stroke="#60a5fa" stroke-opacity="0.24" stroke-width="2"/><line x1="888" y1="546" x2="1056" y2="546" stroke="#60a5fa" stroke-opacity="0.24" stroke-width="2"/><path d="M 360 541.92 C 552 400.8 648 683.04 840 541.92" fill="none" stroke="#2dd4bf" stroke-width="5" stroke-linecap="round" opacity="0.95"/><path d="M 360 541.92 C 552 400.8 648 683.04 840 541.92" fill="none" stroke="#60a5fa" stroke-width="12" stroke-opacity="0.08" stroke-linecap="round"/>
</g>
</svg>