<?xml version="1.0" encoding="UTF-8"?>
<svg xmlns="http://www.w3.org/2000/svg" width="1200" height="1200" viewBox="0 0 1200 1200" fill="none">

<defs>
	<linearGradient id="bg-sql-api-for-everyone-square-0" x1="0%" y1="0%" x2="100%" y2="100%">
		<stop offset="0%" stop-color="#04070c"/>
		<stop offset="42%" stop-color="#07111d"/>
		<stop offset="100%" stop-color="#030509"/>
	</linearGradient>
	<radialGradient id="glow-sql-api-for-everyone-square-0" cx="0.2" cy="0.18" r="0.48">
		<stop offset="0%" stop-color="#7dd3fc" stop-opacity="0.18"/>
		<stop offset="48%" stop-color="#60a5fa" stop-opacity="0.08"/>
		<stop offset="100%" stop-color="#05070c" stop-opacity="0"/>
	</radialGradient>
	<linearGradient id="panel-sql-api-for-everyone-square-0" x1="0%" y1="0%" x2="100%" y2="100%">
		<stop offset="0%" stop-color="#0d1726" stop-opacity="0.94"/>
		<stop offset="100%" stop-color="#08101b" stop-opacity="0.58"/>
	</linearGradient>
	<linearGradient id="edge-sql-api-for-everyone-square-0" x1="0%" y1="0%" x2="100%" y2="0%">
		<stop offset="0%" stop-color="#ffffff" stop-opacity="0"/>
		<stop offset="50%" stop-color="#ffffff" stop-opacity="0.12"/>
		<stop offset="100%" stop-color="#ffffff" stop-opacity="0"/>
	</linearGradient>
	<pattern id="grid-sql-api-for-everyone-square-0" width="100" height="120" patternUnits="userSpaceOnUse">
		<path d="M 100 0 L 0 0 0 120" fill="none" stroke="#7dd3fc" stroke-opacity="0.08" stroke-width="1"/>
	</pattern>
</defs>
<title>sql-api-for-everyone square variant 1</title>
<desc>Architectural table planes and elegant query lines that suggest structured access through SQL.</desc>

	<rect x="0" y="0" width="1200" height="1200" fill="url(#bg-sql-api-for-everyone-square-0)"/>
	<rect x="0" y="0" width="1200" height="1200" fill="url(#glow-sql-api-for-everyone-square-0)"/>
	<rect x="0" y="0" width="1200" height="1200" fill="url(#grid-sql-api-for-everyone-square-0)" opacity="0.42"/>
	<rect x="42" y="42" width="1116" height="1116" rx="37.8" fill="none" stroke="rgba(148,163,184,0.16)" stroke-width="1.5"/>
	<line x1="42" y1="71.4" x2="42" y2="42" stroke="rgba(255,255,255,0.24)" stroke-width="2"/>
	<line x1="42" y1="42" x2="71.4" y2="42" stroke="rgba(255,255,255,0.24)" stroke-width="2"/>
	<line x1="1128.6" y1="42" x2="1158" y2="42" stroke="rgba(255,255,255,0.24)" stroke-width="2"/>
	<line x1="1158" y1="42" x2="1158" y2="71.4" stroke="rgba(255,255,255,0.24)" stroke-width="2"/>
	<line x1="42" y1="1128.6" x2="42" y2="1158" stroke="rgba(255,255,255,0.24)" stroke-width="2"/>
	<line x1="42" y1="1158" x2="71.4" y2="1158" stroke="rgba(255,255,255,0.24)" stroke-width="2"/>
	<line x1="1128.6" y1="1158" x2="1158" y2="1158" stroke="rgba(255,255,255,0.24)" stroke-width="2"/>
	<line x1="1158" y1="1128.6" x2="1158" y2="1158" stroke="rgba(255,255,255,0.24)" stroke-width="2"/>
	<rect x="60.9" y="60.9" width="1078.2" height="1078.2" rx="31.5" fill="none" stroke="url(#edge-sql-api-for-everyone-square-0)" stroke-width="1"/>

<g><circle cx="293.24" cy="571.1" r="1.73" fill="#60a5fa" opacity="0.18"/><circle cx="275.12" cy="1171.75" r="1.59" fill="#f8fafc" opacity="0.1"/><circle cx="619.13" cy="228.16" r="1.52" fill="#f8fafc" opacity="0.21"/><circle cx="283.43" cy="232.88" r="1.1" fill="#60a5fa" opacity="0.21"/><circle cx="457.67" cy="823.63" r="1.06" fill="#f8fafc" opacity="0.23"/><circle cx="929.22" cy="1162.55" r="2" fill="#f8fafc" opacity="0.12"/><circle cx="1000.83" cy="807.7" r="1.22" fill="#60a5fa" opacity="0.16"/><circle cx="311.7" cy="83.92" r="1.56" fill="#f8fafc" opacity="0.23"/><circle cx="206.13" cy="448.44" r="2.18" fill="#f8fafc" opacity="0.2"/><circle cx="97.74" cy="897.44" r="2.27" fill="#60a5fa" opacity="0.21"/><circle cx="67.4" cy="1068.57" r="1.72" fill="#f8fafc" opacity="0.22"/><circle cx="429.79" cy="982.56" r="1.97" fill="#f8fafc" opacity="0.24"/><circle cx="657.9" cy="440.8" r="2.18" fill="#60a5fa" opacity="0.08"/><circle cx="1017.25" cy="558.1" r="2.24" fill="#f8fafc" opacity="0.12"/><circle cx="545.2" cy="305.46" r="1.78" fill="#f8fafc" opacity="0.18"/><circle cx="318.57" cy="450.59" r="2.19" fill="#60a5fa" opacity="0.23"/></g>
<g>
<polygon points="216 288 960 288 902 408 158 408" fill="rgba(10,17,28,0.68)" stroke="rgba(255,255,255,0.1)" stroke-width="1.2"/><line x1="258" y1="348" x2="850" y2="348" stroke="#7dd3fc" stroke-opacity="0.3" stroke-width="2" stroke-linecap="round"/><polygon points="250 426 926 426 868 546 192 546" fill="rgba(10,17,28,0.68)" stroke="rgba(255,255,255,0.1)" stroke-width="1.2"/><line x1="292" y1="486" x2="816" y2="486" stroke="#60a5fa" stroke-opacity="0.78" stroke-width="2" stroke-linecap="round"/><polygon points="284 564 892 564 834 684 226 684" fill="rgba(10,17,28,0.68)" stroke="rgba(255,255,255,0.1)" stroke-width="1.2"/><line x1="326" y1="624" x2="782" y2="624" stroke="#7dd3fc" stroke-opacity="0.3" stroke-width="2" stroke-linecap="round"/><polygon points="318 702 858 702 800 822 260 822" fill="rgba(10,17,28,0.68)" stroke="rgba(255,255,255,0.1)" stroke-width="1.2"/><line x1="360" y1="762" x2="748" y2="762" stroke="#7dd3fc" stroke-opacity="0.3" stroke-width="2" stroke-linecap="round"/><path d="M 349.92 264 L 424.32 234 L 677.28 234" fill="none" stroke="#60a5fa" stroke-width="2.5" stroke-linecap="round" stroke-linejoin="round" opacity="0.85"/>
</g>
</svg>