<?xml version="1.0" encoding="UTF-8"?>
<svg xmlns="http://www.w3.org/2000/svg" width="1600" height="900" viewBox="0 0 1600 900" fill="none">

<defs>
	<linearGradient id="bg-sql-api-for-everyone-wide-2" x1="0%" y1="0%" x2="100%" y2="100%">
		<stop offset="0%" stop-color="#04070c"/>
		<stop offset="42%" stop-color="#07111d"/>
		<stop offset="100%" stop-color="#030509"/>
	</linearGradient>
	<radialGradient id="glow-sql-api-for-everyone-wide-2" cx="0.52" cy="0.7" r="0.48">
		<stop offset="0%" stop-color="#7dd3fc" stop-opacity="0.18"/>
		<stop offset="48%" stop-color="#60a5fa" stop-opacity="0.08"/>
		<stop offset="100%" stop-color="#05070c" stop-opacity="0"/>
	</radialGradient>
	<linearGradient id="panel-sql-api-for-everyone-wide-2" x1="0%" y1="0%" x2="100%" y2="100%">
		<stop offset="0%" stop-color="#0d1726" stop-opacity="0.94"/>
		<stop offset="100%" stop-color="#08101b" stop-opacity="0.58"/>
	</linearGradient>
	<linearGradient id="edge-sql-api-for-everyone-wide-2" x1="0%" y1="0%" x2="100%" y2="0%">
		<stop offset="0%" stop-color="#ffffff" stop-opacity="0"/>
		<stop offset="50%" stop-color="#ffffff" stop-opacity="0.12"/>
		<stop offset="100%" stop-color="#ffffff" stop-opacity="0"/>
	</linearGradient>
	<pattern id="grid-sql-api-for-everyone-wide-2" width="133.33" height="90" patternUnits="userSpaceOnUse">
		<path d="M 133.33 0 L 0 0 0 90" fill="none" stroke="#7dd3fc" stroke-opacity="0.08" stroke-width="1"/>
	</pattern>
</defs>
<title>sql-api-for-everyone wide variant 3</title>
<desc>Architectural table planes and elegant query lines that suggest structured access through SQL.</desc>

	<rect x="0" y="0" width="1600" height="900" fill="url(#bg-sql-api-for-everyone-wide-2)"/>
	<rect x="0" y="0" width="1600" height="900" fill="url(#glow-sql-api-for-everyone-wide-2)"/>
	<rect x="0" y="0" width="1600" height="900" fill="url(#grid-sql-api-for-everyone-wide-2)" opacity="0.42"/>
	<rect x="31.5" y="31.5" width="1537" height="837" rx="28.35" fill="none" stroke="rgba(148,163,184,0.16)" stroke-width="1.5"/>
	<line x1="31.5" y1="53.55" x2="31.5" y2="31.5" stroke="rgba(255,255,255,0.24)" stroke-width="2"/>
	<line x1="31.5" y1="31.5" x2="53.55" y2="31.5" stroke="rgba(255,255,255,0.24)" stroke-width="2"/>
	<line x1="1546.45" y1="31.5" x2="1568.5" y2="31.5" stroke="rgba(255,255,255,0.24)" stroke-width="2"/>
	<line x1="1568.5" y1="31.5" x2="1568.5" y2="53.55" stroke="rgba(255,255,255,0.24)" stroke-width="2"/>
	<line x1="31.5" y1="846.45" x2="31.5" y2="868.5" stroke="rgba(255,255,255,0.24)" stroke-width="2"/>
	<line x1="31.5" y1="868.5" x2="53.55" y2="868.5" stroke="rgba(255,255,255,0.24)" stroke-width="2"/>
	<line x1="1546.45" y1="868.5" x2="1568.5" y2="868.5" stroke="rgba(255,255,255,0.24)" stroke-width="2"/>
	<line x1="1568.5" y1="846.45" x2="1568.5" y2="868.5" stroke="rgba(255,255,255,0.24)" stroke-width="2"/>
	<rect x="45.68" y="45.68" width="1508.65" height="808.65" rx="23.63" fill="none" stroke="url(#edge-sql-api-for-everyone-wide-2)" stroke-width="1"/>

<g><circle cx="777.43" cy="120.11" r="1.79" fill="#60a5fa" opacity="0.1"/><circle cx="308.9" cy="496.05" r="2.38" fill="#f8fafc" opacity="0.09"/><circle cx="1546.62" cy="865.35" r="2.16" fill="#f8fafc" opacity="0.19"/><circle cx="559.61" cy="638.61" r="1.49" fill="#60a5fa" opacity="0.09"/><circle cx="44.6" cy="239.81" r="1.47" fill="#f8fafc" opacity="0.16"/><circle cx="352.06" cy="309.78" r="2.66" fill="#f8fafc" opacity="0.1"/><circle cx="1449.29" cy="342.52" r="1.34" fill="#60a5fa" opacity="0.21"/><circle cx="868.72" cy="75.57" r="1.39" fill="#f8fafc" opacity="0.19"/><circle cx="1019.18" cy="579.85" r="1.34" fill="#f8fafc" opacity="0.24"/><circle cx="1120.62" cy="815.83" r="2.18" fill="#60a5fa" opacity="0.12"/><circle cx="1318.55" cy="535.93" r="1.36" fill="#f8fafc" opacity="0.22"/><circle cx="731.18" cy="4.89" r="2.07" fill="#f8fafc" opacity="0.1"/><circle cx="406.02" cy="846.78" r="2.18" fill="#60a5fa" opacity="0.22"/><circle cx="1116.21" cy="869.56" r="1.57" fill="#f8fafc" opacity="0.16"/><circle cx="185.73" cy="836.22" r="1.99" fill="#f8fafc" opacity="0.24"/><circle cx="1531.82" cy="369.51" r="1.16" fill="#60a5fa" opacity="0.15"/></g>
<g>
<polygon points="352 252 1344 252 1286 342 294 342" fill="rgba(10,17,28,0.68)" stroke="rgba(255,255,255,0.1)" stroke-width="1.2"/><line x1="394" y1="297" x2="1234" y2="297" stroke="#7dd3fc" stroke-opacity="0.3" stroke-width="2" stroke-linecap="round"/><polygon points="386 360 1310 360 1252 450 328 450" fill="rgba(10,17,28,0.68)" stroke="rgba(255,255,255,0.1)" stroke-width="1.2"/><line x1="428" y1="405" x2="1200" y2="405" stroke="#60a5fa" stroke-opacity="0.78" stroke-width="2" stroke-linecap="round"/><polygon points="420 468 1276 468 1218 558 362 558" fill="rgba(10,17,28,0.68)" stroke="rgba(255,255,255,0.1)" stroke-width="1.2"/><line x1="462" y1="513" x2="1166" y2="513" stroke="#7dd3fc" stroke-opacity="0.3" stroke-width="2" stroke-linecap="round"/><polygon points="454 576 1242 576 1184 666 396 666" fill="rgba(10,17,28,0.68)" stroke="rgba(255,255,255,0.1)" stroke-width="1.2"/><line x1="496" y1="621" x2="1132" y2="621" stroke="#7dd3fc" stroke-opacity="0.3" stroke-width="2" stroke-linecap="round"/><path d="M 530.56 228 L 629.76 198 L 967.04 198" fill="none" stroke="#60a5fa" stroke-width="2.5" stroke-linecap="round" stroke-linejoin="round" opacity="0.85"/>
</g>
</svg>