<?xml version="1.0" encoding="UTF-8"?>
<svg xmlns="http://www.w3.org/2000/svg" width="1200" height="1200" viewBox="0 0 1200 1200" fill="none">

<defs>
	<linearGradient id="bg-sql-api-for-everyone-square-1" x1="0%" y1="0%" x2="100%" y2="100%">
		<stop offset="0%" stop-color="#04070c"/>
		<stop offset="42%" stop-color="#07111d"/>
		<stop offset="100%" stop-color="#030509"/>
	</linearGradient>
	<radialGradient id="glow-sql-api-for-everyone-square-1" cx="0.78" cy="0.24" r="0.48">
		<stop offset="0%" stop-color="#7dd3fc" stop-opacity="0.18"/>
		<stop offset="48%" stop-color="#60a5fa" stop-opacity="0.08"/>
		<stop offset="100%" stop-color="#05070c" stop-opacity="0"/>
	</radialGradient>
	<linearGradient id="panel-sql-api-for-everyone-square-1" x1="0%" y1="0%" x2="100%" y2="100%">
		<stop offset="0%" stop-color="#0d1726" stop-opacity="0.94"/>
		<stop offset="100%" stop-color="#08101b" stop-opacity="0.58"/>
	</linearGradient>
	<linearGradient id="edge-sql-api-for-everyone-square-1" x1="0%" y1="0%" x2="100%" y2="0%">
		<stop offset="0%" stop-color="#ffffff" stop-opacity="0"/>
		<stop offset="50%" stop-color="#ffffff" stop-opacity="0.12"/>
		<stop offset="100%" stop-color="#ffffff" stop-opacity="0"/>
	</linearGradient>
	<pattern id="grid-sql-api-for-everyone-square-1" width="100" height="120" patternUnits="userSpaceOnUse">
		<path d="M 100 0 L 0 0 0 120" fill="none" stroke="#7dd3fc" stroke-opacity="0.08" stroke-width="1"/>
	</pattern>
</defs>
<title>sql-api-for-everyone square variant 2</title>
<desc>Architectural table planes and elegant query lines that suggest structured access through SQL.</desc>

	<rect x="0" y="0" width="1200" height="1200" fill="url(#bg-sql-api-for-everyone-square-1)"/>
	<rect x="0" y="0" width="1200" height="1200" fill="url(#glow-sql-api-for-everyone-square-1)"/>
	<rect x="0" y="0" width="1200" height="1200" fill="url(#grid-sql-api-for-everyone-square-1)" opacity="0.42"/>
	<rect x="42" y="42" width="1116" height="1116" rx="37.8" fill="none" stroke="rgba(148,163,184,0.16)" stroke-width="1.5"/>
	<line x1="42" y1="71.4" x2="42" y2="42" stroke="rgba(255,255,255,0.24)" stroke-width="2"/>
	<line x1="42" y1="42" x2="71.4" y2="42" stroke="rgba(255,255,255,0.24)" stroke-width="2"/>
	<line x1="1128.6" y1="42" x2="1158" y2="42" stroke="rgba(255,255,255,0.24)" stroke-width="2"/>
	<line x1="1158" y1="42" x2="1158" y2="71.4" stroke="rgba(255,255,255,0.24)" stroke-width="2"/>
	<line x1="42" y1="1128.6" x2="42" y2="1158" stroke="rgba(255,255,255,0.24)" stroke-width="2"/>
	<line x1="42" y1="1158" x2="71.4" y2="1158" stroke="rgba(255,255,255,0.24)" stroke-width="2"/>
	<line x1="1128.6" y1="1158" x2="1158" y2="1158" stroke="rgba(255,255,255,0.24)" stroke-width="2"/>
	<line x1="1158" y1="1128.6" x2="1158" y2="1158" stroke="rgba(255,255,255,0.24)" stroke-width="2"/>
	<rect x="60.9" y="60.9" width="1078.2" height="1078.2" rx="31.5" fill="none" stroke="url(#edge-sql-api-for-everyone-square-1)" stroke-width="1"/>

<g><circle cx="482.17" cy="1086.23" r="1.3" fill="#60a5fa" opacity="0.19"/><circle cx="779.54" cy="1007.81" r="1.71" fill="#f8fafc" opacity="0.14"/><circle cx="874.31" cy="422.52" r="1.47" fill="#f8fafc" opacity="0.08"/><circle cx="948.02" cy="494.99" r="1.05" fill="#60a5fa" opacity="0.11"/><circle cx="264.6" cy="359.23" r="1.81" fill="#f8fafc" opacity="0.12"/><circle cx="657.28" cy="1134.13" r="1.58" fill="#f8fafc" opacity="0.2"/><circle cx="56.82" cy="468.58" r="2.15" fill="#60a5fa" opacity="0.23"/><circle cx="991.35" cy="391.7" r="2.61" fill="#f8fafc" opacity="0.17"/><circle cx="883.54" cy="327.25" r="2.71" fill="#f8fafc" opacity="0.14"/><circle cx="424.39" cy="324.76" r="2.22" fill="#60a5fa" opacity="0.1"/><circle cx="49.51" cy="690.86" r="1.97" fill="#f8fafc" opacity="0.23"/><circle cx="898.59" cy="146.19" r="1.82" fill="#f8fafc" opacity="0.09"/><circle cx="542.78" cy="1015.65" r="2.45" fill="#60a5fa" opacity="0.13"/><circle cx="126.28" cy="192.98" r="2.21" fill="#f8fafc" opacity="0.17"/><circle cx="30.92" cy="679.84" r="1.09" fill="#f8fafc" opacity="0.19"/><circle cx="807.63" cy="249.99" r="1.74" fill="#60a5fa" opacity="0.15"/></g>
<g>
<polygon points="144 216 888 216 830 336 86 336" fill="rgba(10,17,28,0.68)" stroke="rgba(255,255,255,0.1)" stroke-width="1.2"/><line x1="186" y1="276" x2="778" y2="276" stroke="#7dd3fc" stroke-opacity="0.3" stroke-width="2" stroke-linecap="round"/><polygon points="178 354 854 354 796 474 120 474" fill="rgba(10,17,28,0.68)" stroke="rgba(255,255,255,0.1)" stroke-width="1.2"/><line x1="220" y1="414" x2="744" y2="414" stroke="#60a5fa" stroke-opacity="0.78" stroke-width="2" stroke-linecap="round"/><polygon points="212 492 820 492 762 612 154 612" fill="rgba(10,17,28,0.68)" stroke="rgba(255,255,255,0.1)" stroke-width="1.2"/><line x1="254" y1="552" x2="710" y2="552" stroke="#7dd3fc" stroke-opacity="0.3" stroke-width="2" stroke-linecap="round"/><polygon points="246 630 786 630 728 750 188 750" fill="rgba(10,17,28,0.68)" stroke="rgba(255,255,255,0.1)" stroke-width="1.2"/><line x1="288" y1="690" x2="676" y2="690" stroke="#7dd3fc" stroke-opacity="0.3" stroke-width="2" stroke-linecap="round"/><path d="M 277.92 192 L 352.32 162 L 605.28 162" fill="none" stroke="#60a5fa" stroke-width="2.5" stroke-linecap="round" stroke-linejoin="round" opacity="0.85"/>
</g>
</svg>