<?xml version="1.0" encoding="UTF-8"?>
<svg xmlns="http://www.w3.org/2000/svg" width="1200" height="1200" viewBox="0 0 1200 1200" fill="none">

<defs>
	<linearGradient id="bg-sql-api-for-everyone-square-2" x1="0%" y1="0%" x2="100%" y2="100%">
		<stop offset="0%" stop-color="#04070c"/>
		<stop offset="42%" stop-color="#07111d"/>
		<stop offset="100%" stop-color="#030509"/>
	</linearGradient>
	<radialGradient id="glow-sql-api-for-everyone-square-2" cx="0.52" cy="0.7" r="0.48">
		<stop offset="0%" stop-color="#7dd3fc" stop-opacity="0.18"/>
		<stop offset="48%" stop-color="#60a5fa" stop-opacity="0.08"/>
		<stop offset="100%" stop-color="#05070c" stop-opacity="0"/>
	</radialGradient>
	<linearGradient id="panel-sql-api-for-everyone-square-2" x1="0%" y1="0%" x2="100%" y2="100%">
		<stop offset="0%" stop-color="#0d1726" stop-opacity="0.94"/>
		<stop offset="100%" stop-color="#08101b" stop-opacity="0.58"/>
	</linearGradient>
	<linearGradient id="edge-sql-api-for-everyone-square-2" x1="0%" y1="0%" x2="100%" y2="0%">
		<stop offset="0%" stop-color="#ffffff" stop-opacity="0"/>
		<stop offset="50%" stop-color="#ffffff" stop-opacity="0.12"/>
		<stop offset="100%" stop-color="#ffffff" stop-opacity="0"/>
	</linearGradient>
	<pattern id="grid-sql-api-for-everyone-square-2" width="100" height="120" patternUnits="userSpaceOnUse">
		<path d="M 100 0 L 0 0 0 120" fill="none" stroke="#7dd3fc" stroke-opacity="0.08" stroke-width="1"/>
	</pattern>
</defs>
<title>sql-api-for-everyone square variant 3</title>
<desc>Architectural table planes and elegant query lines that suggest structured access through SQL.</desc>

	<rect x="0" y="0" width="1200" height="1200" fill="url(#bg-sql-api-for-everyone-square-2)"/>
	<rect x="0" y="0" width="1200" height="1200" fill="url(#glow-sql-api-for-everyone-square-2)"/>
	<rect x="0" y="0" width="1200" height="1200" fill="url(#grid-sql-api-for-everyone-square-2)" opacity="0.42"/>
	<rect x="42" y="42" width="1116" height="1116" rx="37.8" fill="none" stroke="rgba(148,163,184,0.16)" stroke-width="1.5"/>
	<line x1="42" y1="71.4" x2="42" y2="42" stroke="rgba(255,255,255,0.24)" stroke-width="2"/>
	<line x1="42" y1="42" x2="71.4" y2="42" stroke="rgba(255,255,255,0.24)" stroke-width="2"/>
	<line x1="1128.6" y1="42" x2="1158" y2="42" stroke="rgba(255,255,255,0.24)" stroke-width="2"/>
	<line x1="1158" y1="42" x2="1158" y2="71.4" stroke="rgba(255,255,255,0.24)" stroke-width="2"/>
	<line x1="42" y1="1128.6" x2="42" y2="1158" stroke="rgba(255,255,255,0.24)" stroke-width="2"/>
	<line x1="42" y1="1158" x2="71.4" y2="1158" stroke="rgba(255,255,255,0.24)" stroke-width="2"/>
	<line x1="1128.6" y1="1158" x2="1158" y2="1158" stroke="rgba(255,255,255,0.24)" stroke-width="2"/>
	<line x1="1158" y1="1128.6" x2="1158" y2="1158" stroke="rgba(255,255,255,0.24)" stroke-width="2"/>
	<rect x="60.9" y="60.9" width="1078.2" height="1078.2" rx="31.5" fill="none" stroke="url(#edge-sql-api-for-everyone-square-2)" stroke-width="1"/>

<g><circle cx="292.46" cy="778.11" r="1.86" fill="#60a5fa" opacity="0.23"/><circle cx="1027.49" cy="926.83" r="2.51" fill="#f8fafc" opacity="0.23"/><circle cx="153.11" cy="288.15" r="1.88" fill="#f8fafc" opacity="0.08"/><circle cx="135.97" cy="370.11" r="1.68" fill="#60a5fa" opacity="0.18"/><circle cx="228.3" cy="363.86" r="1.87" fill="#f8fafc" opacity="0.11"/><circle cx="1137.37" cy="550.18" r="1.21" fill="#f8fafc" opacity="0.16"/><circle cx="1025.49" cy="476.92" r="2.16" fill="#60a5fa" opacity="0.23"/><circle cx="1097.62" cy="652.07" r="1.11" fill="#f8fafc" opacity="0.13"/><circle cx="941.12" cy="724.67" r="1.6" fill="#f8fafc" opacity="0.12"/><circle cx="907.91" cy="1188.92" r="2.7" fill="#60a5fa" opacity="0.15"/><circle cx="54.95" cy="819.35" r="2.19" fill="#f8fafc" opacity="0.09"/><circle cx="1063.63" cy="877.7" r="1.05" fill="#f8fafc" opacity="0.15"/><circle cx="729.84" cy="724.05" r="2.27" fill="#60a5fa" opacity="0.15"/><circle cx="502.87" cy="880.36" r="2.43" fill="#f8fafc" opacity="0.11"/><circle cx="1041.62" cy="77.04" r="1.99" fill="#f8fafc" opacity="0.2"/><circle cx="146" cy="629.78" r="2.34" fill="#60a5fa" opacity="0.13"/></g>
<g>
<polygon points="264 336 1008 336 950 456 206 456" fill="rgba(10,17,28,0.68)" stroke="rgba(255,255,255,0.1)" stroke-width="1.2"/><line x1="306" y1="396" x2="898" y2="396" stroke="#7dd3fc" stroke-opacity="0.3" stroke-width="2" stroke-linecap="round"/><polygon points="298 474 974 474 916 594 240 594" fill="rgba(10,17,28,0.68)" stroke="rgba(255,255,255,0.1)" stroke-width="1.2"/><line x1="340" y1="534" x2="864" y2="534" stroke="#60a5fa" stroke-opacity="0.78" stroke-width="2" stroke-linecap="round"/><polygon points="332 612 940 612 882 732 274 732" fill="rgba(10,17,28,0.68)" stroke="rgba(255,255,255,0.1)" stroke-width="1.2"/><line x1="374" y1="672" x2="830" y2="672" stroke="#7dd3fc" stroke-opacity="0.3" stroke-width="2" stroke-linecap="round"/><polygon points="366 750 906 750 848 870 308 870" fill="rgba(10,17,28,0.68)" stroke="rgba(255,255,255,0.1)" stroke-width="1.2"/><line x1="408" y1="810" x2="796" y2="810" stroke="#7dd3fc" stroke-opacity="0.3" stroke-width="2" stroke-linecap="round"/><path d="M 397.92 312 L 472.32 282 L 725.28 282" fill="none" stroke="#60a5fa" stroke-width="2.5" stroke-linecap="round" stroke-linejoin="round" opacity="0.85"/>
</g>
</svg>