<?xml version="1.0" encoding="UTF-8"?>
<svg xmlns="http://www.w3.org/2000/svg" width="1200" height="1200" viewBox="0 0 1200 1200" fill="none">

<defs>
	<linearGradient id="bg-cost-optimization-tips-square-0" x1="0%" y1="0%" x2="100%" y2="100%">
		<stop offset="0%" stop-color="#04070c"/>
		<stop offset="42%" stop-color="#07111d"/>
		<stop offset="100%" stop-color="#030509"/>
	</linearGradient>
	<radialGradient id="glow-cost-optimization-tips-square-0" cx="0.2" cy="0.18" r="0.48">
		<stop offset="0%" stop-color="#34d399" stop-opacity="0.18"/>
		<stop offset="48%" stop-color="#60a5fa" stop-opacity="0.08"/>
		<stop offset="100%" stop-color="#05070c" stop-opacity="0"/>
	</radialGradient>
	<linearGradient id="panel-cost-optimization-tips-square-0" x1="0%" y1="0%" x2="100%" y2="100%">
		<stop offset="0%" stop-color="#0d1726" stop-opacity="0.94"/>
		<stop offset="100%" stop-color="#08101b" stop-opacity="0.58"/>
	</linearGradient>
	<linearGradient id="edge-cost-optimization-tips-square-0" x1="0%" y1="0%" x2="100%" y2="0%">
		<stop offset="0%" stop-color="#ffffff" stop-opacity="0"/>
		<stop offset="50%" stop-color="#ffffff" stop-opacity="0.12"/>
		<stop offset="100%" stop-color="#ffffff" stop-opacity="0"/>
	</linearGradient>
	<pattern id="grid-cost-optimization-tips-square-0" width="100" height="120" patternUnits="userSpaceOnUse">
		<path d="M 100 0 L 0 0 0 120" fill="none" stroke="#34d399" stroke-opacity="0.08" stroke-width="1"/>
	</pattern>
</defs>
<title>cost-optimization-tips square variant 1</title>
<desc>Compressed layers and trimmed bands balancing neatly around a core, representing database cost optimization.</desc>

	<rect x="0" y="0" width="1200" height="1200" fill="url(#bg-cost-optimization-tips-square-0)"/>
	<rect x="0" y="0" width="1200" height="1200" fill="url(#glow-cost-optimization-tips-square-0)"/>
	<rect x="0" y="0" width="1200" height="1200" fill="url(#grid-cost-optimization-tips-square-0)" opacity="0.42"/>
	<rect x="42" y="42" width="1116" height="1116" rx="37.8" fill="none" stroke="rgba(148,163,184,0.16)" stroke-width="1.5"/>
	<line x1="42" y1="71.4" x2="42" y2="42" stroke="rgba(255,255,255,0.24)" stroke-width="2"/>
	<line x1="42" y1="42" x2="71.4" y2="42" stroke="rgba(255,255,255,0.24)" stroke-width="2"/>
	<line x1="1128.6" y1="42" x2="1158" y2="42" stroke="rgba(255,255,255,0.24)" stroke-width="2"/>
	<line x1="1158" y1="42" x2="1158" y2="71.4" stroke="rgba(255,255,255,0.24)" stroke-width="2"/>
	<line x1="42" y1="1128.6" x2="42" y2="1158" stroke="rgba(255,255,255,0.24)" stroke-width="2"/>
	<line x1="42" y1="1158" x2="71.4" y2="1158" stroke="rgba(255,255,255,0.24)" stroke-width="2"/>
	<line x1="1128.6" y1="1158" x2="1158" y2="1158" stroke="rgba(255,255,255,0.24)" stroke-width="2"/>
	<line x1="1158" y1="1128.6" x2="1158" y2="1158" stroke="rgba(255,255,255,0.24)" stroke-width="2"/>
	<rect x="60.9" y="60.9" width="1078.2" height="1078.2" rx="31.5" fill="none" stroke="url(#edge-cost-optimization-tips-square-0)" stroke-width="1"/>

<g><circle cx="560.71" cy="41.42" r="1.27" fill="#60a5fa" opacity="0.09"/><circle cx="737.61" cy="955.99" r="2.38" fill="#f8fafc" opacity="0.11"/><circle cx="940.6" cy="657.86" r="1.93" fill="#f8fafc" opacity="0.12"/><circle cx="963.6" cy="234.45" r="1.9" fill="#60a5fa" opacity="0.2"/><circle cx="98.37" cy="89.08" r="1.16" fill="#f8fafc" opacity="0.1"/><circle cx="402.26" cy="281.03" r="2.14" fill="#f8fafc" opacity="0.21"/><circle cx="652.44" cy="454.73" r="1.7" fill="#60a5fa" opacity="0.13"/><circle cx="867.27" cy="1093.22" r="1.77" fill="#f8fafc" opacity="0.13"/><circle cx="96.97" cy="691.55" r="2.79" fill="#f8fafc" opacity="0.12"/><circle cx="713.76" cy="841.58" r="1.98" fill="#60a5fa" opacity="0.21"/><circle cx="763.76" cy="13.79" r="1.46" fill="#f8fafc" opacity="0.1"/><circle cx="205.62" cy="686.22" r="1.25" fill="#f8fafc" opacity="0.21"/><circle cx="272.88" cy="363.78" r="1.74" fill="#60a5fa" opacity="0.1"/><circle cx="12.94" cy="443.51" r="1.8" fill="#f8fafc" opacity="0.16"/><circle cx="775.44" cy="642.98" r="2.12" fill="#f8fafc" opacity="0.2"/><circle cx="307.92" cy="20.82" r="1.86" fill="#60a5fa" opacity="0.16"/></g>
<g>
<rect x="252" y="336" width="744" height="102" rx="24" fill="rgba(9,16,26,0.72)" stroke="rgba(255,255,255,0.1)" stroke-width="1.2"/><rect x="268" y="348" width="712" height="78" rx="18" fill="#34d399" opacity="0.1"/><rect x="306" y="464" width="636" height="102" rx="24" fill="rgba(9,16,26,0.72)" stroke="rgba(255,255,255,0.1)" stroke-width="1.2"/><rect x="322" y="476" width="604" height="78" rx="18" fill="#34d399" opacity="0.1"/><rect x="360" y="592" width="528" height="102" rx="24" fill="rgba(9,16,26,0.72)" stroke="rgba(255,255,255,0.1)" stroke-width="1.2"/><rect x="376" y="604" width="496" height="78" rx="18" fill="#60a5fa" opacity="0.2"/><rect x="414" y="720" width="420" height="102" rx="24" fill="rgba(9,16,26,0.72)" stroke="rgba(255,255,255,0.1)" stroke-width="1.2"/><rect x="430" y="732" width="388" height="78" rx="18" fill="#34d399" opacity="0.1"/><rect x="468" y="848" width="312" height="102" rx="24" fill="rgba(9,16,26,0.72)" stroke="rgba(255,255,255,0.1)" stroke-width="1.2"/><rect x="484" y="860" width="280" height="78" rx="18" fill="#34d399" opacity="0.1"/><line x1="624" y1="264" x2="624" y2="936" stroke="#60a5fa" stroke-width="3" stroke-linecap="round" opacity="0.9"/>
</g>
</svg>