<?xml version="1.0" encoding="UTF-8"?>
<svg xmlns="http://www.w3.org/2000/svg" width="1200" height="1200" viewBox="0 0 1200 1200" fill="none">

<defs>
	<linearGradient id="bg-cost-optimization-tips-square-3" x1="0%" y1="0%" x2="100%" y2="100%">
		<stop offset="0%" stop-color="#04070c"/>
		<stop offset="42%" stop-color="#07111d"/>
		<stop offset="100%" stop-color="#030509"/>
	</linearGradient>
	<radialGradient id="glow-cost-optimization-tips-square-3" cx="0.35" cy="0.5" r="0.48">
		<stop offset="0%" stop-color="#34d399" stop-opacity="0.18"/>
		<stop offset="48%" stop-color="#60a5fa" stop-opacity="0.08"/>
		<stop offset="100%" stop-color="#05070c" stop-opacity="0"/>
	</radialGradient>
	<linearGradient id="panel-cost-optimization-tips-square-3" x1="0%" y1="0%" x2="100%" y2="100%">
		<stop offset="0%" stop-color="#0d1726" stop-opacity="0.94"/>
		<stop offset="100%" stop-color="#08101b" stop-opacity="0.58"/>
	</linearGradient>
	<linearGradient id="edge-cost-optimization-tips-square-3" x1="0%" y1="0%" x2="100%" y2="0%">
		<stop offset="0%" stop-color="#ffffff" stop-opacity="0"/>
		<stop offset="50%" stop-color="#ffffff" stop-opacity="0.12"/>
		<stop offset="100%" stop-color="#ffffff" stop-opacity="0"/>
	</linearGradient>
	<pattern id="grid-cost-optimization-tips-square-3" width="100" height="120" patternUnits="userSpaceOnUse">
		<path d="M 100 0 L 0 0 0 120" fill="none" stroke="#34d399" stroke-opacity="0.08" stroke-width="1"/>
	</pattern>
</defs>
<title>cost-optimization-tips square variant 4</title>
<desc>Compressed layers and trimmed bands balancing neatly around a core, representing database cost optimization.</desc>

	<rect x="0" y="0" width="1200" height="1200" fill="url(#bg-cost-optimization-tips-square-3)"/>
	<rect x="0" y="0" width="1200" height="1200" fill="url(#glow-cost-optimization-tips-square-3)"/>
	<rect x="0" y="0" width="1200" height="1200" fill="url(#grid-cost-optimization-tips-square-3)" opacity="0.42"/>
	<rect x="42" y="42" width="1116" height="1116" rx="37.8" fill="none" stroke="rgba(148,163,184,0.16)" stroke-width="1.5"/>
	<line x1="42" y1="71.4" x2="42" y2="42" stroke="rgba(255,255,255,0.24)" stroke-width="2"/>
	<line x1="42" y1="42" x2="71.4" y2="42" stroke="rgba(255,255,255,0.24)" stroke-width="2"/>
	<line x1="1128.6" y1="42" x2="1158" y2="42" stroke="rgba(255,255,255,0.24)" stroke-width="2"/>
	<line x1="1158" y1="42" x2="1158" y2="71.4" stroke="rgba(255,255,255,0.24)" stroke-width="2"/>
	<line x1="42" y1="1128.6" x2="42" y2="1158" stroke="rgba(255,255,255,0.24)" stroke-width="2"/>
	<line x1="42" y1="1158" x2="71.4" y2="1158" stroke="rgba(255,255,255,0.24)" stroke-width="2"/>
	<line x1="1128.6" y1="1158" x2="1158" y2="1158" stroke="rgba(255,255,255,0.24)" stroke-width="2"/>
	<line x1="1158" y1="1128.6" x2="1158" y2="1158" stroke="rgba(255,255,255,0.24)" stroke-width="2"/>
	<rect x="60.9" y="60.9" width="1078.2" height="1078.2" rx="31.5" fill="none" stroke="url(#edge-cost-optimization-tips-square-3)" stroke-width="1"/>

<g><circle cx="429.18" cy="53.88" r="2.34" fill="#60a5fa" opacity="0.18"/><circle cx="216.04" cy="484.01" r="1.11" fill="#f8fafc" opacity="0.09"/><circle cx="163.76" cy="881.05" r="1.17" fill="#f8fafc" opacity="0.13"/><circle cx="1000.31" cy="392.78" r="1.04" fill="#60a5fa" opacity="0.22"/><circle cx="976.54" cy="704.93" r="2.67" fill="#f8fafc" opacity="0.1"/><circle cx="952.3" cy="809.95" r="1.99" fill="#f8fafc" opacity="0.09"/><circle cx="863.93" cy="1035.66" r="2.41" fill="#60a5fa" opacity="0.14"/><circle cx="595.42" cy="268.97" r="1.88" fill="#f8fafc" opacity="0.15"/><circle cx="456.12" cy="234.14" r="2.07" fill="#f8fafc" opacity="0.19"/><circle cx="199.45" cy="707.36" r="2.22" fill="#60a5fa" opacity="0.09"/><circle cx="1047.74" cy="714.56" r="2.37" fill="#f8fafc" opacity="0.23"/><circle cx="200.15" cy="768.54" r="1.79" fill="#f8fafc" opacity="0.21"/><circle cx="608.72" cy="234.45" r="1.2" fill="#60a5fa" opacity="0.16"/><circle cx="474.53" cy="789.5" r="2.35" fill="#f8fafc" opacity="0.16"/><circle cx="825.42" cy="544.61" r="1.64" fill="#f8fafc" opacity="0.14"/><circle cx="740.75" cy="497.89" r="1.7" fill="#60a5fa" opacity="0.22"/></g>
<g>
<rect x="228" y="336" width="744" height="102" rx="24" fill="rgba(9,16,26,0.72)" stroke="rgba(255,255,255,0.1)" stroke-width="1.2"/><rect x="244" y="348" width="712" height="78" rx="18" fill="#34d399" opacity="0.1"/><rect x="282" y="464" width="636" height="102" rx="24" fill="rgba(9,16,26,0.72)" stroke="rgba(255,255,255,0.1)" stroke-width="1.2"/><rect x="298" y="476" width="604" height="78" rx="18" fill="#34d399" opacity="0.1"/><rect x="336" y="592" width="528" height="102" rx="24" fill="rgba(9,16,26,0.72)" stroke="rgba(255,255,255,0.1)" stroke-width="1.2"/><rect x="352" y="604" width="496" height="78" rx="18" fill="#60a5fa" opacity="0.2"/><rect x="390" y="720" width="420" height="102" rx="24" fill="rgba(9,16,26,0.72)" stroke="rgba(255,255,255,0.1)" stroke-width="1.2"/><rect x="406" y="732" width="388" height="78" rx="18" fill="#34d399" opacity="0.1"/><rect x="444" y="848" width="312" height="102" rx="24" fill="rgba(9,16,26,0.72)" stroke="rgba(255,255,255,0.1)" stroke-width="1.2"/><rect x="460" y="860" width="280" height="78" rx="18" fill="#34d399" opacity="0.1"/><line x1="600" y1="264" x2="600" y2="936" stroke="#60a5fa" stroke-width="3" stroke-linecap="round" opacity="0.9"/>
</g>
</svg>