<?xml version="1.0" encoding="UTF-8"?>
<svg xmlns="http://www.w3.org/2000/svg" width="1200" height="1200" viewBox="0 0 1200 1200" fill="none">

<defs>
	<linearGradient id="bg-cost-optimization-tips-square-2" x1="0%" y1="0%" x2="100%" y2="100%">
		<stop offset="0%" stop-color="#04070c"/>
		<stop offset="42%" stop-color="#07111d"/>
		<stop offset="100%" stop-color="#030509"/>
	</linearGradient>
	<radialGradient id="glow-cost-optimization-tips-square-2" cx="0.52" cy="0.7" r="0.48">
		<stop offset="0%" stop-color="#34d399" stop-opacity="0.18"/>
		<stop offset="48%" stop-color="#60a5fa" stop-opacity="0.08"/>
		<stop offset="100%" stop-color="#05070c" stop-opacity="0"/>
	</radialGradient>
	<linearGradient id="panel-cost-optimization-tips-square-2" x1="0%" y1="0%" x2="100%" y2="100%">
		<stop offset="0%" stop-color="#0d1726" stop-opacity="0.94"/>
		<stop offset="100%" stop-color="#08101b" stop-opacity="0.58"/>
	</linearGradient>
	<linearGradient id="edge-cost-optimization-tips-square-2" x1="0%" y1="0%" x2="100%" y2="0%">
		<stop offset="0%" stop-color="#ffffff" stop-opacity="0"/>
		<stop offset="50%" stop-color="#ffffff" stop-opacity="0.12"/>
		<stop offset="100%" stop-color="#ffffff" stop-opacity="0"/>
	</linearGradient>
	<pattern id="grid-cost-optimization-tips-square-2" width="100" height="120" patternUnits="userSpaceOnUse">
		<path d="M 100 0 L 0 0 0 120" fill="none" stroke="#34d399" stroke-opacity="0.08" stroke-width="1"/>
	</pattern>
</defs>
<title>cost-optimization-tips square variant 3</title>
<desc>Compressed layers and trimmed bands balancing neatly around a core, representing database cost optimization.</desc>

	<rect x="0" y="0" width="1200" height="1200" fill="url(#bg-cost-optimization-tips-square-2)"/>
	<rect x="0" y="0" width="1200" height="1200" fill="url(#glow-cost-optimization-tips-square-2)"/>
	<rect x="0" y="0" width="1200" height="1200" fill="url(#grid-cost-optimization-tips-square-2)" opacity="0.42"/>
	<rect x="42" y="42" width="1116" height="1116" rx="37.8" fill="none" stroke="rgba(148,163,184,0.16)" stroke-width="1.5"/>
	<line x1="42" y1="71.4" x2="42" y2="42" stroke="rgba(255,255,255,0.24)" stroke-width="2"/>
	<line x1="42" y1="42" x2="71.4" y2="42" stroke="rgba(255,255,255,0.24)" stroke-width="2"/>
	<line x1="1128.6" y1="42" x2="1158" y2="42" stroke="rgba(255,255,255,0.24)" stroke-width="2"/>
	<line x1="1158" y1="42" x2="1158" y2="71.4" stroke="rgba(255,255,255,0.24)" stroke-width="2"/>
	<line x1="42" y1="1128.6" x2="42" y2="1158" stroke="rgba(255,255,255,0.24)" stroke-width="2"/>
	<line x1="42" y1="1158" x2="71.4" y2="1158" stroke="rgba(255,255,255,0.24)" stroke-width="2"/>
	<line x1="1128.6" y1="1158" x2="1158" y2="1158" stroke="rgba(255,255,255,0.24)" stroke-width="2"/>
	<line x1="1158" y1="1128.6" x2="1158" y2="1158" stroke="rgba(255,255,255,0.24)" stroke-width="2"/>
	<rect x="60.9" y="60.9" width="1078.2" height="1078.2" rx="31.5" fill="none" stroke="url(#edge-cost-optimization-tips-square-2)" stroke-width="1"/>

<g><circle cx="1037.12" cy="507.56" r="1.99" fill="#60a5fa" opacity="0.17"/><circle cx="595.36" cy="367.45" r="1.89" fill="#f8fafc" opacity="0.19"/><circle cx="765.32" cy="925.21" r="2.8" fill="#f8fafc" opacity="0.16"/><circle cx="1099.73" cy="336.73" r="1.51" fill="#60a5fa" opacity="0.19"/><circle cx="1071.13" cy="1149.5" r="1.59" fill="#f8fafc" opacity="0.13"/><circle cx="270.85" cy="665.9" r="1.09" fill="#f8fafc" opacity="0.09"/><circle cx="323.51" cy="421.73" r="1.44" fill="#60a5fa" opacity="0.13"/><circle cx="600.32" cy="132.01" r="1.09" fill="#f8fafc" opacity="0.21"/><circle cx="1129.32" cy="1121.74" r="2.75" fill="#f8fafc" opacity="0.17"/><circle cx="22.83" cy="382.86" r="1.29" fill="#60a5fa" opacity="0.11"/><circle cx="206.14" cy="626.11" r="2.43" fill="#f8fafc" opacity="0.11"/><circle cx="96.34" cy="338.23" r="1.75" fill="#f8fafc" opacity="0.21"/><circle cx="43.4" cy="1004.83" r="1.38" fill="#60a5fa" opacity="0.09"/><circle cx="1141.86" cy="388.68" r="1.42" fill="#f8fafc" opacity="0.24"/><circle cx="799.65" cy="330.21" r="1.63" fill="#f8fafc" opacity="0.13"/><circle cx="1109.28" cy="627.69" r="2.6" fill="#60a5fa" opacity="0.17"/></g>
<g>
<rect x="276" y="336" width="744" height="102" rx="24" fill="rgba(9,16,26,0.72)" stroke="rgba(255,255,255,0.1)" stroke-width="1.2"/><rect x="292" y="348" width="712" height="78" rx="18" fill="#34d399" opacity="0.1"/><rect x="330" y="464" width="636" height="102" rx="24" fill="rgba(9,16,26,0.72)" stroke="rgba(255,255,255,0.1)" stroke-width="1.2"/><rect x="346" y="476" width="604" height="78" rx="18" fill="#34d399" opacity="0.1"/><rect x="384" y="592" width="528" height="102" rx="24" fill="rgba(9,16,26,0.72)" stroke="rgba(255,255,255,0.1)" stroke-width="1.2"/><rect x="400" y="604" width="496" height="78" rx="18" fill="#60a5fa" opacity="0.2"/><rect x="438" y="720" width="420" height="102" rx="24" fill="rgba(9,16,26,0.72)" stroke="rgba(255,255,255,0.1)" stroke-width="1.2"/><rect x="454" y="732" width="388" height="78" rx="18" fill="#34d399" opacity="0.1"/><rect x="492" y="848" width="312" height="102" rx="24" fill="rgba(9,16,26,0.72)" stroke="rgba(255,255,255,0.1)" stroke-width="1.2"/><rect x="508" y="860" width="280" height="78" rx="18" fill="#34d399" opacity="0.1"/><line x1="648" y1="264" x2="648" y2="936" stroke="#60a5fa" stroke-width="3" stroke-linecap="round" opacity="0.9"/>
</g>
</svg>