<?xml version="1.0" encoding="UTF-8"?>
<svg xmlns="http://www.w3.org/2000/svg" width="1600" height="900" viewBox="0 0 1600 900" fill="none">

<defs>
	<linearGradient id="bg-cost-optimization-tips-wide-0" x1="0%" y1="0%" x2="100%" y2="100%">
		<stop offset="0%" stop-color="#04070c"/>
		<stop offset="42%" stop-color="#07111d"/>
		<stop offset="100%" stop-color="#030509"/>
	</linearGradient>
	<radialGradient id="glow-cost-optimization-tips-wide-0" cx="0.2" cy="0.18" r="0.48">
		<stop offset="0%" stop-color="#34d399" stop-opacity="0.18"/>
		<stop offset="48%" stop-color="#60a5fa" stop-opacity="0.08"/>
		<stop offset="100%" stop-color="#05070c" stop-opacity="0"/>
	</radialGradient>
	<linearGradient id="panel-cost-optimization-tips-wide-0" x1="0%" y1="0%" x2="100%" y2="100%">
		<stop offset="0%" stop-color="#0d1726" stop-opacity="0.94"/>
		<stop offset="100%" stop-color="#08101b" stop-opacity="0.58"/>
	</linearGradient>
	<linearGradient id="edge-cost-optimization-tips-wide-0" x1="0%" y1="0%" x2="100%" y2="0%">
		<stop offset="0%" stop-color="#ffffff" stop-opacity="0"/>
		<stop offset="50%" stop-color="#ffffff" stop-opacity="0.12"/>
		<stop offset="100%" stop-color="#ffffff" stop-opacity="0"/>
	</linearGradient>
	<pattern id="grid-cost-optimization-tips-wide-0" width="133.33" height="90" patternUnits="userSpaceOnUse">
		<path d="M 133.33 0 L 0 0 0 90" fill="none" stroke="#34d399" stroke-opacity="0.08" stroke-width="1"/>
	</pattern>
</defs>
<title>cost-optimization-tips wide variant 1</title>
<desc>Compressed layers and trimmed bands balancing neatly around a core, representing database cost optimization.</desc>

	<rect x="0" y="0" width="1600" height="900" fill="url(#bg-cost-optimization-tips-wide-0)"/>
	<rect x="0" y="0" width="1600" height="900" fill="url(#glow-cost-optimization-tips-wide-0)"/>
	<rect x="0" y="0" width="1600" height="900" fill="url(#grid-cost-optimization-tips-wide-0)" opacity="0.42"/>
	<rect x="31.5" y="31.5" width="1537" height="837" rx="28.35" fill="none" stroke="rgba(148,163,184,0.16)" stroke-width="1.5"/>
	<line x1="31.5" y1="53.55" x2="31.5" y2="31.5" stroke="rgba(255,255,255,0.24)" stroke-width="2"/>
	<line x1="31.5" y1="31.5" x2="53.55" y2="31.5" stroke="rgba(255,255,255,0.24)" stroke-width="2"/>
	<line x1="1546.45" y1="31.5" x2="1568.5" y2="31.5" stroke="rgba(255,255,255,0.24)" stroke-width="2"/>
	<line x1="1568.5" y1="31.5" x2="1568.5" y2="53.55" stroke="rgba(255,255,255,0.24)" stroke-width="2"/>
	<line x1="31.5" y1="846.45" x2="31.5" y2="868.5" stroke="rgba(255,255,255,0.24)" stroke-width="2"/>
	<line x1="31.5" y1="868.5" x2="53.55" y2="868.5" stroke="rgba(255,255,255,0.24)" stroke-width="2"/>
	<line x1="1546.45" y1="868.5" x2="1568.5" y2="868.5" stroke="rgba(255,255,255,0.24)" stroke-width="2"/>
	<line x1="1568.5" y1="846.45" x2="1568.5" y2="868.5" stroke="rgba(255,255,255,0.24)" stroke-width="2"/>
	<rect x="45.68" y="45.68" width="1508.65" height="808.65" rx="23.63" fill="none" stroke="url(#edge-cost-optimization-tips-wide-0)" stroke-width="1"/>

<g><circle cx="1379.46" cy="169" r="2.59" fill="#60a5fa" opacity="0.2"/><circle cx="457.4" cy="720.71" r="2.46" fill="#f8fafc" opacity="0.09"/><circle cx="1429.47" cy="338.76" r="2.64" fill="#f8fafc" opacity="0.16"/><circle cx="636.39" cy="231.82" r="1.96" fill="#60a5fa" opacity="0.16"/><circle cx="1014.18" cy="511.02" r="1.82" fill="#f8fafc" opacity="0.13"/><circle cx="261.08" cy="20.99" r="2.07" fill="#f8fafc" opacity="0.21"/><circle cx="372.02" cy="105.79" r="1.44" fill="#60a5fa" opacity="0.18"/><circle cx="83.14" cy="120.57" r="1.14" fill="#f8fafc" opacity="0.16"/><circle cx="979.48" cy="326.15" r="2.58" fill="#f8fafc" opacity="0.18"/><circle cx="1126.54" cy="664.02" r="1.94" fill="#60a5fa" opacity="0.13"/><circle cx="168.41" cy="533.71" r="1.56" fill="#f8fafc" opacity="0.12"/><circle cx="1497.05" cy="325.61" r="2.04" fill="#f8fafc" opacity="0.15"/><circle cx="801.74" cy="385.83" r="1.77" fill="#60a5fa" opacity="0.18"/><circle cx="1141.56" cy="7.93" r="1.23" fill="#f8fafc" opacity="0.17"/><circle cx="905.56" cy="308.4" r="2.37" fill="#f8fafc" opacity="0.19"/><circle cx="520.82" cy="858.61" r="1.44" fill="#60a5fa" opacity="0.12"/></g>
<g>
<rect x="336" y="252" width="992" height="76.5" rx="24" fill="rgba(9,16,26,0.72)" stroke="rgba(255,255,255,0.1)" stroke-width="1.2"/><rect x="352" y="264" width="960" height="52.5" rx="18" fill="#34d399" opacity="0.1"/><rect x="408" y="354.5" width="848" height="76.5" rx="24" fill="rgba(9,16,26,0.72)" stroke="rgba(255,255,255,0.1)" stroke-width="1.2"/><rect x="424" y="366.5" width="816" height="52.5" rx="18" fill="#34d399" opacity="0.1"/><rect x="480" y="457" width="704" height="76.5" rx="24" fill="rgba(9,16,26,0.72)" stroke="rgba(255,255,255,0.1)" stroke-width="1.2"/><rect x="496" y="469" width="672" height="52.5" rx="18" fill="#60a5fa" opacity="0.2"/><rect x="552" y="559.5" width="560" height="76.5" rx="24" fill="rgba(9,16,26,0.72)" stroke="rgba(255,255,255,0.1)" stroke-width="1.2"/><rect x="568" y="571.5" width="528" height="52.5" rx="18" fill="#34d399" opacity="0.1"/><rect x="624" y="662" width="416" height="76.5" rx="24" fill="rgba(9,16,26,0.72)" stroke="rgba(255,255,255,0.1)" stroke-width="1.2"/><rect x="640" y="674" width="384" height="52.5" rx="18" fill="#34d399" opacity="0.1"/><line x1="832" y1="198" x2="832" y2="702" stroke="#60a5fa" stroke-width="3" stroke-linecap="round" opacity="0.9"/>
</g>
</svg>