<?xml version="1.0" encoding="UTF-8"?>
<svg xmlns="http://www.w3.org/2000/svg" width="1600" height="900" viewBox="0 0 1600 900" fill="none">

<defs>
	<linearGradient id="bg-cost-optimization-tips-wide-3" x1="0%" y1="0%" x2="100%" y2="100%">
		<stop offset="0%" stop-color="#04070c"/>
		<stop offset="42%" stop-color="#07111d"/>
		<stop offset="100%" stop-color="#030509"/>
	</linearGradient>
	<radialGradient id="glow-cost-optimization-tips-wide-3" cx="0.35" cy="0.5" r="0.48">
		<stop offset="0%" stop-color="#34d399" stop-opacity="0.18"/>
		<stop offset="48%" stop-color="#60a5fa" stop-opacity="0.08"/>
		<stop offset="100%" stop-color="#05070c" stop-opacity="0"/>
	</radialGradient>
	<linearGradient id="panel-cost-optimization-tips-wide-3" x1="0%" y1="0%" x2="100%" y2="100%">
		<stop offset="0%" stop-color="#0d1726" stop-opacity="0.94"/>
		<stop offset="100%" stop-color="#08101b" stop-opacity="0.58"/>
	</linearGradient>
	<linearGradient id="edge-cost-optimization-tips-wide-3" x1="0%" y1="0%" x2="100%" y2="0%">
		<stop offset="0%" stop-color="#ffffff" stop-opacity="0"/>
		<stop offset="50%" stop-color="#ffffff" stop-opacity="0.12"/>
		<stop offset="100%" stop-color="#ffffff" stop-opacity="0"/>
	</linearGradient>
	<pattern id="grid-cost-optimization-tips-wide-3" width="133.33" height="90" patternUnits="userSpaceOnUse">
		<path d="M 133.33 0 L 0 0 0 90" fill="none" stroke="#34d399" stroke-opacity="0.08" stroke-width="1"/>
	</pattern>
</defs>
<title>cost-optimization-tips wide variant 4</title>
<desc>Compressed layers and trimmed bands balancing neatly around a core, representing database cost optimization.</desc>

	<rect x="0" y="0" width="1600" height="900" fill="url(#bg-cost-optimization-tips-wide-3)"/>
	<rect x="0" y="0" width="1600" height="900" fill="url(#glow-cost-optimization-tips-wide-3)"/>
	<rect x="0" y="0" width="1600" height="900" fill="url(#grid-cost-optimization-tips-wide-3)" opacity="0.42"/>
	<rect x="31.5" y="31.5" width="1537" height="837" rx="28.35" fill="none" stroke="rgba(148,163,184,0.16)" stroke-width="1.5"/>
	<line x1="31.5" y1="53.55" x2="31.5" y2="31.5" stroke="rgba(255,255,255,0.24)" stroke-width="2"/>
	<line x1="31.5" y1="31.5" x2="53.55" y2="31.5" stroke="rgba(255,255,255,0.24)" stroke-width="2"/>
	<line x1="1546.45" y1="31.5" x2="1568.5" y2="31.5" stroke="rgba(255,255,255,0.24)" stroke-width="2"/>
	<line x1="1568.5" y1="31.5" x2="1568.5" y2="53.55" stroke="rgba(255,255,255,0.24)" stroke-width="2"/>
	<line x1="31.5" y1="846.45" x2="31.5" y2="868.5" stroke="rgba(255,255,255,0.24)" stroke-width="2"/>
	<line x1="31.5" y1="868.5" x2="53.55" y2="868.5" stroke="rgba(255,255,255,0.24)" stroke-width="2"/>
	<line x1="1546.45" y1="868.5" x2="1568.5" y2="868.5" stroke="rgba(255,255,255,0.24)" stroke-width="2"/>
	<line x1="1568.5" y1="846.45" x2="1568.5" y2="868.5" stroke="rgba(255,255,255,0.24)" stroke-width="2"/>
	<rect x="45.68" y="45.68" width="1508.65" height="808.65" rx="23.63" fill="none" stroke="url(#edge-cost-optimization-tips-wide-3)" stroke-width="1"/>

<g><circle cx="1255.26" cy="640.28" r="2.45" fill="#60a5fa" opacity="0.11"/><circle cx="603.29" cy="27.88" r="1.28" fill="#f8fafc" opacity="0.09"/><circle cx="1248.58" cy="128.25" r="1.55" fill="#f8fafc" opacity="0.23"/><circle cx="1223.37" cy="550.35" r="2.37" fill="#60a5fa" opacity="0.16"/><circle cx="715.67" cy="230.34" r="2.37" fill="#f8fafc" opacity="0.15"/><circle cx="1243.6" cy="464.35" r="2.29" fill="#f8fafc" opacity="0.17"/><circle cx="723.91" cy="453.76" r="1.45" fill="#60a5fa" opacity="0.17"/><circle cx="971.81" cy="149.02" r="1.87" fill="#f8fafc" opacity="0.16"/><circle cx="125.52" cy="837.7" r="2.03" fill="#f8fafc" opacity="0.23"/><circle cx="712.18" cy="500.27" r="2.69" fill="#60a5fa" opacity="0.12"/><circle cx="496.31" cy="310.96" r="1.13" fill="#f8fafc" opacity="0.13"/><circle cx="27.67" cy="646.65" r="2.7" fill="#f8fafc" opacity="0.17"/><circle cx="709.27" cy="535.28" r="2.19" fill="#60a5fa" opacity="0.16"/><circle cx="1522.76" cy="338.65" r="1.69" fill="#f8fafc" opacity="0.15"/><circle cx="491.31" cy="796.82" r="2.22" fill="#f8fafc" opacity="0.22"/><circle cx="1004.24" cy="665.87" r="1.98" fill="#60a5fa" opacity="0.21"/></g>
<g>
<rect x="304" y="252" width="992" height="76.5" rx="24" fill="rgba(9,16,26,0.72)" stroke="rgba(255,255,255,0.1)" stroke-width="1.2"/><rect x="320" y="264" width="960" height="52.5" rx="18" fill="#34d399" opacity="0.1"/><rect x="376" y="354.5" width="848" height="76.5" rx="24" fill="rgba(9,16,26,0.72)" stroke="rgba(255,255,255,0.1)" stroke-width="1.2"/><rect x="392" y="366.5" width="816" height="52.5" rx="18" fill="#34d399" opacity="0.1"/><rect x="448" y="457" width="704" height="76.5" rx="24" fill="rgba(9,16,26,0.72)" stroke="rgba(255,255,255,0.1)" stroke-width="1.2"/><rect x="464" y="469" width="672" height="52.5" rx="18" fill="#60a5fa" opacity="0.2"/><rect x="520" y="559.5" width="560" height="76.5" rx="24" fill="rgba(9,16,26,0.72)" stroke="rgba(255,255,255,0.1)" stroke-width="1.2"/><rect x="536" y="571.5" width="528" height="52.5" rx="18" fill="#34d399" opacity="0.1"/><rect x="592" y="662" width="416" height="76.5" rx="24" fill="rgba(9,16,26,0.72)" stroke="rgba(255,255,255,0.1)" stroke-width="1.2"/><rect x="608" y="674" width="384" height="52.5" rx="18" fill="#34d399" opacity="0.1"/><line x1="800" y1="198" x2="800" y2="702" stroke="#60a5fa" stroke-width="3" stroke-linecap="round" opacity="0.9"/>
</g>
</svg>