<?xml version="1.0" encoding="UTF-8"?>
<svg xmlns="http://www.w3.org/2000/svg" width="1600" height="900" viewBox="0 0 1600 900" fill="none">

<defs>
	<linearGradient id="bg-cost-optimization-tips-wide-2" x1="0%" y1="0%" x2="100%" y2="100%">
		<stop offset="0%" stop-color="#04070c"/>
		<stop offset="42%" stop-color="#07111d"/>
		<stop offset="100%" stop-color="#030509"/>
	</linearGradient>
	<radialGradient id="glow-cost-optimization-tips-wide-2" cx="0.52" cy="0.7" r="0.48">
		<stop offset="0%" stop-color="#34d399" stop-opacity="0.18"/>
		<stop offset="48%" stop-color="#60a5fa" stop-opacity="0.08"/>
		<stop offset="100%" stop-color="#05070c" stop-opacity="0"/>
	</radialGradient>
	<linearGradient id="panel-cost-optimization-tips-wide-2" x1="0%" y1="0%" x2="100%" y2="100%">
		<stop offset="0%" stop-color="#0d1726" stop-opacity="0.94"/>
		<stop offset="100%" stop-color="#08101b" stop-opacity="0.58"/>
	</linearGradient>
	<linearGradient id="edge-cost-optimization-tips-wide-2" x1="0%" y1="0%" x2="100%" y2="0%">
		<stop offset="0%" stop-color="#ffffff" stop-opacity="0"/>
		<stop offset="50%" stop-color="#ffffff" stop-opacity="0.12"/>
		<stop offset="100%" stop-color="#ffffff" stop-opacity="0"/>
	</linearGradient>
	<pattern id="grid-cost-optimization-tips-wide-2" width="133.33" height="90" patternUnits="userSpaceOnUse">
		<path d="M 133.33 0 L 0 0 0 90" fill="none" stroke="#34d399" stroke-opacity="0.08" stroke-width="1"/>
	</pattern>
</defs>
<title>cost-optimization-tips wide variant 3</title>
<desc>Compressed layers and trimmed bands balancing neatly around a core, representing database cost optimization.</desc>

	<rect x="0" y="0" width="1600" height="900" fill="url(#bg-cost-optimization-tips-wide-2)"/>
	<rect x="0" y="0" width="1600" height="900" fill="url(#glow-cost-optimization-tips-wide-2)"/>
	<rect x="0" y="0" width="1600" height="900" fill="url(#grid-cost-optimization-tips-wide-2)" opacity="0.42"/>
	<rect x="31.5" y="31.5" width="1537" height="837" rx="28.35" fill="none" stroke="rgba(148,163,184,0.16)" stroke-width="1.5"/>
	<line x1="31.5" y1="53.55" x2="31.5" y2="31.5" stroke="rgba(255,255,255,0.24)" stroke-width="2"/>
	<line x1="31.5" y1="31.5" x2="53.55" y2="31.5" stroke="rgba(255,255,255,0.24)" stroke-width="2"/>
	<line x1="1546.45" y1="31.5" x2="1568.5" y2="31.5" stroke="rgba(255,255,255,0.24)" stroke-width="2"/>
	<line x1="1568.5" y1="31.5" x2="1568.5" y2="53.55" stroke="rgba(255,255,255,0.24)" stroke-width="2"/>
	<line x1="31.5" y1="846.45" x2="31.5" y2="868.5" stroke="rgba(255,255,255,0.24)" stroke-width="2"/>
	<line x1="31.5" y1="868.5" x2="53.55" y2="868.5" stroke="rgba(255,255,255,0.24)" stroke-width="2"/>
	<line x1="1546.45" y1="868.5" x2="1568.5" y2="868.5" stroke="rgba(255,255,255,0.24)" stroke-width="2"/>
	<line x1="1568.5" y1="846.45" x2="1568.5" y2="868.5" stroke="rgba(255,255,255,0.24)" stroke-width="2"/>
	<rect x="45.68" y="45.68" width="1508.65" height="808.65" rx="23.63" fill="none" stroke="url(#edge-cost-optimization-tips-wide-2)" stroke-width="1"/>

<g><circle cx="495.87" cy="162.04" r="1.98" fill="#60a5fa" opacity="0.14"/><circle cx="1490.61" cy="480.17" r="2.63" fill="#f8fafc" opacity="0.14"/><circle cx="82.94" cy="736" r="1.46" fill="#f8fafc" opacity="0.1"/><circle cx="756.68" cy="501.89" r="1.63" fill="#60a5fa" opacity="0.19"/><circle cx="936.2" cy="662.47" r="2.03" fill="#f8fafc" opacity="0.12"/><circle cx="1423.46" cy="31.43" r="1.51" fill="#f8fafc" opacity="0.2"/><circle cx="931.17" cy="3.66" r="1.22" fill="#60a5fa" opacity="0.23"/><circle cx="1239.64" cy="690.36" r="2.41" fill="#f8fafc" opacity="0.22"/><circle cx="1268.11" cy="114.3" r="1.22" fill="#f8fafc" opacity="0.14"/><circle cx="1167.52" cy="184.88" r="1.57" fill="#60a5fa" opacity="0.09"/><circle cx="1494.92" cy="622.86" r="1.68" fill="#f8fafc" opacity="0.11"/><circle cx="625.73" cy="792.61" r="1.94" fill="#f8fafc" opacity="0.21"/><circle cx="1123.95" cy="759.11" r="1.87" fill="#60a5fa" opacity="0.16"/><circle cx="1291.37" cy="262.09" r="2.09" fill="#f8fafc" opacity="0.17"/><circle cx="504.15" cy="594.26" r="2.47" fill="#f8fafc" opacity="0.09"/><circle cx="106.13" cy="293.19" r="1.2" fill="#60a5fa" opacity="0.13"/></g>
<g>
<rect x="368" y="252" width="992" height="76.5" rx="24" fill="rgba(9,16,26,0.72)" stroke="rgba(255,255,255,0.1)" stroke-width="1.2"/><rect x="384" y="264" width="960" height="52.5" rx="18" fill="#34d399" opacity="0.1"/><rect x="440" y="354.5" width="848" height="76.5" rx="24" fill="rgba(9,16,26,0.72)" stroke="rgba(255,255,255,0.1)" stroke-width="1.2"/><rect x="456" y="366.5" width="816" height="52.5" rx="18" fill="#34d399" opacity="0.1"/><rect x="512" y="457" width="704" height="76.5" rx="24" fill="rgba(9,16,26,0.72)" stroke="rgba(255,255,255,0.1)" stroke-width="1.2"/><rect x="528" y="469" width="672" height="52.5" rx="18" fill="#60a5fa" opacity="0.2"/><rect x="584" y="559.5" width="560" height="76.5" rx="24" fill="rgba(9,16,26,0.72)" stroke="rgba(255,255,255,0.1)" stroke-width="1.2"/><rect x="600" y="571.5" width="528" height="52.5" rx="18" fill="#34d399" opacity="0.1"/><rect x="656" y="662" width="416" height="76.5" rx="24" fill="rgba(9,16,26,0.72)" stroke="rgba(255,255,255,0.1)" stroke-width="1.2"/><rect x="672" y="674" width="384" height="52.5" rx="18" fill="#34d399" opacity="0.1"/><line x1="864" y1="198" x2="864" y2="702" stroke="#60a5fa" stroke-width="3" stroke-linecap="round" opacity="0.9"/>
</g>
</svg>