<?xml version="1.0" encoding="UTF-8"?>
<svg xmlns="http://www.w3.org/2000/svg" width="1200" height="1200" viewBox="0 0 1200 1200" fill="none">

<defs>
	<linearGradient id="bg-multi-region-setup-square-3" x1="0%" y1="0%" x2="100%" y2="100%">
		<stop offset="0%" stop-color="#04070c"/>
		<stop offset="42%" stop-color="#07111d"/>
		<stop offset="100%" stop-color="#030509"/>
	</linearGradient>
	<radialGradient id="glow-multi-region-setup-square-3" cx="0.35" cy="0.5" r="0.48">
		<stop offset="0%" stop-color="#60a5fa" stop-opacity="0.18"/>
		<stop offset="48%" stop-color="#22d3ee" stop-opacity="0.08"/>
		<stop offset="100%" stop-color="#05070c" stop-opacity="0"/>
	</radialGradient>
	<linearGradient id="panel-multi-region-setup-square-3" x1="0%" y1="0%" x2="100%" y2="100%">
		<stop offset="0%" stop-color="#0d1726" stop-opacity="0.94"/>
		<stop offset="100%" stop-color="#08101b" stop-opacity="0.58"/>
	</linearGradient>
	<linearGradient id="edge-multi-region-setup-square-3" x1="0%" y1="0%" x2="100%" y2="0%">
		<stop offset="0%" stop-color="#ffffff" stop-opacity="0"/>
		<stop offset="50%" stop-color="#ffffff" stop-opacity="0.12"/>
		<stop offset="100%" stop-color="#ffffff" stop-opacity="0"/>
	</linearGradient>
	<pattern id="grid-multi-region-setup-square-3" width="100" height="120" patternUnits="userSpaceOnUse">
		<path d="M 100 0 L 0 0 0 120" fill="none" stroke="#60a5fa" stroke-opacity="0.08" stroke-width="1"/>
	</pattern>
</defs>
<title>multi-region-setup square variant 4</title>
<desc>Mirrored region clusters connected by measured replication lines, illustrating a multi-region setup.</desc>

	<rect x="0" y="0" width="1200" height="1200" fill="url(#bg-multi-region-setup-square-3)"/>
	<rect x="0" y="0" width="1200" height="1200" fill="url(#glow-multi-region-setup-square-3)"/>
	<rect x="0" y="0" width="1200" height="1200" fill="url(#grid-multi-region-setup-square-3)" opacity="0.42"/>
	<rect x="42" y="42" width="1116" height="1116" rx="37.8" fill="none" stroke="rgba(148,163,184,0.16)" stroke-width="1.5"/>
	<line x1="42" y1="71.4" x2="42" y2="42" stroke="rgba(255,255,255,0.24)" stroke-width="2"/>
	<line x1="42" y1="42" x2="71.4" y2="42" stroke="rgba(255,255,255,0.24)" stroke-width="2"/>
	<line x1="1128.6" y1="42" x2="1158" y2="42" stroke="rgba(255,255,255,0.24)" stroke-width="2"/>
	<line x1="1158" y1="42" x2="1158" y2="71.4" stroke="rgba(255,255,255,0.24)" stroke-width="2"/>
	<line x1="42" y1="1128.6" x2="42" y2="1158" stroke="rgba(255,255,255,0.24)" stroke-width="2"/>
	<line x1="42" y1="1158" x2="71.4" y2="1158" stroke="rgba(255,255,255,0.24)" stroke-width="2"/>
	<line x1="1128.6" y1="1158" x2="1158" y2="1158" stroke="rgba(255,255,255,0.24)" stroke-width="2"/>
	<line x1="1158" y1="1128.6" x2="1158" y2="1158" stroke="rgba(255,255,255,0.24)" stroke-width="2"/>
	<rect x="60.9" y="60.9" width="1078.2" height="1078.2" rx="31.5" fill="none" stroke="url(#edge-multi-region-setup-square-3)" stroke-width="1"/>

<g><circle cx="25" cy="373.99" r="1.48" fill="#22d3ee" opacity="0.1"/><circle cx="983.74" cy="980.15" r="2.66" fill="#f8fafc" opacity="0.24"/><circle cx="589.17" cy="358.86" r="1.28" fill="#f8fafc" opacity="0.16"/><circle cx="515.47" cy="845.79" r="1.18" fill="#22d3ee" opacity="0.13"/><circle cx="862.28" cy="869.15" r="2.59" fill="#f8fafc" opacity="0.19"/><circle cx="353.69" cy="992.58" r="2.31" fill="#f8fafc" opacity="0.17"/><circle cx="1172.85" cy="443.82" r="2.42" fill="#22d3ee" opacity="0.21"/><circle cx="539.92" cy="264.63" r="2.57" fill="#f8fafc" opacity="0.23"/><circle cx="651.76" cy="234.28" r="1.63" fill="#f8fafc" opacity="0.17"/><circle cx="936.48" cy="83.12" r="2.7" fill="#22d3ee" opacity="0.12"/><circle cx="943.35" cy="602.13" r="1.84" fill="#f8fafc" opacity="0.17"/><circle cx="1040.19" cy="755.47" r="2.02" fill="#f8fafc" opacity="0.21"/><circle cx="267.57" cy="194.75" r="1.93" fill="#22d3ee" opacity="0.09"/><circle cx="918.04" cy="217.29" r="2.29" fill="#f8fafc" opacity="0.18"/><circle cx="655.61" cy="954.26" r="2.39" fill="#f8fafc" opacity="0.2"/><circle cx="709.56" cy="732.83" r="1.23" fill="#22d3ee" opacity="0.17"/></g>
<g>
<circle cx="254" cy="546" r="24" fill="rgba(9,16,26,0.72)" stroke="#60a5fa" stroke-opacity="0.34" stroke-width="1.6"/><circle cx="782" cy="546" r="24" fill="rgba(9,16,26,0.72)" stroke="#60a5fa" stroke-opacity="0.34" stroke-width="1.6"/><line x1="254" y1="546" x2="782" y2="546" stroke="#22d3ee" stroke-opacity="0.28" stroke-width="1.8" stroke-dasharray="9 12"/><circle cx="302" cy="642" r="24" fill="rgba(9,16,26,0.72)" stroke="#60a5fa" stroke-opacity="0.34" stroke-width="1.6"/><circle cx="830" cy="642" r="24" fill="rgba(9,16,26,0.72)" stroke="#60a5fa" stroke-opacity="0.34" stroke-width="1.6"/><line x1="302" y1="642" x2="830" y2="642" stroke="#22d3ee" stroke-opacity="0.28" stroke-width="1.8" stroke-dasharray="9 12"/><circle cx="360" cy="588" r="24" fill="rgba(9,16,26,0.72)" stroke="#60a5fa" stroke-opacity="0.34" stroke-width="1.6"/><circle cx="888" cy="588" r="24" fill="rgba(9,16,26,0.72)" stroke="#60a5fa" stroke-opacity="0.34" stroke-width="1.6"/><line x1="360" y1="588" x2="888" y2="588" stroke="#22d3ee" stroke-opacity="0.28" stroke-width="1.8" stroke-dasharray="9 12"/><circle cx="414" cy="658" r="24" fill="rgba(9,16,26,0.72)" stroke="#60a5fa" stroke-opacity="0.34" stroke-width="1.6"/><circle cx="942" cy="658" r="24" fill="rgba(9,16,26,0.72)" stroke="#60a5fa" stroke-opacity="0.34" stroke-width="1.6"/><line x1="414" y1="658" x2="942" y2="658" stroke="#22d3ee" stroke-opacity="0.28" stroke-width="1.8" stroke-dasharray="9 12"/><circle cx="336" cy="600" r="30" fill="#60a5fa" opacity="0.18"/><circle cx="864" cy="600" r="30" fill="#22d3ee" opacity="0.18"/>
</g>
</svg>