<?xml version="1.0" encoding="UTF-8"?>
<svg xmlns="http://www.w3.org/2000/svg" width="1600" height="900" viewBox="0 0 1600 900" fill="none">

<defs>
	<linearGradient id="bg-multi-region-setup-wide-0" x1="0%" y1="0%" x2="100%" y2="100%">
		<stop offset="0%" stop-color="#04070c"/>
		<stop offset="42%" stop-color="#07111d"/>
		<stop offset="100%" stop-color="#030509"/>
	</linearGradient>
	<radialGradient id="glow-multi-region-setup-wide-0" cx="0.2" cy="0.18" r="0.48">
		<stop offset="0%" stop-color="#60a5fa" stop-opacity="0.18"/>
		<stop offset="48%" stop-color="#22d3ee" stop-opacity="0.08"/>
		<stop offset="100%" stop-color="#05070c" stop-opacity="0"/>
	</radialGradient>
	<linearGradient id="panel-multi-region-setup-wide-0" x1="0%" y1="0%" x2="100%" y2="100%">
		<stop offset="0%" stop-color="#0d1726" stop-opacity="0.94"/>
		<stop offset="100%" stop-color="#08101b" stop-opacity="0.58"/>
	</linearGradient>
	<linearGradient id="edge-multi-region-setup-wide-0" x1="0%" y1="0%" x2="100%" y2="0%">
		<stop offset="0%" stop-color="#ffffff" stop-opacity="0"/>
		<stop offset="50%" stop-color="#ffffff" stop-opacity="0.12"/>
		<stop offset="100%" stop-color="#ffffff" stop-opacity="0"/>
	</linearGradient>
	<pattern id="grid-multi-region-setup-wide-0" width="133.33" height="90" patternUnits="userSpaceOnUse">
		<path d="M 133.33 0 L 0 0 0 90" fill="none" stroke="#60a5fa" stroke-opacity="0.08" stroke-width="1"/>
	</pattern>
</defs>
<title>multi-region-setup wide variant 1</title>
<desc>Mirrored region clusters connected by measured replication lines, illustrating a multi-region setup.</desc>

	<rect x="0" y="0" width="1600" height="900" fill="url(#bg-multi-region-setup-wide-0)"/>
	<rect x="0" y="0" width="1600" height="900" fill="url(#glow-multi-region-setup-wide-0)"/>
	<rect x="0" y="0" width="1600" height="900" fill="url(#grid-multi-region-setup-wide-0)" opacity="0.42"/>
	<rect x="31.5" y="31.5" width="1537" height="837" rx="28.35" fill="none" stroke="rgba(148,163,184,0.16)" stroke-width="1.5"/>
	<line x1="31.5" y1="53.55" x2="31.5" y2="31.5" stroke="rgba(255,255,255,0.24)" stroke-width="2"/>
	<line x1="31.5" y1="31.5" x2="53.55" y2="31.5" stroke="rgba(255,255,255,0.24)" stroke-width="2"/>
	<line x1="1546.45" y1="31.5" x2="1568.5" y2="31.5" stroke="rgba(255,255,255,0.24)" stroke-width="2"/>
	<line x1="1568.5" y1="31.5" x2="1568.5" y2="53.55" stroke="rgba(255,255,255,0.24)" stroke-width="2"/>
	<line x1="31.5" y1="846.45" x2="31.5" y2="868.5" stroke="rgba(255,255,255,0.24)" stroke-width="2"/>
	<line x1="31.5" y1="868.5" x2="53.55" y2="868.5" stroke="rgba(255,255,255,0.24)" stroke-width="2"/>
	<line x1="1546.45" y1="868.5" x2="1568.5" y2="868.5" stroke="rgba(255,255,255,0.24)" stroke-width="2"/>
	<line x1="1568.5" y1="846.45" x2="1568.5" y2="868.5" stroke="rgba(255,255,255,0.24)" stroke-width="2"/>
	<rect x="45.68" y="45.68" width="1508.65" height="808.65" rx="23.63" fill="none" stroke="url(#edge-multi-region-setup-wide-0)" stroke-width="1"/>

<g><circle cx="1051.82" cy="585.02" r="2.33" fill="#22d3ee" opacity="0.19"/><circle cx="1536.04" cy="22.26" r="1.19" fill="#f8fafc" opacity="0.12"/><circle cx="29.04" cy="327.59" r="1.71" fill="#f8fafc" opacity="0.2"/><circle cx="604.12" cy="254.04" r="1.01" fill="#22d3ee" opacity="0.24"/><circle cx="1097.1" cy="543.45" r="1.3" fill="#f8fafc" opacity="0.15"/><circle cx="183.52" cy="845.98" r="2.36" fill="#f8fafc" opacity="0.15"/><circle cx="413.82" cy="478.56" r="1.17" fill="#22d3ee" opacity="0.13"/><circle cx="113.81" cy="72.05" r="1.39" fill="#f8fafc" opacity="0.17"/><circle cx="252.89" cy="344.25" r="2.01" fill="#f8fafc" opacity="0.19"/><circle cx="1045.5" cy="489.08" r="2.77" fill="#22d3ee" opacity="0.19"/><circle cx="1356.05" cy="896.92" r="1.57" fill="#f8fafc" opacity="0.24"/><circle cx="816.39" cy="302.19" r="2.44" fill="#f8fafc" opacity="0.15"/><circle cx="1243.5" cy="464.33" r="2.08" fill="#22d3ee" opacity="0.08"/><circle cx="219.76" cy="619.14" r="2.74" fill="#f8fafc" opacity="0.18"/><circle cx="693.11" cy="563.11" r="2.73" fill="#f8fafc" opacity="0.11"/><circle cx="364.68" cy="603.21" r="1.42" fill="#22d3ee" opacity="0.1"/></g>
<g>
<circle cx="366" cy="378" r="24" fill="rgba(9,16,26,0.72)" stroke="#60a5fa" stroke-opacity="0.34" stroke-width="1.6"/><circle cx="1070" cy="378" r="24" fill="rgba(9,16,26,0.72)" stroke="#60a5fa" stroke-opacity="0.34" stroke-width="1.6"/><line x1="366" y1="378" x2="1070" y2="378" stroke="#22d3ee" stroke-opacity="0.28" stroke-width="1.8" stroke-dasharray="9 12"/><circle cx="414" cy="474" r="24" fill="rgba(9,16,26,0.72)" stroke="#60a5fa" stroke-opacity="0.34" stroke-width="1.6"/><circle cx="1118" cy="474" r="24" fill="rgba(9,16,26,0.72)" stroke="#60a5fa" stroke-opacity="0.34" stroke-width="1.6"/><line x1="414" y1="474" x2="1118" y2="474" stroke="#22d3ee" stroke-opacity="0.28" stroke-width="1.8" stroke-dasharray="9 12"/><circle cx="472" cy="420" r="24" fill="rgba(9,16,26,0.72)" stroke="#60a5fa" stroke-opacity="0.34" stroke-width="1.6"/><circle cx="1176" cy="420" r="24" fill="rgba(9,16,26,0.72)" stroke="#60a5fa" stroke-opacity="0.34" stroke-width="1.6"/><line x1="472" y1="420" x2="1176" y2="420" stroke="#22d3ee" stroke-opacity="0.28" stroke-width="1.8" stroke-dasharray="9 12"/><circle cx="526" cy="490" r="24" fill="rgba(9,16,26,0.72)" stroke="#60a5fa" stroke-opacity="0.34" stroke-width="1.6"/><circle cx="1230" cy="490" r="24" fill="rgba(9,16,26,0.72)" stroke="#60a5fa" stroke-opacity="0.34" stroke-width="1.6"/><line x1="526" y1="490" x2="1230" y2="490" stroke="#22d3ee" stroke-opacity="0.28" stroke-width="1.8" stroke-dasharray="9 12"/><circle cx="448" cy="432" r="30" fill="#60a5fa" opacity="0.18"/><circle cx="1152" cy="432" r="30" fill="#22d3ee" opacity="0.18"/>
</g>
</svg>