<?xml version="1.0" encoding="UTF-8"?>
<svg xmlns="http://www.w3.org/2000/svg" width="1200" height="1200" viewBox="0 0 1200 1200" fill="none">

<defs>
	<linearGradient id="bg-multi-region-setup-square-1" x1="0%" y1="0%" x2="100%" y2="100%">
		<stop offset="0%" stop-color="#04070c"/>
		<stop offset="42%" stop-color="#07111d"/>
		<stop offset="100%" stop-color="#030509"/>
	</linearGradient>
	<radialGradient id="glow-multi-region-setup-square-1" cx="0.78" cy="0.24" r="0.48">
		<stop offset="0%" stop-color="#60a5fa" stop-opacity="0.18"/>
		<stop offset="48%" stop-color="#22d3ee" stop-opacity="0.08"/>
		<stop offset="100%" stop-color="#05070c" stop-opacity="0"/>
	</radialGradient>
	<linearGradient id="panel-multi-region-setup-square-1" x1="0%" y1="0%" x2="100%" y2="100%">
		<stop offset="0%" stop-color="#0d1726" stop-opacity="0.94"/>
		<stop offset="100%" stop-color="#08101b" stop-opacity="0.58"/>
	</linearGradient>
	<linearGradient id="edge-multi-region-setup-square-1" x1="0%" y1="0%" x2="100%" y2="0%">
		<stop offset="0%" stop-color="#ffffff" stop-opacity="0"/>
		<stop offset="50%" stop-color="#ffffff" stop-opacity="0.12"/>
		<stop offset="100%" stop-color="#ffffff" stop-opacity="0"/>
	</linearGradient>
	<pattern id="grid-multi-region-setup-square-1" width="100" height="120" patternUnits="userSpaceOnUse">
		<path d="M 100 0 L 0 0 0 120" fill="none" stroke="#60a5fa" stroke-opacity="0.08" stroke-width="1"/>
	</pattern>
</defs>
<title>multi-region-setup square variant 2</title>
<desc>Mirrored region clusters connected by measured replication lines, illustrating a multi-region setup.</desc>

	<rect x="0" y="0" width="1200" height="1200" fill="url(#bg-multi-region-setup-square-1)"/>
	<rect x="0" y="0" width="1200" height="1200" fill="url(#glow-multi-region-setup-square-1)"/>
	<rect x="0" y="0" width="1200" height="1200" fill="url(#grid-multi-region-setup-square-1)" opacity="0.42"/>
	<rect x="42" y="42" width="1116" height="1116" rx="37.8" fill="none" stroke="rgba(148,163,184,0.16)" stroke-width="1.5"/>
	<line x1="42" y1="71.4" x2="42" y2="42" stroke="rgba(255,255,255,0.24)" stroke-width="2"/>
	<line x1="42" y1="42" x2="71.4" y2="42" stroke="rgba(255,255,255,0.24)" stroke-width="2"/>
	<line x1="1128.6" y1="42" x2="1158" y2="42" stroke="rgba(255,255,255,0.24)" stroke-width="2"/>
	<line x1="1158" y1="42" x2="1158" y2="71.4" stroke="rgba(255,255,255,0.24)" stroke-width="2"/>
	<line x1="42" y1="1128.6" x2="42" y2="1158" stroke="rgba(255,255,255,0.24)" stroke-width="2"/>
	<line x1="42" y1="1158" x2="71.4" y2="1158" stroke="rgba(255,255,255,0.24)" stroke-width="2"/>
	<line x1="1128.6" y1="1158" x2="1158" y2="1158" stroke="rgba(255,255,255,0.24)" stroke-width="2"/>
	<line x1="1158" y1="1128.6" x2="1158" y2="1158" stroke="rgba(255,255,255,0.24)" stroke-width="2"/>
	<rect x="60.9" y="60.9" width="1078.2" height="1078.2" rx="31.5" fill="none" stroke="url(#edge-multi-region-setup-square-1)" stroke-width="1"/>

<g><circle cx="15.35" cy="792.69" r="1.73" fill="#22d3ee" opacity="0.15"/><circle cx="610.44" cy="1159.19" r="2.72" fill="#f8fafc" opacity="0.14"/><circle cx="678.88" cy="445.23" r="2.2" fill="#f8fafc" opacity="0.08"/><circle cx="243.79" cy="448.38" r="1.97" fill="#22d3ee" opacity="0.11"/><circle cx="839.03" cy="1100.64" r="1.37" fill="#f8fafc" opacity="0.19"/><circle cx="188.27" cy="1054.34" r="2.13" fill="#f8fafc" opacity="0.22"/><circle cx="1026.25" cy="1078.54" r="2.11" fill="#22d3ee" opacity="0.24"/><circle cx="379.61" cy="914.87" r="2.53" fill="#f8fafc" opacity="0.23"/><circle cx="222.89" cy="1071.18" r="2.55" fill="#f8fafc" opacity="0.21"/><circle cx="985.44" cy="94.81" r="1.49" fill="#22d3ee" opacity="0.22"/><circle cx="1030.37" cy="1177.88" r="2.67" fill="#f8fafc" opacity="0.1"/><circle cx="487.81" cy="1041.53" r="2.45" fill="#f8fafc" opacity="0.2"/><circle cx="846.58" cy="627.03" r="1.64" fill="#22d3ee" opacity="0.16"/><circle cx="296.44" cy="254.45" r="1.56" fill="#f8fafc" opacity="0.11"/><circle cx="365.57" cy="29.99" r="2.03" fill="#f8fafc" opacity="0.21"/><circle cx="421.47" cy="1193.23" r="1.78" fill="#22d3ee" opacity="0.17"/></g>
<g>
<circle cx="254" cy="450" r="24" fill="rgba(9,16,26,0.72)" stroke="#60a5fa" stroke-opacity="0.34" stroke-width="1.6"/><circle cx="782" cy="450" r="24" fill="rgba(9,16,26,0.72)" stroke="#60a5fa" stroke-opacity="0.34" stroke-width="1.6"/><line x1="254" y1="450" x2="782" y2="450" stroke="#22d3ee" stroke-opacity="0.28" stroke-width="1.8" stroke-dasharray="9 12"/><circle cx="302" cy="546" r="24" fill="rgba(9,16,26,0.72)" stroke="#60a5fa" stroke-opacity="0.34" stroke-width="1.6"/><circle cx="830" cy="546" r="24" fill="rgba(9,16,26,0.72)" stroke="#60a5fa" stroke-opacity="0.34" stroke-width="1.6"/><line x1="302" y1="546" x2="830" y2="546" stroke="#22d3ee" stroke-opacity="0.28" stroke-width="1.8" stroke-dasharray="9 12"/><circle cx="360" cy="492" r="24" fill="rgba(9,16,26,0.72)" stroke="#60a5fa" stroke-opacity="0.34" stroke-width="1.6"/><circle cx="888" cy="492" r="24" fill="rgba(9,16,26,0.72)" stroke="#60a5fa" stroke-opacity="0.34" stroke-width="1.6"/><line x1="360" y1="492" x2="888" y2="492" stroke="#22d3ee" stroke-opacity="0.28" stroke-width="1.8" stroke-dasharray="9 12"/><circle cx="414" cy="562" r="24" fill="rgba(9,16,26,0.72)" stroke="#60a5fa" stroke-opacity="0.34" stroke-width="1.6"/><circle cx="942" cy="562" r="24" fill="rgba(9,16,26,0.72)" stroke="#60a5fa" stroke-opacity="0.34" stroke-width="1.6"/><line x1="414" y1="562" x2="942" y2="562" stroke="#22d3ee" stroke-opacity="0.28" stroke-width="1.8" stroke-dasharray="9 12"/><circle cx="336" cy="504" r="30" fill="#60a5fa" opacity="0.18"/><circle cx="864" cy="504" r="30" fill="#22d3ee" opacity="0.18"/>
</g>
</svg>