<svg xmlns="http://www.w3.org/2000/svg" width="164" height="30" viewBox="0 0 164 30" fill="none">
  <rect x="1" y="2" width="26" height="26" rx="8" fill="#F8FAFC"/>
  <path d="M8 10H20V13.5H15V22H12V13.5H8V10Z" fill="#050508"/>
  <path d="M9.5 18.8H18.5V22H9.5V18.8Z" fill="#2563EB"/>
  <path d="M38 10.9H53.2V14.1H47.6V27H43.7V14.1H38V10.9Z" fill="#F8FAFC"/>
  <path d="M55.2 27V10.9H65.7V14.1H58.9V17.4H65.1V20.6H58.9V23.8H66V27H55.2Z" fill="#F8FAFC"/>
  <path d="M68.7 27V10.9H72.6V23.8H79.3V27H68.7Z" fill="#F8FAFC"/>
  <path d="M81.7 27V10.9H92.2V14.1H85.4V17.4H91.6V20.6H85.4V23.8H92.5V27H81.7Z" fill="#F8FAFC"/>
  <path d="M101.1 10.7C104.9 10.7 107.3 12.9 108 16.1H104.1C103.6 14.9 102.6 14.2 101.1 14.2C98.8 14.2 97.3 16 97.3 18.9C97.3 21.8 98.8 23.6 101.1 23.6C102.6 23.6 103.6 22.8 104.1 21.7H108C107.3 24.9 104.9 27.1 101.1 27.1C96.4 27.1 93.4 23.7 93.4 18.9C93.4 14.1 96.4 10.7 101.1 10.7Z" fill="#F8FAFC"/>
  <path d="M117.5 27.1C113.3 27.1 110.1 23.7 110.1 18.9C110.1 14.1 113.3 10.7 117.5 10.7C121.7 10.7 124.9 14.1 124.9 18.9C124.9 23.7 121.7 27.1 117.5 27.1ZM117.5 23.6C119.8 23.6 121.1 21.8 121.1 18.9C121.1 16 119.8 14.2 117.5 14.2C115.1 14.2 113.8 16 113.8 18.9C113.8 21.8 115.1 23.6 117.5 23.6Z" fill="#F8FAFC"/>
  <path d="M127.6 27V10.9H131.5V27H127.6Z" fill="#F8FAFC"/>
  <path d="M140.4 27.1C136.9 27.1 134.5 25.3 134.3 22.1H138.5C138.6 23.2 139.3 23.9 140.4 23.9C141.4 23.9 142 23.4 142 22.6C142 19.8 134.5 21.2 134.6 15.8C134.6 13 136.8 10.7 140 10.7C143.5 10.7 145.7 12.4 145.9 15.6H141.7C141.6 14.7 140.9 14.1 139.9 14.1C139 14.1 138.4 14.6 138.4 15.4C138.4 18.1 145.9 16.8 145.9 22.4C145.9 25 143.9 27.1 140.4 27.1Z" fill="#F8FAFC"/>
  <path d="M148.1 10.9H163.3V14.1H157.7V27H153.8V14.1H148.1V10.9Z" fill="#F8FAFC"/>
</svg>
