<?xml version="1.0" encoding="UTF-8"?>
<svg xmlns="http://www.w3.org/2000/svg" width="1200" height="1200" viewBox="0 0 1200 1200" fill="none">

<defs>
	<linearGradient id="bg-how-we-achieve-global-latency-square-3" x1="0%" y1="0%" x2="100%" y2="100%">
		<stop offset="0%" stop-color="#04070c"/>
		<stop offset="42%" stop-color="#07111d"/>
		<stop offset="100%" stop-color="#030509"/>
	</linearGradient>
	<radialGradient id="glow-how-we-achieve-global-latency-square-3" cx="0.35" cy="0.5" r="0.48">
		<stop offset="0%" stop-color="#60a5fa" stop-opacity="0.18"/>
		<stop offset="48%" stop-color="#22d3ee" stop-opacity="0.08"/>
		<stop offset="100%" stop-color="#05070c" stop-opacity="0"/>
	</radialGradient>
	<linearGradient id="panel-how-we-achieve-global-latency-square-3" x1="0%" y1="0%" x2="100%" y2="100%">
		<stop offset="0%" stop-color="#0d1726" stop-opacity="0.94"/>
		<stop offset="100%" stop-color="#08101b" stop-opacity="0.58"/>
	</linearGradient>
	<linearGradient id="edge-how-we-achieve-global-latency-square-3" x1="0%" y1="0%" x2="100%" y2="0%">
		<stop offset="0%" stop-color="#ffffff" stop-opacity="0"/>
		<stop offset="50%" stop-color="#ffffff" stop-opacity="0.12"/>
		<stop offset="100%" stop-color="#ffffff" stop-opacity="0"/>
	</linearGradient>
	<pattern id="grid-how-we-achieve-global-latency-square-3" width="100" height="120" patternUnits="userSpaceOnUse">
		<path d="M 100 0 L 0 0 0 120" fill="none" stroke="#60a5fa" stroke-opacity="0.08" stroke-width="1"/>
	</pattern>
</defs>
<title>how-we-achieve-global-latency square variant 4</title>
<desc>A sparse abstract globe with a few bright low-latency routes connecting distant regions.</desc>

	<rect x="0" y="0" width="1200" height="1200" fill="url(#bg-how-we-achieve-global-latency-square-3)"/>
	<rect x="0" y="0" width="1200" height="1200" fill="url(#glow-how-we-achieve-global-latency-square-3)"/>
	<rect x="0" y="0" width="1200" height="1200" fill="url(#grid-how-we-achieve-global-latency-square-3)" opacity="0.42"/>
	<rect x="42" y="42" width="1116" height="1116" rx="37.8" fill="none" stroke="rgba(148,163,184,0.16)" stroke-width="1.5"/>
	<line x1="42" y1="71.4" x2="42" y2="42" stroke="rgba(255,255,255,0.24)" stroke-width="2"/>
	<line x1="42" y1="42" x2="71.4" y2="42" stroke="rgba(255,255,255,0.24)" stroke-width="2"/>
	<line x1="1128.6" y1="42" x2="1158" y2="42" stroke="rgba(255,255,255,0.24)" stroke-width="2"/>
	<line x1="1158" y1="42" x2="1158" y2="71.4" stroke="rgba(255,255,255,0.24)" stroke-width="2"/>
	<line x1="42" y1="1128.6" x2="42" y2="1158" stroke="rgba(255,255,255,0.24)" stroke-width="2"/>
	<line x1="42" y1="1158" x2="71.4" y2="1158" stroke="rgba(255,255,255,0.24)" stroke-width="2"/>
	<line x1="1128.6" y1="1158" x2="1158" y2="1158" stroke="rgba(255,255,255,0.24)" stroke-width="2"/>
	<line x1="1158" y1="1128.6" x2="1158" y2="1158" stroke="rgba(255,255,255,0.24)" stroke-width="2"/>
	<rect x="60.9" y="60.9" width="1078.2" height="1078.2" rx="31.5" fill="none" stroke="url(#edge-how-we-achieve-global-latency-square-3)" stroke-width="1"/>

<g><circle cx="966.95" cy="39.95" r="2.14" fill="#22d3ee" opacity="0.18"/><circle cx="345.95" cy="431.92" r="2.19" fill="#f8fafc" opacity="0.21"/><circle cx="174.94" cy="514.56" r="1.05" fill="#f8fafc" opacity="0.18"/><circle cx="626.79" cy="462.85" r="1.02" fill="#22d3ee" opacity="0.16"/><circle cx="805.06" cy="1150.75" r="2.77" fill="#f8fafc" opacity="0.17"/><circle cx="488.07" cy="702.97" r="1.05" fill="#f8fafc" opacity="0.12"/><circle cx="402.09" cy="199.87" r="1.61" fill="#22d3ee" opacity="0.09"/><circle cx="779.45" cy="261.77" r="1.17" fill="#f8fafc" opacity="0.22"/><circle cx="28.29" cy="196.5" r="1.57" fill="#f8fafc" opacity="0.1"/><circle cx="830.44" cy="815.27" r="1.3" fill="#22d3ee" opacity="0.23"/><circle cx="636.96" cy="558.47" r="1.59" fill="#f8fafc" opacity="0.17"/><circle cx="208.83" cy="769.33" r="2.26" fill="#f8fafc" opacity="0.24"/><circle cx="534.44" cy="585.17" r="1.68" fill="#22d3ee" opacity="0.21"/><circle cx="742.14" cy="499.33" r="2.35" fill="#f8fafc" opacity="0.09"/><circle cx="650.98" cy="565.41" r="1.57" fill="#f8fafc" opacity="0.2"/><circle cx="39.36" cy="930.15" r="2.78" fill="#22d3ee" opacity="0.12"/></g>
<g>
<circle cx="696" cy="552" r="264" fill="none" stroke="rgba(255,255,255,0.16)" stroke-width="1.4"/><ellipse cx="696" cy="552" rx="163.68" ry="264" fill="none" stroke="rgba(148,163,184,0.18)" stroke-width="1"/><ellipse cx="696" cy="552" rx="73.92" ry="264" fill="none" stroke="rgba(148,163,184,0.18)" stroke-width="1"/><line x1="432" y1="552" x2="960" y2="552" stroke="rgba(148,163,184,0.18)" stroke-width="1"/><line x1="696" y1="288" x2="696" y2="816" stroke="rgba(148,163,184,0.18)" stroke-width="1"/><path d="M 505.92 599.52 Q 643.2 309.12 833.28 420" fill="none" stroke="#60a5fa" stroke-width="3" stroke-linecap="round" opacity="0.88"/><circle cx="505.92" cy="599.52" r="5" fill="#60a5fa" opacity="0.92"/><circle cx="833.28" cy="420" r="6" fill="#22d3ee" opacity="0.95"/><path d="M 637.92 742.08 Q 696 309.12 917.76 520.32" fill="none" stroke="#22d3ee" stroke-width="3" stroke-linecap="round" opacity="0.88"/><circle cx="637.92" cy="742.08" r="5" fill="#60a5fa" opacity="0.92"/><circle cx="917.76" cy="520.32" r="6" fill="#22d3ee" opacity="0.95"/><path d="M 468.96 530.88 Q 748.8 309.12 717.12 757.92" fill="none" stroke="#60a5fa" stroke-width="3" stroke-linecap="round" opacity="0.88"/><circle cx="468.96" cy="530.88" r="5" fill="#60a5fa" opacity="0.92"/><circle cx="717.12" cy="757.92" r="6" fill="#22d3ee" opacity="0.95"/>
</g>
</svg>