<?xml version="1.0" encoding="UTF-8"?>
<svg xmlns="http://www.w3.org/2000/svg" width="1200" height="1200" viewBox="0 0 1200 1200" fill="none">

<defs>
	<linearGradient id="bg-how-we-achieve-global-latency-square-2" x1="0%" y1="0%" x2="100%" y2="100%">
		<stop offset="0%" stop-color="#04070c"/>
		<stop offset="42%" stop-color="#07111d"/>
		<stop offset="100%" stop-color="#030509"/>
	</linearGradient>
	<radialGradient id="glow-how-we-achieve-global-latency-square-2" cx="0.52" cy="0.7" r="0.48">
		<stop offset="0%" stop-color="#60a5fa" stop-opacity="0.18"/>
		<stop offset="48%" stop-color="#22d3ee" stop-opacity="0.08"/>
		<stop offset="100%" stop-color="#05070c" stop-opacity="0"/>
	</radialGradient>
	<linearGradient id="panel-how-we-achieve-global-latency-square-2" x1="0%" y1="0%" x2="100%" y2="100%">
		<stop offset="0%" stop-color="#0d1726" stop-opacity="0.94"/>
		<stop offset="100%" stop-color="#08101b" stop-opacity="0.58"/>
	</linearGradient>
	<linearGradient id="edge-how-we-achieve-global-latency-square-2" x1="0%" y1="0%" x2="100%" y2="0%">
		<stop offset="0%" stop-color="#ffffff" stop-opacity="0"/>
		<stop offset="50%" stop-color="#ffffff" stop-opacity="0.12"/>
		<stop offset="100%" stop-color="#ffffff" stop-opacity="0"/>
	</linearGradient>
	<pattern id="grid-how-we-achieve-global-latency-square-2" width="100" height="120" patternUnits="userSpaceOnUse">
		<path d="M 100 0 L 0 0 0 120" fill="none" stroke="#60a5fa" stroke-opacity="0.08" stroke-width="1"/>
	</pattern>
</defs>
<title>how-we-achieve-global-latency square variant 3</title>
<desc>A sparse abstract globe with a few bright low-latency routes connecting distant regions.</desc>

	<rect x="0" y="0" width="1200" height="1200" fill="url(#bg-how-we-achieve-global-latency-square-2)"/>
	<rect x="0" y="0" width="1200" height="1200" fill="url(#glow-how-we-achieve-global-latency-square-2)"/>
	<rect x="0" y="0" width="1200" height="1200" fill="url(#grid-how-we-achieve-global-latency-square-2)" opacity="0.42"/>
	<rect x="42" y="42" width="1116" height="1116" rx="37.8" fill="none" stroke="rgba(148,163,184,0.16)" stroke-width="1.5"/>
	<line x1="42" y1="71.4" x2="42" y2="42" stroke="rgba(255,255,255,0.24)" stroke-width="2"/>
	<line x1="42" y1="42" x2="71.4" y2="42" stroke="rgba(255,255,255,0.24)" stroke-width="2"/>
	<line x1="1128.6" y1="42" x2="1158" y2="42" stroke="rgba(255,255,255,0.24)" stroke-width="2"/>
	<line x1="1158" y1="42" x2="1158" y2="71.4" stroke="rgba(255,255,255,0.24)" stroke-width="2"/>
	<line x1="42" y1="1128.6" x2="42" y2="1158" stroke="rgba(255,255,255,0.24)" stroke-width="2"/>
	<line x1="42" y1="1158" x2="71.4" y2="1158" stroke="rgba(255,255,255,0.24)" stroke-width="2"/>
	<line x1="1128.6" y1="1158" x2="1158" y2="1158" stroke="rgba(255,255,255,0.24)" stroke-width="2"/>
	<line x1="1158" y1="1128.6" x2="1158" y2="1158" stroke="rgba(255,255,255,0.24)" stroke-width="2"/>
	<rect x="60.9" y="60.9" width="1078.2" height="1078.2" rx="31.5" fill="none" stroke="url(#edge-how-we-achieve-global-latency-square-2)" stroke-width="1"/>

<g><circle cx="460.93" cy="910.27" r="2.66" fill="#22d3ee" opacity="0.13"/><circle cx="163.45" cy="1066.06" r="1.1" fill="#f8fafc" opacity="0.1"/><circle cx="779.42" cy="169.05" r="2.51" fill="#f8fafc" opacity="0.13"/><circle cx="670.24" cy="32.44" r="1.19" fill="#22d3ee" opacity="0.08"/><circle cx="1087.46" cy="154.94" r="2.61" fill="#f8fafc" opacity="0.18"/><circle cx="1018.01" cy="448.42" r="2.52" fill="#f8fafc" opacity="0.16"/><circle cx="815.83" cy="962.14" r="1.7" fill="#22d3ee" opacity="0.16"/><circle cx="729.74" cy="531.1" r="1.56" fill="#f8fafc" opacity="0.11"/><circle cx="517.76" cy="669.8" r="1.82" fill="#f8fafc" opacity="0.15"/><circle cx="475.15" cy="687.43" r="2.46" fill="#22d3ee" opacity="0.23"/><circle cx="836.12" cy="1024.96" r="2.46" fill="#f8fafc" opacity="0.22"/><circle cx="298.73" cy="416.76" r="2.22" fill="#f8fafc" opacity="0.16"/><circle cx="1086.17" cy="659.17" r="1.36" fill="#22d3ee" opacity="0.2"/><circle cx="1079.16" cy="1023.81" r="2.25" fill="#f8fafc" opacity="0.14"/><circle cx="149.82" cy="1186.35" r="1.89" fill="#f8fafc" opacity="0.14"/><circle cx="262.73" cy="771.5" r="1.91" fill="#22d3ee" opacity="0.21"/></g>
<g>
<circle cx="552" cy="624" r="264" fill="none" stroke="rgba(255,255,255,0.16)" stroke-width="1.4"/><ellipse cx="552" cy="624" rx="163.68" ry="264" fill="none" stroke="rgba(148,163,184,0.18)" stroke-width="1"/><ellipse cx="552" cy="624" rx="73.92" ry="264" fill="none" stroke="rgba(148,163,184,0.18)" stroke-width="1"/><line x1="288" y1="624" x2="816" y2="624" stroke="rgba(148,163,184,0.18)" stroke-width="1"/><line x1="552" y1="360" x2="552" y2="888" stroke="rgba(148,163,184,0.18)" stroke-width="1"/><path d="M 361.92 671.52 Q 499.2 381.12 689.28 492" fill="none" stroke="#60a5fa" stroke-width="3" stroke-linecap="round" opacity="0.88"/><circle cx="361.92" cy="671.52" r="5" fill="#60a5fa" opacity="0.92"/><circle cx="689.28" cy="492" r="6" fill="#22d3ee" opacity="0.95"/><path d="M 493.92 814.08 Q 552 381.12 773.76 592.32" fill="none" stroke="#22d3ee" stroke-width="3" stroke-linecap="round" opacity="0.88"/><circle cx="493.92" cy="814.08" r="5" fill="#60a5fa" opacity="0.92"/><circle cx="773.76" cy="592.32" r="6" fill="#22d3ee" opacity="0.95"/><path d="M 324.96 602.88 Q 604.8 381.12 573.12 829.92" fill="none" stroke="#60a5fa" stroke-width="3" stroke-linecap="round" opacity="0.88"/><circle cx="324.96" cy="602.88" r="5" fill="#60a5fa" opacity="0.92"/><circle cx="573.12" cy="829.92" r="6" fill="#22d3ee" opacity="0.95"/>
</g>
</svg>