<?xml version="1.0" encoding="UTF-8"?>
<svg xmlns="http://www.w3.org/2000/svg" width="1600" height="900" viewBox="0 0 1600 900" fill="none">

<defs>
	<linearGradient id="bg-how-we-achieve-global-latency-wide-3" x1="0%" y1="0%" x2="100%" y2="100%">
		<stop offset="0%" stop-color="#04070c"/>
		<stop offset="42%" stop-color="#07111d"/>
		<stop offset="100%" stop-color="#030509"/>
	</linearGradient>
	<radialGradient id="glow-how-we-achieve-global-latency-wide-3" cx="0.35" cy="0.5" r="0.48">
		<stop offset="0%" stop-color="#60a5fa" stop-opacity="0.18"/>
		<stop offset="48%" stop-color="#22d3ee" stop-opacity="0.08"/>
		<stop offset="100%" stop-color="#05070c" stop-opacity="0"/>
	</radialGradient>
	<linearGradient id="panel-how-we-achieve-global-latency-wide-3" x1="0%" y1="0%" x2="100%" y2="100%">
		<stop offset="0%" stop-color="#0d1726" stop-opacity="0.94"/>
		<stop offset="100%" stop-color="#08101b" stop-opacity="0.58"/>
	</linearGradient>
	<linearGradient id="edge-how-we-achieve-global-latency-wide-3" x1="0%" y1="0%" x2="100%" y2="0%">
		<stop offset="0%" stop-color="#ffffff" stop-opacity="0"/>
		<stop offset="50%" stop-color="#ffffff" stop-opacity="0.12"/>
		<stop offset="100%" stop-color="#ffffff" stop-opacity="0"/>
	</linearGradient>
	<pattern id="grid-how-we-achieve-global-latency-wide-3" width="133.33" height="90" patternUnits="userSpaceOnUse">
		<path d="M 133.33 0 L 0 0 0 90" fill="none" stroke="#60a5fa" stroke-opacity="0.08" stroke-width="1"/>
	</pattern>
</defs>
<title>how-we-achieve-global-latency wide variant 4</title>
<desc>A sparse abstract globe with a few bright low-latency routes connecting distant regions.</desc>

	<rect x="0" y="0" width="1600" height="900" fill="url(#bg-how-we-achieve-global-latency-wide-3)"/>
	<rect x="0" y="0" width="1600" height="900" fill="url(#glow-how-we-achieve-global-latency-wide-3)"/>
	<rect x="0" y="0" width="1600" height="900" fill="url(#grid-how-we-achieve-global-latency-wide-3)" opacity="0.42"/>
	<rect x="31.5" y="31.5" width="1537" height="837" rx="28.35" fill="none" stroke="rgba(148,163,184,0.16)" stroke-width="1.5"/>
	<line x1="31.5" y1="53.55" x2="31.5" y2="31.5" stroke="rgba(255,255,255,0.24)" stroke-width="2"/>
	<line x1="31.5" y1="31.5" x2="53.55" y2="31.5" stroke="rgba(255,255,255,0.24)" stroke-width="2"/>
	<line x1="1546.45" y1="31.5" x2="1568.5" y2="31.5" stroke="rgba(255,255,255,0.24)" stroke-width="2"/>
	<line x1="1568.5" y1="31.5" x2="1568.5" y2="53.55" stroke="rgba(255,255,255,0.24)" stroke-width="2"/>
	<line x1="31.5" y1="846.45" x2="31.5" y2="868.5" stroke="rgba(255,255,255,0.24)" stroke-width="2"/>
	<line x1="31.5" y1="868.5" x2="53.55" y2="868.5" stroke="rgba(255,255,255,0.24)" stroke-width="2"/>
	<line x1="1546.45" y1="868.5" x2="1568.5" y2="868.5" stroke="rgba(255,255,255,0.24)" stroke-width="2"/>
	<line x1="1568.5" y1="846.45" x2="1568.5" y2="868.5" stroke="rgba(255,255,255,0.24)" stroke-width="2"/>
	<rect x="45.68" y="45.68" width="1508.65" height="808.65" rx="23.63" fill="none" stroke="url(#edge-how-we-achieve-global-latency-wide-3)" stroke-width="1"/>

<g><circle cx="944.23" cy="25.84" r="1.76" fill="#22d3ee" opacity="0.14"/><circle cx="203.49" cy="72.4" r="1.38" fill="#f8fafc" opacity="0.23"/><circle cx="17.94" cy="513.26" r="2.4" fill="#f8fafc" opacity="0.2"/><circle cx="423.06" cy="734.35" r="2.1" fill="#22d3ee" opacity="0.14"/><circle cx="706.03" cy="642.58" r="1.8" fill="#f8fafc" opacity="0.18"/><circle cx="199.66" cy="257.53" r="1.38" fill="#f8fafc" opacity="0.17"/><circle cx="456.32" cy="141.8" r="1.41" fill="#22d3ee" opacity="0.1"/><circle cx="1560.82" cy="188.53" r="1.4" fill="#f8fafc" opacity="0.23"/><circle cx="269.86" cy="228.14" r="1.37" fill="#f8fafc" opacity="0.21"/><circle cx="1386.87" cy="15.37" r="2.09" fill="#22d3ee" opacity="0.2"/><circle cx="1135.96" cy="339.71" r="1.26" fill="#f8fafc" opacity="0.23"/><circle cx="1536.16" cy="669.82" r="2.79" fill="#f8fafc" opacity="0.2"/><circle cx="377.52" cy="546.65" r="1.69" fill="#22d3ee" opacity="0.09"/><circle cx="1414.58" cy="351.14" r="2.33" fill="#f8fafc" opacity="0.17"/><circle cx="420.93" cy="256.11" r="2.77" fill="#f8fafc" opacity="0.12"/><circle cx="658.74" cy="438.25" r="2.39" fill="#22d3ee" opacity="0.2"/></g>
<g>
<circle cx="928" cy="414" r="198" fill="none" stroke="rgba(255,255,255,0.16)" stroke-width="1.4"/><ellipse cx="928" cy="414" rx="122.76" ry="198" fill="none" stroke="rgba(148,163,184,0.18)" stroke-width="1"/><ellipse cx="928" cy="414" rx="55.44" ry="198" fill="none" stroke="rgba(148,163,184,0.18)" stroke-width="1"/><line x1="730" y1="414" x2="1126" y2="414" stroke="rgba(148,163,184,0.18)" stroke-width="1"/><line x1="928" y1="216" x2="928" y2="612" stroke="rgba(148,163,184,0.18)" stroke-width="1"/><path d="M 785.44 449.64 Q 888.4 231.84 1030.96 315" fill="none" stroke="#60a5fa" stroke-width="3" stroke-linecap="round" opacity="0.88"/><circle cx="785.44" cy="449.64" r="5" fill="#60a5fa" opacity="0.92"/><circle cx="1030.96" cy="315" r="6" fill="#22d3ee" opacity="0.95"/><path d="M 884.44 556.56 Q 928 231.84 1094.32 390.24" fill="none" stroke="#22d3ee" stroke-width="3" stroke-linecap="round" opacity="0.88"/><circle cx="884.44" cy="556.56" r="5" fill="#60a5fa" opacity="0.92"/><circle cx="1094.32" cy="390.24" r="6" fill="#22d3ee" opacity="0.95"/><path d="M 757.72 398.16 Q 967.6 231.84 943.84 568.44" fill="none" stroke="#60a5fa" stroke-width="3" stroke-linecap="round" opacity="0.88"/><circle cx="757.72" cy="398.16" r="5" fill="#60a5fa" opacity="0.92"/><circle cx="943.84" cy="568.44" r="6" fill="#22d3ee" opacity="0.95"/>
</g>
</svg>