<?xml version="1.0" encoding="UTF-8"?>
<svg xmlns="http://www.w3.org/2000/svg" width="1600" height="900" viewBox="0 0 1600 900" fill="none">

<defs>
	<linearGradient id="bg-how-we-achieve-global-latency-wide-2" x1="0%" y1="0%" x2="100%" y2="100%">
		<stop offset="0%" stop-color="#04070c"/>
		<stop offset="42%" stop-color="#07111d"/>
		<stop offset="100%" stop-color="#030509"/>
	</linearGradient>
	<radialGradient id="glow-how-we-achieve-global-latency-wide-2" cx="0.52" cy="0.7" r="0.48">
		<stop offset="0%" stop-color="#60a5fa" stop-opacity="0.18"/>
		<stop offset="48%" stop-color="#22d3ee" stop-opacity="0.08"/>
		<stop offset="100%" stop-color="#05070c" stop-opacity="0"/>
	</radialGradient>
	<linearGradient id="panel-how-we-achieve-global-latency-wide-2" x1="0%" y1="0%" x2="100%" y2="100%">
		<stop offset="0%" stop-color="#0d1726" stop-opacity="0.94"/>
		<stop offset="100%" stop-color="#08101b" stop-opacity="0.58"/>
	</linearGradient>
	<linearGradient id="edge-how-we-achieve-global-latency-wide-2" x1="0%" y1="0%" x2="100%" y2="0%">
		<stop offset="0%" stop-color="#ffffff" stop-opacity="0"/>
		<stop offset="50%" stop-color="#ffffff" stop-opacity="0.12"/>
		<stop offset="100%" stop-color="#ffffff" stop-opacity="0"/>
	</linearGradient>
	<pattern id="grid-how-we-achieve-global-latency-wide-2" width="133.33" height="90" patternUnits="userSpaceOnUse">
		<path d="M 133.33 0 L 0 0 0 90" fill="none" stroke="#60a5fa" stroke-opacity="0.08" stroke-width="1"/>
	</pattern>
</defs>
<title>how-we-achieve-global-latency wide variant 3</title>
<desc>A sparse abstract globe with a few bright low-latency routes connecting distant regions.</desc>

	<rect x="0" y="0" width="1600" height="900" fill="url(#bg-how-we-achieve-global-latency-wide-2)"/>
	<rect x="0" y="0" width="1600" height="900" fill="url(#glow-how-we-achieve-global-latency-wide-2)"/>
	<rect x="0" y="0" width="1600" height="900" fill="url(#grid-how-we-achieve-global-latency-wide-2)" opacity="0.42"/>
	<rect x="31.5" y="31.5" width="1537" height="837" rx="28.35" fill="none" stroke="rgba(148,163,184,0.16)" stroke-width="1.5"/>
	<line x1="31.5" y1="53.55" x2="31.5" y2="31.5" stroke="rgba(255,255,255,0.24)" stroke-width="2"/>
	<line x1="31.5" y1="31.5" x2="53.55" y2="31.5" stroke="rgba(255,255,255,0.24)" stroke-width="2"/>
	<line x1="1546.45" y1="31.5" x2="1568.5" y2="31.5" stroke="rgba(255,255,255,0.24)" stroke-width="2"/>
	<line x1="1568.5" y1="31.5" x2="1568.5" y2="53.55" stroke="rgba(255,255,255,0.24)" stroke-width="2"/>
	<line x1="31.5" y1="846.45" x2="31.5" y2="868.5" stroke="rgba(255,255,255,0.24)" stroke-width="2"/>
	<line x1="31.5" y1="868.5" x2="53.55" y2="868.5" stroke="rgba(255,255,255,0.24)" stroke-width="2"/>
	<line x1="1546.45" y1="868.5" x2="1568.5" y2="868.5" stroke="rgba(255,255,255,0.24)" stroke-width="2"/>
	<line x1="1568.5" y1="846.45" x2="1568.5" y2="868.5" stroke="rgba(255,255,255,0.24)" stroke-width="2"/>
	<rect x="45.68" y="45.68" width="1508.65" height="808.65" rx="23.63" fill="none" stroke="url(#edge-how-we-achieve-global-latency-wide-2)" stroke-width="1"/>

<g><circle cx="1497.17" cy="433.13" r="2" fill="#22d3ee" opacity="0.14"/><circle cx="119.58" cy="283.32" r="2.37" fill="#f8fafc" opacity="0.1"/><circle cx="848.99" cy="874.03" r="2.7" fill="#f8fafc" opacity="0.09"/><circle cx="1411.1" cy="235.67" r="2.49" fill="#22d3ee" opacity="0.13"/><circle cx="1381.64" cy="416.33" r="1.78" fill="#f8fafc" opacity="0.14"/><circle cx="403.56" cy="272.03" r="2.66" fill="#f8fafc" opacity="0.11"/><circle cx="594.99" cy="245.4" r="2.4" fill="#22d3ee" opacity="0.21"/><circle cx="1019.04" cy="872.12" r="2.52" fill="#f8fafc" opacity="0.16"/><circle cx="406.56" cy="2" r="1.49" fill="#f8fafc" opacity="0.13"/><circle cx="757.68" cy="282.31" r="2.6" fill="#22d3ee" opacity="0.12"/><circle cx="176.9" cy="520.38" r="2.34" fill="#f8fafc" opacity="0.14"/><circle cx="368.38" cy="431.76" r="1.94" fill="#f8fafc" opacity="0.23"/><circle cx="617.99" cy="707.18" r="2" fill="#22d3ee" opacity="0.23"/><circle cx="1240.18" cy="752.56" r="1.91" fill="#f8fafc" opacity="0.21"/><circle cx="871.72" cy="438.64" r="2.53" fill="#f8fafc" opacity="0.17"/><circle cx="1329.74" cy="420.05" r="2.63" fill="#22d3ee" opacity="0.15"/></g>
<g>
<circle cx="736" cy="468" r="198" fill="none" stroke="rgba(255,255,255,0.16)" stroke-width="1.4"/><ellipse cx="736" cy="468" rx="122.76" ry="198" fill="none" stroke="rgba(148,163,184,0.18)" stroke-width="1"/><ellipse cx="736" cy="468" rx="55.44" ry="198" fill="none" stroke="rgba(148,163,184,0.18)" stroke-width="1"/><line x1="538" y1="468" x2="934" y2="468" stroke="rgba(148,163,184,0.18)" stroke-width="1"/><line x1="736" y1="270" x2="736" y2="666" stroke="rgba(148,163,184,0.18)" stroke-width="1"/><path d="M 593.44 503.64 Q 696.4 285.84 838.96 369" fill="none" stroke="#60a5fa" stroke-width="3" stroke-linecap="round" opacity="0.88"/><circle cx="593.44" cy="503.64" r="5" fill="#60a5fa" opacity="0.92"/><circle cx="838.96" cy="369" r="6" fill="#22d3ee" opacity="0.95"/><path d="M 692.44 610.56 Q 736 285.84 902.32 444.24" fill="none" stroke="#22d3ee" stroke-width="3" stroke-linecap="round" opacity="0.88"/><circle cx="692.44" cy="610.56" r="5" fill="#60a5fa" opacity="0.92"/><circle cx="902.32" cy="444.24" r="6" fill="#22d3ee" opacity="0.95"/><path d="M 565.72 452.16 Q 775.6 285.84 751.84 622.44" fill="none" stroke="#60a5fa" stroke-width="3" stroke-linecap="round" opacity="0.88"/><circle cx="565.72" cy="452.16" r="5" fill="#60a5fa" opacity="0.92"/><circle cx="751.84" cy="622.44" r="6" fill="#22d3ee" opacity="0.95"/>
</g>
</svg>