<?xml version="1.0" encoding="UTF-8"?>
<svg xmlns="http://www.w3.org/2000/svg" width="1200" height="1200" viewBox="0 0 1200 1200" fill="none">

<defs>
	<linearGradient id="bg-how-we-achieve-global-latency-square-0-final" x1="0%" y1="0%" x2="100%" y2="100%">
		<stop offset="0%" stop-color="#04070c"/>
		<stop offset="42%" stop-color="#07111d"/>
		<stop offset="100%" stop-color="#030509"/>
	</linearGradient>
	<radialGradient id="glow-how-we-achieve-global-latency-square-0-final" cx="0.2" cy="0.18" r="0.56">
		<stop offset="0%" stop-color="#60a5fa" stop-opacity="0.22"/>
		<stop offset="48%" stop-color="#22d3ee" stop-opacity="0.12"/>
		<stop offset="100%" stop-color="#05070c" stop-opacity="0"/>
	</radialGradient>
	<linearGradient id="panel-how-we-achieve-global-latency-square-0-final" x1="0%" y1="0%" x2="100%" y2="100%">
		<stop offset="0%" stop-color="#0d1726" stop-opacity="0.94"/>
		<stop offset="100%" stop-color="#08101b" stop-opacity="0.58"/>
	</linearGradient>
	<linearGradient id="edge-how-we-achieve-global-latency-square-0-final" x1="0%" y1="0%" x2="100%" y2="0%">
		<stop offset="0%" stop-color="#ffffff" stop-opacity="0"/>
		<stop offset="50%" stop-color="#ffffff" stop-opacity="0.18"/>
		<stop offset="100%" stop-color="#ffffff" stop-opacity="0"/>
	</linearGradient>
	<pattern id="grid-how-we-achieve-global-latency-square-0-final" width="100" height="120" patternUnits="userSpaceOnUse">
		<path d="M 100 0 L 0 0 0 120" fill="none" stroke="#60a5fa" stroke-opacity="0.08" stroke-width="1"/>
	</pattern>
</defs>
<title>how-we-achieve-global-latency square final</title>
<desc>A sparse abstract globe with a few bright low-latency routes connecting distant regions.</desc>

	<rect x="0" y="0" width="1200" height="1200" fill="url(#bg-how-we-achieve-global-latency-square-0-final)"/>
	<rect x="0" y="0" width="1200" height="1200" fill="url(#glow-how-we-achieve-global-latency-square-0-final)"/>
	<rect x="0" y="0" width="1200" height="1200" fill="url(#grid-how-we-achieve-global-latency-square-0-final)" opacity="0.42"/>
	<rect x="42" y="42" width="1116" height="1116" rx="37.8" fill="none" stroke="rgba(148,163,184,0.16)" stroke-width="1.5"/>
	<line x1="42" y1="71.4" x2="42" y2="42" stroke="rgba(255,255,255,0.24)" stroke-width="2"/>
	<line x1="42" y1="42" x2="71.4" y2="42" stroke="rgba(255,255,255,0.24)" stroke-width="2"/>
	<line x1="1128.6" y1="42" x2="1158" y2="42" stroke="rgba(255,255,255,0.24)" stroke-width="2"/>
	<line x1="1158" y1="42" x2="1158" y2="71.4" stroke="rgba(255,255,255,0.24)" stroke-width="2"/>
	<line x1="42" y1="1128.6" x2="42" y2="1158" stroke="rgba(255,255,255,0.24)" stroke-width="2"/>
	<line x1="42" y1="1158" x2="71.4" y2="1158" stroke="rgba(255,255,255,0.24)" stroke-width="2"/>
	<line x1="1128.6" y1="1158" x2="1158" y2="1158" stroke="rgba(255,255,255,0.24)" stroke-width="2"/>
	<line x1="1158" y1="1128.6" x2="1158" y2="1158" stroke="rgba(255,255,255,0.24)" stroke-width="2"/>
	<rect x="60.9" y="60.9" width="1078.2" height="1078.2" rx="31.5" fill="none" stroke="url(#edge-how-we-achieve-global-latency-square-0-final)" stroke-width="1"/>

<g><circle cx="515.16" cy="794.25" r="1.11" fill="#22d3ee" opacity="0.17"/><circle cx="378.9" cy="927.31" r="2.26" fill="#f8fafc" opacity="0.17"/><circle cx="194.89" cy="932.42" r="1.45" fill="#f8fafc" opacity="0.13"/><circle cx="612.73" cy="929.36" r="3.1" fill="#22d3ee" opacity="0.15"/><circle cx="400.14" cy="791.2" r="1.02" fill="#f8fafc" opacity="0.18"/><circle cx="82.61" cy="950.04" r="2.87" fill="#f8fafc" opacity="0.22"/><circle cx="851.83" cy="943.26" r="3.08" fill="#22d3ee" opacity="0.1"/><circle cx="410.61" cy="929" r="1.44" fill="#f8fafc" opacity="0.13"/><circle cx="298.08" cy="133.31" r="3.39" fill="#f8fafc" opacity="0.24"/><circle cx="863.35" cy="1091.98" r="2.61" fill="#22d3ee" opacity="0.13"/><circle cx="936.22" cy="562.67" r="3.21" fill="#f8fafc" opacity="0.13"/><circle cx="664.03" cy="768.26" r="1.47" fill="#f8fafc" opacity="0.1"/><circle cx="781.49" cy="582.41" r="2.29" fill="#22d3ee" opacity="0.18"/><circle cx="37.16" cy="1002.21" r="1.78" fill="#f8fafc" opacity="0.12"/><circle cx="892.09" cy="395.13" r="2.03" fill="#f8fafc" opacity="0.17"/><circle cx="530.63" cy="115.18" r="2.34" fill="#22d3ee" opacity="0.23"/><circle cx="253.44" cy="627.99" r="2.86" fill="#f8fafc" opacity="0.19"/><circle cx="867.7" cy="1027.31" r="3.35" fill="#f8fafc" opacity="0.12"/><circle cx="1033.82" cy="305.87" r="1.63" fill="#22d3ee" opacity="0.13"/><circle cx="430.98" cy="743.7" r="1.08" fill="#f8fafc" opacity="0.2"/><circle cx="533.88" cy="408.52" r="3.18" fill="#f8fafc" opacity="0.16"/><circle cx="329.68" cy="655.38" r="3.14" fill="#22d3ee" opacity="0.2"/></g>
<g>
<circle cx="624" cy="576" r="264" fill="none" stroke="rgba(255,255,255,0.16)" stroke-width="1.4"/><ellipse cx="624" cy="576" rx="163.68" ry="264" fill="none" stroke="rgba(148,163,184,0.18)" stroke-width="1"/><ellipse cx="624" cy="576" rx="73.92" ry="264" fill="none" stroke="rgba(148,163,184,0.18)" stroke-width="1"/><line x1="360" y1="576" x2="888" y2="576" stroke="rgba(148,163,184,0.18)" stroke-width="1"/><line x1="624" y1="312" x2="624" y2="840" stroke="rgba(148,163,184,0.18)" stroke-width="1"/><path d="M 433.92 623.52 Q 571.2 333.12 761.28 444" fill="none" stroke="#60a5fa" stroke-width="4" stroke-linecap="round" opacity="0.88"/><circle cx="433.92" cy="623.52" r="5" fill="#60a5fa" opacity="0.92"/><circle cx="761.28" cy="444" r="6" fill="#22d3ee" opacity="0.95"/><path d="M 565.92 766.08 Q 624 333.12 845.76 544.32" fill="none" stroke="#22d3ee" stroke-width="4" stroke-linecap="round" opacity="0.88"/><circle cx="565.92" cy="766.08" r="5" fill="#60a5fa" opacity="0.92"/><circle cx="845.76" cy="544.32" r="6" fill="#22d3ee" opacity="0.95"/><path d="M 396.96 554.88 Q 676.8 333.12 645.12 781.92" fill="none" stroke="#60a5fa" stroke-width="4" stroke-linecap="round" opacity="0.88"/><circle cx="396.96" cy="554.88" r="5" fill="#60a5fa" opacity="0.92"/><circle cx="645.12" cy="781.92" r="6" fill="#22d3ee" opacity="0.95"/>
</g>
</svg>