<?xml version="1.0" encoding="UTF-8"?>
<svg xmlns="http://www.w3.org/2000/svg" width="1600" height="900" viewBox="0 0 1600 900" fill="none">

<defs>
	<linearGradient id="bg-how-we-achieve-global-latency-wide-0-final" x1="0%" y1="0%" x2="100%" y2="100%">
		<stop offset="0%" stop-color="#04070c"/>
		<stop offset="42%" stop-color="#07111d"/>
		<stop offset="100%" stop-color="#030509"/>
	</linearGradient>
	<radialGradient id="glow-how-we-achieve-global-latency-wide-0-final" cx="0.2" cy="0.18" r="0.56">
		<stop offset="0%" stop-color="#60a5fa" stop-opacity="0.22"/>
		<stop offset="48%" stop-color="#22d3ee" stop-opacity="0.12"/>
		<stop offset="100%" stop-color="#05070c" stop-opacity="0"/>
	</radialGradient>
	<linearGradient id="panel-how-we-achieve-global-latency-wide-0-final" x1="0%" y1="0%" x2="100%" y2="100%">
		<stop offset="0%" stop-color="#0d1726" stop-opacity="0.94"/>
		<stop offset="100%" stop-color="#08101b" stop-opacity="0.58"/>
	</linearGradient>
	<linearGradient id="edge-how-we-achieve-global-latency-wide-0-final" x1="0%" y1="0%" x2="100%" y2="0%">
		<stop offset="0%" stop-color="#ffffff" stop-opacity="0"/>
		<stop offset="50%" stop-color="#ffffff" stop-opacity="0.18"/>
		<stop offset="100%" stop-color="#ffffff" stop-opacity="0"/>
	</linearGradient>
	<pattern id="grid-how-we-achieve-global-latency-wide-0-final" width="133.33" height="90" patternUnits="userSpaceOnUse">
		<path d="M 133.33 0 L 0 0 0 90" fill="none" stroke="#60a5fa" stroke-opacity="0.08" stroke-width="1"/>
	</pattern>
</defs>
<title>how-we-achieve-global-latency wide final</title>
<desc>A sparse abstract globe with a few bright low-latency routes connecting distant regions.</desc>

	<rect x="0" y="0" width="1600" height="900" fill="url(#bg-how-we-achieve-global-latency-wide-0-final)"/>
	<rect x="0" y="0" width="1600" height="900" fill="url(#glow-how-we-achieve-global-latency-wide-0-final)"/>
	<rect x="0" y="0" width="1600" height="900" fill="url(#grid-how-we-achieve-global-latency-wide-0-final)" opacity="0.42"/>
	<rect x="31.5" y="31.5" width="1537" height="837" rx="28.35" fill="none" stroke="rgba(148,163,184,0.16)" stroke-width="1.5"/>
	<line x1="31.5" y1="53.55" x2="31.5" y2="31.5" stroke="rgba(255,255,255,0.24)" stroke-width="2"/>
	<line x1="31.5" y1="31.5" x2="53.55" y2="31.5" stroke="rgba(255,255,255,0.24)" stroke-width="2"/>
	<line x1="1546.45" y1="31.5" x2="1568.5" y2="31.5" stroke="rgba(255,255,255,0.24)" stroke-width="2"/>
	<line x1="1568.5" y1="31.5" x2="1568.5" y2="53.55" stroke="rgba(255,255,255,0.24)" stroke-width="2"/>
	<line x1="31.5" y1="846.45" x2="31.5" y2="868.5" stroke="rgba(255,255,255,0.24)" stroke-width="2"/>
	<line x1="31.5" y1="868.5" x2="53.55" y2="868.5" stroke="rgba(255,255,255,0.24)" stroke-width="2"/>
	<line x1="1546.45" y1="868.5" x2="1568.5" y2="868.5" stroke="rgba(255,255,255,0.24)" stroke-width="2"/>
	<line x1="1568.5" y1="846.45" x2="1568.5" y2="868.5" stroke="rgba(255,255,255,0.24)" stroke-width="2"/>
	<rect x="45.68" y="45.68" width="1508.65" height="808.65" rx="23.63" fill="none" stroke="url(#edge-how-we-achieve-global-latency-wide-0-final)" stroke-width="1"/>

<g><circle cx="419.05" cy="38.17" r="1.04" fill="#22d3ee" opacity="0.17"/><circle cx="1160.04" cy="504.75" r="2.23" fill="#f8fafc" opacity="0.23"/><circle cx="540.11" cy="747.54" r="2.45" fill="#f8fafc" opacity="0.11"/><circle cx="1061.71" cy="842.87" r="1.02" fill="#22d3ee" opacity="0.18"/><circle cx="590.06" cy="38.33" r="2.02" fill="#f8fafc" opacity="0.17"/><circle cx="1286.63" cy="241.37" r="1.76" fill="#f8fafc" opacity="0.1"/><circle cx="1345.18" cy="584.59" r="1.62" fill="#22d3ee" opacity="0.24"/><circle cx="750.61" cy="488.61" r="1.93" fill="#f8fafc" opacity="0.08"/><circle cx="1129.95" cy="211.54" r="1.96" fill="#f8fafc" opacity="0.18"/><circle cx="156.36" cy="553.85" r="1.6" fill="#22d3ee" opacity="0.13"/><circle cx="545.72" cy="898.39" r="1.83" fill="#f8fafc" opacity="0.19"/><circle cx="47.52" cy="817.71" r="2.98" fill="#f8fafc" opacity="0.19"/><circle cx="981.98" cy="199.07" r="1.62" fill="#22d3ee" opacity="0.19"/><circle cx="1413.27" cy="222.67" r="3.13" fill="#f8fafc" opacity="0.22"/><circle cx="1382.48" cy="62.91" r="2.7" fill="#f8fafc" opacity="0.22"/><circle cx="774.33" cy="321.53" r="2.08" fill="#22d3ee" opacity="0.1"/><circle cx="697.51" cy="5.27" r="1.35" fill="#f8fafc" opacity="0.16"/><circle cx="588.61" cy="547.91" r="1.3" fill="#f8fafc" opacity="0.1"/><circle cx="678.65" cy="542.35" r="1.41" fill="#22d3ee" opacity="0.2"/><circle cx="1408.65" cy="487.48" r="1.52" fill="#f8fafc" opacity="0.11"/><circle cx="103.19" cy="381.46" r="1.33" fill="#f8fafc" opacity="0.14"/><circle cx="999.12" cy="566.66" r="2.8" fill="#22d3ee" opacity="0.15"/></g>
<g>
<circle cx="832" cy="432" r="198" fill="none" stroke="rgba(255,255,255,0.16)" stroke-width="1.4"/><ellipse cx="832" cy="432" rx="122.76" ry="198" fill="none" stroke="rgba(148,163,184,0.18)" stroke-width="1"/><ellipse cx="832" cy="432" rx="55.44" ry="198" fill="none" stroke="rgba(148,163,184,0.18)" stroke-width="1"/><line x1="634" y1="432" x2="1030" y2="432" stroke="rgba(148,163,184,0.18)" stroke-width="1"/><line x1="832" y1="234" x2="832" y2="630" stroke="rgba(148,163,184,0.18)" stroke-width="1"/><path d="M 689.44 467.64 Q 792.4 249.84 934.96 333" fill="none" stroke="#60a5fa" stroke-width="4" stroke-linecap="round" opacity="0.88"/><circle cx="689.44" cy="467.64" r="5" fill="#60a5fa" opacity="0.92"/><circle cx="934.96" cy="333" r="6" fill="#22d3ee" opacity="0.95"/><path d="M 788.44 574.56 Q 832 249.84 998.32 408.24" fill="none" stroke="#22d3ee" stroke-width="4" stroke-linecap="round" opacity="0.88"/><circle cx="788.44" cy="574.56" r="5" fill="#60a5fa" opacity="0.92"/><circle cx="998.32" cy="408.24" r="6" fill="#22d3ee" opacity="0.95"/><path d="M 661.72 416.16 Q 871.6 249.84 847.84 586.44" fill="none" stroke="#60a5fa" stroke-width="4" stroke-linecap="round" opacity="0.88"/><circle cx="661.72" cy="416.16" r="5" fill="#60a5fa" opacity="0.92"/><circle cx="847.84" cy="586.44" r="6" fill="#22d3ee" opacity="0.95"/>
</g>
</svg>