<?xml version="1.0" encoding="UTF-8"?>
<svg xmlns="http://www.w3.org/2000/svg" width="1600" height="900" viewBox="0 0 1600 900" fill="none">

<defs>
	<linearGradient id="bg-transactions-deep-dive-wide-2-final" x1="0%" y1="0%" x2="100%" y2="100%">
		<stop offset="0%" stop-color="#04070c"/>
		<stop offset="42%" stop-color="#07111d"/>
		<stop offset="100%" stop-color="#030509"/>
	</linearGradient>
	<radialGradient id="glow-transactions-deep-dive-wide-2-final" cx="0.52" cy="0.7" r="0.56">
		<stop offset="0%" stop-color="#60a5fa" stop-opacity="0.22"/>
		<stop offset="48%" stop-color="#34d399" stop-opacity="0.12"/>
		<stop offset="100%" stop-color="#05070c" stop-opacity="0"/>
	</radialGradient>
	<linearGradient id="panel-transactions-deep-dive-wide-2-final" x1="0%" y1="0%" x2="100%" y2="100%">
		<stop offset="0%" stop-color="#0d1726" stop-opacity="0.94"/>
		<stop offset="100%" stop-color="#08101b" stop-opacity="0.58"/>
	</linearGradient>
	<linearGradient id="edge-transactions-deep-dive-wide-2-final" x1="0%" y1="0%" x2="100%" y2="0%">
		<stop offset="0%" stop-color="#ffffff" stop-opacity="0"/>
		<stop offset="50%" stop-color="#ffffff" stop-opacity="0.18"/>
		<stop offset="100%" stop-color="#ffffff" stop-opacity="0"/>
	</linearGradient>
	<pattern id="grid-transactions-deep-dive-wide-2-final" width="133.33" height="90" patternUnits="userSpaceOnUse">
		<path d="M 133.33 0 L 0 0 0 90" fill="none" stroke="#60a5fa" stroke-opacity="0.08" stroke-width="1"/>
	</pattern>
</defs>
<title>transactions-deep-dive wide final</title>
<desc>Two bright atomic forms locked in a balanced frame, expressing precise all-or-nothing transactions.</desc>

	<rect x="0" y="0" width="1600" height="900" fill="url(#bg-transactions-deep-dive-wide-2-final)"/>
	<rect x="0" y="0" width="1600" height="900" fill="url(#glow-transactions-deep-dive-wide-2-final)"/>
	<rect x="0" y="0" width="1600" height="900" fill="url(#grid-transactions-deep-dive-wide-2-final)" opacity="0.42"/>
	<rect x="31.5" y="31.5" width="1537" height="837" rx="28.35" fill="none" stroke="rgba(148,163,184,0.16)" stroke-width="1.5"/>
	<line x1="31.5" y1="53.55" x2="31.5" y2="31.5" stroke="rgba(255,255,255,0.24)" stroke-width="2"/>
	<line x1="31.5" y1="31.5" x2="53.55" y2="31.5" stroke="rgba(255,255,255,0.24)" stroke-width="2"/>
	<line x1="1546.45" y1="31.5" x2="1568.5" y2="31.5" stroke="rgba(255,255,255,0.24)" stroke-width="2"/>
	<line x1="1568.5" y1="31.5" x2="1568.5" y2="53.55" stroke="rgba(255,255,255,0.24)" stroke-width="2"/>
	<line x1="31.5" y1="846.45" x2="31.5" y2="868.5" stroke="rgba(255,255,255,0.24)" stroke-width="2"/>
	<line x1="31.5" y1="868.5" x2="53.55" y2="868.5" stroke="rgba(255,255,255,0.24)" stroke-width="2"/>
	<line x1="1546.45" y1="868.5" x2="1568.5" y2="868.5" stroke="rgba(255,255,255,0.24)" stroke-width="2"/>
	<line x1="1568.5" y1="846.45" x2="1568.5" y2="868.5" stroke="rgba(255,255,255,0.24)" stroke-width="2"/>
	<rect x="45.68" y="45.68" width="1508.65" height="808.65" rx="23.63" fill="none" stroke="url(#edge-transactions-deep-dive-wide-2-final)" stroke-width="1"/>

<g><circle cx="517.41" cy="517.54" r="3.35" fill="#34d399" opacity="0.18"/><circle cx="604.46" cy="532.25" r="2.31" fill="#f8fafc" opacity="0.14"/><circle cx="887.41" cy="868.78" r="1.66" fill="#f8fafc" opacity="0.23"/><circle cx="1184.68" cy="81.17" r="2.87" fill="#34d399" opacity="0.2"/><circle cx="1235.81" cy="539.18" r="1.79" fill="#f8fafc" opacity="0.11"/><circle cx="630.73" cy="60.4" r="2.99" fill="#f8fafc" opacity="0.19"/><circle cx="927.35" cy="764.57" r="1.16" fill="#34d399" opacity="0.09"/><circle cx="312.9" cy="484.36" r="2.37" fill="#f8fafc" opacity="0.12"/><circle cx="1514.95" cy="565.17" r="1.2" fill="#f8fafc" opacity="0.1"/><circle cx="1334.75" cy="724.88" r="1.05" fill="#34d399" opacity="0.1"/><circle cx="376.27" cy="775.68" r="3.01" fill="#f8fafc" opacity="0.1"/><circle cx="515.42" cy="425.96" r="2.62" fill="#f8fafc" opacity="0.21"/><circle cx="1440.03" cy="796.95" r="2.56" fill="#34d399" opacity="0.19"/><circle cx="927.56" cy="628.39" r="1.74" fill="#f8fafc" opacity="0.21"/><circle cx="1080.71" cy="555.42" r="2.6" fill="#f8fafc" opacity="0.08"/><circle cx="1562.33" cy="424.39" r="2.93" fill="#34d399" opacity="0.16"/><circle cx="617.59" cy="52.06" r="2.62" fill="#f8fafc" opacity="0.12"/><circle cx="1040.18" cy="370.05" r="3.36" fill="#f8fafc" opacity="0.13"/><circle cx="739.66" cy="442.22" r="2.93" fill="#34d399" opacity="0.16"/><circle cx="720.11" cy="898.83" r="2.65" fill="#f8fafc" opacity="0.18"/><circle cx="541.5" cy="253.93" r="1.77" fill="#f8fafc" opacity="0.19"/><circle cx="1273.86" cy="127.42" r="1.83" fill="#34d399" opacity="0.15"/></g>
<g>
<rect x="352" y="288" width="768" height="324" rx="40" fill="rgba(8,16,28,0.42)" stroke="rgba(255,255,255,0.12)" stroke-width="1.5"/><circle cx="608" cy="450" r="90" fill="rgba(9,16,26,0.64)" stroke="#60a5fa" stroke-opacity="0.4" stroke-width="2"/><circle cx="864" cy="450" r="90" fill="rgba(9,16,26,0.64)" stroke="#34d399" stroke-opacity="0.52" stroke-width="2"/><line x1="698" y1="450" x2="774" y2="450" stroke="#34d399" stroke-width="5" stroke-linecap="round" opacity="0.92"/><circle cx="608" cy="450" r="34.2" fill="#60a5fa" opacity="0.22"/><circle cx="864" cy="450" r="34.2" fill="#34d399" opacity="0.22"/>
</g>
</svg>