<?xml version="1.0" encoding="UTF-8"?>
<svg xmlns="http://www.w3.org/2000/svg" width="1200" height="1200" viewBox="0 0 1200 1200" fill="none">

<defs>
	<linearGradient id="bg-migrating-from-dynamodb-square-2-final" x1="0%" y1="0%" x2="100%" y2="100%">
		<stop offset="0%" stop-color="#04070c"/>
		<stop offset="42%" stop-color="#07111d"/>
		<stop offset="100%" stop-color="#030509"/>
	</linearGradient>
	<radialGradient id="glow-migrating-from-dynamodb-square-2-final" cx="0.52" cy="0.7" r="0.56">
		<stop offset="0%" stop-color="#60a5fa" stop-opacity="0.22"/>
		<stop offset="48%" stop-color="#2dd4bf" stop-opacity="0.12"/>
		<stop offset="100%" stop-color="#05070c" stop-opacity="0"/>
	</radialGradient>
	<linearGradient id="panel-migrating-from-dynamodb-square-2-final" x1="0%" y1="0%" x2="100%" y2="100%">
		<stop offset="0%" stop-color="#0d1726" stop-opacity="0.94"/>
		<stop offset="100%" stop-color="#08101b" stop-opacity="0.58"/>
	</linearGradient>
	<linearGradient id="edge-migrating-from-dynamodb-square-2-final" x1="0%" y1="0%" x2="100%" y2="0%">
		<stop offset="0%" stop-color="#ffffff" stop-opacity="0"/>
		<stop offset="50%" stop-color="#ffffff" stop-opacity="0.18"/>
		<stop offset="100%" stop-color="#ffffff" stop-opacity="0"/>
	</linearGradient>
	<pattern id="grid-migrating-from-dynamodb-square-2-final" width="100" height="120" patternUnits="userSpaceOnUse">
		<path d="M 100 0 L 0 0 0 120" fill="none" stroke="#60a5fa" stroke-opacity="0.08" stroke-width="1"/>
	</pattern>
</defs>
<title>migrating-from-dynamodb square final</title>
<desc>Two structured data systems connected by a calm transfer bridge, representing migration from one platform to another.</desc>

	<rect x="0" y="0" width="1200" height="1200" fill="url(#bg-migrating-from-dynamodb-square-2-final)"/>
	<rect x="0" y="0" width="1200" height="1200" fill="url(#glow-migrating-from-dynamodb-square-2-final)"/>
	<rect x="0" y="0" width="1200" height="1200" fill="url(#grid-migrating-from-dynamodb-square-2-final)" opacity="0.42"/>
	<rect x="42" y="42" width="1116" height="1116" rx="37.8" fill="none" stroke="rgba(148,163,184,0.16)" stroke-width="1.5"/>
	<line x1="42" y1="71.4" x2="42" y2="42" stroke="rgba(255,255,255,0.24)" stroke-width="2"/>
	<line x1="42" y1="42" x2="71.4" y2="42" stroke="rgba(255,255,255,0.24)" stroke-width="2"/>
	<line x1="1128.6" y1="42" x2="1158" y2="42" stroke="rgba(255,255,255,0.24)" stroke-width="2"/>
	<line x1="1158" y1="42" x2="1158" y2="71.4" stroke="rgba(255,255,255,0.24)" stroke-width="2"/>
	<line x1="42" y1="1128.6" x2="42" y2="1158" stroke="rgba(255,255,255,0.24)" stroke-width="2"/>
	<line x1="42" y1="1158" x2="71.4" y2="1158" stroke="rgba(255,255,255,0.24)" stroke-width="2"/>
	<line x1="1128.6" y1="1158" x2="1158" y2="1158" stroke="rgba(255,255,255,0.24)" stroke-width="2"/>
	<line x1="1158" y1="1128.6" x2="1158" y2="1158" stroke="rgba(255,255,255,0.24)" stroke-width="2"/>
	<rect x="60.9" y="60.9" width="1078.2" height="1078.2" rx="31.5" fill="none" stroke="url(#edge-migrating-from-dynamodb-square-2-final)" stroke-width="1"/>

<g><circle cx="1015.07" cy="805.13" r="1.59" fill="#2dd4bf" opacity="0.23"/><circle cx="253.51" cy="107.64" r="1.21" fill="#f8fafc" opacity="0.23"/><circle cx="1169.75" cy="291.35" r="2.36" fill="#f8fafc" opacity="0.23"/><circle cx="1167.47" cy="477.4" r="1.8" fill="#2dd4bf" opacity="0.14"/><circle cx="767.29" cy="969.22" r="2.97" fill="#f8fafc" opacity="0.24"/><circle cx="1191.2" cy="671.62" r="1.67" fill="#f8fafc" opacity="0.17"/><circle cx="961.11" cy="907.24" r="3.24" fill="#2dd4bf" opacity="0.22"/><circle cx="295.47" cy="1073.79" r="1.26" fill="#f8fafc" opacity="0.18"/><circle cx="429.47" cy="1086.61" r="2.03" fill="#f8fafc" opacity="0.12"/><circle cx="922.94" cy="328.95" r="1.35" fill="#2dd4bf" opacity="0.12"/><circle cx="825.59" cy="892.86" r="2.04" fill="#f8fafc" opacity="0.19"/><circle cx="570.49" cy="44.95" r="1.53" fill="#f8fafc" opacity="0.15"/><circle cx="556.23" cy="411.39" r="2.21" fill="#2dd4bf" opacity="0.15"/><circle cx="28.55" cy="428.9" r="1.99" fill="#f8fafc" opacity="0.1"/><circle cx="81.85" cy="317.49" r="3.22" fill="#f8fafc" opacity="0.14"/><circle cx="51.73" cy="462.11" r="2.79" fill="#2dd4bf" opacity="0.11"/><circle cx="144.49" cy="645.95" r="1.84" fill="#f8fafc" opacity="0.18"/><circle cx="350.38" cy="950.79" r="1.9" fill="#f8fafc" opacity="0.17"/><circle cx="141.28" cy="88.19" r="3.3" fill="#2dd4bf" opacity="0.12"/><circle cx="972.94" cy="932.18" r="1.8" fill="#f8fafc" opacity="0.23"/><circle cx="127.11" cy="1188.61" r="3.11" fill="#f8fafc" opacity="0.14"/><circle cx="452.73" cy="477.14" r="2.51" fill="#2dd4bf" opacity="0.21"/></g>
<g>
<rect x="168" y="300" width="264" height="504" rx="26" fill="rgba(10,17,28,0.72)" stroke="rgba(255,255,255,0.1)" stroke-width="1.5"/><rect x="768" y="300" width="264" height="504" rx="26" fill="rgba(10,17,28,0.72)" stroke="rgba(255,255,255,0.1)" stroke-width="1.5"/><line x1="216" y1="374" x2="384" y2="374" stroke="#60a5fa" stroke-opacity="0.24" stroke-width="2"/><line x1="816" y1="374" x2="984" y2="374" stroke="#60a5fa" stroke-opacity="0.24" stroke-width="2"/><line x1="216" y1="460" x2="384" y2="460" stroke="#60a5fa" stroke-opacity="0.24" stroke-width="2"/><line x1="816" y1="460" x2="984" y2="460" stroke="#60a5fa" stroke-opacity="0.24" stroke-width="2"/><line x1="216" y1="546" x2="384" y2="546" stroke="#60a5fa" stroke-opacity="0.24" stroke-width="2"/><line x1="816" y1="546" x2="984" y2="546" stroke="#60a5fa" stroke-opacity="0.24" stroke-width="2"/><path d="M 432 541.92 C 552 400.8 648 683.04 768 541.92" fill="none" stroke="#2dd4bf" stroke-width="6" stroke-linecap="round" opacity="0.95"/><path d="M 432 541.92 C 552 400.8 648 683.04 768 541.92" fill="none" stroke="#60a5fa" stroke-width="12" stroke-opacity="0.08" stroke-linecap="round"/>
</g>
</svg>