<?xml version="1.0" encoding="UTF-8"?>
<svg xmlns="http://www.w3.org/2000/svg" width="1600" height="900" viewBox="0 0 1600 900" fill="none">

<defs>
	<linearGradient id="bg-why-we-built-terrascale-wide-0" x1="0%" y1="0%" x2="100%" y2="100%">
		<stop offset="0%" stop-color="#04070c"/>
		<stop offset="42%" stop-color="#07111d"/>
		<stop offset="100%" stop-color="#030509"/>
	</linearGradient>
	<radialGradient id="glow-why-we-built-terrascale-wide-0" cx="0.2" cy="0.18" r="0.48">
		<stop offset="0%" stop-color="#93c5fd" stop-opacity="0.18"/>
		<stop offset="48%" stop-color="#38bdf8" stop-opacity="0.08"/>
		<stop offset="100%" stop-color="#05070c" stop-opacity="0"/>
	</radialGradient>
	<linearGradient id="panel-why-we-built-terrascale-wide-0" x1="0%" y1="0%" x2="100%" y2="100%">
		<stop offset="0%" stop-color="#0d1726" stop-opacity="0.94"/>
		<stop offset="100%" stop-color="#08101b" stop-opacity="0.58"/>
	</linearGradient>
	<linearGradient id="edge-why-we-built-terrascale-wide-0" x1="0%" y1="0%" x2="100%" y2="0%">
		<stop offset="0%" stop-color="#ffffff" stop-opacity="0"/>
		<stop offset="50%" stop-color="#ffffff" stop-opacity="0.12"/>
		<stop offset="100%" stop-color="#ffffff" stop-opacity="0"/>
	</linearGradient>
	<pattern id="grid-why-we-built-terrascale-wide-0" width="133.33" height="90" patternUnits="userSpaceOnUse">
		<path d="M 133.33 0 L 0 0 0 90" fill="none" stroke="#93c5fd" stroke-opacity="0.08" stroke-width="1"/>
	</pattern>
</defs>
<title>why-we-built-terrascale wide variant 1</title>
<desc>Two dark structural plates split and rejoined by a precise electric seam, evoking a painful infrastructure redesign.</desc>

	<rect x="0" y="0" width="1600" height="900" fill="url(#bg-why-we-built-terrascale-wide-0)"/>
	<rect x="0" y="0" width="1600" height="900" fill="url(#glow-why-we-built-terrascale-wide-0)"/>
	<rect x="0" y="0" width="1600" height="900" fill="url(#grid-why-we-built-terrascale-wide-0)" opacity="0.42"/>
	<rect x="31.5" y="31.5" width="1537" height="837" rx="28.35" fill="none" stroke="rgba(148,163,184,0.16)" stroke-width="1.5"/>
	<line x1="31.5" y1="53.55" x2="31.5" y2="31.5" stroke="rgba(255,255,255,0.24)" stroke-width="2"/>
	<line x1="31.5" y1="31.5" x2="53.55" y2="31.5" stroke="rgba(255,255,255,0.24)" stroke-width="2"/>
	<line x1="1546.45" y1="31.5" x2="1568.5" y2="31.5" stroke="rgba(255,255,255,0.24)" stroke-width="2"/>
	<line x1="1568.5" y1="31.5" x2="1568.5" y2="53.55" stroke="rgba(255,255,255,0.24)" stroke-width="2"/>
	<line x1="31.5" y1="846.45" x2="31.5" y2="868.5" stroke="rgba(255,255,255,0.24)" stroke-width="2"/>
	<line x1="31.5" y1="868.5" x2="53.55" y2="868.5" stroke="rgba(255,255,255,0.24)" stroke-width="2"/>
	<line x1="1546.45" y1="868.5" x2="1568.5" y2="868.5" stroke="rgba(255,255,255,0.24)" stroke-width="2"/>
	<line x1="1568.5" y1="846.45" x2="1568.5" y2="868.5" stroke="rgba(255,255,255,0.24)" stroke-width="2"/>
	<rect x="45.68" y="45.68" width="1508.65" height="808.65" rx="23.63" fill="none" stroke="url(#edge-why-we-built-terrascale-wide-0)" stroke-width="1"/>

<g><circle cx="284.89" cy="784.71" r="1.16" fill="#38bdf8" opacity="0.13"/><circle cx="615.52" cy="592.97" r="1.51" fill="#f8fafc" opacity="0.16"/><circle cx="1475.5" cy="141.67" r="1.89" fill="#f8fafc" opacity="0.22"/><circle cx="1172.52" cy="104.83" r="1.97" fill="#38bdf8" opacity="0.23"/><circle cx="813.95" cy="543.18" r="2.68" fill="#f8fafc" opacity="0.17"/><circle cx="1024.87" cy="787.44" r="2.23" fill="#f8fafc" opacity="0.15"/><circle cx="337.2" cy="87.48" r="2.52" fill="#38bdf8" opacity="0.2"/><circle cx="301.38" cy="138.11" r="1.22" fill="#f8fafc" opacity="0.21"/><circle cx="580.15" cy="524.88" r="1.56" fill="#f8fafc" opacity="0.22"/><circle cx="753.84" cy="537.69" r="2.06" fill="#38bdf8" opacity="0.17"/><circle cx="174.72" cy="459.15" r="2.53" fill="#f8fafc" opacity="0.21"/><circle cx="1234.4" cy="361.06" r="2.24" fill="#f8fafc" opacity="0.17"/><circle cx="444.58" cy="640.37" r="1.02" fill="#38bdf8" opacity="0.16"/><circle cx="461.83" cy="824.33" r="1.5" fill="#f8fafc" opacity="0.23"/><circle cx="1556.23" cy="68.97" r="1.37" fill="#f8fafc" opacity="0.22"/><circle cx="1077.32" cy="209.72" r="2.63" fill="#38bdf8" opacity="0.16"/></g>
<g>
<polygon points="192 144 734 180 758 162 828 297 788 450 858 603 822 747 288 774" fill="rgba(10,17,28,0.72)" stroke="rgba(255,255,255,0.08)" stroke-width="1.5"/><polygon points="988 162 1392 126 1312 774 858 747 894 603 824 450 864 297 794 162" fill="rgba(10,17,28,0.72)" stroke="rgba(255,255,255,0.08)" stroke-width="1.5"/><polyline points="776 162 846 297 806 450 876 603 840 747" fill="none" stroke="#38bdf8" stroke-width="4" stroke-linecap="round" stroke-linejoin="round" opacity="0.92"/><polyline points="794 162 828 297 824 450 858 603 858 747" fill="none" stroke="#93c5fd" stroke-width="1.5" stroke-dasharray="10 10" stroke-opacity="0.48"/>
</g>
</svg>