<?xml version="1.0" encoding="UTF-8"?>
<svg xmlns="http://www.w3.org/2000/svg" width="1200" height="1200" viewBox="0 0 1200 1200" fill="none">

<defs>
	<linearGradient id="bg-why-we-built-terrascale-square-1" x1="0%" y1="0%" x2="100%" y2="100%">
		<stop offset="0%" stop-color="#04070c"/>
		<stop offset="42%" stop-color="#07111d"/>
		<stop offset="100%" stop-color="#030509"/>
	</linearGradient>
	<radialGradient id="glow-why-we-built-terrascale-square-1" cx="0.78" cy="0.24" r="0.48">
		<stop offset="0%" stop-color="#93c5fd" stop-opacity="0.18"/>
		<stop offset="48%" stop-color="#38bdf8" stop-opacity="0.08"/>
		<stop offset="100%" stop-color="#05070c" stop-opacity="0"/>
	</radialGradient>
	<linearGradient id="panel-why-we-built-terrascale-square-1" x1="0%" y1="0%" x2="100%" y2="100%">
		<stop offset="0%" stop-color="#0d1726" stop-opacity="0.94"/>
		<stop offset="100%" stop-color="#08101b" stop-opacity="0.58"/>
	</linearGradient>
	<linearGradient id="edge-why-we-built-terrascale-square-1" x1="0%" y1="0%" x2="100%" y2="0%">
		<stop offset="0%" stop-color="#ffffff" stop-opacity="0"/>
		<stop offset="50%" stop-color="#ffffff" stop-opacity="0.12"/>
		<stop offset="100%" stop-color="#ffffff" stop-opacity="0"/>
	</linearGradient>
	<pattern id="grid-why-we-built-terrascale-square-1" width="100" height="120" patternUnits="userSpaceOnUse">
		<path d="M 100 0 L 0 0 0 120" fill="none" stroke="#93c5fd" stroke-opacity="0.08" stroke-width="1"/>
	</pattern>
</defs>
<title>why-we-built-terrascale square variant 2</title>
<desc>Two dark structural plates split and rejoined by a precise electric seam, evoking a painful infrastructure redesign.</desc>

	<rect x="0" y="0" width="1200" height="1200" fill="url(#bg-why-we-built-terrascale-square-1)"/>
	<rect x="0" y="0" width="1200" height="1200" fill="url(#glow-why-we-built-terrascale-square-1)"/>
	<rect x="0" y="0" width="1200" height="1200" fill="url(#grid-why-we-built-terrascale-square-1)" opacity="0.42"/>
	<rect x="42" y="42" width="1116" height="1116" rx="37.8" fill="none" stroke="rgba(148,163,184,0.16)" stroke-width="1.5"/>
	<line x1="42" y1="71.4" x2="42" y2="42" stroke="rgba(255,255,255,0.24)" stroke-width="2"/>
	<line x1="42" y1="42" x2="71.4" y2="42" stroke="rgba(255,255,255,0.24)" stroke-width="2"/>
	<line x1="1128.6" y1="42" x2="1158" y2="42" stroke="rgba(255,255,255,0.24)" stroke-width="2"/>
	<line x1="1158" y1="42" x2="1158" y2="71.4" stroke="rgba(255,255,255,0.24)" stroke-width="2"/>
	<line x1="42" y1="1128.6" x2="42" y2="1158" stroke="rgba(255,255,255,0.24)" stroke-width="2"/>
	<line x1="42" y1="1158" x2="71.4" y2="1158" stroke="rgba(255,255,255,0.24)" stroke-width="2"/>
	<line x1="1128.6" y1="1158" x2="1158" y2="1158" stroke="rgba(255,255,255,0.24)" stroke-width="2"/>
	<line x1="1158" y1="1128.6" x2="1158" y2="1158" stroke="rgba(255,255,255,0.24)" stroke-width="2"/>
	<rect x="60.9" y="60.9" width="1078.2" height="1078.2" rx="31.5" fill="none" stroke="url(#edge-why-we-built-terrascale-square-1)" stroke-width="1"/>

<g><circle cx="1159.57" cy="1116.5" r="2.44" fill="#38bdf8" opacity="0.22"/><circle cx="241.53" cy="1126.27" r="2.18" fill="#f8fafc" opacity="0.15"/><circle cx="818.43" cy="860.7" r="2.05" fill="#f8fafc" opacity="0.23"/><circle cx="311.1" cy="678.14" r="1.98" fill="#38bdf8" opacity="0.19"/><circle cx="980.87" cy="123.32" r="1.77" fill="#f8fafc" opacity="0.15"/><circle cx="659.91" cy="203.39" r="2.52" fill="#f8fafc" opacity="0.22"/><circle cx="43.87" cy="777.99" r="2.22" fill="#38bdf8" opacity="0.11"/><circle cx="845.14" cy="650.35" r="1.64" fill="#f8fafc" opacity="0.08"/><circle cx="833.81" cy="322.77" r="1.63" fill="#f8fafc" opacity="0.1"/><circle cx="340.92" cy="912.52" r="1.93" fill="#38bdf8" opacity="0.1"/><circle cx="649.36" cy="205.81" r="1.74" fill="#f8fafc" opacity="0.15"/><circle cx="212.3" cy="851.57" r="1.03" fill="#f8fafc" opacity="0.09"/><circle cx="263.85" cy="488.73" r="1.65" fill="#38bdf8" opacity="0.21"/><circle cx="457.05" cy="1020.78" r="1.18" fill="#f8fafc" opacity="0.13"/><circle cx="1033.13" cy="721.68" r="2.72" fill="#f8fafc" opacity="0.16"/><circle cx="161.07" cy="1069.3" r="1.47" fill="#38bdf8" opacity="0.08"/></g>
<g>
<polygon points="144 192 434 240 458 216 528 396 488 600 558 804 522 996 216 1032" fill="rgba(10,17,28,0.72)" stroke="rgba(255,255,255,0.08)" stroke-width="1.5"/><polygon points="688 216 1044 168 984 1032 558 996 594 804 524 600 564 396 494 216" fill="rgba(10,17,28,0.72)" stroke="rgba(255,255,255,0.08)" stroke-width="1.5"/><polyline points="476 216 546 396 506 600 576 804 540 996" fill="none" stroke="#38bdf8" stroke-width="4" stroke-linecap="round" stroke-linejoin="round" opacity="0.92"/><polyline points="494 216 528 396 524 600 558 804 558 996" fill="none" stroke="#93c5fd" stroke-width="1.5" stroke-dasharray="10 10" stroke-opacity="0.48"/>
</g>
</svg>