<?xml version="1.0" encoding="UTF-8"?>
<svg xmlns="http://www.w3.org/2000/svg" width="1600" height="900" viewBox="0 0 1600 900" fill="none">

<defs>
	<linearGradient id="bg-why-we-built-terrascale-wide-2" x1="0%" y1="0%" x2="100%" y2="100%">
		<stop offset="0%" stop-color="#04070c"/>
		<stop offset="42%" stop-color="#07111d"/>
		<stop offset="100%" stop-color="#030509"/>
	</linearGradient>
	<radialGradient id="glow-why-we-built-terrascale-wide-2" cx="0.52" cy="0.7" r="0.48">
		<stop offset="0%" stop-color="#93c5fd" stop-opacity="0.18"/>
		<stop offset="48%" stop-color="#38bdf8" stop-opacity="0.08"/>
		<stop offset="100%" stop-color="#05070c" stop-opacity="0"/>
	</radialGradient>
	<linearGradient id="panel-why-we-built-terrascale-wide-2" x1="0%" y1="0%" x2="100%" y2="100%">
		<stop offset="0%" stop-color="#0d1726" stop-opacity="0.94"/>
		<stop offset="100%" stop-color="#08101b" stop-opacity="0.58"/>
	</linearGradient>
	<linearGradient id="edge-why-we-built-terrascale-wide-2" x1="0%" y1="0%" x2="100%" y2="0%">
		<stop offset="0%" stop-color="#ffffff" stop-opacity="0"/>
		<stop offset="50%" stop-color="#ffffff" stop-opacity="0.12"/>
		<stop offset="100%" stop-color="#ffffff" stop-opacity="0"/>
	</linearGradient>
	<pattern id="grid-why-we-built-terrascale-wide-2" width="133.33" height="90" patternUnits="userSpaceOnUse">
		<path d="M 133.33 0 L 0 0 0 90" fill="none" stroke="#93c5fd" stroke-opacity="0.08" stroke-width="1"/>
	</pattern>
</defs>
<title>why-we-built-terrascale wide variant 3</title>
<desc>Two dark structural plates split and rejoined by a precise electric seam, evoking a painful infrastructure redesign.</desc>

	<rect x="0" y="0" width="1600" height="900" fill="url(#bg-why-we-built-terrascale-wide-2)"/>
	<rect x="0" y="0" width="1600" height="900" fill="url(#glow-why-we-built-terrascale-wide-2)"/>
	<rect x="0" y="0" width="1600" height="900" fill="url(#grid-why-we-built-terrascale-wide-2)" opacity="0.42"/>
	<rect x="31.5" y="31.5" width="1537" height="837" rx="28.35" fill="none" stroke="rgba(148,163,184,0.16)" stroke-width="1.5"/>
	<line x1="31.5" y1="53.55" x2="31.5" y2="31.5" stroke="rgba(255,255,255,0.24)" stroke-width="2"/>
	<line x1="31.5" y1="31.5" x2="53.55" y2="31.5" stroke="rgba(255,255,255,0.24)" stroke-width="2"/>
	<line x1="1546.45" y1="31.5" x2="1568.5" y2="31.5" stroke="rgba(255,255,255,0.24)" stroke-width="2"/>
	<line x1="1568.5" y1="31.5" x2="1568.5" y2="53.55" stroke="rgba(255,255,255,0.24)" stroke-width="2"/>
	<line x1="31.5" y1="846.45" x2="31.5" y2="868.5" stroke="rgba(255,255,255,0.24)" stroke-width="2"/>
	<line x1="31.5" y1="868.5" x2="53.55" y2="868.5" stroke="rgba(255,255,255,0.24)" stroke-width="2"/>
	<line x1="1546.45" y1="868.5" x2="1568.5" y2="868.5" stroke="rgba(255,255,255,0.24)" stroke-width="2"/>
	<line x1="1568.5" y1="846.45" x2="1568.5" y2="868.5" stroke="rgba(255,255,255,0.24)" stroke-width="2"/>
	<rect x="45.68" y="45.68" width="1508.65" height="808.65" rx="23.63" fill="none" stroke="url(#edge-why-we-built-terrascale-wide-2)" stroke-width="1"/>

<g><circle cx="1110.39" cy="325.6" r="1.08" fill="#38bdf8" opacity="0.15"/><circle cx="588.85" cy="578.05" r="1.96" fill="#f8fafc" opacity="0.14"/><circle cx="133.44" cy="22.6" r="2.38" fill="#f8fafc" opacity="0.15"/><circle cx="993.3" cy="628.98" r="2.11" fill="#38bdf8" opacity="0.12"/><circle cx="495.52" cy="896.49" r="2.19" fill="#f8fafc" opacity="0.19"/><circle cx="361.89" cy="710.12" r="2.17" fill="#f8fafc" opacity="0.11"/><circle cx="233.91" cy="0.69" r="2.14" fill="#38bdf8" opacity="0.18"/><circle cx="443.65" cy="282.36" r="2.33" fill="#f8fafc" opacity="0.23"/><circle cx="1243.89" cy="561.3" r="1.13" fill="#f8fafc" opacity="0.12"/><circle cx="552.72" cy="434.9" r="1.83" fill="#38bdf8" opacity="0.2"/><circle cx="438.26" cy="665.77" r="1.85" fill="#f8fafc" opacity="0.1"/><circle cx="1405.91" cy="459.68" r="1.3" fill="#f8fafc" opacity="0.24"/><circle cx="638.75" cy="157.4" r="2.79" fill="#38bdf8" opacity="0.12"/><circle cx="53.9" cy="261.53" r="2.39" fill="#f8fafc" opacity="0.23"/><circle cx="593.81" cy="482.2" r="1.48" fill="#f8fafc" opacity="0.13"/><circle cx="1206.24" cy="385.58" r="1.62" fill="#38bdf8" opacity="0.19"/></g>
<g>
<polygon points="192 144 830 180 854 162 924 297 884 450 954 603 918 747 288 774" fill="rgba(10,17,28,0.72)" stroke="rgba(255,255,255,0.08)" stroke-width="1.5"/><polygon points="1084 162 1392 126 1312 774 954 747 990 603 920 450 960 297 890 162" fill="rgba(10,17,28,0.72)" stroke="rgba(255,255,255,0.08)" stroke-width="1.5"/><polyline points="872 162 942 297 902 450 972 603 936 747" fill="none" stroke="#38bdf8" stroke-width="4" stroke-linecap="round" stroke-linejoin="round" opacity="0.92"/><polyline points="890 162 924 297 920 450 954 603 954 747" fill="none" stroke="#93c5fd" stroke-width="1.5" stroke-dasharray="10 10" stroke-opacity="0.48"/>
</g>
</svg>