<?xml version="1.0" encoding="UTF-8"?>
<svg xmlns="http://www.w3.org/2000/svg" width="1600" height="900" viewBox="0 0 1600 900" fill="none">

<defs>
	<linearGradient id="bg-understanding-partition-keys-wide-3" x1="0%" y1="0%" x2="100%" y2="100%">
		<stop offset="0%" stop-color="#04070c"/>
		<stop offset="42%" stop-color="#07111d"/>
		<stop offset="100%" stop-color="#030509"/>
	</linearGradient>
	<radialGradient id="glow-understanding-partition-keys-wide-3" cx="0.35" cy="0.5" r="0.48">
		<stop offset="0%" stop-color="#7dd3fc" stop-opacity="0.18"/>
		<stop offset="48%" stop-color="#60a5fa" stop-opacity="0.08"/>
		<stop offset="100%" stop-color="#05070c" stop-opacity="0"/>
	</radialGradient>
	<linearGradient id="panel-understanding-partition-keys-wide-3" x1="0%" y1="0%" x2="100%" y2="100%">
		<stop offset="0%" stop-color="#0d1726" stop-opacity="0.94"/>
		<stop offset="100%" stop-color="#08101b" stop-opacity="0.58"/>
	</linearGradient>
	<linearGradient id="edge-understanding-partition-keys-wide-3" x1="0%" y1="0%" x2="100%" y2="0%">
		<stop offset="0%" stop-color="#ffffff" stop-opacity="0"/>
		<stop offset="50%" stop-color="#ffffff" stop-opacity="0.12"/>
		<stop offset="100%" stop-color="#ffffff" stop-opacity="0"/>
	</linearGradient>
	<pattern id="grid-understanding-partition-keys-wide-3" width="133.33" height="90" patternUnits="userSpaceOnUse">
		<path d="M 133.33 0 L 0 0 0 90" fill="none" stroke="#7dd3fc" stroke-opacity="0.08" stroke-width="1"/>
	</pattern>
</defs>
<title>understanding-partition-keys wide variant 4</title>
<desc>Ordered shelves and compartments with one highlighted retrieval path, visualizing partition and sort key logic.</desc>

	<rect x="0" y="0" width="1600" height="900" fill="url(#bg-understanding-partition-keys-wide-3)"/>
	<rect x="0" y="0" width="1600" height="900" fill="url(#glow-understanding-partition-keys-wide-3)"/>
	<rect x="0" y="0" width="1600" height="900" fill="url(#grid-understanding-partition-keys-wide-3)" opacity="0.42"/>
	<rect x="31.5" y="31.5" width="1537" height="837" rx="28.35" fill="none" stroke="rgba(148,163,184,0.16)" stroke-width="1.5"/>
	<line x1="31.5" y1="53.55" x2="31.5" y2="31.5" stroke="rgba(255,255,255,0.24)" stroke-width="2"/>
	<line x1="31.5" y1="31.5" x2="53.55" y2="31.5" stroke="rgba(255,255,255,0.24)" stroke-width="2"/>
	<line x1="1546.45" y1="31.5" x2="1568.5" y2="31.5" stroke="rgba(255,255,255,0.24)" stroke-width="2"/>
	<line x1="1568.5" y1="31.5" x2="1568.5" y2="53.55" stroke="rgba(255,255,255,0.24)" stroke-width="2"/>
	<line x1="31.5" y1="846.45" x2="31.5" y2="868.5" stroke="rgba(255,255,255,0.24)" stroke-width="2"/>
	<line x1="31.5" y1="868.5" x2="53.55" y2="868.5" stroke="rgba(255,255,255,0.24)" stroke-width="2"/>
	<line x1="1546.45" y1="868.5" x2="1568.5" y2="868.5" stroke="rgba(255,255,255,0.24)" stroke-width="2"/>
	<line x1="1568.5" y1="846.45" x2="1568.5" y2="868.5" stroke="rgba(255,255,255,0.24)" stroke-width="2"/>
	<rect x="45.68" y="45.68" width="1508.65" height="808.65" rx="23.63" fill="none" stroke="url(#edge-understanding-partition-keys-wide-3)" stroke-width="1"/>

<g><circle cx="298.9" cy="789.13" r="2.67" fill="#60a5fa" opacity="0.23"/><circle cx="1146.27" cy="869.04" r="2.43" fill="#f8fafc" opacity="0.12"/><circle cx="739.18" cy="617.52" r="2.55" fill="#f8fafc" opacity="0.22"/><circle cx="949.07" cy="369.29" r="2.53" fill="#60a5fa" opacity="0.1"/><circle cx="598.3" cy="11.83" r="2.26" fill="#f8fafc" opacity="0.15"/><circle cx="229.21" cy="640.36" r="1.88" fill="#f8fafc" opacity="0.23"/><circle cx="220.86" cy="893.74" r="1.33" fill="#60a5fa" opacity="0.14"/><circle cx="975.56" cy="829.81" r="2.66" fill="#f8fafc" opacity="0.12"/><circle cx="565.68" cy="469.37" r="1.06" fill="#f8fafc" opacity="0.2"/><circle cx="934.11" cy="173.83" r="2.66" fill="#60a5fa" opacity="0.21"/><circle cx="415.6" cy="484.52" r="2.41" fill="#f8fafc" opacity="0.17"/><circle cx="1400.37" cy="436.3" r="2.34" fill="#f8fafc" opacity="0.23"/><circle cx="24.43" cy="391.89" r="2.11" fill="#60a5fa" opacity="0.16"/><circle cx="610.04" cy="589.23" r="2.14" fill="#f8fafc" opacity="0.24"/><circle cx="898.4" cy="899.54" r="2.38" fill="#f8fafc" opacity="0.12"/><circle cx="996.74" cy="501.91" r="1.73" fill="#60a5fa" opacity="0.14"/></g>
<g>
<rect x="288" y="198" width="1088" height="504" rx="28" fill="rgba(9,16,26,0.55)" stroke="rgba(255,255,255,0.1)" stroke-width="1.5"/><line x1="505.6" y1="198" x2="505.6" y2="702" stroke="rgba(148,163,184,0.22)" stroke-width="1"/><line x1="723.2" y1="198" x2="723.2" y2="702" stroke="rgba(148,163,184,0.22)" stroke-width="1"/><line x1="940.8" y1="198" x2="940.8" y2="702" stroke="rgba(148,163,184,0.22)" stroke-width="1"/><line x1="1158.4" y1="198" x2="1158.4" y2="702" stroke="rgba(148,163,184,0.22)" stroke-width="1"/><line x1="288" y1="324" x2="1376" y2="324" stroke="rgba(148,163,184,0.22)" stroke-width="1"/><line x1="288" y1="450" x2="1376" y2="450" stroke="rgba(148,163,184,0.22)" stroke-width="1"/><line x1="288" y1="576" x2="1376" y2="576" stroke="rgba(148,163,184,0.22)" stroke-width="1"/><polyline points="396.8 298.8 396.8 560.88 864.64 560.88 864.64 409.68 1201.92 409.68" fill="none" stroke="#60a5fa" stroke-width="4" stroke-linecap="round" stroke-linejoin="round"/><circle cx="396.8" cy="298.8" r="6" fill="#7dd3fc" opacity="0.95"/><circle cx="396.8" cy="560.88" r="6" fill="#7dd3fc" opacity="0.95"/><circle cx="864.64" cy="560.88" r="6" fill="#7dd3fc" opacity="0.95"/><circle cx="864.64" cy="409.68" r="6" fill="#7dd3fc" opacity="0.95"/><circle cx="1201.92" cy="409.68" r="8" fill="#60a5fa" opacity="0.95"/>
</g>
</svg>