<?xml version="1.0" encoding="UTF-8"?>
<svg xmlns="http://www.w3.org/2000/svg" width="1600" height="900" viewBox="0 0 1600 900" fill="none">

<defs>
	<linearGradient id="bg-understanding-partition-keys-wide-1" x1="0%" y1="0%" x2="100%" y2="100%">
		<stop offset="0%" stop-color="#04070c"/>
		<stop offset="42%" stop-color="#07111d"/>
		<stop offset="100%" stop-color="#030509"/>
	</linearGradient>
	<radialGradient id="glow-understanding-partition-keys-wide-1" cx="0.78" cy="0.24" r="0.48">
		<stop offset="0%" stop-color="#7dd3fc" stop-opacity="0.18"/>
		<stop offset="48%" stop-color="#60a5fa" stop-opacity="0.08"/>
		<stop offset="100%" stop-color="#05070c" stop-opacity="0"/>
	</radialGradient>
	<linearGradient id="panel-understanding-partition-keys-wide-1" x1="0%" y1="0%" x2="100%" y2="100%">
		<stop offset="0%" stop-color="#0d1726" stop-opacity="0.94"/>
		<stop offset="100%" stop-color="#08101b" stop-opacity="0.58"/>
	</linearGradient>
	<linearGradient id="edge-understanding-partition-keys-wide-1" x1="0%" y1="0%" x2="100%" y2="0%">
		<stop offset="0%" stop-color="#ffffff" stop-opacity="0"/>
		<stop offset="50%" stop-color="#ffffff" stop-opacity="0.12"/>
		<stop offset="100%" stop-color="#ffffff" stop-opacity="0"/>
	</linearGradient>
	<pattern id="grid-understanding-partition-keys-wide-1" width="133.33" height="90" patternUnits="userSpaceOnUse">
		<path d="M 133.33 0 L 0 0 0 90" fill="none" stroke="#7dd3fc" stroke-opacity="0.08" stroke-width="1"/>
	</pattern>
</defs>
<title>understanding-partition-keys wide variant 2</title>
<desc>Ordered shelves and compartments with one highlighted retrieval path, visualizing partition and sort key logic.</desc>

	<rect x="0" y="0" width="1600" height="900" fill="url(#bg-understanding-partition-keys-wide-1)"/>
	<rect x="0" y="0" width="1600" height="900" fill="url(#glow-understanding-partition-keys-wide-1)"/>
	<rect x="0" y="0" width="1600" height="900" fill="url(#grid-understanding-partition-keys-wide-1)" opacity="0.42"/>
	<rect x="31.5" y="31.5" width="1537" height="837" rx="28.35" fill="none" stroke="rgba(148,163,184,0.16)" stroke-width="1.5"/>
	<line x1="31.5" y1="53.55" x2="31.5" y2="31.5" stroke="rgba(255,255,255,0.24)" stroke-width="2"/>
	<line x1="31.5" y1="31.5" x2="53.55" y2="31.5" stroke="rgba(255,255,255,0.24)" stroke-width="2"/>
	<line x1="1546.45" y1="31.5" x2="1568.5" y2="31.5" stroke="rgba(255,255,255,0.24)" stroke-width="2"/>
	<line x1="1568.5" y1="31.5" x2="1568.5" y2="53.55" stroke="rgba(255,255,255,0.24)" stroke-width="2"/>
	<line x1="31.5" y1="846.45" x2="31.5" y2="868.5" stroke="rgba(255,255,255,0.24)" stroke-width="2"/>
	<line x1="31.5" y1="868.5" x2="53.55" y2="868.5" stroke="rgba(255,255,255,0.24)" stroke-width="2"/>
	<line x1="1546.45" y1="868.5" x2="1568.5" y2="868.5" stroke="rgba(255,255,255,0.24)" stroke-width="2"/>
	<line x1="1568.5" y1="846.45" x2="1568.5" y2="868.5" stroke="rgba(255,255,255,0.24)" stroke-width="2"/>
	<rect x="45.68" y="45.68" width="1508.65" height="808.65" rx="23.63" fill="none" stroke="url(#edge-understanding-partition-keys-wide-1)" stroke-width="1"/>

<g><circle cx="1350.81" cy="554.6" r="1.73" fill="#60a5fa" opacity="0.2"/><circle cx="1338.2" cy="402.29" r="2.07" fill="#f8fafc" opacity="0.12"/><circle cx="1588.61" cy="36.31" r="1.74" fill="#f8fafc" opacity="0.17"/><circle cx="877.48" cy="3.33" r="1.29" fill="#60a5fa" opacity="0.11"/><circle cx="1001.71" cy="391.25" r="1.47" fill="#f8fafc" opacity="0.11"/><circle cx="1023.4" cy="424.74" r="2.28" fill="#f8fafc" opacity="0.2"/><circle cx="222.58" cy="282.29" r="2.34" fill="#60a5fa" opacity="0.13"/><circle cx="135.69" cy="247.03" r="1.92" fill="#f8fafc" opacity="0.13"/><circle cx="332.64" cy="625.79" r="2.33" fill="#f8fafc" opacity="0.23"/><circle cx="1137.35" cy="576.21" r="1.27" fill="#60a5fa" opacity="0.14"/><circle cx="176.79" cy="280.66" r="1.33" fill="#f8fafc" opacity="0.15"/><circle cx="33.93" cy="159.59" r="1.93" fill="#f8fafc" opacity="0.17"/><circle cx="499.88" cy="103.05" r="1.33" fill="#60a5fa" opacity="0.18"/><circle cx="841.36" cy="59.64" r="2.25" fill="#f8fafc" opacity="0.08"/><circle cx="829.22" cy="369.24" r="1.59" fill="#f8fafc" opacity="0.2"/><circle cx="1001.19" cy="253.43" r="1.92" fill="#60a5fa" opacity="0.12"/></g>
<g>
<rect x="192" y="126" width="1088" height="504" rx="28" fill="rgba(9,16,26,0.55)" stroke="rgba(255,255,255,0.1)" stroke-width="1.5"/><line x1="409.6" y1="126" x2="409.6" y2="630" stroke="rgba(148,163,184,0.22)" stroke-width="1"/><line x1="627.2" y1="126" x2="627.2" y2="630" stroke="rgba(148,163,184,0.22)" stroke-width="1"/><line x1="844.8" y1="126" x2="844.8" y2="630" stroke="rgba(148,163,184,0.22)" stroke-width="1"/><line x1="1062.4" y1="126" x2="1062.4" y2="630" stroke="rgba(148,163,184,0.22)" stroke-width="1"/><line x1="192" y1="252" x2="1280" y2="252" stroke="rgba(148,163,184,0.22)" stroke-width="1"/><line x1="192" y1="378" x2="1280" y2="378" stroke="rgba(148,163,184,0.22)" stroke-width="1"/><line x1="192" y1="504" x2="1280" y2="504" stroke="rgba(148,163,184,0.22)" stroke-width="1"/><polyline points="300.8 226.8 300.8 488.88 768.64 488.88 768.64 337.68 1105.92 337.68" fill="none" stroke="#60a5fa" stroke-width="4" stroke-linecap="round" stroke-linejoin="round"/><circle cx="300.8" cy="226.8" r="6" fill="#7dd3fc" opacity="0.95"/><circle cx="300.8" cy="488.88" r="6" fill="#7dd3fc" opacity="0.95"/><circle cx="768.64" cy="488.88" r="6" fill="#7dd3fc" opacity="0.95"/><circle cx="768.64" cy="337.68" r="6" fill="#7dd3fc" opacity="0.95"/><circle cx="1105.92" cy="337.68" r="8" fill="#60a5fa" opacity="0.95"/>
</g>
</svg>