<?xml version="1.0" encoding="UTF-8"?>
<svg xmlns="http://www.w3.org/2000/svg" width="1200" height="1200" viewBox="0 0 1200 1200" fill="none">

<defs>
	<linearGradient id="bg-understanding-partition-keys-square-2" x1="0%" y1="0%" x2="100%" y2="100%">
		<stop offset="0%" stop-color="#04070c"/>
		<stop offset="42%" stop-color="#07111d"/>
		<stop offset="100%" stop-color="#030509"/>
	</linearGradient>
	<radialGradient id="glow-understanding-partition-keys-square-2" cx="0.52" cy="0.7" r="0.48">
		<stop offset="0%" stop-color="#7dd3fc" stop-opacity="0.18"/>
		<stop offset="48%" stop-color="#60a5fa" stop-opacity="0.08"/>
		<stop offset="100%" stop-color="#05070c" stop-opacity="0"/>
	</radialGradient>
	<linearGradient id="panel-understanding-partition-keys-square-2" x1="0%" y1="0%" x2="100%" y2="100%">
		<stop offset="0%" stop-color="#0d1726" stop-opacity="0.94"/>
		<stop offset="100%" stop-color="#08101b" stop-opacity="0.58"/>
	</linearGradient>
	<linearGradient id="edge-understanding-partition-keys-square-2" x1="0%" y1="0%" x2="100%" y2="0%">
		<stop offset="0%" stop-color="#ffffff" stop-opacity="0"/>
		<stop offset="50%" stop-color="#ffffff" stop-opacity="0.12"/>
		<stop offset="100%" stop-color="#ffffff" stop-opacity="0"/>
	</linearGradient>
	<pattern id="grid-understanding-partition-keys-square-2" width="100" height="120" patternUnits="userSpaceOnUse">
		<path d="M 100 0 L 0 0 0 120" fill="none" stroke="#7dd3fc" stroke-opacity="0.08" stroke-width="1"/>
	</pattern>
</defs>
<title>understanding-partition-keys square variant 3</title>
<desc>Ordered shelves and compartments with one highlighted retrieval path, visualizing partition and sort key logic.</desc>

	<rect x="0" y="0" width="1200" height="1200" fill="url(#bg-understanding-partition-keys-square-2)"/>
	<rect x="0" y="0" width="1200" height="1200" fill="url(#glow-understanding-partition-keys-square-2)"/>
	<rect x="0" y="0" width="1200" height="1200" fill="url(#grid-understanding-partition-keys-square-2)" opacity="0.42"/>
	<rect x="42" y="42" width="1116" height="1116" rx="37.8" fill="none" stroke="rgba(148,163,184,0.16)" stroke-width="1.5"/>
	<line x1="42" y1="71.4" x2="42" y2="42" stroke="rgba(255,255,255,0.24)" stroke-width="2"/>
	<line x1="42" y1="42" x2="71.4" y2="42" stroke="rgba(255,255,255,0.24)" stroke-width="2"/>
	<line x1="1128.6" y1="42" x2="1158" y2="42" stroke="rgba(255,255,255,0.24)" stroke-width="2"/>
	<line x1="1158" y1="42" x2="1158" y2="71.4" stroke="rgba(255,255,255,0.24)" stroke-width="2"/>
	<line x1="42" y1="1128.6" x2="42" y2="1158" stroke="rgba(255,255,255,0.24)" stroke-width="2"/>
	<line x1="42" y1="1158" x2="71.4" y2="1158" stroke="rgba(255,255,255,0.24)" stroke-width="2"/>
	<line x1="1128.6" y1="1158" x2="1158" y2="1158" stroke="rgba(255,255,255,0.24)" stroke-width="2"/>
	<line x1="1158" y1="1128.6" x2="1158" y2="1158" stroke="rgba(255,255,255,0.24)" stroke-width="2"/>
	<rect x="60.9" y="60.9" width="1078.2" height="1078.2" rx="31.5" fill="none" stroke="url(#edge-understanding-partition-keys-square-2)" stroke-width="1"/>

<g><circle cx="635.98" cy="899.52" r="2.01" fill="#60a5fa" opacity="0.19"/><circle cx="994.28" cy="577.24" r="2.28" fill="#f8fafc" opacity="0.11"/><circle cx="719.72" cy="387.83" r="1.2" fill="#f8fafc" opacity="0.09"/><circle cx="163.55" cy="905.43" r="2.43" fill="#60a5fa" opacity="0.08"/><circle cx="267.95" cy="698.04" r="1.43" fill="#f8fafc" opacity="0.21"/><circle cx="489.97" cy="127.11" r="1.15" fill="#f8fafc" opacity="0.12"/><circle cx="653.58" cy="1140.93" r="2.17" fill="#60a5fa" opacity="0.13"/><circle cx="505.58" cy="689.48" r="1.11" fill="#f8fafc" opacity="0.17"/><circle cx="442.92" cy="82.16" r="1.52" fill="#f8fafc" opacity="0.24"/><circle cx="104.94" cy="59.75" r="2.73" fill="#60a5fa" opacity="0.24"/><circle cx="23.06" cy="399.26" r="1.36" fill="#f8fafc" opacity="0.19"/><circle cx="643.17" cy="115.44" r="1.98" fill="#f8fafc" opacity="0.13"/><circle cx="989.84" cy="516.53" r="1.02" fill="#60a5fa" opacity="0.08"/><circle cx="1141.15" cy="742.47" r="2.04" fill="#f8fafc" opacity="0.15"/><circle cx="460.87" cy="1138.79" r="2.18" fill="#f8fafc" opacity="0.22"/><circle cx="593.2" cy="1174.85" r="1.6" fill="#60a5fa" opacity="0.23"/></g>
<g>
<rect x="240" y="240" width="816" height="672" rx="28" fill="rgba(9,16,26,0.55)" stroke="rgba(255,255,255,0.1)" stroke-width="1.5"/><line x1="403.2" y1="240" x2="403.2" y2="912" stroke="rgba(148,163,184,0.22)" stroke-width="1"/><line x1="566.4" y1="240" x2="566.4" y2="912" stroke="rgba(148,163,184,0.22)" stroke-width="1"/><line x1="729.6" y1="240" x2="729.6" y2="912" stroke="rgba(148,163,184,0.22)" stroke-width="1"/><line x1="892.8" y1="240" x2="892.8" y2="912" stroke="rgba(148,163,184,0.22)" stroke-width="1"/><line x1="240" y1="408" x2="1056" y2="408" stroke="rgba(148,163,184,0.22)" stroke-width="1"/><line x1="240" y1="576" x2="1056" y2="576" stroke="rgba(148,163,184,0.22)" stroke-width="1"/><line x1="240" y1="744" x2="1056" y2="744" stroke="rgba(148,163,184,0.22)" stroke-width="1"/><polyline points="321.6 374.4 321.6 723.84 672.48 723.84 672.48 522.24 925.44 522.24" fill="none" stroke="#60a5fa" stroke-width="4" stroke-linecap="round" stroke-linejoin="round"/><circle cx="321.6" cy="374.4" r="6" fill="#7dd3fc" opacity="0.95"/><circle cx="321.6" cy="723.84" r="6" fill="#7dd3fc" opacity="0.95"/><circle cx="672.48" cy="723.84" r="6" fill="#7dd3fc" opacity="0.95"/><circle cx="672.48" cy="522.24" r="6" fill="#7dd3fc" opacity="0.95"/><circle cx="925.44" cy="522.24" r="8" fill="#60a5fa" opacity="0.95"/>
</g>
</svg>