<?xml version="1.0" encoding="UTF-8"?>
<svg xmlns="http://www.w3.org/2000/svg" width="1200" height="1200" viewBox="0 0 1200 1200" fill="none">

<defs>
	<linearGradient id="bg-understanding-partition-keys-square-1" x1="0%" y1="0%" x2="100%" y2="100%">
		<stop offset="0%" stop-color="#04070c"/>
		<stop offset="42%" stop-color="#07111d"/>
		<stop offset="100%" stop-color="#030509"/>
	</linearGradient>
	<radialGradient id="glow-understanding-partition-keys-square-1" cx="0.78" cy="0.24" r="0.48">
		<stop offset="0%" stop-color="#7dd3fc" stop-opacity="0.18"/>
		<stop offset="48%" stop-color="#60a5fa" stop-opacity="0.08"/>
		<stop offset="100%" stop-color="#05070c" stop-opacity="0"/>
	</radialGradient>
	<linearGradient id="panel-understanding-partition-keys-square-1" x1="0%" y1="0%" x2="100%" y2="100%">
		<stop offset="0%" stop-color="#0d1726" stop-opacity="0.94"/>
		<stop offset="100%" stop-color="#08101b" stop-opacity="0.58"/>
	</linearGradient>
	<linearGradient id="edge-understanding-partition-keys-square-1" x1="0%" y1="0%" x2="100%" y2="0%">
		<stop offset="0%" stop-color="#ffffff" stop-opacity="0"/>
		<stop offset="50%" stop-color="#ffffff" stop-opacity="0.12"/>
		<stop offset="100%" stop-color="#ffffff" stop-opacity="0"/>
	</linearGradient>
	<pattern id="grid-understanding-partition-keys-square-1" width="100" height="120" patternUnits="userSpaceOnUse">
		<path d="M 100 0 L 0 0 0 120" fill="none" stroke="#7dd3fc" stroke-opacity="0.08" stroke-width="1"/>
	</pattern>
</defs>
<title>understanding-partition-keys square variant 2</title>
<desc>Ordered shelves and compartments with one highlighted retrieval path, visualizing partition and sort key logic.</desc>

	<rect x="0" y="0" width="1200" height="1200" fill="url(#bg-understanding-partition-keys-square-1)"/>
	<rect x="0" y="0" width="1200" height="1200" fill="url(#glow-understanding-partition-keys-square-1)"/>
	<rect x="0" y="0" width="1200" height="1200" fill="url(#grid-understanding-partition-keys-square-1)" opacity="0.42"/>
	<rect x="42" y="42" width="1116" height="1116" rx="37.8" fill="none" stroke="rgba(148,163,184,0.16)" stroke-width="1.5"/>
	<line x1="42" y1="71.4" x2="42" y2="42" stroke="rgba(255,255,255,0.24)" stroke-width="2"/>
	<line x1="42" y1="42" x2="71.4" y2="42" stroke="rgba(255,255,255,0.24)" stroke-width="2"/>
	<line x1="1128.6" y1="42" x2="1158" y2="42" stroke="rgba(255,255,255,0.24)" stroke-width="2"/>
	<line x1="1158" y1="42" x2="1158" y2="71.4" stroke="rgba(255,255,255,0.24)" stroke-width="2"/>
	<line x1="42" y1="1128.6" x2="42" y2="1158" stroke="rgba(255,255,255,0.24)" stroke-width="2"/>
	<line x1="42" y1="1158" x2="71.4" y2="1158" stroke="rgba(255,255,255,0.24)" stroke-width="2"/>
	<line x1="1128.6" y1="1158" x2="1158" y2="1158" stroke="rgba(255,255,255,0.24)" stroke-width="2"/>
	<line x1="1158" y1="1128.6" x2="1158" y2="1158" stroke="rgba(255,255,255,0.24)" stroke-width="2"/>
	<rect x="60.9" y="60.9" width="1078.2" height="1078.2" rx="31.5" fill="none" stroke="url(#edge-understanding-partition-keys-square-1)" stroke-width="1"/>

<g><circle cx="236.51" cy="941.55" r="2.5" fill="#60a5fa" opacity="0.08"/><circle cx="933.47" cy="643.91" r="1.89" fill="#f8fafc" opacity="0.2"/><circle cx="427" cy="671.39" r="1.67" fill="#f8fafc" opacity="0.18"/><circle cx="1042.19" cy="300.28" r="1.58" fill="#60a5fa" opacity="0.15"/><circle cx="545.24" cy="607.42" r="1.83" fill="#f8fafc" opacity="0.19"/><circle cx="605.07" cy="46.88" r="1.09" fill="#f8fafc" opacity="0.08"/><circle cx="575.42" cy="859.25" r="1.19" fill="#60a5fa" opacity="0.1"/><circle cx="927.91" cy="646.98" r="1.59" fill="#f8fafc" opacity="0.22"/><circle cx="914.74" cy="1155.09" r="1.44" fill="#f8fafc" opacity="0.14"/><circle cx="928.27" cy="969.11" r="1.94" fill="#60a5fa" opacity="0.09"/><circle cx="268.66" cy="459.61" r="2" fill="#f8fafc" opacity="0.14"/><circle cx="542.75" cy="484.29" r="1.92" fill="#f8fafc" opacity="0.17"/><circle cx="1141.11" cy="1174.08" r="1.83" fill="#60a5fa" opacity="0.11"/><circle cx="957.74" cy="293.69" r="2.71" fill="#f8fafc" opacity="0.17"/><circle cx="430.13" cy="415.98" r="1.05" fill="#f8fafc" opacity="0.23"/><circle cx="1139.85" cy="1110.95" r="1.24" fill="#60a5fa" opacity="0.08"/></g>
<g>
<rect x="144" y="168" width="816" height="672" rx="28" fill="rgba(9,16,26,0.55)" stroke="rgba(255,255,255,0.1)" stroke-width="1.5"/><line x1="307.2" y1="168" x2="307.2" y2="840" stroke="rgba(148,163,184,0.22)" stroke-width="1"/><line x1="470.4" y1="168" x2="470.4" y2="840" stroke="rgba(148,163,184,0.22)" stroke-width="1"/><line x1="633.6" y1="168" x2="633.6" y2="840" stroke="rgba(148,163,184,0.22)" stroke-width="1"/><line x1="796.8" y1="168" x2="796.8" y2="840" stroke="rgba(148,163,184,0.22)" stroke-width="1"/><line x1="144" y1="336" x2="960" y2="336" stroke="rgba(148,163,184,0.22)" stroke-width="1"/><line x1="144" y1="504" x2="960" y2="504" stroke="rgba(148,163,184,0.22)" stroke-width="1"/><line x1="144" y1="672" x2="960" y2="672" stroke="rgba(148,163,184,0.22)" stroke-width="1"/><polyline points="225.6 302.4 225.6 651.84 576.48 651.84 576.48 450.24 829.44 450.24" fill="none" stroke="#60a5fa" stroke-width="4" stroke-linecap="round" stroke-linejoin="round"/><circle cx="225.6" cy="302.4" r="6" fill="#7dd3fc" opacity="0.95"/><circle cx="225.6" cy="651.84" r="6" fill="#7dd3fc" opacity="0.95"/><circle cx="576.48" cy="651.84" r="6" fill="#7dd3fc" opacity="0.95"/><circle cx="576.48" cy="450.24" r="6" fill="#7dd3fc" opacity="0.95"/><circle cx="829.44" cy="450.24" r="8" fill="#60a5fa" opacity="0.95"/>
</g>
</svg>